<?xml version="1.0" encoding="utf-8"?>
<!-- Generator: Adobe Illustrator 19.0.0, SVG Export Plug-In . SVG Version: 6.00 Build 0)  -->
<svg version="1.1" id="Capa_1" xmlns="http://www.w3.org/2000/svg" xmlns:xlink="http://www.w3.org/1999/xlink" x="0px" y="0px"
	 viewBox="-79 0 480 480" style="enable-background:new -79 0 480 480;" xml:space="preserve">
<style type="text/css">
	.st0{fill:#F7F4FF;}
</style>
<g>
	<g>
		<g>
			<rect x="89" y="160" class="st0" width="16" height="16"/>
		</g>
	</g>
	<g>
		<g>
			<rect x="89" y="192" class="st0" width="16" height="16"/>
		</g>
	</g>
	<g>
		<g>
			<rect x="89" y="224" class="st0" width="16" height="16"/>
		</g>
	</g>
	<g>
		<g>
			<rect x="89" y="256" class="st0" width="16" height="16"/>
		</g>
	</g>
	<g>
		<g>
			<rect x="121" y="160" class="st0" width="16" height="16"/>
		</g>
	</g>
	<g>
		<g>
			<rect x="121" y="192" class="st0" width="16" height="16"/>
		</g>
	</g>
	<g>
		<g>
			<rect x="121" y="224" class="st0" width="16" height="16"/>
		</g>
	</g>
	<g>
		<g>
			<rect x="121" y="256" class="st0" width="16" height="16"/>
		</g>
	</g>
	<g>
		<g>
			<rect x="153" y="160" class="st0" width="16" height="16"/>
		</g>
	</g>
	<g>
		<g>
			<rect x="153" y="192" class="st0" width="16" height="16"/>
		</g>
	</g>
	<g>
		<g>
			<rect x="153" y="224" class="st0" width="16" height="16"/>
		</g>
	</g>
	<g>
		<g>
			<rect x="153" y="256" class="st0" width="16" height="16"/>
		</g>
	</g>
	<g>
		<g>
			<rect x="185" y="160" class="st0" width="16" height="16"/>
		</g>
	</g>
	<g>
		<g>
			<rect x="121" y="128" class="st0" width="16" height="16"/>
		</g>
	</g>
	<g>
		<g>
			<rect x="153" y="128" class="st0" width="16" height="16"/>
		</g>
	</g>
	<g>
		<g>
			<rect x="185" y="128" class="st0" width="16" height="16"/>
		</g>
	</g>
	<g>
		<g>
			<rect x="185" y="192" class="st0" width="16" height="16"/>
		</g>
	</g>
	<g>
		<g>
			<rect x="185" y="224" class="st0" width="16" height="16"/>
		</g>
	</g>
	<g>
		<g>
			<rect x="185" y="256" class="st0" width="16" height="16"/>
		</g>
	</g>
	<g>
		<g>
			<rect x="217" y="160" class="st0" width="16" height="16"/>
		</g>
	</g>
	<g>
		<g>
			<rect x="217" y="192" class="st0" width="16" height="16"/>
		</g>
	</g>
	<g>
		<g>
			<rect x="217" y="224" class="st0" width="16" height="16"/>
		</g>
	</g>
	<g>
		<g>
			<rect x="217" y="256" class="st0" width="16" height="16"/>
		</g>
	</g>
	<g>
		<g>
			<path class="st0" d="M393,120L393,120H273V8c0-4.4-3.6-8-8-8l0,0H57c-4.4,0-8,3.6-8,8l0,0v112H-71c-4.4,0-8,3.6-8,8l0,0v288
				c0,4.4,3.6,8,8,8l0,0h16.7c-0.5,2.6-0.7,5.3-0.7,8v40c0,4.4,3.6,8,8,8l0,0h416c4.4,0,8-3.6,8-8l0,0v-40c0-2.7-0.3-5.4-0.7-8H393
				c4.4,0,8-3.6,8-8l0,0V128C401,123.6,397.4,120,393,120z M265,344c0,8.8-7.2,16-16,16s-16-7.2-16-16s7.2-16,16-16
				S265,335.2,265,344z M73,328c8.8,0,16,7.2,16,16s-7.2,16-16,16s-16-7.2-16-16S64.2,328,73,328z M25,464h-64v-32
				c0-17.7,14.3-32,32-32s32,14.3,32,32V464z M-23,368c0-8.8,7.2-16,16-16s16,7.2,16,16s-7.2,16-16,16S-23,376.8-23,368z
				 M26.2,397.4c-3-2.9-6.4-5.4-10.1-7.4c12.2-12.8,11.7-33-1.1-45.2c-12.8-12.2-33-11.7-45.2,1.1c-11.8,12.4-11.8,31.8,0,44.2
				c-7.6,4.2-14,10.5-18.4,18H-63V136H49v187.1c-11,12.3-10.6,31,0.9,42.9C37.9,372.6,29.3,384.1,26.2,397.4z M105,464H41v-56
				c0-17.7,14.3-32,32-32s32,14.3,32,32V464z M201,464h-80v-56c0-22.1,17.9-40,40-40s40,17.9,40,40V464z M137,328
				c0-13.3,10.7-24,24-24s24,10.7,24,24s-10.7,24-24,24C147.8,352,137,341.2,137,328z M209.7,380.5c-5.4-9.4-13.3-17.1-23-22.2
				c16.9-14.2,19.1-39.5,4.8-56.4c-14.2-16.9-39.5-19.1-56.4-4.8c-16.9,14.2-19.1,39.5-4.8,56.4c1.5,1.7,3.1,3.4,4.8,4.8
				c-9.6,5-17.6,12.7-23,22.2c-4.2-6-9.7-11-16.1-14.5c12.3-12.5,12-32.7-0.5-44.9c-8.1-7.9-19.7-10.9-30.6-7.9V16h192v297.1
				c-2.6-0.7-5.3-1.1-8-1.1c-17.6,0-32,14.2-32,31.8c0,8.2,3.2,16.2,8.9,22.1C219.4,369.5,213.9,374.5,209.7,380.5z M281,432v32h-64
				v-56c0-17.7,14.3-32,32-32s32,14.3,32,32V432z M361,464h-64v-32c0-17.7,14.3-32,32-32s32,14.3,32,32V464z M313,368
				c0-8.8,7.2-16,16-16s16,7.2,16,16s-7.2,16-16,16S313,376.8,313,368z M385,408h-14.5c-4.4-7.6-10.7-13.8-18.4-18
				c12.2-12.8,11.7-33-1.1-45.2c-12.8-12.2-33-11.7-45.2,1.1c-11.8,12.4-11.8,31.8,0,44.2c-3.7,2-7,4.5-10.1,7.4
				c-3-13.4-11.6-24.8-23.6-31.4c11.5-11.9,11.8-30.6,0.9-42.9V136h112L385,408L385,408z"/>
		</g>
	</g>
	<g>
		<g>
			<rect x="297" y="184" class="st0" width="16" height="128"/>
		</g>
	</g>
	<g>
		<g>
			<rect x="345" y="184" class="st0" width="16" height="128"/>
		</g>
	</g>
	<g>
		<g>
			<rect x="-39" y="184" class="st0" width="16" height="128"/>
		</g>
	</g>
	<g>
		<g>
			<rect x="9" y="184" class="st0" width="16" height="128"/>
		</g>
	</g>
	<g>
		<g>
			<path class="st0" d="M209,32L209,32h-96c-4.4,0-8,3.6-8,8l0,0v64c0,4.4,3.6,8,8,8l0,0h96c4.4,0,8-3.6,8-8l0,0V40
				C217,35.6,213.4,32,209,32z M201,96h-80V48h80V96z"/>
		</g>
	</g>
</g>
</svg>
