<?xml version="1.0" encoding="utf-8"?>
<!-- Generator: Adobe Illustrator 19.0.0, SVG Export Plug-In . SVG Version: 6.00 Build 0)  -->
<svg version="1.1" id="Capa_1" xmlns="http://www.w3.org/2000/svg" xmlns:xlink="http://www.w3.org/1999/xlink" x="0px" y="0px"
	 viewBox="-144 66 350 350" style="enable-background:new -144 66 350 350;" xml:space="preserve">
<style type="text/css">
	.st0{fill:#232323;}
</style>
<g>
	<path class="st0" d="M31.1,237.2c38.9,0,70.5-38.3,70.5-85.6S91.2,66,31.1,66s-70.5,38.3-70.5,85.6S-7.8,237.2,31.1,237.2z"/>
	<path class="st0" d="M-102.1,367.9C-102.1,365-102.1,367-102.1,367.9L-102.1,367.9z"/>
	<path class="st0" d="M164.2,370.1C164.2,369.3,164.2,364.6,164.2,370.1L164.2,370.1z"/>
	<path class="st0" d="M163.9,364.4c-1.3-82.3-12.1-105.8-94.4-120.7c0,0-11.6,14.8-38.6,14.8s-38.6-14.8-38.6-14.8
		c-81.4,14.7-92.8,37.8-94.3,118c-0.1,6.5-0.2,6.9-0.2,6.1c0,1.4,0,4.1,0,8.7c0,0,19.6,39.5,133.1,39.5s133.1-39.5,133.1-39.5
		c0-3,0-5,0-6.4C164.2,370.6,164.1,369.7,163.9,364.4z"/>
</g>
</svg>
