<?xml version="1.0" encoding="utf-8"?>
<!-- Generator: Adobe Illustrator 19.0.0, SVG Export Plug-In . SVG Version: 6.00 Build 0)  -->
<svg version="1.1" id="Capa_1" xmlns="http://www.w3.org/2000/svg" xmlns:xlink="http://www.w3.org/1999/xlink" x="0px" y="0px"
	 viewBox="151 -151 350 350" style="enable-background:new 151 -151 350 350;" xml:space="preserve">
<style type="text/css">
	.st0{fill:#000;}
</style>
<g>
	<path class="st0" d="M326,20.2c38.9,0,70.5-38.3,70.5-85.6c0-47.3-10.4-85.6-70.5-85.6s-70.5,38.3-70.5,85.6
		C255.5-18.1,287.1,20.2,326,20.2z"/>
	<path class="st0" d="M192.9,150.9C192.9,148,192.9,150,192.9,150.9L192.9,150.9z"/>
	<path class="st0" d="M459.1,153.1C459.1,152.3,459.1,147.6,459.1,153.1L459.1,153.1z"/>
	<path class="st0" d="M458.9,147.4c-1.3-82.3-12.1-105.8-94.4-120.7c0,0-11.6,14.8-38.6,14.8s-38.6-14.8-38.6-14.8
		c-81.4,14.7-92.8,37.8-94.3,118c-0.1,6.5-0.2,6.9-0.2,6.1c0,1.4,0,4.1,0,8.7c0,0,19.6,39.5,133.1,39.5
		c113.5,0,133.1-39.5,133.1-39.5c0-3,0-5,0-6.4C459.1,153.6,459,152.7,458.9,147.4z"/>
</g>
</svg>
