<?xml version="1.0" encoding="utf-8"?>
<!-- Generator: Adobe Illustrator 19.0.0, SVG Export Plug-In . SVG Version: 6.00 Build 0)  -->
<svg version="1.1" id="Layer_1" xmlns="http://www.w3.org/2000/svg" xmlns:xlink="http://www.w3.org/1999/xlink" x="0px" y="0px"
	 viewBox="-63 -16 512 512" style="enable-background:new -63 -16 512 512;" xml:space="preserve">
<style type="text/css">
	.st0{fill:#F7F4FF;}
</style>
<g>
	<g>
		<g>
			<path class="st0" d="M425.4,476h-21.9V157.5c0-14.8-12.1-26.9-26.9-26.9h-49c-14.8,0-26.9,12.1-26.9,26.9V476H245V301.8
				c0-14.8-12.1-26.9-26.9-26.9h-49c-14.8,0-26.9,12.1-26.9,26.9V476H86.5v-90.2c0-14.8-12.1-26.9-26.9-26.9h-49
				c-14.8,0-26.9,12.1-26.9,26.9V476h-23.1c-5.5,0-10,4.5-10,10s4.5,10,10,10h464.8c5.5,0,10-4.5,10-10S430.9,476,425.4,476z
				 M66.5,476H3.7v-90.2c0-3.8,3.1-6.9,6.9-6.9h49c3.8,0,6.9,3.1,6.9,6.9V476L66.5,476z M225,476h-62.8V301.8c0-3.8,3.1-6.9,6.9-6.9
				h49c3.8,0,6.9,3.1,6.9,6.9V476z M383.5,476h-62.8V157.5c0-3.8,3.1-6.9,6.9-6.9h49c3.8,0,6.9,3.1,6.9,6.9L383.5,476L383.5,476z"/>
		</g>
	</g>
	<g>
		<g>
			<path class="st0" d="M403.4-5.5c0.1-2.7-0.8-5.5-2.9-7.6s-4.9-3-7.6-2.9c-0.2,0-0.3,0-0.5,0H332c-5.5,0-10,4.5-10,10
				s4.5,10,10,10h37.4l-98.9,98.9l-37.3-37.3c-1.9-1.9-4.4-2.9-7.1-2.9c-2.7,0-5.2,1.1-7.1,2.9L39.2,245.4c-3.9,3.9-3.9,10.2,0,14.1
				c2,2,4.5,2.9,7.1,2.9s5.1-1,7.1-2.9L226.1,86.8l37.3,37.3c3.9,3.9,10.2,3.9,14.1,0L383.4,18.2V52c0,5.5,4.5,10,10,10
				s10-4.5,10-10V-5C403.5-5.2,403.4-5.3,403.4-5.5z"/>
		</g>
	</g>
	<g>
		<g>
			<circle class="st0" cx="12.6" cy="287.3" r="10"/>
		</g>
	</g>
</g>
</svg>
