<?xml version="1.0" encoding="utf-8"?>
<!-- Generator: Adobe Illustrator 19.0.0, SVG Export Plug-In . SVG Version: 6.00 Build 0)  -->
<svg version="1.1" id="Camada_1" xmlns="http://www.w3.org/2000/svg" xmlns:xlink="http://www.w3.org/1999/xlink" x="0px" y="0px"
	 viewBox="0 0 474.5 355.9" style="enable-background:new 0 0 474.5 355.9;" xml:space="preserve">
<style type="text/css">
	.st0{fill:#FF3334;}
	.st1{fill:#FFFFFF;}
	.st2{font-family:'Raleway-Regular';}
	.st3{font-size:8.0848px;}
	path{
	width: 100vw;
		transition: ease-in .5s;
		stroke: #800001;
		stroke-width: 0px;
	}
	path:hover{
		transform: scale(1.1);
		stroke-width: 2px;
		z-index: 999;

	}
</style>
<g>
	<g>
		<path id="BR-AC_2_" class="st0" d="M90.3,134.7l-1,0l0.3-0.9l-0.1-0.4l-0.1-0.2l-0.6-0.3l-0.1-0.2l0.1-0.6l-0.4-1l-0.5-0.3
			l-2.7-0.6l-3.6-0.1l0.1-0.3l1.2-1.1l0.4-0.6l0.1-0.6l-0.1-0.6l-0.3-0.4l-0.4-0.2l-0.8-1.4l-0.4-0.2l-0.4-0.1l-0.6-0.6l-0.4-1.2
			l-1-0.7l-0.5-1.8l-0.4-0.8l-0.9-0.5l0-0.6l0.4,0l0.2-0.3l0-0.3l-0.1-0.2l-1-0.5l-0.2-0.3l-1.1-0.9l0-0.2l0.3,0l0.2-0.6l0-0.6
			l1.5-0.2l0.2-0.2l-0.1-0.7l-0.6-0.8l0,0l8.8,3.7l11.6,2.8l5.9,1.5l12.9,6.9l13.9,5.9l0,0l1.5,0.6l0,0l-0.1,0.2l-0.8,0.3l-1,0.8
			l-1.4,1.4l-0.8,0.4l-0.3-0.1l-0.7,0.1l0,0.3l-0.9,0.6l-1,0.5l-0.7,0.9l-0.2,0.6l-0.3,0.1l-0.6-0.4l-0.4-0.1l-1.2,0l-0.3,0.1
			l-0.3,0.2l-0.2,0.4l-1.2,1.7l-1.8,0.6l-0.4,0.3l-0.9,0.2l-0.5,0l0-1l-0.7,0.1l-1.7-0.4l-2.6-0.2l-2.5,0.2l-0.3-0.3l-1.1-0.1
			l-1.7,0.9l-1.3,0.3l-0.8-0.3l-0.7-0.7l-0.8,0.6l0-8.6l0-0.5l0.2-0.3l0-1.1l-0.1-0.4l0.5-0.6l0.2-0.6l-0.6,0.1l-1.5,1.3l-0.8,0.5
			l-1,1.2l-1,0.3l-0.3,0.5l-0.9,0.5L90.3,134.7z"/>
		<path id="BR-AL_2_" class="st0" d="M360.8,130.7l-0.1-0.4L360,130l-0.2,0l-0.5-0.1l-0.3-0.7l0,0l0.6-0.5l0.3-0.5l1.1-0.4l1.2-1.6
			l0-0.3l0.4-0.3l0.5,0.6l0.8,0.1l0.5-0.1l1.2,1l0.9,1l0.9,0.5l0.9,0.2l1.2-0.3l1.5,0.1l0.6-0.1l0.9-0.5l0.6,0l0.9-0.5l1.1-1.1
			l0.1-0.2l0.8-0.6l1-0.1l1.1,0.4l1.3-0.6l0.7-0.1l0.9,0.4l1.4,0.1l0.1,0.1l0,0l-1.4,2.4l-2.2,2.5l-1.7,1.7l-1.5,2.2l-1.6,1.4
			l-0.5,1l-0.6,0.9l0,0l-0.3-0.6l-1.8-1.1l-0.2,0l-0.8-0.4l-0.9-0.7l-0.6-1.2l-2.6-1.5l-1.8-0.5L360.8,130.7z"/>
		<path id="BR-AM_2_" class="st0" d="M156.8,39.7l0.4,0.4l0.4,0.2l0.3,0l0.6-0.2l0.3,0.1l0,0.5l0.6,0.6l0.5,0.2l0.4-0.1l0.7,0.1
			l1,0.5l0.2,0.3l-0.4,1.6l-0.3,0.7l1.3,1.8l0.8,2.3l0.1,1.1l0.4,0.5l0,0.2l-0.8,0.7l0.2,0.8l0.3,0.8l-0.4,1.5l-0.3,0.5l0.1,2.4
			l0.4,1.1l0.6,0.4l0.3,0.4l0.6,2.1l0,0.3l-0.6,0.6l-0.9-0.2l-0.1,0.6l2.4,2.2l0.3,0l1,0.6l0.7,0.8l0.5,1l0.3,0l0.7-0.2l1.2,0.5
			l-0.2-1l0.4-1.1l0.1-0.8l-0.2-0.9L171,62l0.5-0.6l0.6-0.3l1-0.3l0.3-0.4l0.8,0l1.4,0.5l0.9,1l0.4,1.2l0.9,0.1l0.6-0.2l0.7-0.7
			l1-0.3l0.2-0.2l0-0.3l-0.6-0.7l-0.1-0.4l0.1-0.3l0.6-1.3l0-0.6l0.8-1.5l1.1-1.6l0-0.3l9,0l0,0l0.2,2.4l-0.2,0.7l0.1,1.1l0.1,0.3
			l0.8,0.4l0.1,0.2l-0.2,0.3l0,1l0.9,1l0.2,0.1l0.3-0.1l0.9,0.6l0.3,0.9l0,0.5l0.1,0.2l2.3,1.8l2.2,1.2l0.3,0.4l0.7,0.5l0.9,0.3
			l1.2,0.6l1.1,0.3l0.7,0.1l0.6,0.4l0,0.3l0.6,0.7l1.3,0.7l0.5,1.1l0.9,0.4l0.4-0.3l0.7-0.2l0.1,0.2l-0.1,0.4l0.9,0.8l-14.6,31.4
			l-0.4,0.6l-0.7,0.6l-0.3,0.5l0,0.6l0.4,1.1l0.2,0.3l0.5,0.3l0.8,0.8l0.3,0.6l0.1,1l0.3,0.3l0,0l-0.6,0.6l-0.1,0.3l0,0.4l0.2,0.4
			l-0.1,0.5l-0.6,0.9l-0.4,0.3l-0.2,0.4l0,0.4l0.3,0.7l0.2,0.9l-0.7,2.1l-0.6,2.6l-0.6,0.4l-23.4,0.2l0,0l0-0.3l-0.2-0.2l-0.7-0.1
			l-0.9,0.5l-0.3,0.9l-0.3,0.1l-1.6-0.7l-0.3-1.4l-0.3-0.1l-0.5,0.1l-0.2-0.1l-0.6-1.6l-1.2-0.5l-0.7-0.6l-0.4-0.9l-0.2-0.2
			l-1.1-0.6l-5.3,0l-0.7,1.3l-0.8,0.2l0,0.6l-0.1,0.1l-1.2,0.3l-0.6,0.8l0,0.3l0.4,0.3l0.1,0.2l-0.2,0.5l-0.4,0.6l-1,0.6l-0.1,0.9
			l0.1,0.7l-1.9-0.2l-1,0.2l-0.6,0.5l-0.9,0l-0.4-0.3l-0.2,0l-0.9,0.6l-0.3,0.4l0.1,0.9l-1.2,1.5l-0.3,0l-0.3-0.3L143,127l-0.2,0
			l-0.9,0.5l-0.6,0.6l-0.7,0.2l-0.4-0.1l-0.5,0.2l-0.2,0.3l-0.1,0.4l-0.6,0.4l-0.2,0l-1.1-1.1l-0.4-0.2l-1.4,0.2l-1.9-0.1l0.1,0.6
			l-0.1,0.3l-0.8,0.9l-0.9,0.3l-1.6,1.3l0,0l-13.9-5.9l-12.9-6.9l-5.9-1.5l-11.6-2.8l-8.8-3.7l0,0l0-0.3l0.3-1.4l0.6-0.7l2.4-1.7
			l1.1-0.1l0.2-0.1l0.5-0.8l0-0.5l-0.9-2.2l0.2-0.6l0.6-1.1l0.6-0.6l0.4-0.6l0.2-0.5l0.1-0.9l-0.1-0.6l0.3-1l0.2-1.1l0.4-0.4
			l1.8-0.8l1.1-0.6l0.6-0.5l0.2-0.7l0.4-0.2l0.7-0.1l0.8-0.5l1.7-1.3l1.2-0.2l0.7,0.1l2-0.6l0.7-0.4l0.9-0.2l1.6,0.2l0.6-0.8
			l0.3-0.7l0.5-0.3l1,0.1l0.3,0.3l0.6-0.1l0.5-0.4l0.8,0.1l0.2,0.3l0,0.6l0.8,0.6l1.4,0l0.3-0.2l0.2-0.4l-0.1-0.2l0.6-2.4l3.3-18.2
			l0.6-1.4l-0.5-2.4l0.1-0.1l-0.6-0.5l-0.7-1.3l0-0.2l0.3-0.7l-0.3-0.9l-0.2-0.2l-0.8-0.3l-1.5-1.1l-0.9-1.1l0.1-5.6l1.9-0.1
			l0.9-0.6l1.7-0.4l1.3,0.9l0.6,0.1l0.6-0.2l-0.2-0.8l0.1-0.8l-0.7-1l-0.3-0.3l-0.6-0.3l-0.7,0.3l-1.4-0.3l-1.7,0l0-4.8l0.5,0
			l0.6-0.3l1.1-0.3l1.4,0.4l9.3,0l-0.2-0.3l-0.4-0.1l-0.2-0.6l0.5-0.9l0.7,0.2l0.3,0.7l0.4,0.6l0.3,0.2l0.4,0L123,43l0.9-1l0.2-0.4
			l0.6-0.6l1.2-0.7l0.6,0.2l0.6,1.3l0.8,1l0.4,0.6l0.3,0.9l0.1,0.8l-0.2,1.8l0.1,0.9l1.6-0.4l4.1,3.5l0.4,0.1l1.2,0.1l1.1-0.5
			l0.8-0.8l1-0.6l1.1-0.1l0.3,0.1l0.4,0.5l0,0.5L140,51l0.2,0.5l0.3,0.1l0.7-0.4l0.3-0.4l0.1-0.6l0.5-0.6l0.2-0.1l0.5,0.1l0.3-0.1
			l0.2-0.3l0.2-1.1l0.2-0.2l0.7-0.2l1.4-0.9l0.5,0.3l0.5-0.1l0.8-0.5l0.5-0.8l1-0.6l1,0.3l1.2-0.8l0.3-0.4l0.2-1.3l0-0.6l0.4-0.4
			l0.5-0.2l0.9,0l0.7-0.2l1-0.8l0.5-0.2l1.1-0.1L156.8,39.7z"/>
		<path id="BR-AP_2_" class="st0" d="M248,59.1l-0.5,0l-0.4,0.2l-0.6,0.1l-1.4-0.3l-0.7-0.5l-0.2-0.7l-0.9-0.7l-0.1-0.6l0.1-0.3
			l-0.2-0.8l-0.2-0.2l-0.5-0.1l-0.2-0.5l0-1.2l-1.4-1.6l-0.4,0.2l-0.4-0.1l-0.7-1.7l0.1-0.8l-0.3-0.9l-0.3-0.3l-0.3-0.7l-0.1-1
			l0.2-1.5l-0.1-0.2l-1.3-0.4l-1-1.1l-0.4-1.4l0.1-0.4l0.3-0.1l-0.2-0.6l-0.3,0l-1.4-1.3l-0.5,0.1l-0.2,0.2l-0.7,0.1l-0.4-0.1
			l-0.4-0.5l-0.6-0.4l-0.6-0.1l-0.2-0.6l-0.3-0.4l-0.9-0.5l-0.6-0.2l-1.7-0.2l-0.5,0.1l-0.6,0l-0.2-0.3l-0.1-0.7l0.1-2.2l0.3-0.6
			l-0.2-1.1l-0.3-0.3l0,0l0.2-0.1l0.5,0.1l0,0.4l-0.1,0.1l0.2,0.5l0.7,0l0.4,0.1l0.2,0.4l0.4,0.3l1.1,0.4l1.6,0.4l1.3-0.9l0.2-0.4
			l0.8-0.6l0.4-0.1l0.3,0.5l1.3,0.5l0.5-0.1l0.8-0.5l0.1-0.2l0.2,0l0.7,0.6l-0.1,0.4l1.2-0.1l0.2,0.2l0.5,0.1l0.3,0l0.4-0.2l0.8-0.7
			l0.9-0.5l0.9-1.1l0.2-0.5l-0.1-0.3l1.5-3.2l0.1-0.9l0.5-0.6l0.4-0.1l1.8-2.8l0.1-0.6l0.4-0.6l0.9-0.8l0.3-0.8l1-0.6l0.2-0.4
			l0.5-0.3l0.3,0.7l0.4,0.7l-0.8-2.3l0-0.6l0.1-0.2l1.6,1.2l0.6,0.6l0.4,0.6l0.3,0.6l0,0.8l0.2,0.2l0.2-0.2l0.2,0l0.1,0.2l0.1,3.9
			l0.3,1.9l1.3,3l1.3,4.4l1.6,2.4l0.5,0.2l1.6,0l1.4,0.5l0.6,0.4l0.4,1.3l-0.1,1.6l-0.6,0.5l-0.8,0.2l-0.2,0.2l0.9-0.1L263,41
			l0.1,0.1l0.1,0.3l-0.1,0.4l-2.5,2l-0.6,1l-1.1,0.7l-0.9,1.8l-1.4,1.7l-0.3,0.2l-0.5,0l-0.7,0.3l-1,1.5l0,0l-0.7,0l-0.4,0.4l0,0
			l-0.7,0.8l-0.5,1.1l-0.5,0.9l-0.4,0.3l-1.5,1.7l-0.2,1.2l0.1,0.9l-1,0.9L248,59.1L248,59.1z M259.4,36.2l-0.2-0.2l-0.5-0.9l0-0.4
			l0.1-0.2l0.8-0.2l0.2,0.2l0.4,1.1l-0.5,0.5L259.4,36.2z M260.6,44.8l-0.2-0.1l0-0.3l0.5-0.5l0.4-0.1l0.6,0.1l0.2-0.1l0.2-0.3
			l0,0.3l-0.5,0.7l-0.5,0.2L260.6,44.8z M262.3,43.4l-0.4-0.1V43l0.4-0.5l0.6,0l0.1,0.2l0,0.2L262.3,43.4z M258.8,34.4l-0.4-0.2
			l0.1-0.4l0.4-0.1l0.4,0.2l0,0.4L258.8,34.4z"/>
		<path id="BR-BA_2_" class="st0" d="M341.2,198.7l-0.2-0.4l0.3-0.7l0-0.3l-0.3-0.5l-2-1.5l-0.1-0.2l0.1-0.7l-0.3-0.6l-0.3,0.1
			l-0.1,0.2l-0.2,0.1l-0.1-0.1l0.3-2.2l0.4-1.6l0.4-0.4l1.2,0.1l0.5-0.3v-0.2l-0.3-0.5l0.1-1.3l2.4-2.1l0.7-1.5l-0.2-0.6l-0.4-0.5
			l-0.4,0l-0.4-0.2l-1.4-1.2l-1,0l-1.1-0.3l-1.1-0.5l-1.3-0.3l-1-0.1l-0.6,0.5l-0.7,0.2l-1.3-0.2l-0.3,0.1l-0.2-1.9l-3.2-3l-0.2-0.1
			l-2.1,0.6l-0.7-0.6l-0.2,0.1l-0.5-0.1l-1.2-0.6l-1.1-0.8l-0.5,0.1l-2.1-1.8l-0.5-0.3l-1.3-0.4l-0.9,0.1l-0.9,0.4l-0.4,0.5
			l-0.3,0.1l-2.6-0.7l-0.3-0.2l-0.1-0.7l0.1-0.4l0.6-1.3l-0.4-0.2l-1.1-0.3l-1.1,0l-0.6-0.2l-0.9,0l-1.9,0.8l-2.1,1.5l-0.3,0.5
			l-1.6,0.9l-1,0.2l-0.5,0.6l-0.9,0.8l-0.7,0.3l-0.5-0.1l-0.9,1.3l-0.5,0.4l-1-0.2l-0.4,0.1l-0.3,0.5l-0.7,0.4l-0.2-0.1l0.7-1.7
			l-0.2-1.2l0,0l0.7-1l0.1-0.4l-0.1-0.6l-0.3-0.8l0-0.3l0.3-0.7l0-0.2l-1.6-1.3l-0.8-1.7l-0.3-1.7l0-0.8l0.6-1.9l0.8-0.5l0.1-0.2
			l0-0.5l-0.8-0.4l-0.1-0.2l0.2-1.2l0.7-0.5l0-0.2l-1.3-1.2l0,0l0-0.5l0.7-1.2l0-0.5l-0.1-0.2l-0.7-0.2l-0.5-0.3l-0.2-0.6l0-1.4
			l0.1-0.4l1-0.8l0.6-0.2l0.5-0.4l-0.1-0.3l-0.3-0.3l-0.4-0.1l-0.5,0.1l-0.2-0.2l0-0.2l0.2-0.5l1-0.4l0.3-0.2l0-0.4l-0.9-0.5
			l-1.7-0.3l-0.9-1l-0.1-0.4l0.2-0.6l0.5-0.4l0.7-1.7l0.4-0.3l0.5-0.1l0.2-0.2l-0.6-0.9l0.1-0.2l1.6-1.3l1.9-1l0.3-0.2l0.1-0.5
			l0.3-0.3l0,0l1.1,0l0.7,0.7l0.3,0.5l0.3,1.1l0.9,1.2l2,0.9l0.9-0.3l1,0.1l0.2-0.1l0.4-0.7l0.6-0.2l0.3-0.4l0.6-0.4l1.1-0.4
			l0.7,0.1l0.7,0.3l0.7-0.2l1.5-1.2l1.4-2.5l0.4-0.4l0.1-0.4l0.1-1.3l-0.1-0.6l-1.1-2.2l0-0.5l1.6-0.8l1,0l0.7,0.2l0.2,0.5l0.2,0.1
			l1-0.2l0.7-0.3l0.7,0.2l0.8,0.5l-0.1,0.3l0.1,0.1l0.4,0.1l1.5-0.1l0.7-0.3l0.8,0l0.4-0.6l0.7-0.7l1.3-0.2l0.4-0.2l0.4-0.5l1.1,0
			l0.3,0.3l0.2,0l0.9-0.9l0-1.2l1-0.2l0.4,0.1l0.5-0.3l0.7-1.1l0.2-0.6l0,0l0.4,0.2l0.6-0.1l1.1,0.1l1.4,0.7l0.2,0.2l0,1.3l0.4,0.9
			l1.1,0.4l0.1,1l-0.4,0.8l0.9,0.3l0.5-0.1l0.4-0.4l1.4-0.4l0.4-1.7l0.2-0.4l0.4-0.1l0.4,0.3l0.3,0l1.2-0.5l0.5-0.6l0.1-0.3
			l-0.1-0.7l0.1-0.1l1.1-0.2l0.4-1l0.8-0.2l1.2-0.7l0.3,0l0.7,0.3l0.4,0.7l0.7,0.4l1.2,0.4l1.5,0.2l0.8,0.6l0.3,0.8l0.2,0.1l0.2-0.1
			l0.1-0.9l0.2-0.2l0.5,0l0.2,0.2l0,0.3l-0.3,0.4l0.2,0.4l0.2,0.2l1,0.4l0,0.5l0.6,1.5l0,0l0.3,0.7l0.5,0.1l0.2,0l0.7,0.4l0.1,0.4
			l0,0l-0.3,0.6l0.1,1l0.6,1.2l1,1l0.4,0.6l0,1.5l-0.3,0.8l0,0.4l0.4,1.3l-0.1,0.3l-0.3,0.3l-1.2,0.5l-0.6-0.4l-0.8,0l-0.2,0.1
			l-0.3,0.8l0,0.4l0.5,0.8l0.5,0.3l0.3,0.7l0.7,0.7l0.1,0.2l-0.1,0.7l-0.2,0.2l0.1,0.2l0.3,0.3l0.9,0.4l0.2,0.3l0.3,0.2l0.8,0.3
			l1.4-0.4l0,0l0.3,0l0.2,0.2l-2,4.3l-1.9,2.5l-0.5,1.1l-2.5,2.8l-1.2,0.6l-0.4,0l0.1-0.7l0.2-0.1l0.1-0.5l-0.2-0.9l-0.9-0.1
			l-0.2-0.6l-0.3-0.4l-0.2,0.3l-0.2,1.1l-0.2,0.4l-0.3,0.2l-0.3-0.1l-0.2-0.9l0.1-0.2l0.2-0.1l0-0.2l-0.4,0.6l0.5,0.8l0.2,0.1
			l0.2-0.1l0.6,0.1l-0.2,0.9l-0.6,0.6l-0.1,0.9l-0.6,0.5l-0.2,0.3l-0.1,0.4l0.1,0.4l-0.7-0.2l-0.1,0.2l-0.2,1.2l0.2-0.4l0.4,0.1
			l0.1,0.3l-0.1,0.2l0,0.3l0.1,0.1l0.2,0.5l-0.5,1.2l0.3,1.7l-0.3,0.2l-0.3-0.1l-0.1,0.6l0.3,0.2l0.6-0.8l-0.2-1.1l0.4-0.3l0.1,0.3
			l0,0.9l-0.5,1.3l-0.4,2.7l-0.2,0.9l0.1,1.2l0.4,1.4l0.1,2.2l0.4,3.1l0.5,1.7l-1.1,3.3l-0.7,3.3l-0.2,0.5l-0.1,1.4l-0.5,1.8l0,1.1
			l0.2,2.2l0.4,0.8l-1.1,1.5l-0.9,0.3l-0.5,0.3l-1.3,1.9l-0.3,1l0,0l-4-2.5L341.2,198.7L341.2,198.7z M352.1,160.6L352,160l0.4-0.2
			l0.5-0.5l0.1-0.3l-0.2-0.4l0.4,0.1l0.4,0.5l0,0.3L352.1,160.6L352.1,160.6z M350.8,163.9l-0.3,0l0-0.3l0.1-0.2l-0.4-0.1l-0.2-0.2
			l0.1-0.5l0.9-0.1l0.1,0.1l0.1,0.6L350.8,163.9L350.8,163.9z"/>
		<path id="BR-CE_2_" class="st0" d="M363.6,89.8l-2.4,0.8l-1.3,1l-1.6,3.3l-0.4,0.5l-0.4,0.3l-0.3,0.8l0.1,0.4l-0.7,1.2l-0.7,0.7
			l-0.3,0.5l-0.5,0.1l-0.4-0.2l-0.2,0l-0.4,0.4l-0.7,1.1l-0.2,1l0.3,0.1l0.3-0.2l0,0l0,0.3l-0.4,0.6l-0.5,1.5l0.3,0.6l-0.3,0.6
			l-0.5,0.3l-0.1,0.2l-0.1,0.5l0.1,0.2l0.3,0.1l0.2,0.4l0,0.8l0.6,0.4l0.3,0l0.2,0.6l-0.8,1.7l-0.6,0.5l0.1,0.1l0,0l-0.8,0.2
			l-0.5,0.4l-0.8,1.1l-0.8,0l-0.3-0.8l-0.4-0.3l-0.7-0.2l-0.5-0.5l-0.2-0.5l-0.9-0.4l-1.4-0.9l-1.5-0.2l-0.6,0l-1,0.4l-0.8,0.1
			l-0.4-0.1l-2.4-0.1l0,0l0-0.6l-0.3-0.3l0-0.5l0.6-1.5l0.7-1.1l0-0.3l-0.4-0.6l-1.3-0.2l-0.6-0.3l-0.5-1.3l-0.5-2.5l-0.4-1.3
			l0.1-0.2l-0.5-4l-0.1-0.2l-0.4-0.3l0.4-0.3l0.3-0.8l-0.3-1.5l-0.5-1l0.2-0.8l-0.4-1.9l0.4-0.7l0-0.4l-0.7-0.8l-0.2-0.8l-1.5-3.1
			l-0.9-2.3l-0.1-0.6l0.1-0.7l0.8-1l0.5-0.9l0.1-0.4l0,0l0.1-0.1l0-0.3l-0.2-0.3l0.3-0.4l3.3-0.1l1.4-0.2l1-0.3l3.6,0.4l1,0.5
			l0.9,0.7l2,1.1l0.7,0.3l2.4,1.5l0.6,0.1l1.1,1.1l1.5,1l1.3,0.4l1.2,1.4l0.6,0.3l1.4,1.9l2,1.5l0.7,1l0.5,0.5l0.7,0.4l0.6,0
			l1.2,0.4l0.4,0.3L363.6,89.8z"/>
		<path id="BR-ES_2_" class="st0" d="M330.3,224.5l-0.1-0.1l0.2-1.1l0.3-0.6l-0.3-1.5l0.1-0.2l0.8-1l2.5,0l0.3-0.2l0.5-1.6l0.5-0.6
			l0.4-1.1l0.1-0.8l0.1-0.2l0.6-0.4l0.8-1l0.3-1.5l-0.1-1.2l-0.6-1.4l-0.5-0.6l-0.3,0l-0.2,0.1l-0.4-0.1l-0.2-0.3l0.2-0.3l0.7,0
			l0.4,0.2l0.5,0l0.5-0.1l0.2-0.2l-0.1-0.8l-0.6-0.2l-0.1-0.2l0.1-0.8l0-0.9l-0.3-0.3l-0.7-0.3l-0.1-0.3l0.6-0.9l1.1-0.6l0.2,0
			l0.5,0.4l0.6,0.1l0-0.4l-0.8-1.1l0.7,0.1l1.1-0.1l0.4-0.3l0.5-0.2l0.8,0l1.2,0.4l0.4,0.3l0,0l0,0l0,0l0.1,0.3l4,2.5l0,0l-0.5,1.6
			l-0.2,1.4l0.1,1.8l0.4,3l-0.2,1.2l-0.7,1.6l-1.3,0.7l-0.3,0.3l-0.8,1.6l-0.5,1.9l-0.4,0.7l-0.4-0.3l-0.4-0.1l-0.1,0.6l0.7,0.3
			l-0.9,2.1l-1.7,1.9l-0.1-0.1l-0.9,0.3l-0.4,0.6l0,0.7l-0.2,0.6l-0.8,1l-0.1,0.6l0,0l-0.8-0.5l-1.5,0.2l-2.1-0.5l-1.2-0.6l-0.3-2.3
			L330.3,224.5z"/>
		<g id="XMLID_3_">
			<path id="BR-DF_2_" class="st0" d="M284.4,184.1l-7.2,0l-0.3-1.6l0.4-0.9l0.2-1.8l5.8,0l0.9,1l0,1.1l-0.3,0.6l-0.1,1.2
				L284.4,184.1z"/>
			<path id="BR-GO_2_" class="st0" d="M284.4,184.1l-0.4-0.5l0.1-1.2l0.3-0.6l0-1.1l-0.9-1l-5.8,0l-0.2,1.8l-0.4,0.9l0.3,1.6
				L284.4,184.1L284.4,184.1L284.4,184.1L284.4,184.1l-0.3,0.7l0.2,0.8l-0.3,0.8l-0.5,0.6l-0.2,0.7l0.4,0.6l0.4,0.2l0.7,0.5l0.8,2.2
				v0.3l-1.1,1.3l-1.6,1.5l-0.2,1l0.5,0.5l0.4-0.2l0.8,0.3l0.2,0.3l0.1,0.5l-0.1,0.3l-0.4,0.4l-0.2,0.9l0.6,1.7l-1.5,1l-0.6,0.1
				l-0.4,0.4l-0.2,0.5l-2.4,1.3l-0.3-0.4l-2.1-0.9l-0.3,0.2l-0.3,0l-0.9,0l-0.7-0.1l-1.9,0.1l-1-0.4l-2,1.3l-1.4,1.4h-0.2l-0.6-0.7
				l-0.7-0.1l-1.6,0.8l-1.8-0.3l-1.2,0.5l-1.1,0.3l-0.7,1l-0.6,1.2l0,0.5l-0.4,0.6l-0.4,0.1l-0.4-0.1l-0.2,0.1l-0.5,0.4l-0.8,1
				l-0.3,0.9l0.3,0.3l0,0.2l-0.2,0.1l-0.4-0.2l0,0l-0.1-0.2l-1.3-1.1l-1.5-0.3l-0.8-0.8l-0.9-0.2l-0.7,0l-1.6-0.7l-0.3-0.4l-1.5-0.8
				l-0.3-0.3l-0.7-0.3l-0.6-0.1l-1.3-0.8l-1.4,0.1l-1.9-0.3l-0.1-0.2l0.1-0.4l0.3-0.6l0.6-0.9l0-0.2l-1.1-0.4l-0.6,0.3l-0.3-0.1
				l-0.1-0.2l-0.1-0.5l0.1-1.3l-0.1-0.9l0,0l-0.5-1.1l-0.1-1.7l-0.7-1.1l-0.1-0.3l0.2-1.7l1.2-1.9l0.2-1.4l0.3-0.4l1-0.4l0.9-0.9
				l0.6-1l0.2-1l0.2-0.5l0.6-0.5l0.4-0.7l0-0.8l0.9-0.5l0.7-1.3l1.3-0.1l1.3-0.4l0.2-0.1l1-2l0.3-0.5l0.3-2l0.2-0.4l0.9-0.9l0.8-0.5
				l0.5-0.1l0.6,0.3l0.6-0.4l0.7-0.7l0.4-1.4l0.6-1.4l0-0.4l-0.2-0.6l0.3-1.3l0.8-1.5l-0.1-2.5l0.6-0.4l0.5-1.3l1-1.5l0.2-0.5
				l-0.1-1.3l0.2-0.4l0.5-0.4l0.1-0.6l0-0.3l0,0l0.2-0.2l0.1-0.9l0.3-0.6l0.9-1l0.3-0.1l0,0.8l-0.6,0.9l-0.3,1.1l1.2,0.2l1.1,0.5
				l1.9,0.2l1.5,0.8l2,0.7l0.3-0.1l0.8-2.9l0.7-1.2l0.6-0.5l0.6,0.6l0.5,0.9l0.5,1.8l0.3,1.5l0.6,0l0.4-0.4l0.1-0.5l0.3-0.3l1.3,0.2
				l2.2-0.3l0.1,0.4l-0.3,0.8l1.5,0.7l1.6,0.3l0.3,0l0.2-1.6l0.3,0l0.7,1.3l0.2,0.1l0.9-0.4l1.2-1l2.2-0.5h0.8l1.3-0.5l0.9-0.7
				l2.6-0.7l0,0l1.3,1.2l0,0.2l-0.7,0.5l-0.2,1.2l0,0.2l0.8,0.4l0,0.5l-0.1,0.2l-0.8,0.5l-0.6,1.9l0,0.8l0.3,1.7l0.8,1.7l1.6,1.3
				l0,0.2l-0.4,0.7l0,0.3l0.3,0.8l0.1,0.6l-0.1,0.4l-0.7,1l0,0l-0.5,0.5l-1.6-0.2l-0.4-0.9l-1.2-0.7l-0.6,0.7l0.3,1.8l-0.3,0.3
				l-0.2,0.1l-1.4-0.6l-0.6,0.1l-0.2,0.1l-0.4,1.6l0.4,0l0.2,0.6l-0.3,0.5l-0.4,0.3l0,0.9l0.2,0.3l0.3,0.1l0.3,2.1l-0.3,0.3
				l-1.6,0.4l-1.1,0.7L284.4,184.1z"/>
		</g>
		<path id="BR-MA_2_" class="st0" d="M305.9,79.6l0,0.2l-1,1.1l-0.2,0.1l0,0.7l1-0.8l0.3-0.6l1-0.8l0.4-0.6l0.5-3.1l0.6-0.3l0.5-0.1
			l0.8-0.4l0.3-0.1l0.2,0.1l0,0.8l-0.1,0.2l-0.7,0.9l-1.6,0.9l0,0.4l0.4,0.1l0.2-0.4l0.6-0.2l0.1,0.4l-0.3,0.2l0.1,0.1l2.1-2.4
			l0.4,0.2l1.3-0.5l2,0.2l-0.2-1.2l0.3-0.1l1.2,0l0.9,0.2l1.3,0.5l0.5,0.1l1.1,0.7l0.7,0l0.6,0.6l0.9,0.6l1.2,0.3l0.6-0.1l0.3,0.4
			l0.2,0l0.8,0l1.2,0.3l0.1-0.4l-0.3-0.2l0.8-0.2l0.3,0.1l0,0.2l0,0l-0.2,0.7l0.1,0.4l0.3,0.3l-0.2,0.7l-0.9,1.1l-2,1.9l-1.6,0.2
			l-0.4-0.1l-1.4,1.7l0,0.9l-0.4,0.9l-0.9,0.9l-0.4,1l-0.3,0.1l-0.4,0.5l0.2,0.9l0.6,0.4l0.2,0.6l-0.1,0.7l-0.6,1.4l0.8,1.4l0.3,1.5
			l-0.1,1.2l-0.1,0.3l-2,2.2l-0.1,1.2l0.1,1l0.2,1.1l0.9,1l0.8,0.4l0.1,0.2l0.1,0.4l-0.2,1.1l-0.1,0.2l-0.1,0.6l-0.2,0.7l-0.6,0.6
			l-1.1,0.1l-0.3-0.1l-0.4,0l-1.2,0.4l-0.7,0.1l-1.2-0.9l-0.5-0.1l-0.7,0.1l-0.5,0.3l-0.5,0.1l-0.1-0.1l-0.4,0.1l-0.2,0.1l-0.9,0.9
			l0,0.2l-0.3,0.4l-1,1l-1.1,0.4l-1.4,1.3l-0.7,0.3l-0.5,0l-0.8,0.7l-0.5,0.2l-1.3,0.2l-1.3,0.4l-1,1l-0.5,1.5l-0.2,1.5l-0.3,1.1
			l-0.7,1.3l-0.1,0.1l-0.2,0.4l-0.1,0.7l-0.6,1.2l-0.8,0.7l-0.4,1l0.3,0.9l0.2,1.6l0.8,1.5l0,0.3l-0.4,0.7l-0.1,3.1l-0.6,1.2
			l-0.1,0.5l0,0.9l0,0l-0.6-0.3l-0.3-0.4l-0.4-0.2l-0.5-0.1l-0.9,0.1l-0.3-0.1l-0.7-1l-0.5-1.4l-1-0.8l-0.1-0.8l0.8-0.9l0-0.3
			l-1.9-1l-0.3-0.5l0-0.8l-0.4-0.8l-0.5-0.3l-1-0.1l-0.1-0.2l0.1-0.3l1.3-1.2l-0.2-0.6l0.4-1.3l0.3-0.7l0.3-0.3l0.7-0.3l1.7-0.2
			l-0.2-0.7l0.3-1.6l0-0.9l-0.9-0.6l-2.1,0.5l-1.1,0.7l-1.1-1.5l-0.4-0.4l-1.5-2l-0.4,0l-0.4-0.7l0.3-0.6l-0.1-0.4l-0.1-0.2
			l-0.7-0.1l-0.2,0.1l-0.9-0.7l0.1-0.3l0.9-0.3l0.9-1l0.1-0.8l-0.1-0.5l0.2-1.2l0.9-3l0-0.2l-0.3-0.6l-0.1-0.5l0.1-1.8l-0.3-0.7
			l-0.2-1.7l-0.4-0.5l-1.7-0.7l-0.6,0l-0.1-0.2l0-0.5l-0.3-0.3l-0.9-0.1l-0.5,0.3l-0.7,0l-1.4-0.7l-0.4,0l-1,0.3l-1.3,0.9l-0.3,0.3
			l0,0l-0.2,0l7.2-5.8l1.1,0.1l0.6-0.4l0.8-1.1l0.2-0.6l0.8-0.6l0.3-1.4l0.5-0.2l1.2-1.1l0.2-0.6l0.1-0.9l0.8-2.3l1-0.8l0.7-0.9
			l0.4-0.7l0.2-0.6l-0.1-0.9l0.4-0.4l-0.5-0.8l1.8-1.5l-0.1-0.8l0.2-1.2l0.9-0.8l0.2-0.3l0.4-1.5l0-0.8l-0.2-0.3l-0.5,0.1L293,70
			l0-0.3l0.6-0.1l0.3-0.4l0.3-2.1l-0.1-0.7l0.2-0.5l0.4-0.2l0,0h0.3l0.1-0.1l0-0.3l0.2-0.4l0.3-0.3l0.7,0.5l0.2,0.9l0.6,0.1l0.4-0.7
			l0.3,1.4l0.5,0l0.1-0.2l0-0.5l0.4,0l0.8,0.3l0.2,0.3l-0.7,0.8l0.3,0.3l0,0.3l0.6-1l0.2-0.8h0.2l0.2,0.5v0.3l-0.4,0.4l-0.1,0.5
			l0,1.3l0.1,0.2l0.2,0.1l0.3-0.1l0.5-0.5l-0.2-0.5l0.1-0.3l0.6-0.7l0.5-0.1l1,0.3l0.7-0.5l0,0.4l-0.2,0.1l-0.6,0.7l0.3,0.3l0-0.2
			l0.6-0.3l0.3,0.4l-0.1,0.6l0.8,0.9l0.4-0.2l0.8,0.3l0.4,1.2l-0.1,0.5l-1.1,1.3l-0.2,0.4l0,0.3l0.3-0.5l0.9-0.8l0.4,0l0.4,0.4
			l0.3,0.9l-0.1,0.6l-0.5,0.1l-0.5,0.4l-0.6,0.7l0,0.4l-0.6,1.1l-0.3,1.7l0.1,0.2L305.9,79.6L305.9,79.6z M306.2,79.8l0-0.4l0.3-0.7
			l-0.2-0.5l0.1-0.3l0.4-0.6l0.3-0.1l0,1.1l-0.1,0.7l-0.4,0.3L306.2,79.8z M303.1,67.2l-0.2-0.2l0-0.3l0.4-0.5l0.4,0l0.3,0.2l0,0.2
			l-0.1,0.2L303.1,67.2z M304.8,69.2l-0.1-0.1l0-0.3l0.5-0.4l0.2,0l0.2,0.4l-0.1,0.3l-0.2-0.1L304.8,69.2z M297.9,66.9l-0.1,0
			l0.5-1.7l0.1,0l0,0.1l-0.2,1.5L297.9,66.9z"/>
		<path id="BR-MG_2_" class="st0" d="M340.4,200.9l-0.4-0.3l-1.2-0.4l-0.8,0l-0.5,0.2l-0.4,0.3l-1.1,0.1l-0.7-0.1l0.8,1.1l0,0.4
			l-0.6-0.1l-0.5-0.4l-0.2,0l-1.1,0.6l-0.6,0.9l0.1,0.3l0.7,0.3l0.3,0.3l0,0.9l-0.1,0.8l0.1,0.2l0.6,0.2l0.1,0.8l-0.2,0.2l-0.5,0.1
			l-0.5,0l-0.4-0.2l-0.7,0l-0.2,0.3l0.2,0.3l0.4,0.1l0.2-0.1l0.3,0l0.5,0.6l0.6,1.4l0.1,1.2l-0.3,1.5l-0.8,1l-0.6,0.4l-0.1,0.2
			l-0.1,0.8l-0.4,1.1l-0.5,0.6l-0.5,1.6l-0.3,0.2l-2.5,0l-0.8,1l-0.1,0.2l0.3,1.5l-0.3,0.6l-0.2,1.1l0.1,0.1l0,0l-1.2,1.1l-0.6,0.1
			l-0.3,0.2l0.4,0.3l-1.2,3l-0.9,1.8l0,0.4l0.7,0.1l0.1,0.3l-0.1,0.3l-1.2,0.5l-4.6,2.2l-0.7,0.1l0-0.2l-0.2-0.1l-1.2-0.1l-0.3,0
			l-0.8,0.5l-0.6,0.1l-1.6,0l-0.2-0.2l-0.2,0l-2,0.9l-0.5,0.4l-0.8,0.4l-0.2-0.1l-1.3,0.1l-1.4,0.7l-1.2,0.4l-0.3,0.2l0,0l-0.6,0.4
			l-1.1,0.1l-0.9,0.5l-0.6,0.6l-0.9,0.3l-1.2,0.1l-1.1,0l0-0.2l0.2-0.2l0-0.2l-0.6,0.2l-0.1,1.1l0.1,0.1l0,0.4l-0.4,0.5l-0.6,0.2
			l-0.3-0.2l-1.8,0.5l-0.1-0.3l-1,0.1l-0.5-0.1l-1-1.6l0.6-0.3l-0.3-0.8l-0.9-0.4l-0.9-0.6l-0.3-0.8l0.3-0.8l0.1-1.7L291,232
			l0.9-1.3l0.3-1.1l0-0.6l-0.1-0.2l-1.8-0.6l-0.5,0l-0.1,0.2l-0.4,0.2l-0.8,0l0-0.4l-0.4-1l-0.6-0.9l-0.2-1.1l-0.2-0.3l-0.4-0.4
			l0.1-0.9l0.7-1l0-0.3l-0.2-0.8l-0.9-0.6l-0.3-0.3l0.1-1.2l0.3-0.5l-0.1-0.5l-1.6-1.6l-0.6,0.1l-0.4,0.3l-0.8-0.4L282,217l-0.2,0.3
			l0.1,0.2l-0.2,0.5l-1.4,0.3l-0.5-0.2l-0.7-0.7l-0.5,0.6l-4,0.3l-0.2,0.2l-0.2,0.6l0.1,1.2l-0.2,0.2l-0.6-0.3l0-1.4l-0.1-0.5
			l-0.2-0.2l-0.3,0l-0.1,0.1l-0.2,0.6l-0.3,0.5l-0.3,0.2l-0.3,0l-0.6-1l-0.2-0.7l0.1-0.4l-0.8-0.4l-1.1-0.7l-1,0.3l-0.8-0.1
			l-0.8,0.2l-2.1-0.5l-1.2,0l-0.8-0.8l-0.4-0.1l-0.7,0.3l-0.7,0.8l-0.9,0.2l-1.1,0.5l-0.6,0.6l0,0l0.2-1.3l-0.3-1.6l0.5-2l0.3-0.1
			l0,0l0.4,0.2l0.2-0.1l0-0.2l-0.3-0.3l0.3-0.9l0.8-1l0.5-0.4l0.2-0.1l0.4,0.1l0.4-0.1l0.4-0.6l0-0.5l0.6-1.2l0.7-1l1.1-0.3l1.2-0.5
			l1.8,0.3l1.6-0.8l0.7,0.1l0.6,0.7h0.2l1.4-1.4l2-1.3l1,0.4l1.9-0.1l0.7,0.1l0.9,0l0.3,0l0.3-0.2l2.1,0.9l0.3,0.4l2.4-1.3l0.2-0.5
			l0.4-0.4l0.6-0.1l1.5-1l-0.6-1.7l0.2-0.9l0.4-0.4l0.1-0.3l-0.1-0.5l-0.2-0.3l-0.8-0.3l-0.4,0.2l-0.5-0.5l0.2-1l1.6-1.5l1.1-1.3
			v-0.3l-0.8-2.2l-0.7-0.5l-0.4-0.2l-0.4-0.6l0.2-0.7l0.5-0.6l0.3-0.8l-0.2-0.8l0.3-0.7l0.6-0.1l1.1-0.7l1.6-0.4l0.3-0.3l-0.3-2.1
			l-0.3-0.1l-0.2-0.3l0-0.9l0.4-0.3l0.3-0.5l-0.2-0.6l-0.4,0l0.4-1.6l0.2-0.1l0.6-0.1l1.4,0.6l0.2-0.1l0.3-0.3l-0.3-1.8l0.6-0.7
			l1.2,0.7l0.4,0.9l1.6,0.2l0.5-0.5l0,0l0.2,1.2l-0.7,1.7l0.2,0.1l0.7-0.4l0.3-0.5l0.4-0.1l1,0.2l0.5-0.4l0.9-1.3l0.5,0.1l0.7-0.3
			l0.9-0.8l0.5-0.6l1-0.2l1.6-0.9l0.3-0.5l2.1-1.5l1.9-0.8l0.9,0l0.6,0.2l1.1,0l1.1,0.3l0.4,0.2l-0.6,1.3l-0.1,0.4l0.1,0.7l0.3,0.2
			l2.6,0.7l0.3-0.1l0.4-0.5l0.9-0.4l0.9-0.1l1.3,0.4l0.5,0.3l2.1,1.8l0.5-0.1l1.1,0.8l1.2,0.6l0.5,0.1l0.2-0.1l0.7,0.6l2.1-0.6
			l0.2,0.1l3.2,3l0.2,1.9l0.3-0.1l1.3,0.2l0.7-0.2l0.6-0.5l1,0.1l1.3,0.3l1.1,0.5l1.1,0.3l1,0l1.4,1.2l0.4,0.2l0.4,0l0.4,0.5
			l0.2,0.6l-0.7,1.5l-2.4,2.1l-0.1,1.3l0.3,0.5v0.2l-0.5,0.3l-1.2-0.1l-0.4,0.4l-0.4,1.6l-0.3,2.2l0.1,0.1l0.2-0.1l0.1-0.2l0.3-0.1
			l0.3,0.6l-0.1,0.7l0.1,0.2l2,1.5l0.3,0.5l0,0.3l-0.3,0.7L340.4,200.9z"/>
		<path id="BR-MS_2_" class="st0" d="M250.6,218.7l-0.2,1.2l-0.1,0.2l-0.7,0.4l-0.6,0l-0.2,0.1l-0.6,0.5l-1,1.3l-0.4,0.3l-0.5,0.1
			l-0.3,0.8l-0.1,1.4l-1.3,1.8l-0.5,0.3l-0.1,0.2l0.2,0.9l0,0.5l-0.6,1.1l-1,1.1l0.2,0.4l-0.1,0.6l-0.7,0.5l-0.2,0.6l-0.8,0.8
			l-0.6,1.2l-1,0.9l-3.7,2.2l-0.6,0.6l-0.4,0.8l-0.4,0.5l0,0l-2.6,1.1l-0.5,0.4l-0.5,1.1l0,0.6l-0.7,1.7l-0.3,0.3l-0.8,0.5l-0.5,0.2
			l-0.2,0.2l-0.8,3.9l-0.2,0.4l-1.2,0.8l0,0l-1.2-1.1l-1.7-0.9l-2,1l-0.3,0.4l-0.8,0.2l-1.3,0.2l-1.2-0.2l-0.5-0.3l-0.2-2.1
			l-0.2-0.3l-0.4-0.5l-0.1-1.2l0.2-0.7l-0.3-0.4l0-0.2v-1.4l-0.4-1l-0.3-1.3l0-0.4l0.3-0.7l0-0.8l-0.8-0.5l-0.2-0.4l-0.1-1.1
			l-0.8-0.9l-1.1-0.1l-0.7,0.2l-0.9-0.1l-1.2-1l-0.3-0.7l-0.8,0.2l-1.1,1.3l-0.5-0.3l-0.8,0.4l-0.5,0.1l-0.9-0.3l-1.3-0.2l-1.7,0.1
			l-1.8-0.3l-0.2-0.4l-1-0.1l-0.4,0.3l-1.2-0.4l0.4-3.6l-0.2-1.2l0.3-0.7l0.5-0.7l0.3-2.9l-0.3-1.1l0-0.8l-0.4-0.5l-0.2,0l-0.2,0.3
			l-0.3-1.6l-0.4-0.9l-0.6-1l-0.2-0.9l2-1.1l0.4-0.4l-2.1-1.9l2.6-5.6l0.5,0l-0.1-1l-0.4-0.1l1.6-5l0.3-0.6l-1.5-2.9l0-0.9l0,0
			l0.3,0.1l0.5,0.5l1.1,0.7l2.7-1l1-1l1-1.4l0-0.6l0.7-0.7l1.3,0l0.8-0.1l0.4,0.2l0.8-0.2l0.7-0.6l1-0.2l0.6,0.1l0.4,0.6l1.4,0.6
			l1.3,0.2l0.3,0.2l0.1,0.4l0.4,0.5l1.5,0.6l0.6,0.5l0.6,0.3l2.2-0.3l0.6-0.4l0.2-0.4l0.7-0.3l1.2,0l0.8,0.5l0.1,0.7l0.1,0.1l0.5,0
			l1-0.4l0.5,0l2.7-2.9l0.7-0.1l-0.6,3.2l-0.9,0.3l-0.8,1.4l-0.1,0.2l0.1,0.3l0.6,0.1l0.9,0.6l2.3,0.1l0.3-0.3l1.3,0l0.4,0l0.6,0.3
			l0.8-0.2l0,0l0.1,0.9l-0.1,1.3l0.1,0.5l0.1,0.2l0.3,0.1l0.6-0.3l1.1,0.4l0,0.2l-0.6,0.9l-0.3,0.6l-0.1,0.4l0.1,0.2l1.9,0.3
			l1.4-0.1l1.3,0.8l0.6,0.1l0.7,0.3l0.3,0.3l1.5,0.8l0.3,0.4l1.6,0.7l0.7,0l0.9,0.2l0.8,0.8l1.5,0.3l1.3,1.1l0.1,0.2l0,0l-0.3,0.1
			l-0.5,2l0.3,1.6L250.6,218.7z"/>
		<path id="BR-MT_2_" class="st0" d="M178.1,162.2l0.7-0.7l2-1.3l0.3-1.2l0.7-1.8l0.5-0.5l0.8-0.3l0.2-0.2l0.3-0.4l0.3-1.1l0.8-1
			l0.3-1.1l0-0.8l-0.3-0.7l0-1l-0.7-1.6l-0.4,0l-0.3-0.2l-0.2-1.6l0.1-0.6l0.7-0.5l0.7-0.9l0.1-0.4l-0.7-1.8l-0.5-0.2l-0.5-0.1
			l-1.7,0l-0.6-0.5l0.1-0.3l-8.4,0l0.4-4.4l-0.7-1.3l-0.1-0.9l0-0.4l0.5-1.7l-0.2-0.9l0.5-0.8l-0.4-1.1l-0.1-0.7l-0.1-0.3l-0.4-0.2
			l0-0.2l0.6-2.4l0.4-0.7l-0.3-0.6l-0.7-0.5l0,0l23.4-0.2l0.6-0.4l0.6-2.6l0.7-2.1l-0.2-0.9l-0.3-0.7l0-0.4l0.2-0.4l0.4-0.3l0.6-0.9
			l0.1-0.5l-0.2-0.4l0-0.4l0.1-0.3l0.6-0.6l0,0l0.6,0.5l1.2,2l0.2,0.9l0.7,1.9l0.6,0.9l0.4,0.8l-0.1,1.2l0.2,1.2l0.4,1.1l0.7,0.5
			l1.5,1.3l1.7,0.8l0.1,0.5l0,0.5l0.1,0.2l0.5,0.2l0.4-0.1l0.8,0.2l0.3,0.4l0.1,0.5l0.2,0.2l0.7-0.2l1.8,0.7l16.6,1.2l30.8,1.7l0,0
			L258,133l-0.3,0.9l-0.5,0.6l-0.2,1.5l-0.2,0.4l-0.2,0.1l-0.9,2.6l-0.3,1.5l0,1.4l-0.9,2.9l0,0.4l0.7,0.7l-0.1,0.4l-0.4,0.4l0,0.2
			l0.5,1.1l-0.2,1.6l0,0.8l0.3,0.3l0.2,1.5l-0.4,1.3l0.5,1.6l0.5,0.2l0.4,0l0,0l0,0.3l-0.1,0.6l-0.5,0.4l-0.2,0.4l0.1,1.3l-0.2,0.5
			l-1,1.5l-0.5,1.3l-0.6,0.4l0.1,2.5l-0.8,1.5l-0.3,1.3l0.2,0.6l0,0.4l-0.6,1.4l-0.4,1.4l-0.7,0.7l-0.6,0.4l-0.6-0.3l-0.5,0.1
			l-0.8,0.5l-0.9,0.9l-0.2,0.4l-0.3,2l-0.3,0.5l-1,2l-0.2,0.1l-1.3,0.4l-1.3,0.1l-0.7,1.3l-0.9,0.5l0,0.8l-0.4,0.7l-0.6,0.5
			l-0.2,0.5l-0.2,1l-0.6,1l-0.9,0.9l-1,0.4l-0.3,0.4l-0.2,1.4l-1.2,1.9l-0.2,1.7l0.1,0.3l0.7,1.1l0.1,1.7l0.5,1.1l0,0l-0.8,0.2
			l-0.6-0.3l-0.4,0l-1.3,0l-0.3,0.3l-2.3-0.1l-0.9-0.6l-0.6-0.1l-0.1-0.3l0.1-0.2l0.8-1.4l0.9-0.3l0.6-3.2l-0.7,0.1l-2.7,2.9l-0.5,0
			l-1,0.4l-0.5,0l-0.1-0.1l-0.1-0.7l-0.8-0.5l-1.2,0l-0.7,0.3l-0.2,0.4l-0.6,0.4l-2.2,0.3l-0.6-0.3l-0.6-0.5l-1.5-0.6l-0.4-0.5
			l-0.1-0.4l-0.3-0.2l-1.3-0.2l-1.4-0.6l-0.4-0.6l-0.6-0.1l-1,0.2l-0.7,0.6l-0.8,0.2l-0.4-0.2l-0.8,0.1l-1.3,0l-0.7,0.7l0,0.6
			l-1,1.4l-1,1l-2.7,1l-1.1-0.7l-0.5-0.5l-0.3-0.1l0,0l-0.3-0.3l-0.2-0.4l0.3-0.3l-1.2-1.1l-0.6,0.3l-0.3,0l-0.6-0.3l-0.2-0.3
			l-1-0.7l-0.9-0.4l-0.1-0.2l-0.1-0.5l-0.1-1.4l-0.3-0.9l-0.1-1.8l0.4-0.8l0.6-0.5l0.2-0.9l0-0.9l-0.5,0l-0.2,0.3l-0.2,0.1
			l-13.1-0.5l-0.5-6.2l-2.6-3l2.4,0l-0.2-3.7l-1.3-2.6l-0.2-1l0.1-0.5l0.3-0.3l0.3-0.6l-0.7-1.4l-1.5-0.5L178.1,162.2z"/>
		<path id="BR-PA_2_" class="st0" d="M259.7,131.7l-30.8-1.7l-16.6-1.2l-1.8-0.7l-0.7,0.2l-0.2-0.2l-0.1-0.5l-0.3-0.4l-0.8-0.2
			l-0.4,0.1l-0.5-0.2l-0.1-0.2l0-0.5l-0.1-0.5l-1.7-0.8l-1.5-1.3l-0.8-0.5l-0.4-1.1l-0.2-1.2l0.1-1.2l-0.4-0.8l-0.7-0.9l-0.7-1.9
			l-0.2-0.9l-1.2-2l-0.6-0.5l0,0l-0.3-0.3l-0.1-1l-0.3-0.6l-0.8-0.8l-0.5-0.3l-0.2-0.3l-0.4-1.1l0-0.6l0.3-0.5l0.7-0.6l0.4-0.6
			l14.6-31.4l-0.9-0.8l0.1-0.4l-0.1-0.2l-0.7,0.2l-0.4,0.3l-0.9-0.4l-0.5-1.1l-1.3-0.7l-0.6-0.7l0-0.3l-0.6-0.4l-0.7-0.1l-1.1-0.3
			l-1.2-0.6l-0.9-0.3l-0.7-0.5l-0.3-0.4l-2.2-1.2l-2.3-1.8l-0.1-0.2l0-0.5l-0.3-0.9l-0.9-0.6l-0.3,0.1l-0.2-0.1l-0.9-1l0-1l0.2-0.3
			l-0.1-0.2l-0.8-0.4l-0.1-0.3l-0.1-1.1l0.2-0.7l-0.2-2.4l0,0l-0.8-8.3l0,0l0.4,0.2l0.2,0.3l0,0.2l0.2,0.2l0.4,0.1l0.7-0.3l0.2-0.4
			l1.3,0.1l0.4-0.5l-0.3-0.9l0.9-0.2l0.7-0.8l1.3,0.5l0.9,0l0.3-0.7l1.6-0.8l1,0.2l0.6-0.1l0.2-0.1l0.6-0.7l0.2-0.7l0.7-0.5l0.4-0.1
			l0.3,0.2l1-0.6l0.2,0.1l0.2,0.5l0.4,0.2l1,0.2l0.8,0.1l0.3-0.3l0.8-0.2l0.4,0.1l0.4,0l0.4-0.2l1.1,0.1l2.3,0.7l0.5-0.1l0.5-0.4
			l0-1.1l-1-1.2l-0.6-0.3l0.2-0.8l0.6-0.7l0.1-0.5l0.2-0.1l0.3,0.1l0.4,0.4l1.1,0.5l5.7-1.1l0.8,0.8l0.5,0l0.2-0.1l0,0l0.3,0.3
			l0.2,1.1l-0.3,0.6l-0.1,2.2l0.1,0.7l0.2,0.3l0.6,0l0.5-0.1l1.7,0.2l0.6,0.2l0.9,0.5l0.3,0.4l0.2,0.6l0.6,0.1l0.6,0.4l0.4,0.5
			l0.4,0.1l0.7-0.1l0.2-0.2l0.5-0.1l1.4,1.3l0.3,0l0.2,0.6l-0.3,0.1l-0.1,0.4l0.4,1.4l1,1.1l1.3,0.4l0.1,0.2l-0.2,1.5l0.1,1l0.3,0.7
			l0.3,0.3l0.3,0.9l-0.1,0.8l0.7,1.7l0.4,0.1l0.4-0.2l1.4,1.6l0,1.2l0.2,0.5l0.5,0.1l0.2,0.2l0.2,0.8l-0.1,0.3l0.1,0.6l0.9,0.7
			l0.2,0.7l0.7,0.5l1.4,0.3l0.6-0.1l0.4-0.2l0.5,0l0,0l-0.3,0.4l0.1,0.8l-0.1,0.3l-0.6,0.5l-0.7,0.1l-0.2-0.1l-0.4-0.4l-0.3-0.1
			l-1.7,0.8l-0.2,0.3l-0.8,0.4l-0.3,0l-0.8,0.3l0,0.3l3.2-0.5l0.4,0.3l0.1,0.2v0.3l-0.3,0.2l0.1,0.2l0.3-0.1l0.4-0.5l0.5,0l0.3-0.1
			l0.3,0.1l0.5-0.2l0.6-0.3l1.6-1.1l0.7-0.2l0.9-0.4l1.5-0.9l0.3-0.5l0.3-0.3l1-0.5l0.3-0.4l-0.1-0.3l0.1-0.2l0.6-0.1l0.5,0l0.2,0.1
			l0.2,1.9l-0.3,1.3l0.2,0.8l0.4,0.8l0.6,0.7l0.1,0.8l-0.1,0.2l-0.9,0.9l-0.2,0.1l-0.4-0.3l-0.9-0.3l-0.6-0.2l-0.5,0.1l-1-0.5
			l-0.1-0.5l-0.4-0.3l-1.1,1.9l-0.3,1.2l0.3,1.5l0.2,0.3l0.4,0.3l-0.5-0.6l-0.2-1.3l0.1-0.3l1.3-2.1l1.1,0.6l0.1,0.2l1.2,1.2l-0.1,1
			l-0.4,0.3l0.2,1.1l0.3,0.6l0.5,0.4l0.4,0.1l0.3,0.2l-0.2-0.3l-0.4-0.1l-0.6-0.5l-0.1-0.3l0.2-2.1l0.4-0.6l0.7,0.4l0.4,0.6l0,0.4
			l0.6,0.4l0.1-0.1l-0.5-0.6l-0.4-1v-0.2l1.1-1.1l0.8,0l0.9,0.3l0.2,0.3l-0.3,0.3l0.2,0.1l0.2,0l0.5-0.1l0.7-0.4l2-0.5l0.4,0.1
			l0.9,0.5l1.5-0.2l0.5-0.2l0.5-0.5l0.5-0.3l0.9-0.2l0.4,0l0,0.4l-1,2l-0.1,0.7l-0.2,0.5l-0.4,0.5l0,0.4l0.3,0.7l-0.2,1.2l0.4-0.6
			l0-0.7l0.8-1.5l0.6-1.6l0.5-0.8l0.1-0.1l0.4,0l0.3-0.2l0.9-0.1l0.4-0.7l0.7-0.8l0.7-1.1l0.3-0.2l0.4,0.2l0.3-0.2l0.8,1.1l0.6,0.3
			l0-0.4l-0.2-0.4l0.3-0.5l1.7-0.2l-0.5-0.2l-1.7,0.2l-0.2-0.1l0.1-1.2l0.2-0.1l0.3,0.2l0.5,0.1l0.5-1.5l-0.3-0.7l0-0.3l0.6-0.9
			l1.4-1.2l0.2,0l0.5,0.6l1.4-1l0.2,0l0.2,0.2l0,0.3l-0.2,0.3l0.5-0.1l0.4-0.3l0.2-0.4l0.3-0.1l0.1,0.1l0.4,0.7l0.7,0.6l0.1-0.3
			l-0.1-0.2l-0.5-0.2l-0.1-0.1l-0.1-0.6l0.1-0.2l0.2-0.1l1.1,0.1l0.6,0.3l0.3,0.5l0.8,0.3l0.8-0.4l0.3,1l-0.2,0.2l0,0.3l0.4-0.3
			l0.6-1.1l0.2,0.1l-0.1,0.7l0.2,0.2l1.2-0.1l0.2,0.3l0.2,0.8l-0.3,0.5l0.4-0.2l0.1,0.2l0.9,0.1l1.7-0.6l-0.2,0.8l-0.4,0.9l0.7-0.2
			l0.3-0.3l0.3,0.8l0,0l-0.4,0.2l-0.2,0.5l0.1,0.7l-0.3,2.1l-0.3,0.4l-0.6,0.1l0,0.3l0.1,0.2l0.5-0.1l0.2,0.3l0,0.8l-0.4,1.5
			l-0.2,0.3l-0.9,0.8l-0.2,1.2l0.1,0.8l-1.8,1.5l0.5,0.8l-0.4,0.4l0.1,0.9l-0.2,0.6l-0.4,0.7l-0.7,0.9l-1,0.8l-0.8,2.3l-0.1,0.9
			l-0.2,0.6l-1.2,1.1l-0.5,0.2l-0.3,1.4l-0.8,0.6l-0.2,0.6l-0.8,1.1l-0.6,0.4l-1.1-0.1l-7.2,5.8l0.2,0l0,0l1.1,0.4l0.9-0.1l0.6,0.1
			l0.5,0.8l0.2,0.2l0.4,0.1l0.6,0.6l0,0.3l-0.2,0.3l-0.4,0.2l-0.5,0l-0.1,0.1l0,0.7l0.5,0.7l-0.4,1.3l-0.3,0.2l-0.7,0.2l-0.1,0.2
			l0.1,0.6l-0.1,0.7l-0.6,0.1l-0.7,0.7l-0.4,0.6l0.1,0.7l-0.1,0.2l-1.2,0.6l-1.7,0.6l-1.2,0.9l-0.1,0.2l0.2,1.1l0,1.3l-0.6,1
			l-0.7,0.8l-0.1,0.3l0.1,0.4l0.3,0.5l0.8,0.9l0.4,0.2l0.1,0.1l-0.3,2l-0.9,2.5l-0.5,0.4l-0.8,1.6l-0.1,0.5l-0.5,0.8l-0.4,0.4
			l-0.5,0.1l-0.7,0.4l-0.5,0.9l-0.6,0.8l-0.6,0.5l-0.6,0.8l-0.6,2.2L259.7,131.7L259.7,131.7z M270.1,68l-2.2,1l-1.7,0.3l-1-0.2
			l-0.3,0.6l-0.9,0.6l-0.4-0.3l-0.3-0.7l-0.1,0.1l0.2,0.6l-0.2,0.4l-0.3,0.2l-1.8-0.8l-0.4,0.4l-2,0.6l-1.6-0.3l-0.4-0.3l-0.1-0.9
			l-0.1-0.2l-0.5-0.5l-0.5-0.8l-0.1-0.9l0.3-1.3l0.3-0.2l0.9,0.2l0.5-0.4l0-0.3l-0.6,0.2L256,65l-0.5-0.3l-0.1-0.5l0.2-2.5l0.4-0.4
			l0.2,0.4L257,62l0.3,0l-0.2-0.2l-0.6-0.1l-0.4-1.1l0.2-0.8l0.4-1l0.7-0.7l0.5-0.3l0.7-0.2l0.6-0.1l1.7,0.3l3.5,0.9l1.8-0.2
			l0.1-0.1l0.6-0.3l1.1-0.2l1.4,0.1l1.4,0.4l3.2,0.4l0.3,0.2l0,0.6l-0.3,0.4l-0.3,0.7l-0.2,1.3l-0.4,1.6l-0.6,0.3l-0.2,0.3l0.1,0.6
			l-1,1.3l-0.7,1.7L270.1,68L270.1,68z M247,68l-0.4-0.2l0.5-1.1l0-0.9l0.1-0.1l1.1-0.2l0.4-0.4l0.1-0.2l-0.1-1.1l0.4-1.3l0.6-0.7
			l1.1-0.7l1.4-0.1l0.4,1.2l-0.5,1.1l-0.4,1.5l-0.5,0.3l-0.7,1l-0.4,0.4l-2.4,1.6L247,68L247,68z M260.9,56.8l-0.5-0.1l-1.2,0
			l-0.4-0.1l-0.1-0.1l-0.2-0.5l0-0.6l0.7-0.2l0.9,0l1.1-0.6l2.4-0.3l0.4,0.1l0.3,0.3l-0.1,0.5l-1.3,0.7l-0.9,1.2l-0.5,0.2
			L260.9,56.8z M263.3,56.8l0.9-0.6l1,0l0.8,0.3l0.3,0.5l0,0.3l-0.4,0.4l-1.4,0.1l-0.6,0.2l-1.1-0.4l-0.1-0.3L263.3,56.8L263.3,56.8
			z M255,58.9l-0.2-0.1l-0.3,0l-0.8-0.3l0.1-0.6l0.3-0.4l0.9-0.2l1.2-0.4l0.6,0l0.4,0.3l0,0.1l-0.9,0.8l-0.5,0.2L255,58.9L255,58.9z
			 M259.6,54.2l-0.4-0.1l-0.1-0.8l0.1-0.3l0.6-0.6l1.2-0.4l0.1,0.1l0.3,0.3l0,0.4l-1,1L259.6,54.2z M252.8,64.1l-0.1-0.2l0.1-0.5
			l0.5-1.4l1.3-0.8l0.4-0.1l0.3,0.1l-0.1,0.9l-0.8,0.2l-0.8,1.1L252.8,64.1z M258.1,55.5l-0.6-0.2l-0.1-0.2l0.4-0.5l0.3-1.9l0.4-0.6
			l0.1,0.1l0,0.2l0,1.2l0.3,0.9l-0.2,0.4l-0.5,0.2L258.1,55.5L258.1,55.5z M250.9,60.5l-0.1-0.1l0.1-0.3l0.3-0.2l0.6-0.8l0.4-0.8
			l0.4-0.3l0.7-0.3l-0.1,0.7l-0.2,0.5l-0.8,0.8L250.9,60.5L250.9,60.5z M257.7,57l-0.3-0.1l-0.4-0.3l-0.5-0.8l0-0.2l0.1-0.1l0.4-0.3
			l0.9,0.4l0.1,0.2l0.1,1L257.7,57L257.7,57z M255,72l-0.3-0.1l-0.4-0.3l-0.3,0.2l-0.4-0.1l-0.8-0.9v-0.3l0.6,0l1.5,0.6L255,72z
			 M244.7,69.2l0-0.5l-0.1-0.1l0.3-0.5l1.2-0.4l0.4,0.2l0.4,0.4l-0.1,0.2l-0.5,0.2l-1.2,0.2L244.7,69.2L244.7,69.2z M250.9,66
			L250.9,66l-0.1-0.2l0.3-0.5l0.9-0.8l0.2-0.6l0-0.6l0.1-0.1l0.2,0.2v0.7l-0.4,1.3l-0.3,0.3L250.9,66L250.9,66z M254,61.1l0.8-1.4
			l0.4-0.1l0.3,0.1l0.1,0.4l-0.3,0.3L254,61.1z M269.4,70.4l-0.4-0.2l-0.2-0.5l0.5-0.8l0.5-0.2l0.1,0l0,0.4l-0.4,1.1L269.4,70.4
			L269.4,70.4z M253,60.9l-0.3-0.1l0.2-1l0.7-0.9l0.1,0l0.6,0.4l0,0.1l-0.8,0.3L253,60.9z M254.1,63.3l0.4,0l-0.2,0.2l-0.5,0.2
			l-0.1,0.5l-0.4,0.3l-0.8,0.4l-0.1-0.1l0.1-0.4l0.2-0.3l0.8-0.8L254.1,63.3z M243,68.3l-0.3-0.1l0-0.2l0.2-0.2l1.7-0.8l0.3,0.3
			l0,0.1l-0.7,0.4L243,68.3z M274.1,66l-0.5-0.1l-0.4-0.4l0.4-0.6l0.7,0l0.1,0.6l0,0.3L274.1,66L274.1,66z M255.9,56.8l-1.2,0.3
			l-0.3,0l-0.1-0.1l0.5-0.5l0.5-0.2l0.5,0.1l0.2,0.2l0.1,0.1l-0.1,0.1L255.9,56.8L255.9,56.8z M253.3,61l0-0.4l0.1-0.2l1.2-0.7
			l-0.4,1l-0.4,0.3L253.3,61L253.3,61z M254.4,63.2l-0.2-0.1l0-0.1l0.4-0.7l0.6,0l-0.1,0.7L254.4,63.2z M268.1,70.9l-0.1-0.1
			l0.4-0.8l0.3-0.2l0.1,0.4l0.2,0.2l-0.1,0.3l-0.2,0.2l-0.3-0.1L268.1,70.9z M255,59.5l-0.4,0l0-0.1l1.2-0.9l0,0.5l-0.1,0.3
			l-0.1,0.2L255,59.5L255,59.5z M288,64.5l-0.2-0.3l0.1-0.4l0.5-0.4l0.1,0.1l0.1,0.9L288,64.5z"/>
		<path id="BR-PB_2_" class="st0" d="M384.7,112.2l-1.2-1l-0.4-0.1l-1.3-0.1l-1.1,0.5l-0.7,0.6l-0.2,0.9l-0.9,0.5l-1,0.2l-0.6,0v0.3
			l-0.4,0.3l-1.1,0.1l-1.9-0.1l-0.8,0.4l-0.3,0.3l-0.9,0l-0.4,0.3l-0.3,0.4l0.2,0.4l0,0.3l-0.2,0.2l-0.9,0.7l-0.7,0.1l-0.8,0.4
			l-0.8-0.4l-0.5-0.5l-0.2-1.1l0.1-0.2l-0.1-0.1l-0.6-0.2l-0.2,0.1l-0.7,0.1l0-0.2l1.2-1.3l0.1-0.2L367,113l0-0.2l0.2-0.4l1.5-0.5
			l0.1-0.1l-0.2-0.7l-1.7-0.9l-0.7,0.2l-1.1,0.6l-0.5,0.7l-0.7,0.4l-0.5,0.2l-1.3,0.9l-0.7,0.8l-0.8,0.1l-1.3,0.5l-0.4-0.2l0-0.3
			l-0.3-0.6l-0.2,0l-0.5,0.4l-0.7,0.2l-0.5-0.2l-0.7-0.9l-0.2,0l0,0l-0.1-0.1l0.6-0.5l0.8-1.7l-0.2-0.6l-0.3,0l-0.6-0.4l0-0.8
			l-0.2-0.4l-0.3-0.1l-0.1-0.2l0.1-0.5l0.1-0.2l0.5-0.3l0.3-0.6l-0.3-0.6l0.5-1.5l0.4-0.6l0-0.3l0,0l0.3-0.2l0.9,0.8l0.4,0.2
			l1.4,0.3l0.6-0.6l1.6-0.8l0.4-0.3l0-0.5l0.2-0.5l1.6-0.6l0.7-0.1l1.6-0.5l0.3,0l0.3,0.2l0,0.6l-1.5,1.6l-0.2,0.5l-0.2,0.9
			l-0.2,0.2l-0.4,0.1l-0.1,0.2l0,0.8l1.7,0.3l0.2,0.1l0.2,0.7l0.1,0.1l1.5-0.6l0.9,0l1,0.1l0.4,0.6l-0.3,0.8l0.4,0.4l1.1-0.5
			l0.2-0.4l0.3-0.6l-0.2-0.5l-0.1-0.7l0.2-0.3l0.5,0.2l-0.3-0.7l-0.4-0.4l0.2-0.7l0.9-0.7l0.7,0l0.2,0.2l0,0.5l0.3,0.2l1.7,0.2
			l0.3,0.2l2.8-0.2l1.1,0.1l1.2,0.5l0.5-0.2l1.7,0.1l0.5-0.1l0,0l0,1.2l0.7,2.1l0,0.3l-0.1,0.5l-0.2,0.2l0,0.4l0.3-0.4l0.2-0.7l0,1
			l0.3,0.5l-0.1,2.5l-0.2,0.3L384.7,112.2z"/>
		<path id="BR-PE_2_" class="st0" d="M358.4,127.7l-0.6-1.5l0-0.5l-1-0.4l-0.2-0.2l-0.2-0.4l0.3-0.4l0-0.3l-0.2-0.2l-0.5,0l-0.2,0.2
			l-0.1,0.9l-0.2,0.1l-0.2-0.1l-0.3-0.8l-0.8-0.6l-1.5-0.2l-1.2-0.4l-0.7-0.4l-0.4-0.7l-0.7-0.3l-0.3,0.1l-1.2,0.7l-0.8,0.2l-0.4,1
			l-1.1,0.2l-0.1,0.1l0.1,0.7l-0.1,0.3l-0.5,0.6l-1.2,0.5l-0.3,0l-0.4-0.3l-0.4,0.1l-0.2,0.4l-0.4,1.7l-1.4,0.4l-0.4,0.4l-0.5,0.1
			l-0.9-0.3l0.4-0.8l-0.1-1l-1.1-0.4l-0.4-0.9l0-1.3l-0.2-0.2l-1.4-0.7l-1.1-0.1l-0.6,0.1l-0.4-0.2l0,0l1.3-0.6l1-0.8l0.3-0.4
			l1.1-0.7l0.5-0.1l1.9-1.9l0.4-0.9l0-1.1l-0.1-0.3l-0.8-0.8l0-1.1l-0.3-0.6l0-0.5l0.1-0.2l0.3-0.2l0.9-0.1l0,0l2.4,0.1l0.4,0.1
			l0.8-0.1l1-0.4l0.6,0l1.5,0.2l1.4,0.9l0.9,0.4l0.2,0.5l0.5,0.5l0.7,0.2l0.4,0.3l0.3,0.8l0.8,0l0.8-1.1l0.5-0.4l0.8-0.2l0,0l0.2,0
			l0.7,0.9l0.5,0.2l0.7-0.2l0.5-0.4l0.2,0l0.3,0.6l0,0.3l0.4,0.2l1.3-0.5l0.8-0.1l0.7-0.8l1.3-0.9l0.5-0.2l0.7-0.4l0.5-0.7l1.1-0.6
			l0.7-0.2l1.7,0.9l0.2,0.7l-0.1,0.1l-1.5,0.5l-0.2,0.4l0,0.2l0.4,0.9l-0.1,0.2l-1.2,1.3l0,0.2l0.7-0.1l0.2-0.1l0.6,0.2l0.1,0.1
			l-0.1,0.2l0.2,1.1l0.5,0.5l0.8,0.4l0.8-0.4l0.7-0.1l0.9-0.7l0.2-0.2l0-0.3l-0.2-0.4l0.3-0.4l0.4-0.3l0.9,0l0.3-0.3l0.8-0.4
			l1.9,0.1l1.1-0.1l0.4-0.3v-0.3l0.6,0l1-0.2l0.9-0.5l0.2-0.9l0.7-0.6l1.1-0.5l1.3,0.1l0.4,0.1l1.2,1l0,0l0.4,0.1l0.3,0.6l-0.6,0.8
			l-0.1,0.3l0,0.2l0.3,0.2l0.1,0.2l0.1,0.5l-1,3.1l-1.6,4.4l0,0l-0.1-0.1l-1.4-0.1l-0.9-0.4l-0.7,0.1l-1.3,0.6l-1.1-0.4l-1,0.1
			l-0.8,0.6l-0.1,0.2l-1.1,1.1l-0.9,0.5l-0.6,0l-0.9,0.5l-0.6,0.1l-1.5-0.1l-1.2,0.3l-0.9-0.2l-0.9-0.5l-0.9-1l-1.2-1l-0.5,0.1
			l-0.8-0.1L362,124l-0.4,0.3l0,0.3l-1.2,1.6l-1.1,0.4l-0.3,0.5L358.4,127.7z"/>
		<path id="BR-PI_2_" class="st0" d="M329.9,79.8l0.6,0.1l0.3-0.1L332,80l0.5,0.4l0.2,0.3l0,0l-0.1,0.4l-0.5,0.9l-0.8,1l-0.1,0.7
			l0.1,0.6l0.9,2.3l1.5,3.1l0.2,0.8l0.7,0.8l0,0.4l-0.4,0.7l0.4,1.9l-0.2,0.8l0.5,1l0.3,1.5l-0.3,0.8l-0.4,0.3l0.4,0.3l0.1,0.2
			l0.5,4l-0.1,0.2l0.4,1.3l0.5,2.5l0.5,1.3l0.6,0.3l1.3,0.2l0.4,0.6l0,0.3l-0.7,1.1l-0.6,1.5l0,0.5l0.3,0.3l0,0.6l0,0l-0.9,0.1
			l-0.3,0.2l-0.1,0.2l0,0.5l0.3,0.6l0,1.1l0.8,0.8l0.1,0.3l0,1.1l-0.4,0.9l-1.9,1.9l-0.5,0.1l-1.1,0.7l-0.3,0.4l-1,0.8l-1.3,0.6l0,0
			l-0.2,0.6l-0.7,1.1l-0.5,0.3l-0.4-0.1l-1,0.2l0.1,1.2l-0.9,0.9l-0.2,0l-0.3-0.3l-1.1,0l-0.4,0.5l-0.4,0.2l-1.3,0.2l-0.7,0.7
			l-0.4,0.6l-0.8,0l-0.7,0.3l-1.5,0.1l-0.4-0.1l-0.1-0.1l0.1-0.3l-0.8-0.5l-0.7-0.2l-0.7,0.3l-1,0.2l-0.2-0.1l-0.2-0.5l-0.7-0.2
			l-1,0l-1.6,0.8l0,0.5l1.1,2.2l0.1,0.6l-0.1,1.3l-0.1,0.4l-0.4,0.4l-1.4,2.5l-1.5,1.2l-0.7,0.2l-0.7-0.3l-0.7-0.1l-1.1,0.4
			l-0.6,0.4l-0.3,0.4l-0.6,0.2l-0.4,0.7l-0.2,0.1l-1-0.1l-0.9,0.3l-2-0.9l-0.9-1.2l-0.3-1.1l-0.3-0.5l-0.7-0.7l-1.1,0l0,0l-1.4-0.1
			l0,0l0-0.9l0.1-0.5l0.6-1.2l0.1-3.1l0.4-0.7l0-0.2l-0.8-1.5l-0.2-1.6l-0.3-0.9l0.4-1l0.8-0.7l0.6-1.2l0.1-0.7l0.2-0.4l0.1-0.1
			l0.7-1.3l0.3-1.1l0.2-1.5l0.5-1.5l1-1l1.3-0.4l1.3-0.2l0.5-0.2l0.8-0.7l0.5,0l0.7-0.3l1.4-1.3l1.1-0.4l1-1l0.3-0.4v-0.2l0.9-0.9
			l0.2-0.1l0.4-0.1l0.1,0.1l0.5-0.1l0.5-0.3l0.7-0.1l0.5,0.1l1.2,0.9l0.7,0l1.2-0.4l0.4,0l0.3,0.1l1.1-0.1l0.6-0.6l0.2-0.7l0.1-0.6
			l0.1-0.2l0.2-1.1l-0.1-0.4l-0.1-0.2l-0.8-0.4l-0.9-1l-0.2-1.1l-0.1-1l0.1-1.2l2-2.2l0.1-0.3l0-1.2l-0.3-1.5l-0.8-1.4l0.6-1.4
			l0.1-0.7l-0.2-0.6l-0.6-0.4l-0.2-0.9l0.4-0.5l0.3-0.1l0.4-1l0.9-0.9l0.4-0.9l0-0.9l1.4-1.7l0.4,0.1l1.6-0.2l2-1.9l0.9-1.1l0.2-0.7
			l-0.3-0.3l-0.1-0.4l0.2-0.7l0,0l0.4,0.1l0.7,0.4l0.2,0.2l-0.1,0.2L329.9,79.8z"/>
		<path id="BR-PR_2_" class="st0" d="M269.7,272.2l-2.6,0l-0.2,0.2l-0.9,0.1l-0.4,0l-0.1-0.2l-0.8,0.3l-0.7,0.7l-1.6,1l-0.7-0.1
			l-0.6-0.3l-1.5-1.3l-0.5-0.2l-0.4,0l-1.4,0.4l-1.1,0.1l-0.4,0l-0.7-0.4l-0.5,0.1l-0.7,0.3l-0.3,0.7l-0.4,0.4l-0.9,0.5l-1.7-0.2
			l-1,0.6l-0.4,0.4l-0.3,0.8l0.4,1.5l-0.4,0.4l-0.4,0l-0.4,0.2l-0.1,0.2l-0.7-0.9l-2.1,0.1l-1.8-0.2l-0.8-0.6l-0.1-0.2l-0.5-0.3
			l-2.1-0.2l-2.6-0.8l-1.1,0.3l-1.3,0l-1-0.7l-0.2-0.2l-0.5-0.1l-0.3,0l-0.3,0.2l-1.8,0l0,0L231,274l-1.2-2l0-1.3l-0.5-1.4l-1.7-1.2
			l-0.5,0.6l-1-0.1l-0.5,0.2l-0.5,0.4l-0.7-0.5l-0.4,0l-0.1-1.1l0.3-0.8l0.5-0.6l0.6-1.1l0-0.2l-0.2-0.4l0-0.6l0.4-1.8l0.6-1.5
			l-0.1-1.1l0.6-1.2l-0.1-0.5l-0.4-0.4l-0.2-0.8l0.3-0.5l0.4-0.3l0,0l1.2-0.8l0.2-0.4l0.8-3.9l0.2-0.2l0.5-0.2l0.8-0.5l0.3-0.3
			l0.7-1.7l0-0.6l0.5-1.1l0.5-0.4l2.6-1.1l0,0l1.6-1.1l1.9,0.3l2-0.1l1.6,0.1l0.6-0.3l0.2-0.3l0.4-0.2l0.6,0.1l0.7,0.4l1.2,0.2
			l1.3,0.5l0.6,0.1l0.5-0.3l1.3,0l0.4,0.5l0.9,0.4l1.7,0.4l0.3,0.2l0.3,0.6l0.8,0l0.2-0.2l0.8,0.1l0.3,0.3l2.6,0.1l1.5-0.4l0.6,0.8
			l1.8,1.4l0.4,0.9l0,1.3l-0.2,0.3l-0.1,0.4l0.2,0.9l0.6,0.7l0,0.9l-0.2,0.3l0.7,1.5l0.6,0.6l0.3,0.1l0.2,0.3l0,0.4l0.4,1l0.3,0.1
			l0.1,0.2l-0.1,0.5l-0.6,1l0.2,1l0.3,0.2l0.5,0.1l1.2-0.1l1.7-0.3l0.2,0.2l0.8-0.1l0.8,0.1l0.8,0.6l-0.1,0.2l-0.4,0.3l-0.3,1.6
			l0.2,0.4l0.5,0.3l0.3-0.4l0.5-1.3l0.4-0.1l1,0.3l-0.2,1l0.4,1.6l0.7,0.3l0.1,0.6l0,0l-0.7,0.5l-0.3,0.7l-0.3-0.1l0.1-0.9l0.7-0.5
			l-0.7,0.1l-0.4,0.2l-0.4,0l-0.2-0.2l-0.3-0.1l-0.3,0.2l-0.1,0.5l0.3,0.4l-0.4,0.5l-0.1,0l-1.2-0.3l-0.4-0.3l-0.2,0.1l-0.1,0.4
			l0.2,0.2l0.8,0.3l0.7-0.1l1,0.3l0.1,0.2l-0.5,0.3l-0.8,1.4l-0.6,0.4l-1.2,0.3l-0.1,0.2l1.4-0.1l0.1,0.6L269.7,272.2z"/>
		<path id="BR-RJ_2_" class="st0" d="M313.3,243.6l0-0.4l0.2-0.1l1.6,0.1l1.3-0.3l-1.2-0.8l-0.7-0.2l-1.4,0.3l-0.7,0.8l-0.5,0.2
			l-0.3,0l-0.7-1.1h-0.2l-0.4,0.2l-0.5,0.5l-1.5,0.4l-0.2,0.4l-0.1,0.9l1.1,0.1l0.5,0.5l-0.6,0.5l-0.5-0.1l-0.7,0.1l0,0l-0.2-0.1
			l-0.8-0.8l0-0.2l0.5-1.7l0.5-0.6l1.1-0.5l0.2,0.1l1.4-0.2l0.7-0.3l0.8-1.1l-0.4-0.8l-0.8,0l-1.5,0.3l-0.9-0.2l-0.6-0.8l-0.3-0.6
			l-0.6-0.3l0,0l0.3-0.2l1.2-0.4l1.4-0.7l1.3-0.1l0.2,0.1l0.8-0.4l0.5-0.4l2-0.9l0.3,0l0.2,0.2l1.6,0l0.6-0.1l0.8-0.5l0.3,0l1.2,0.1
			l0.2,0.1l0,0.2l0.7-0.1l4.6-2.2l1.2-0.5l0.1-0.3l-0.1-0.3l-0.7-0.1l0-0.4l0.9-1.8l1.2-3l-0.4-0.3l0.3-0.2l0.6-0.1l1.2-1.2l0,0
			l0.9,0.4l0.3,2.3l1.2,0.6l2.1,0.5l1.5-0.2l0.8,0.5l0,0l0,0.6l-0.5,0.8l-0.1,1l0.6,3.3l-0.2,0.3l-1.5,0.9l-2.9,0.9l-1.4,0.8
			l-1.7,1.8l-0.1,0.8l0.2,0.6l-0.1,0.8l-0.4,0.7l-0.9,0.2l-3.2-0.1l-2.8,0.3l-1.2-0.2l-0.2-0.2l0-0.3l0.5-0.7l0.3-0.7l0-0.3
			l-0.4-0.1l-1.4,0.6l-0.1,0.3l0.2,0.4l0.7,0.6l0.1,0.5l-0.3,0.3l-0.8,0.2l-0.8,0l-3.9,0.5L313.3,243.6L313.3,243.6z M310.8,244.6
			l-0.3-0.5l1-0.8l0.9,0.5l0.2,0.3l-1.2,0.2l-0.2-0.2H311L310.8,244.6L310.8,244.6z"/>
		<path id="BR-RN_2_" class="st0" d="M387.5,99.8l-0.5,0.1l-1.7-0.1l-0.5,0.2l-1.2-0.5l-1.1-0.1l-2.8,0.2l-0.3-0.2l-1.7-0.2
			l-0.3-0.2l0-0.5l-0.2-0.2l-0.7,0l-0.9,0.7l-0.2,0.7l0.4,0.4l0.3,0.7l-0.5-0.2l-0.2,0.3l0.1,0.7l0.2,0.5l-0.3,0.6l-0.2,0.4
			l-1.1,0.5l-0.4-0.4l0.3-0.8l-0.4-0.6l-1-0.1l-0.9,0l-1.5,0.6l-0.1-0.1l-0.2-0.7l-0.2-0.1l-1.7-0.3l0-0.8l0.1-0.2l0.4-0.1l0.2-0.2
			L369,99l0.2-0.5l1.5-1.6l0-0.6l-0.3-0.2l-0.3,0l-1.6,0.5l-0.7,0.1l-1.6,0.6l-0.2,0.5l0,0.5l-0.4,0.3l-1.6,0.8l-0.6,0.6l-1.4-0.3
			l-0.4-0.2l-0.9-0.8l-0.3,0.2l0,0l-0.3,0.2l-0.3-0.1l0.2-1l0.7-1.1l0.4-0.4l0.2,0l0.4,0.2l0.5-0.1l0.3-0.5l0.7-0.7l0.7-1.2
			l-0.1-0.4l0.3-0.8l0.4-0.3l0.4-0.5l1.6-3.3l1.3-1l2.4-0.8l0,0l0.2,0.4l0.4,0.4l1.5,0l0.6,0.2l0.8,0.9l0.6,0.2l1.6-0.2l1.4,0.3
			l1.2-0.1l1.1-0.4l2.2,0.4l0.6,0l1,0.4l0.5,0.4l0.3,0.5l1.1,2.3l0.2,0.9l0,0.4l0.7,2.6l0.1,0.8l0.4,0.3l0.5,1.3L387.5,99.8z"/>
		<path id="BR-RO_2_" class="st0" d="M166.8,161.3l-0.6-0.7l-0.2-0.9l-0.8-0.3l-0.4,0.2l-0.9,0l-2-0.9l0-0.2l-0.3-0.3l-0.6,0.3
			l-1-0.8l-0.7-0.5l-0.4-0.7l-0.1-0.7l-0.5-0.2l-0.9,0.5l-0.6,0l-0.7-0.4l-0.4-0.7l-1.5-0.8l-1-0.1l-0.6,0.3l-0.4,0.4l-0.7-0.1
			l-0.2-0.1l-1-0.2l-1.5-0.1l-0.4-0.2l-0.6-0.6l-0.1-1l-0.8-0.2l-0.9-0.5l-0.4-0.8l-0.1-0.1l-1.3-0.1l-0.2-0.2l-0.4-1.8l-0.4-0.4
			l-0.2,0.6l-0.3-0.2l-0.1-0.3l0.3-0.7l-0.4-0.7l-0.7-0.2l-0.6-1.7l-0.1-0.8l0.8-1.4l-0.1-0.8l-0.6-1l-0.4-1.1l0-1.1l0.3-0.2
			l0.2-0.7l0.5-0.5l0.2-0.7l-0.1-0.7l-0.2-0.4l0-0.7l0.3-0.8L141,133l-0.5-0.2l-0.5,0.5l0,0.2l-0.4,0.5h-0.3l-1.1-0.5l-2.5,0
			l-2.7,0.9l-0.8,0l-0.7,0.2l0,0l-1.5-0.6l0,0l1.6-1.3l0.9-0.3l0.8-0.9l0.1-0.3l-0.1-0.6l1.9,0.1l1.4-0.2l0.4,0.2l1.1,1.1l0.2,0
			l0.6-0.4l0.1-0.4l0.2-0.3l0.5-0.2l0.4,0.1l0.7-0.2l0.6-0.6l0.9-0.5l0.2,0l0.3,1.1l0.3,0.3l0.3,0l1.2-1.5l-0.1-0.9l0.3-0.4l0.9-0.6
			l0.2,0l0.4,0.3l0.9,0l0.6-0.5l1-0.2l1.9,0.2l-0.1-0.7l0.1-0.9l1-0.6l0.4-0.6l0.2-0.5l-0.1-0.2l-0.4-0.3l0-0.3l0.6-0.8l1.2-0.3
			l0.1-0.1l0-0.6l0.8-0.2l0.7-1.3l5.3,0l1.1,0.6l0.2,0.2l0.4,0.9l0.7,0.6l1.2,0.5l0.6,1.6l0.2,0.1l0.5-0.1l0.3,0.1l0.3,1.4l1.6,0.7
			l0.3-0.1l0.3-0.9l0.9-0.5l0.7,0.1l0.2,0.2l0,0.3l0,0l0.7,0.5l0.3,0.6l-0.4,0.7l-0.6,2.4l0,0.2l0.4,0.2l0.1,0.3l0.1,0.7l0.4,1.1
			l-0.5,0.8l0.2,0.9L170,136l0,0.4l0.1,0.9l0.7,1.3l-0.4,4.4l8.4,0l-0.1,0.3l0.6,0.5l1.7,0l0.5,0.1l0.5,0.2l0.7,1.8l-0.1,0.4
			L182,147l-0.7,0.5l-0.1,0.6l0.2,1.6l0.3,0.2l0.4,0l0.7,1.6l0,1l0.3,0.7l0,0.8l-0.3,1.1l-0.8,1l-0.3,1.1l-0.3,0.4l-0.2,0.2
			l-0.8,0.3l-0.5,0.5l-0.7,1.8l-0.3,1.2l-2,1.3l-0.7,0.7l0,0l-0.4,0l-1.3-0.8l-0.6-0.7l-3.5,0.5l-0.6-0.2l-0.1-0.1l-1.7,0.3
			l-0.2-0.1l-0.3-0.7L166.8,161.3z"/>
		<path id="BR-RR_2_" class="st0" d="M191.4,41.1l0.8,8.3l0,0l-9,0l0,0.3l-1.1,1.6l-0.8,1.5l0,0.6l-0.6,1.3l-0.1,0.3l0.1,0.4
			l0.6,0.7l0,0.3l-0.2,0.2l-1,0.3l-0.7,0.7l-0.6,0.2l-0.9-0.1l-0.4-1.2l-0.9-1l-1.4-0.5l-0.8,0l-0.3,0.4l-1,0.3l-0.6,0.3l-0.5,0.6
			l-0.4,1.5l0.2,0.9l-0.1,0.8l-0.4,1.1l0.2,1l-1.2-0.5l-0.7,0.2l-0.3,0l-0.5-1l-0.7-0.8l-1-0.6l-0.3,0l-2.4-2.2l0.1-0.6l0.9,0.2
			l0.6-0.6l0-0.3l-0.6-2.1l-0.3-0.4l-0.6-0.4l-0.4-1.1l-0.1-2.4l0.3-0.5l0.4-1.5l-0.3-0.8l-0.2-0.8l0.8-0.7l0-0.2l-0.4-0.5l-0.1-1.1
			l-0.8-2.3l-1.3-1.8l0.3-0.7l0.4-1.6l-0.2-0.3l-1-0.5l-0.7-0.1l-0.4,0.1l-0.5-0.2l-0.6-0.6l0-0.5l-0.3-0.1l-0.6,0.2l-0.3,0
			l-0.4-0.2l-0.4-0.4l0,0l0.1-0.2l0.1-1.1l-0.1-0.1l-1.6-0.1l-1.8,0.1l-1.6-0.3l-0.1-0.3l0.4-0.9l0.1-0.7l-0.4-0.9l-0.9-1.7l-0.4-1
			l-0.2-1.8l0.4-0.7l0-0.5l-0.9-1l-1.1-0.5l-1.4-1.4l-0.5-0.9l-0.1-0.5l-0.6-0.3l-0.1-0.2l0-0.4l0.1-0.2l0.4,0l0.5,0.3l0.5,0.8
			l0.3,0l1.7-0.2l0.7,0l0.9,0.3l0.3,0.6l0.3,0.9l0.3,0.2l0.5,0l0.4-0.3l0.5-0.2l1.6,0.1l0.2,0l0.6,0.6l0.3,0.1l0.3-0.1l0.3-0.8
			l0.6,0.1l0.7,0.5l1.9,2.2l0.5,0.3l0.3,0.1l0.7-0.3l0.4-0.6l0-0.4l-0.4-1.3l0.2-0.9l0.2-0.1l0.9,0l0.5-0.5l0.8-0.5l0.4,0l1.9,0.7
			l0.3-0.1l0.4-0.4l0.5-0.1l0.6,0.2l0.5-0.1l0.7-0.6l0.5-0.1l0.6,0.1l0.5,0l0.3-0.4l0-0.7l1.5-0.9l1.1,0.1l1.3-0.2l0.4-0.6l0-0.3
			l0.3-0.5l0.4-0.1l0.9-0.4l0.5-0.5l0.5-0.8l-0.6-1.7l-0.6-0.2l0.3-0.1l0.7,0l0.4,0.2l1.7,0l0.5-0.5l0.4-0.1l0.7,0.2l0.3,0.6
			l0.5,0.4l0.2,0.7l-0.3,2.4L183,16l-0.6,0.3l0,0.4l0.8,0.2l0.8-0.1l1.1,0.4l0.9,0.5l-0.4,0.7l0,0.6l1.1,1.7l0.1,0.8l-0.7,1.4
			l-0.9,0.7l-0.4,0.7l0.1,0.2l0,1.1l-0.7,1.2l-0.4,1.4l-0.2,1.3l0,1.3l0.5,0.9l0.2,0.9l0,0.7l0.8,0.5l0.4,0.1l0.1,0.3l-0.2,2.5
			l0.1,0.4l0.9,0.1l-0.3,0.6l0.2,0.2l1.1,0.4l0.7,0.9l1.3,1.3L191.4,41.1z"/>
		<path id="BR-RS_2_" class="st0" d="M231.2,345l-0.2,0l-0.9-0.5l-0.1-0.2l0.3-2.1L230,340l0.1-0.5l0.3-0.6l1.4-1.2l0.4-0.8l1.1-1.3
			l-0.7-0.8l-0.5-0.3l-1.1-0.3l-1.1-1.1l-0.6-0.8l0-0.8l-0.2-0.6l-0.6-1l-1-1.1l-0.3-0.3l-1.2-0.6l-0.7,0.1l-0.9-0.7l-0.7-0.8
			l-0.6-0.4l-0.1-0.8l-0.9-1.1l-1.6-0.2l-0.4-0.2l-0.8-0.8l-0.9,0.1l-1.1-0.7l-0.9-1.8l-0.5-0.7l-1.2-1l-0.3,0l-0.3,0.9l-1.3,1.1
			l-1.3,0.1l0-1.4l0.2-0.6l-0.2-0.5l-1.8-2.1l-1.2-0.9l-1.1-1l-0.9-1l-1.3-1.1l-0.9-0.1l-1.1,0.1l-0.6,0.7l0,0.5l-0.5,0.5l-0.5,0
			l-0.3-0.2l-1.5,0.1l-0.3-0.2l-0.1-0.4l-0.2-0.1l0.4-0.1l0.5-0.4l1.2-1.4l0.1-0.9l0.3-0.6l0.4-0.2l0.6,0l0.3-0.1l0.4-0.5l2.7-3.2
			l0.3-0.7l0.1-0.5l0.4-0.5l0.6-0.4l0.7-0.2l1-2.1l0-0.3l0.2-0.2l0.8-0.4l0.8-0.9l0.4-0.6l0.2-0.6l0.7-1l0.5-0.1l0.8,0.1l0.3,0.4
			l0.2-0.6l-0.1-0.3l-0.7-0.4l0-0.2l0.2-0.2l0.5-0.2l0.4-0.5l1.4-0.5l0.5-0.5l0-0.4l0.4-0.4l1.1-0.6l1.2-0.2l0.9-0.9l0.1-0.5
			l0.6-1.2l0.2,0l0,0.2l0.1,0.1l0.7-0.1l1.2-0.6l1.3-0.3l0.6-0.3l1-1.1l0.2,0l0.3-0.2l0.5-0.7l1.1-0.4l0.1,0.2l0,0l1.7,0.2l1.6-0.6
			l0.3-0.4l0.7,0.3l-0.1,0.4l1.5,0l0.8,0.5l1.3-0.2l0.9,0.6l1.3-0.2l0.8,0.1l1.4-0.1l1.1,0.4l1.2,0.7l0.5,1.2l0.8,0.1l0-0.2l0.9-0.2
			l2.7,1.7l0.7,0.8l0.3,0l0.8,0.5l1.5,1.7l0.8,1.1l0.2,0.7l1.1,1.3l0.6,0.3l3.3,0.5l1-0.2l1.6,0.2l0.4,1.1l-1,0.8l-0.6,0.2l-0.4,0.9
			l0.1,1.1l-0.2,0.8l-0.3,0.6l-0.6,0.1l-0.6,0.8l0,0.7l0.9,0.6l0.1-0.1l-0.1-0.5l0-0.5l0.7-0.4l0.8,0.3l0.4,0.4l0.6,0.4l0.2,0l0,0
			l-0.7,0.8l-1.9,3.4l-2.1,5.7l-3.1,5.1l-2.7,3.3l-3.2,2.9l-3,1.8l-1.5,2.1l-0.1-0.2l0.3-0.8l0.2-1.1l-0.6-0.8l0-0.2l0.5-0.1
			l0.5,0.2l0.3,0.3l0.5,0l1.3-0.7l0.4-0.3l1.4-1.8l0.4-0.3l0.2,0.1l0.5-0.1l0.5-0.4l0.5-0.6l0.2-0.7l0.1-0.5l-0.1-1l0.1-0.7l0.8,0
			l0.4,0.1l0.1,0.4l0.2-0.1l-0.1-0.7l0.2-1l0.2-0.3l1.3-0.8l0.4-0.5l0.2-1.3l-0.1-1.1l0.3-0.3l0.2,0.4l0.2,0l0.2-0.2l0.2-1.5l0-0.2
			l-0.5-0.6l-0.3,0l-0.1,0.3l0.1,0.2l-0.1,0.3l-0.2,0.1l-0.7,0l-1,0.2l-0.2,0.8l-0.3,0l-0.4-0.2l0-0.8l-0.4-0.4l-0.5,0.2l-0.3-0.2
			l-0.4-0.6l-0.2-0.7l0.1-0.3l-0.3-0.3l-0.3,1.3l0.2,1.1l0.6,1l-0.3,0.4l-0.4,1.2l0.2,1.5l-0.1,0.4l-0.2-0.2l0.1-0.1l0-0.3l-0.2-0.6
			l-0.2-0.2l-0.3,0.3l0,0.7l-0.7,1.6l0,0.9l0.1,0.3l-0.4,0.3l-0.8,0.3l-0.3,0.8l-2,0.8l-0.4,0.3l-0.3,0.8l0,1.1l-0.5,1.1L240,327
			l-0.1,0.9l0.2,0.4l0.1,0.5l-0.5,0.3l-0.1,0.7l0.2,0.3l0.3-0.1l0.6,0.3l0.1,0.4l-1,0.8l-1.1,2.2l-0.9,3.4l-1,2.2l-0.8,1.2l-3.8,3.7
			L231.2,345z"/>
		<path id="BR-SC_2_" class="st0" d="M261.6,303.6l-0.2,0l-0.6-0.4l-0.4-0.4l-0.8-0.3l-0.7,0.4l0,0.5l0.1,0.5l-0.1,0.1l-0.9-0.6
			l0-0.7l0.6-0.8l0.6-0.1l0.3-0.6l0.2-0.8l-0.1-1.1l0.4-0.9l0.6-0.2l1-0.8l-0.4-1.1l-1.6-0.2l-1,0.2l-3.3-0.5l-0.6-0.3l-1.1-1.3
			l-0.2-0.7l-0.8-1.1l-1.5-1.7l-0.8-0.5l-0.3,0l-0.7-0.8l-2.7-1.7l-0.9,0.2l0,0.2l-0.8-0.1l-0.5-1.2l-1.2-0.7l-1.1-0.5l-1.4,0.1
			l-0.8-0.1l-1.3,0.2l-0.9-0.6l-1.3,0.2l-0.8-0.5l-1.5,0l0.1-0.5l-0.7-0.3l-0.3,0.4l-1.6,0.6l-1.7-0.2l0,0l0.7-1.4l0.4-1l-0.3-1.6
			l0.2-1.6l0-1.2l0.5-0.9l0,0l1.8,0l0.3-0.2l0.3,0l0.5,0.1l0.2,0.2l1,0.7l1.3,0l1.1-0.3l2.6,0.8l2.1,0.2l0.5,0.3l0.1,0.2l0.8,0.6
			l1.8,0.2l2.1-0.1l0.7,0.9l0.1-0.2l0.4-0.2l0.4,0l0.4-0.4l-0.4-1.5l0.3-0.8l0.4-0.4l1-0.6l1.7,0.2l0.9-0.5l0.4-0.4l0.3-0.7l0.7-0.3
			l0.5-0.1l0.7,0.4l0.4,0l1.1-0.1l1.4-0.4l0.4,0l0.5,0.2l1.5,1.3l0.6,0.3l0.7,0.1l1.6-1l0.7-0.7l0.8-0.3l0.1,0.2l0.4,0l0.9-0.1
			l0.2-0.2l2.6,0l0,0l-0.2,0.6l0.2,0.8l0,0.2l-0.7,0.6l-0.5-0.2l-0.4-1.2l0,0.5l0.3,1.3l0.8,0.8l0.3,0.5l-0.5,1.1l-0.1,1.1l0,0.2
			l0.4,0.4l0.1,2.9l0.2,0.3l0.2,0.1l0.4-0.2l0.2,0.4l0,0.4l-0.2,0l-0.2-0.1l-0.6,0.3l-0.2,1.9l0.3,1.3l-0.3,0.4l0.2,0.9l0.4,0.9
			l-0.4,1.1l-0.3,2l-0.8,2.3l-0.2,0l-0.2-0.4l0.1-0.5l-0.4-0.6l-0.1,0.2l0.1,1.2l0.6,0.4l-0.4,0.8l-0.8,0.3l-2,1.5l-1.4,1.3
			l-1.8,2.2L261.6,303.6L261.6,303.6z M270.3,290.7l-0.1-0.2l0.1-0.9l0.4-1.2l-0.2-0.6l0.1-0.5l0.7-0.4l0.1,0l0.3,0.5l-0.3,1.3
			l-0.4,0.4l-0.3,0.6l0.1,0.6L270.3,290.7L270.3,290.7z M270.1,278.7l-0.9-1l1.2-1.2l0.1,0l0.3,0.5l-0.4,0.6L270.1,278.7z"/>
		<path id="BR-SE_2_" class="st0" d="M364.3,146.9l-1.4,0.4l-0.8-0.3l-0.3-0.2l-0.2-0.4l-0.9-0.4l-0.3-0.3l-0.1-0.2l0.2-0.2l0.1-0.7
			l-0.1-0.2l-0.7-0.7l-0.3-0.7l-0.5-0.3l-0.5-0.8l0-0.4l0.3-0.8l0.2-0.1l0.8,0l0.6,0.4l1.2-0.5l0.3-0.3l0.1-0.3l-0.4-1.3l0-0.4
			l0.3-0.8l0-1.5l-0.4-0.6l-1-1l-0.6-1.2l-0.1-1l0.3-0.6l0,0l3.2,1.5l1.8,0.5l2.6,1.5l0.6,1.2l0.9,0.7l0.8,0.4l0.2,0l1.8,1.1
			l0.3,0.6l0,0l-1.2,0.4l-2.2,1.4l-0.5,0.4l-0.8,1.1l-0.2,0l0.1-0.5l-0.5-0.9l-0.5,0.1l0.2,0.6h0.6l0.1,0.1l-0.3,1l-0.6,1l-0.3-0.2
			l-0.2-0.3l-0.5-0.1l0.1,0.3l0.6,0.3l-0.1,0.9l-0.4,0.6l-0.5,1l-0.4,0.1L365,146l0.2-0.7l0.2-0.1l0.2-0.2l0.2-0.5l-0.4-0.2l0,0.3
			l-0.2,0.6l-0.2,0.2l-0.1,0.5l0.1,0.4l-0.1,0.3L364.3,146.9z"/>
		<path id="BR-SP_2_" class="st0" d="M276.9,263.6l-0.1-0.7l-0.7-0.3l-0.4-1.6l0.2-1l-1-0.3l-0.4,0.1l-0.5,1.4l-0.3,0.4l-0.5-0.3
			L273,261l0.3-1.6l0.4-0.3l0.1-0.2l-0.8-0.6l-0.8-0.1l-0.8,0.1l-0.2-0.2l-1.7,0.3l-1.2,0.1l-0.5-0.1l-0.3-0.2l-0.2-1l0.6-1l0.1-0.5
			l-0.1-0.2l-0.3-0.1l-0.4-1l0-0.4l-0.2-0.3l-0.3-0.1l-0.6-0.6l-0.7-1.5l0.2-0.3l0-0.9l-0.6-0.7l-0.2-0.9l0.1-0.4l0.2-0.3l0-1.3
			l-0.4-0.9l-1.8-1.4l-0.6-0.8L261,244l-2.6-0.1l-0.3-0.3l-0.8-0.1l-0.2,0.2l-0.8,0l-0.4-0.6l-0.3-0.2l-1.7-0.4L253,242l-0.4-0.5
			l-1.3,0l-0.5,0.3l-0.6-0.1l-1.3-0.5l-1.2-0.2l-0.7-0.4l-0.6-0.1l-0.4,0.2l-0.2,0.3l-0.6,0.3l-1.6-0.1l-2,0.1l-1.9-0.3l-1.6,1.1
			l0,0l0.4-0.5l0.4-0.8l0.6-0.6l3.7-2.2l1-0.9l0.6-1.2l0.8-0.8l0.2-0.6l0.7-0.5l0.1-0.6l-0.2-0.4l1-1.1l0.6-1.1l0-0.5l-0.2-0.9
			l0.1-0.2l0.5-0.3l1.3-1.8l0.1-1.4l0.3-0.8l0.5-0.1l0.4-0.3l1-1.3l0.6-0.5l0.2-0.1l0.6,0l0.7-0.4l0.1-0.2l0.2-1.2l0,0l0.6-0.6
			l1.1-0.5l0.9-0.2l0.7-0.8l0.7-0.3l0.4,0.1l0.8,0.8l1.2,0l2.1,0.5l0.8-0.2l0.8,0.1l1-0.3l1.1,0.7l0.8,0.4l-0.1,0.4l0.2,0.7l0.6,1
			l0.3,0l0.3-0.2l0.3-0.5l0.2-0.6l0.1-0.1l0.3,0l0.2,0.2l0.1,0.5l0,1.4l0.6,0.3l0.2-0.2l-0.1-1.2l0.2-0.6l0.2-0.2l4-0.3l0.5-0.6
			l0.7,0.7l0.5,0.2l1.4-0.3l0.2-0.5l-0.1-0.2l0.2-0.3l1.2-0.1l0.8,0.4l0.4-0.3l0.6-0.1l1.6,1.6l0.1,0.5l-0.3,0.5l-0.1,1.2l0.3,0.3
			l0.9,0.6l0.2,0.8l0,0.3l-0.7,1l-0.1,0.9l0.4,0.4l0.2,0.3l0.2,1.1l0.6,0.9l0.4,1l0,0.4l0.8,0l0.4-0.2l0.1-0.2l0.5,0l1.8,0.6
			l0.1,0.2l0,0.6l-0.3,1.1l-0.9,1.3l0.1,1.4l-0.1,1.7l-0.3,0.8l0.4,0.8l0.9,0.6l0.9,0.4l0.2,0.8l-0.6,0.3l1,1.6l0.6,0.1l1-0.1
			l0.1,0.3l1.8-0.5l0.3,0.2l0.6-0.2l0.4-0.5l0-0.4l-0.1-0.1l0.1-1.1l0.6-0.2l0,0.2l-0.2,0.2l0,0.2l1.1,0l1.2-0.1l0.9-0.3l0.6-0.6
			l0.9-0.5l1.1-0.1l0.6-0.4l0,0l0.6,0.3l0.3,0.6l0.6,0.8l0.9,0.2l1.5-0.3l0.8,0l0.4,0.8l-0.8,1.1l-0.7,0.3l-1.4,0.2l-0.2-0.1
			l-1.1,0.5l-0.5,0.6l-0.5,1.7l0,0.2l0.8,0.8l0.2,0.1l0,0l0,0.1l-0.8,0.2l-0.5-0.4l-0.7,0.5l-0.2,0.3l0.1,0.1l-0.4,0.3l-1.6,0.8
			l-1.1,0.3l-0.1,0.2l0,0.5l0.2,0.8l-0.2,0.2l-0.7,0.1l-0.3-0.3l-0.7-0.1l-1.5-0.2l-0.4,0.1l-0.6,0.2l-0.8,0.4l-0.2,0.2l-0.6,1.1
			l-0.6,0.3l-0.2-0.1l0.3-0.2l-0.2-0.6l-0.6-0.4l-0.4,0.6l0.1,0.4l-0.1,0.3l-3.7,2.1l-0.5,0.4l-0.2,0.6l-1.6,1.5l-1.6,1l-0.9,0.3
			l-2.2,1.6l-1.1,1l-0.3,0l-0.2,0.3l0.4,0.2l0.3,0l0.5-0.2v0.4l-0.3,0.6l-0.6,0.4L276.9,263.6L276.9,263.6z M298.6,252.3l-0.8-0.3
			l-0.6,0.1l-0.2-0.2l0-0.4l0.5-0.3l0.5-0.9l0.4,0.1l0.3,0.3l0.1,1.4L298.6,252.3L298.6,252.3z"/>
		<path id="BR-TO_2_" class="st0" d="M292.4,154.9l-2.6,0.7l-0.9,0.7l-1.3,0.5h-0.8l-2.2,0.5l-1.2,1l-0.9,0.4l-0.2-0.1l-0.7-1.3
			l-0.3,0l-0.2,1.6l-0.3,0l-1.6-0.3l-1.5-0.7l0.3-0.8l-0.1-0.4l-2.2,0.3l-1.3-0.2l-0.3,0.3l-0.1,0.5l-0.4,0.4l-0.6,0l-0.3-1.5
			l-0.5-1.8l-0.5-0.9l-0.6-0.6l-0.6,0.5l-0.7,1.2l-0.8,2.9l-0.3,0.1l-2-0.7l-1.5-0.8l-1.9-0.2l-1.1-0.5l-1.2-0.2l0.3-1.1l0.6-0.9
			l0-0.8l-0.3,0.1l-0.9,1l-0.3,0.6l-0.1,0.9l-0.2,0.2l0,0l-0.4,0l-0.5-0.2l-0.5-1.6l0.4-1.3l-0.2-1.5l-0.3-0.3l0-0.8l0.2-1.6
			l-0.5-1.1l0-0.2l0.4-0.4l0.1-0.4l-0.7-0.7l0-0.4l0.9-2.9l0-1.4l0.3-1.5l0.9-2.6l0.2-0.1l0.2-0.4l0.2-1.5l0.5-0.6l0.3-0.9l0.3-0.5
			l0,0l0.8-1.8l0.6-2.2l0.6-0.8l0.6-0.5l0.6-0.8l0.5-0.9l0.7-0.4l0.5-0.1l0.4-0.4l0.5-0.8l0.1-0.5l0.8-1.6l0.5-0.4l0.9-2.5l0.3-2
			l-0.1-0.1l-0.4-0.2l-0.8-0.9l-0.3-0.5l-0.1-0.4l0.1-0.3l0.7-0.8l0.6-1l0-1.3l-0.2-1.1l0.1-0.2l1.2-0.9l1.7-0.6l1.2-0.6l0.1-0.2
			l-0.1-0.7l0.4-0.6l0.7-0.7l0.6-0.1l0.1-0.7l-0.1-0.6l0.1-0.2l0.7-0.2l0.3-0.2l0.5-1.3l-0.5-0.7l0-0.7l0.1-0.1l0.5,0l0.4-0.2
			l0.2-0.3l0-0.3l-0.6-0.6l-0.4-0.1l-0.2-0.2l-0.5-0.8l-0.6-0.1l-0.9,0.1l-1.1-0.4l0,0l0.3-0.3l1.3-0.9l1-0.3l0.4,0l1.4,0.7l0.7,0
			l0.5-0.3l0.9,0.1l0.3,0.3l0,0.5l0.1,0.2l0.6,0l1.7,0.7l0.4,0.5l0.2,1.7l0.3,0.7l-0.1,1.8l0.1,0.5l0.3,0.6l0,0.2l-0.9,3l-0.2,1.2
			l0.1,0.5l-0.1,0.8l-0.9,1l-0.9,0.3l-0.1,0.3l0.9,0.6l0.2-0.1l0.7,0.1l0.1,0.2l0.1,0.4l-0.3,0.6l0.4,0.7l0.4,0l1.5,2l0.4,0.4
			l1.1,1.5l1-0.7l2.1-0.5l0.9,0.6l0,0.9l-0.3,1.6l0.2,0.7l-1.7,0.2l-0.7,0.3l-0.3,0.3l-0.3,0.7l-0.4,1.3l0.2,0.6l-1.3,1.2l-0.1,0.3
			l0.1,0.2l1,0.1l0.5,0.3l0.4,0.8l0,0.8l0.3,0.5l1.9,1l0,0.3l-0.8,0.9l0.1,0.8l1,0.8l0.5,1.4l0.7,1l0.3,0.1l0.9-0.1l0.5,0.1l0.4,0.2
			l0.3,0.4l0.6,0.3l0,0l1.4,0.1l0,0l-0.3,0.3l-0.1,0.5l-0.3,0.2l-1.9,1l-1.6,1.3l-0.1,0.2l0.6,0.9l-0.2,0.2l-0.5,0.1l-0.4,0.3
			l-0.7,1.7l-0.5,0.4l-0.2,0.6l0.1,0.4l0.9,1l1.8,0.3l0.9,0.5l0,0.4l-0.3,0.2l-1,0.4l-0.2,0.5l0,0.2l0.2,0.2l0.5-0.1l0.4,0.1
			l0.3,0.2l0.1,0.3l-0.5,0.3l-0.6,0.2l-1,0.8l-0.1,0.4l0,1.4l0.2,0.6l0.5,0.3l0.5,0.1l0.2,0.1l0.1,0.2l0,0.5l-0.7,1.2L292.4,154.9z"
			/>
	</g>
	<g id="letra_1_">
		<g id="XMLID_364_">
			<path id="XMLID_399_" class="st1" d="M190.6,243.5"/>
			<path id="XMLID_398_" class="st1" d="M257.7,121.4"/>
			<text id="XMLID_397_" transform="matrix(1 0 0 1 136.8943 91.4532)" class="st1 st2 st3">AM</text>
			<text id="XMLID_396_" transform="matrix(1 0 0 1 169.8826 39.0308)" class="st1 st2 st3">RR</text>
			<text id="XMLID_395_" transform="matrix(1 0 0 1 250.3894 42.7872)" class="st1 st2 st3">AP</text>
			<text id="XMLID_394_" transform="matrix(1 0 0 1 155.7496 156.0615)" class="st1 st2 st3">RO</text>
			<text id="XMLID_393_" transform="matrix(1 0 0 1 212.1794 163.7627)" class="st1 st2 st3">MT </text>
			<text id="XMLID_392_" transform="matrix(1 0 0 1 272.3991 135.1822)" class="st1 st2 st3">TO</text>
			<text id="XMLID_391_" transform="matrix(1 0 0 1 215.8542 222.8311)" class="st1 st2 st3">MS</text>
			<text id="XMLID_390_" transform="matrix(1 0 0 1 239.8562 263.4483)" class="st1 st2 st3">PR</text>
			<text id="XMLID_389_" transform="matrix(1 0 0 1 264.2429 240.0508)" class="st1 st2 st3">SP</text>
			<g id="XMLID_387_">
				<text id="XMLID_388_" transform="matrix(1 0 0 1 327.3425 248.8575)" class="st2 st3">RJ</text>
			</g>
			<text id="XMLID_386_" transform="matrix(1 0 0 1 300.0202 211.1163)" class="st1 st2 st3">MG</text>
			<text id="XMLID_385_" transform="matrix(1 0 0 1 322.8904 158.3926)" class="st1 st2 st3">BA</text>
			<text id="XMLID_384_" transform="matrix(1 0 0 1 254.6413 201.6485)" class="st1 st2 st3">GO</text>
			<text id="XMLID_383_" transform="matrix(1 0 0 1 344.8464 225.4336)" class="st2 st3">ES</text>
			<text id="XMLID_382_" transform="matrix(1 0 0 1 253.9343 286.8712)" class="st1 st2 st3">SC</text>
			<text id="XMLID_381_" transform="matrix(1 0 0 1 229.7243 311.4366)" class="st1 st2 st3">RS</text>
			<text id="XMLID_380_" transform="matrix(1 0 0 1 102.3551 142.4511)" class="st1 st2 st3">AC</text>
			<text id="XMLID_379_" transform="matrix(1 0 0 1 294.3493 101.2466)" class="st1 st2 st3">MA</text>
			<text id="XMLID_378_" transform="matrix(1 0 0 1 319.6716 119.4815)" class="st1 st2 st3">PI</text>
			<text id="XMLID_377_" transform="matrix(1 0 0 1 340.9304 95.125)" class="st1 st2 st3">CE</text>
			<g id="XMLID_375_">
				<text id="XMLID_376_" transform="matrix(1 0 0 1 385.072 94.7251)" class="st2 st3">RN</text>
			</g>
			<g id="XMLID_373_">
				<text id="XMLID_374_" transform="matrix(1 0 0 1 384.7859 110.0625)" class="st2 st3">PB</text>
			</g>
			<g id="XMLID_371_">
				<text id="XMLID_372_" transform="matrix(1 0 0 1 384.4177 122.8858)" class="st2 st3">PE </text>
			</g>
			<g id="XMLID_369_">
				<text id="XMLID_370_" transform="matrix(1 0 0 1 376.532 135.7579)" class="st2 st3">AL</text>
			</g>
			<g id="XMLID_367_">
				<text id="XMLID_368_" transform="matrix(1 0 0 1 368.3337 149.1578)" class="st2 st3">SE</text>
			</g>
			<text id="XMLID_366_" transform="matrix(1 0 0 1 233.8786 96.2281)" class="st1 st2 st3">PA</text>
			<text id="XMLID_365_" transform="matrix(1 0 0 1 272.6814 180.8897)" class="st1 st2 st3">DF</text>
		</g>
	</g>
</g>
</svg>
