<?xml version="1.0" encoding="utf-8"?>
<!-- Generator: Adobe Illustrator 19.0.0, SVG Export Plug-In . SVG Version: 6.00 Build 0)  -->
<svg version="1.1" id="Camada_1" xmlns="http://www.w3.org/2000/svg" xmlns:xlink="http://www.w3.org/1999/xlink" x="0px" y="0px"
	 viewBox="-82 63.1 474.5 355.9" style="enable-background:new -82 63.1 474.5 355.9;" xml:space="preserve">
<style type="text/css">
	.st0{fill:#FFFFFF;}
	.st1{fill:#FF3334;}
	.st2{fill:#232323;}
	.st3{fill:#AF232A;}
	path{
		transition: all .5s;
	}
	path:hover{
		transform: scale(1.01);
		stroke: #AF232A;
		stroke-width: 5px;
	}
</style>
<g id="XMLID_399_">
	<path class="st0" d="M108.6,306.6"/>
</g>
<g id="XMLID_398_">
	<path class="st0" d="M175.7,184.5"/>
</g>
<g>
	<path class="st1" d="M114.1,174.9l0.6-0.6l-0.3-0.3l-0.1-1l-0.3-0.6l-0.8-0.8l-0.5-0.3l-0.2-0.3l-0.4-1.1v-0.6l0.3-0.5l0.7-0.6
		l0.4-0.6l14.6-31.4l-0.9-0.8l0.1-0.4l-0.1-0.2l-0.7,0.2l-0.4,0.3l-0.9-0.4l-0.5-1.1l-1.3-0.7l-0.6-0.7v-0.3l-0.6-0.4l-0.7-0.1
		l-1.1-0.3l-1.2-0.6l-0.9-0.3l-0.7-0.5l-0.3-0.4l-2.2-1.2l-2.3-1.8l-0.1-0.2v-0.5l-0.3-0.9l-0.9-0.6l-0.3,0.1l-0.2-0.1l-0.9-1v-1
		l0.2-0.3l-0.1-0.2l-0.8-0.4l-0.1-0.3l-0.1-1.1l0.2-0.7l-0.2-2.4h-9v0.3l-1.1,1.6l-0.8,1.5v0.6l-0.6,1.3l-0.1,0.3l0.1,0.4l0.6,0.7
		v0.3l-0.2,0.2l-1,0.3l-0.7,0.7l-0.6,0.2l-0.9-0.1l-0.4-1.2l-0.9-1l-1.4-0.5h-0.8l-0.3,0.4l-1,0.3l-0.6,0.3l-0.5,0.6l-0.3,1.6
		l0.2,0.9l-0.1,0.8l-0.4,1.1l0.2,1l-1.2-0.5l-0.7,0.2h-0.3l-0.5-1l-0.7-0.8l-1-0.6h-0.3l-2.4-2.2l0.1-0.6l0.9,0.2l0.6-0.6v-0.3
		l-0.6-2.1l-0.3-0.4l-0.6-0.4l-0.4-1.1l-0.1-2.4l0.3-0.5l0.4-1.5l-0.3-0.8l-0.2-0.8l0.8-0.7v-0.2l-0.4-0.5l-0.1-1.1l-0.8-2.3
		l-1.3-1.8l0.3-0.7l0.4-1.6l-0.2-0.3l-1-0.5l-0.7-0.1l-0.4,0.1l-0.5-0.2l-0.6-0.6v-0.5l-0.3-0.1l-0.6,0.2h-0.3l-0.4-0.2l-0.4-0.4
		l0.1,0.7l-1.1,0.1l-0.5,0.2l-1,0.8l-0.7,0.2h-0.9l-0.5,0.2l-0.4,0.4v0.6l-0.2,1.3l-0.3,0.4l-1.2,0.8l-1-0.3l-1,0.6l-0.5,0.8
		l-0.8,0.5l-0.5,0.1l-0.5-0.3l-1.4,0.9l-0.7,0.2l-0.2,0.2l-0.2,1.1l-0.2,0.3l-0.3,0.1l-0.5-0.1l-0.2,0.1l-0.5,0.6l-0.1,0.6l-0.3,0.4
		l-0.7,0.4l-0.3-0.1l-0.2-0.5l0.6-0.8v-0.5l-0.4-0.5l-0.3-0.1l-1.1,0.1l-1,0.6l-0.8,0.8l-1.1,0.5l-1.2-0.1l-0.4-0.1l-4.1-3.5
		l-1.6,0.4l-0.1-0.9l0.2-1.8l-0.1-0.8l-0.3-0.9l-0.4-0.6l-0.8-1l-0.6-1.3l-0.6-0.2l-1.2,0.7l-0.6,0.6l-0.2,0.4l-0.9,1l-1,0.7h-0.4
		l-0.3-0.2l-0.4-0.6l-0.3-0.7l-0.7-0.2l-0.5,0.9l0.2,0.6l0.4,0.1l0.2,0.3h-9.3l-1.4-0.4l-1.1,0.3l-0.6,0.3h-0.5v4.8H27l1.4,0.3
		l0.7-0.3l0.6,0.3l0.3,0.3l0.7,1l-0.1,0.8l0.2,0.8l-0.6,0.2l-0.6-0.1l-1.3-0.9l-1.7,0.4l-0.9,0.6l-1.9,0.1l-0.1,5.6l0.9,1.1l1.5,1.1
		l0.8,0.3l0.2,0.2l0.3,0.9l-0.3,0.7v0.2l0.7,1.3l0.6,0.5l-0.1,0.1l0.5,2.4l-0.6,1.4l-3.3,18.2l-0.6,2.4l0.1,0.2l-0.2,0.4l-0.3,0.2
		h-1.4l-0.8-0.6v-0.6l-0.2-0.3l-0.8-0.1l-0.5,0.4l-0.6,0.1l-0.3-0.3l-1-0.1l-0.5,0.3l-0.3,0.7l-0.6,0.8l-1.6-0.2l-0.9,0.2l-0.7,0.4
		l-2,0.6l-0.7-0.1l-1.2,0.2l-1.7,1.3l-0.8,0.5L6.6,155l-0.4,0.2L6,155.9l-0.6,0.5L4.3,157l-1.8,0.8l-0.4,0.4l-0.2,1.1l-0.3,1
		l0.1,0.6l-0.1,0.9l-0.2,0.5L1,162.9l-0.6,0.6l-0.6,1.1l-0.2,0.6l0.9,2.2v0.5L0,168.7l-0.2,0.1l-1.1,0.1l-2.4,1.7l-0.6,0.7l-0.3,1.4
		v0.3l8.8,3.7l11.6,2.8l5.9,1.5l12.9,6.9l13.9,5.9l1.6-1.3l0.9-0.3l0.8-0.9l0.1-0.3l-0.1-0.6l1.9,0.1l1.4-0.2l0.4,0.2l1.1,1.1h0.2
		l0.6-0.4l0.1-0.4l0.2-0.3l0.5-0.2l0.4,0.1l0.7-0.2l0.6-0.6l0.9-0.5H61l-0.1,1.3l0.3,0.3h0.3l1.2-1.5l-0.1-0.9l0.3-0.4l0.9-0.6H64
		l0.4,0.3h0.9l0.6-0.5l1-0.2l1.9,0.2l-0.1-0.7l0.1-0.9l1-0.6l0.4-0.6l0.2-0.5l-0.1-0.2l-0.4-0.3V183l0.6-0.8l1.2-0.3l0.1-0.1v-0.6
		l0.8-0.2l0.7-1.3h5.3l1.1,0.6l0.2,0.2l0.4,0.9L81,182l1.2,0.5l0.6,1.6l0.2,0.1l0.5-0.1l0.3,0.1l0.3,1.4l1.6,0.7l0.3-0.1l0.3-0.9
		l0.9-0.5l0.7,0.1l0.2,0.2v0.3l23.4-0.2l0.6-0.4l0.6-2.6l0.7-2.1l-0.2-0.9l-0.3-0.7v-0.4l0.2-0.4l0.4-0.3l0.6-0.9l0.1-0.5l-0.2-0.4
		v-0.4L114.1,174.9z M59.7,153.6l-0.7-1.8h-2.6l-0.7,1.8H55l2.4-5.7h0.5l2.4,5.7H59.7z M66.7,153.6h-0.6v-4.7l-2.1,3.6h-0.3
		l-2.1-3.6v4.7h-0.6v-5.7h0.6l2.2,3.9l2.3-3.9h0.6V153.6z"/>
	<polygon class="st1" points="56.5,151.3 58.8,151.3 57.6,148.5 	"/>
</g>
<g>
	<path class="st1" d="M96.2,102.7c0.1-0.1,0.2-0.2,0.2-0.4c0.1-0.1,0.1-0.3,0.1-0.5c0-0.2,0-0.3-0.1-0.5c-0.1-0.2-0.1-0.3-0.2-0.4
		c-0.1-0.1-0.2-0.2-0.4-0.3c-0.1-0.1-0.3-0.1-0.4-0.1h-1.7v2.5h1.8c0.2,0,0.3,0,0.4-0.1C96,102.9,96.1,102.8,96.2,102.7z"/>
	<path class="st1" d="M91.2,102.7c0.1-0.1,0.2-0.2,0.2-0.4c0.1-0.1,0.1-0.3,0.1-0.5c0-0.2,0-0.3-0.1-0.5c-0.1-0.2-0.1-0.3-0.2-0.4
		c-0.1-0.1-0.2-0.2-0.4-0.3c-0.1-0.1-0.3-0.1-0.4-0.1h-1.7v2.5h1.8c0.2,0,0.3,0,0.4-0.1C91,102.9,91.1,102.8,91.2,102.7z"/>
	<path class="st1" d="M107.7,107.5l-1.9-0.5l-1.2-1.2L104,105l-1-0.4l-0.2-0.2l0.3-0.6l-0.8-0.1l-0.1-0.4l0.2-2.4l-0.1-0.3l-0.4-0.1
		l-0.8-0.5v-0.7l-0.2-0.8l-0.5-0.8v-1.2l0.2-1.2L101,94l0.7-1.1v-1l-0.1-0.2l0.4-0.7l0.8-0.7l0.7-1.3l-0.1-0.8l-1-1.6v-0.6l0.4-0.7
		l-0.8-0.5l-1-0.4l-0.8,0.1l-0.8-0.2v-0.4l0.6-0.3l0.3-0.3l0.3-2.3l-0.2-0.7l-0.5-0.4l-0.3-0.6l-0.7-0.2l-0.4,0.1l-0.5,0.5h-1.6
		L96,79.9h-0.7L95,80l0.6,0.2l0.6,1.6l-0.5,0.8L95.2,83l-0.8,0.4L94,83.5L93.7,84v0.3l-0.4,0.6L92.1,85l-1-0.1l-1.4,0.8v0.7
		l-0.3,0.4h-0.5l-0.6-0.1l-0.5,0.1l-0.7,0.6l-0.5,0.1l-0.6-0.2l-0.5,0.1l-0.4,0.4L85,87.8l-1.8-0.7h-0.4l-0.8,0.5l-0.5,0.5h-0.8
		l-0.2,0.1L80.4,89l0.4,1.2v0.4l-0.4,0.6l-0.7,0.3l-0.3-0.1L79,91.1L77.2,89l-0.7-0.5L76,88.5l-0.3,0.8l-0.3,0.1l-0.3-0.1l-0.6-0.6
		h-0.2l-1.5-0.1l-0.5,0.2L72,89h-0.5l-0.3-0.2L71,88l-0.3-0.6l-0.8-0.3h-0.7l-1.6,0.2h-0.3l-0.5-0.8l-0.5-0.3H66l-0.1,0.2v0.4
		l0.1,0.2l0.6,0.3l0.1,0.5l0.5,0.8l1.3,1.3l1,0.5l0.8,0.9v0.5l-0.4,0.7l0.2,1.7l0.4,0.9l0.8,1.6l0.4,0.8l-0.1,0.7l-0.4,0.8l0.1,0.3
		l1.5,0.3l1.7-0.1l1.5,0.1l0.1,0.1l-0.1,1L76,101l0.4,0.4l0.4,0.2H77l0.6-0.2l0.3,0.1v0.5l0.6,0.6l0.5,0.2l0.4-0.1l0.7,0.1l0.9,0.5
		l0.2,0.3l-0.4,1.5l-0.3,0.7l1.2,1.7l0.8,2.2l0.1,1l0.4,0.5v0.2l-0.8,0.7l0.2,0.8l0.3,0.8l-0.4,1.4l-0.3,0.5l0.1,2.3l0.4,1l0.6,0.4
		l0.3,0.4l0.6,2v0.3l-0.6,0.6l-0.8-0.2l-0.1,0.6l2.3,2.1h0.3l0.9,0.6l0.7,0.8l0.5,0.9h0.3l0.7-0.2l1.1,0.5l-0.2-0.9l0.4-1l0.1-0.8
		l-0.2-0.8l0.4-1.4l0.5-0.6l0.6-0.3l0.9-0.3l0.3-0.4h0.8l1.3,0.5l0.8,0.9l0.4,1.1l0.8,0.1l0.6-0.2l0.7-0.7l0.9-0.3l0.2-0.2v-0.3
		l-0.6-0.7l-0.1-0.4l0.1-0.3l0.6-1.2v-0.6l0.8-1.4l1-1.5v-0.3h8.5L107.7,107.5z M91.5,105.6l-1.3-2h-1.6v2h-0.5v-5.4h2.3
		c0.2,0,0.4,0,0.6,0.1c0.2,0.1,0.4,0.2,0.5,0.4c0.1,0.2,0.3,0.3,0.3,0.5c0.1,0.2,0.1,0.4,0.1,0.6c0,0.2,0,0.4-0.1,0.6
		c-0.1,0.2-0.1,0.3-0.2,0.5c-0.1,0.1-0.2,0.3-0.4,0.4c-0.1,0.1-0.3,0.2-0.5,0.2l1.3,2.1H91.5z M96.5,105.6l-1.3-2h-1.6v2h-0.5v-5.4
		h2.3c0.2,0,0.4,0,0.6,0.1c0.2,0.1,0.4,0.2,0.5,0.4c0.1,0.2,0.3,0.3,0.3,0.5c0.1,0.2,0.1,0.4,0.1,0.6c0,0.2,0,0.4-0.1,0.6
		c-0.1,0.2-0.1,0.3-0.2,0.5c-0.1,0.1-0.2,0.3-0.4,0.4c-0.1,0.1-0.3,0.2-0.5,0.2l1.3,2.1H96.5z"/>
</g>
<g>
	<polygon class="st1" points="177.3,97.4 177.3,97 176.9,96.8 176.5,96.9 176.4,97.3 176.8,97.5 	"/>
	<path class="st1" d="M181.1,104.2l-0.1-0.1l-0.7,0.6l-0.9,0.1l0.2-0.2l0.8-0.2l0.6-0.5l0.1-1.6l-0.4-1.3l-0.6-0.4l-1.4-0.5h-1.6
		l-0.5-0.2l-1.6-2.4l-1.3-4.4l-1.3-3l-0.3-1.9l-0.1-3.9l-0.1-0.2h-0.2l-0.2,0.2l-0.2-0.2v-0.8l-0.3-0.6l-0.4-0.6l-0.6-0.6l-1.6-1.2
		l-0.1,0.2v0.6l0.8,2.3l-0.4-0.7l-0.3-0.7l-0.5,0.3l-0.2,0.4l-1,0.6l-0.3,0.8l-0.9,0.8l-0.4,0.6l-0.1,0.6l-1.8,2.8l-0.4,0.1
		l-0.5,0.6l-0.1,0.9l-1.5,3.2l0.1,0.3l-0.2,0.5l-0.9,1.1l-0.9,0.5l-0.8,0.7l-0.4,0.2h-0.3l-0.5-0.1l-0.2-0.2l-1.2,0.1l0.1-0.4
		l-0.7-0.6h-0.2l-0.1,0.2l-0.8,0.5l-0.5,0.1l-1.3-0.5l-0.3-0.5l-0.4,0.1l-0.8,0.6l-0.2,0.4l-1.3,0.9l-1.6-0.4l-1.1-0.4l-0.4-0.3
		l-0.2-0.4l-0.4-0.1h-0.7l-0.2-0.5l0.1-0.1V95l-0.5-0.1l-0.2,0.1l0.3,0.3l0.2,1.1l-0.3,0.6l-0.1,2.2l0.1,0.7l0.2,0.3h0.6l0.5-0.1
		l1.7,0.2l0.6,0.2l0.9,0.5l0.3,0.4l0.2,0.6l0.6,0.1l0.6,0.4l0.4,0.5l0.4,0.1l0.7-0.1l0.2-0.2l0.5-0.1l1.4,1.3h0.3l0.2,0.6l-0.3,0.1
		l-0.1,0.4l0.4,1.4l1,1.1l1.3,0.4l0.1,0.2l-0.2,1.5l0.1,1l0.3,0.7l0.3,0.3l0.3,0.9l-0.1,0.8l0.7,1.7l0.4,0.1l0.4-0.2l1.4,1.6v1.2
		l0.2,0.5l0.5,0.1l0.2,0.2l0.2,0.8l-0.1,0.3l0.1,0.6l0.9,0.7l0.2,0.7l0.7,0.5l1.4,0.3l0.6-0.1l0.4-0.2h0.5l0.3,0.1l1-0.9l-0.1-0.9
		l0.2-1.2l1.5-1.7l0.4-0.3l0.5-0.9l0.5-1.1l0.7-0.8l0.4-0.4h0.7l1-1.5l0.7-0.3h0.5l0.3-0.2l1.4-1.7l0.9-1.8l1.1-0.7l0.6-1l2.5-2
		l0.1-0.4L181.1,104.2z M166.8,106.2l-0.7-1.8h-2.6l-0.7,1.8h-0.6l2.4-5.7h0.5l2.4,5.7H166.8z M172.2,103c-0.1,0.2-0.2,0.4-0.3,0.6
		s-0.3,0.3-0.5,0.4s-0.4,0.2-0.7,0.2h-1.9v2.1h-0.6v-5.7h2.4c0.2,0,0.5,0.1,0.7,0.2c0.2,0.1,0.4,0.2,0.5,0.4
		c0.2,0.2,0.3,0.4,0.4,0.6c0.1,0.2,0.1,0.4,0.1,0.7C172.3,102.5,172.3,102.7,172.2,103z"/>
	<polygon class="st1" points="179.9,107 179.3,106.9 178.9,107 178.4,107.5 178.4,107.8 178.6,107.9 179.3,107.8 179.8,107.6
		180.3,106.9 180.3,106.6 180.1,106.9 	"/>
	<polygon class="st1" points="176.7,97.8 176.7,98.2 177.2,99.1 177.4,99.3 177.7,99.2 178.2,98.7 177.8,97.6 177.6,97.4
		176.8,97.6 	"/>
	<polygon class="st1" points="180.3,105.6 179.9,106.1 179.9,106.4 180.3,106.5 181,106 181,105.8 180.9,105.6 	"/>
	<path class="st1" d="M171.4,101.4c-0.1-0.1-0.2-0.2-0.4-0.3c-0.1-0.1-0.3-0.1-0.4-0.1h-1.8v2.6h1.8c0.2,0,0.3,0,0.5-0.1
		c0.1-0.1,0.3-0.2,0.4-0.3c0.1-0.1,0.2-0.3,0.2-0.4c0.1-0.2,0.1-0.3,0.1-0.5c0-0.2,0-0.3-0.1-0.5
		C171.6,101.6,171.5,101.5,171.4,101.4z"/>
	<polygon class="st1" points="163.6,104 166,104 164.8,101.1 	"/>
</g>
<g>
	<path class="st1" d="M83.6,204c-0.2-0.2-0.4-0.4-0.7-0.5c-0.3-0.1-0.5-0.2-0.9-0.2c-0.3,0-0.6,0.1-0.9,0.2
		c-0.3,0.1-0.5,0.3-0.7,0.5c-0.2,0.2-0.3,0.5-0.4,0.8c-0.1,0.3-0.1,0.6-0.1,0.9c0,0.3,0.1,0.6,0.2,0.9s0.2,0.5,0.4,0.8
		s0.4,0.4,0.7,0.5c0.3,0.1,0.5,0.2,0.9,0.2c0.3,0,0.6-0.1,0.9-0.2c0.3-0.1,0.5-0.3,0.7-0.5c0.2-0.2,0.3-0.5,0.4-0.8
		c0.1-0.3,0.1-0.6,0.1-0.9c0-0.3-0.1-0.6-0.2-0.9S83.8,204.2,83.6,204z"/>
	<path class="st1" d="M100.8,213.6v-1l-0.7-1.6h-0.4l-0.3-0.2l-0.2-1.6l0.1-0.6l0.7-0.5l0.6-0.7l0.1-0.4l-0.7-1.8l-0.5-0.2l-0.5-0.1
		h-1.7l-0.6-0.5l0.1-0.3h-8.4l0.4-4.4l-0.7-1.3l-0.1-0.9v-0.4l0.7-2.2l-0.2-0.9l0.5-0.8l-0.4-1.1l-0.1-0.7l-0.1-0.3l-0.4-0.2v-0.2
		l0.6-2.4l0.4-0.7l-0.3-0.6l-0.7-0.5v-0.3l-0.2-0.2l-0.7-0.1l-0.9,0.5l-0.3,0.9l-0.3,0.1l-1.6-0.7l-0.3-1.4l-0.3-0.1l-0.5,0.1
		l-0.2-0.1l-0.6-1.6l-1.2-0.5l-0.7-0.6l-0.4-0.9l-0.2-0.2l-1.1-0.6h-5.3l-0.7,1.3l-0.8,0.2v0.6l-0.1,0.1l-1.2,0.3l-0.6,0.8v0.3
		l0.4,0.3l0.1,0.2l-0.2,0.5l-0.4,0.6l-1,0.6l-0.1,0.9l0.1,0.7l-1.9-0.2l-1,0.2l-0.6,0.5h-0.9l-0.4-0.3h-0.2l-0.9,0.6l-0.3,0.4
		l0.1,0.9l-1.2,1.5h-0.3l-0.3-0.3l-0.3-1.1h-0.2l-0.9,0.5l-0.6,0.6l-0.7,0.2l-0.4-0.1l-0.5,0.2l-0.2,0.3l-0.1,0.4l-0.6,0.4h-0.2
		l-1.1-1.1l-0.4-0.2l-1.4,0.2l-1.9-0.1l0.1,0.6l-0.1,0.3l-0.8,0.9l-0.9,0.3l-1.6,1.3l1.5,0.6l0.7-0.2H51l2.7-0.9h2.5l1.1,0.5h0.3
		l0.4-0.5v-0.2l0.5-0.5l0.5,0.2l1,1.3l-0.3,0.8v0.7l0.2,0.4L60,198l-0.2,0.7l-0.5,0.5l-0.2,0.7l-0.3,0.2v1.1l0.4,1.1l0.6,1l0.1,0.8
		l-0.8,1.4l0.1,0.8l0.6,1.7l0.7,0.2l0.4,0.7l-0.3,0.7l0.1,0.3l0.3,0.2l0.2-0.6l0.4,0.4l0.4,1.8l0.2,0.2l1.3,0.1l0.1,0.1l0.4,0.8
		l0.9,0.5l0.8,0.2l0.1,1l0.6,0.6l0.4,0.2l1.5,0.1l1,0.2l0.2,0.1l0.7,0.1l0.4-0.4l0.6-0.3l1,0.1l1.5,0.8l0.4,0.7l0.7,0.4h0.6l0.9-0.5
		l0.5,0.2l0.1,0.7l0.4,0.7l0.7,0.5l1,0.8l0.6-0.3l0.3,0.3v0.2l2,0.9h0.9l0.4-0.2l0.8,0.3l0.2,0.9l0.6,0.7l0.7,0.5l0.3,0.7l0.2,0.1
		l1.7-0.3l0.1,0.1l0.6,0.2l3.5-0.5l0.6,0.7l1.3,0.8h0.4l0.7-0.7l2-1.3l0.3-1.2l0.7-1.8l0.5-0.5l0.8-0.3l0.2-0.2l0.3-0.4l0.3-1.1
		l0.8-1l0.3-1.1v-0.8L100.8,213.6z M78.1,208.5l-1.4-2.1H75v2.1h-0.6v-5.7h2.4c0.2,0,0.5,0.1,0.7,0.2c0.2,0.1,0.4,0.2,0.5,0.4
		s0.3,0.4,0.4,0.6c0.1,0.2,0.1,0.4,0.1,0.7c0,0.2,0,0.4-0.1,0.6c-0.1,0.2-0.1,0.4-0.3,0.5c-0.1,0.2-0.2,0.3-0.4,0.4
		c-0.2,0.1-0.3,0.2-0.5,0.2l1.4,2.2H78.1z M84.5,206.8c-0.1,0.4-0.3,0.7-0.6,0.9c-0.2,0.3-0.5,0.5-0.9,0.6c-0.3,0.2-0.7,0.2-1.1,0.2
		c-0.4,0-0.8-0.1-1.1-0.2c-0.3-0.2-0.6-0.4-0.9-0.7c-0.2-0.3-0.4-0.6-0.5-0.9s-0.2-0.7-0.2-1.1c0-0.4,0.1-0.7,0.2-1.1
		c0.1-0.4,0.3-0.7,0.6-0.9s0.5-0.5,0.9-0.6s0.7-0.2,1.1-0.2c0.4,0,0.8,0.1,1.1,0.3c0.3,0.2,0.6,0.4,0.8,0.7c0.2,0.3,0.4,0.6,0.5,0.9
		c0.1,0.3,0.2,0.7,0.2,1.1C84.8,206.1,84.7,206.4,84.5,206.8z"/>
	<path class="st1" d="M77.7,205.5c0.1-0.1,0.2-0.3,0.2-0.4c0.1-0.2,0.1-0.3,0.1-0.5c0-0.2,0-0.3-0.1-0.5c-0.1-0.2-0.1-0.3-0.3-0.4
		c-0.1-0.1-0.2-0.2-0.4-0.3c-0.1-0.1-0.3-0.1-0.4-0.1H75v2.6h1.9c0.2,0,0.3,0,0.5-0.1C77.5,205.7,77.6,205.6,77.7,205.5z"/>
</g>
<path class="st1" d="M145.1,192.7l-16.6-1.2l-1.8-0.7L126,191l-0.2-0.2l-0.1-0.5l-0.3-0.4l-0.8-0.2l-0.4,0.1l-0.5-0.2l-0.1-0.2v-0.5
	l-0.1-0.5l-1.7-0.8l-1.5-1.3l-0.7-0.5l-0.4-1.1l-0.2-1.2l0.1-1.2l-0.4-0.8l-0.6-0.9l-0.7-1.9l-0.2-0.9l-1.2-2l-0.6-0.5l-0.6,0.6
	l-0.1,0.3v0.4l0.2,0.4l-0.1,0.5l-0.6,0.9l-0.4,0.3l-0.2,0.4v0.4l0.3,0.7l0.2,0.9l-0.7,2.1l-0.6,2.6l-0.6,0.4l-23.4,0.2l0.7,0.5
	l0.3,0.6l-0.4,0.7l-0.6,2.4v0.2l0.4,0.2l0.1,0.3l0.1,0.7l0.4,1.1l-0.5,0.8l0.2,0.9l-0.5,1.7v0.4l0.1,0.9l0.7,1.3l-0.4,4.4h8.4
	l-0.1,0.3l0.6,0.5h1.7l0.5,0.1l0.5,0.2l0.7,1.8l-0.1,0.4l-0.7,0.9l-0.7,0.5l-0.1,0.6l0.2,1.6l0.3,0.2h0.4l0.7,1.6v1l0.3,0.7v0.8
	l-0.3,1.1l-0.8,1l-0.3,1.1l-0.3,0.4l-0.2,0.2l-0.8,0.3l-0.5,0.5l-0.7,1.8l-0.3,1.2l-2,1.3l-0.7,0.7l0.8,0.5l1.5,0.5l0.7,1.4
	l-0.3,0.6l-0.3,0.3l-0.1,0.5l0.2,1l1.3,2.6l0.2,3.7h-2.4l2.6,3l0.5,6.2l13.1,0.5l0.2-0.1l0.2-0.3h0.5v0.9l-0.2,0.9L113,247l-0.4,0.8
	l0.1,1.8l0.3,0.9l0.1,1.4l0.1,0.5l0.1,0.2l0.9,0.4l1,0.7l0.2,0.3l0.6,0.3h0.3l0.6-0.3l1.2,1.1l-0.3,0.3l0.2,0.4l0.3,0.3l0.3,0.1
	l0.5,0.5l1.1,0.7l2.7-1l1-1l1-1.4v-0.6l0.7-0.7h1.3l0.8-0.1l0.4,0.2l0.8-0.2l0.7-0.6l1-0.2l0.6,0.1l0.4,0.6l1.4,0.6l1.3,0.2l0.3,0.2
	l0.1,0.4l0.4,0.5l1.5,0.6l0.6,0.5l0.6,0.3l2.2-0.3l0.6-0.4l0.2-0.4l0.7-0.3h1.2l0.8,0.5l0.1,0.7l0.1,0.1h0.5l1-0.4h0.5l2.7-2.9
	l0.7-0.1l-0.6,3.2l-0.9,0.3l-0.8,1.4l-0.1,0.2l0.1,0.3l0.6,0.1l0.9,0.6l2.3,0.1l0.3-0.3h1.3h0.4l0.6,0.3l0.8-0.2l-0.5-1.1l-0.1-1.7
	l-0.7-1.1l-0.1-0.3l0.2-1.7l1.2-1.9l0.2-1.4l0.3-0.4l1-0.4l0.9-0.9l0.6-1l0.2-1l0.2-0.5l0.6-0.5l0.4-0.7v-0.8l0.9-0.5l0.7-1.3
	l1.3-0.1l1.3-0.4l0.2-0.1l1-2l0.3-0.5l0.3-2l0.2-0.4l0.9-0.9l0.8-0.5l0.5-0.1l0.6,0.3l0.6-0.4l0.7-0.7l0.4-1.4l0.6-1.4v-0.4
	l-0.2-0.6l0.3-1.3l0.8-1.5l-0.1-2.5l0.6-0.4l0.5-1.3l1-1.5l0.2-0.5l-0.1-1.3l0.2-0.4l0.5-0.4l0.1-0.6v-0.3h-0.4l-0.5-0.2l-0.5-1.6
	l0.4-1.3l-0.2-1.5l-0.3-0.3v-0.8l0.2-1.6l-0.5-1.1v-0.2l0.4-0.4l0.1-0.4l-0.7-0.7V207l0.9-2.9v-1.4l0.3-1.5l0.9-2.6l0.2-0.1l0.2-0.4
	l0.2-1.5l0.5-0.6l0.3-0.9l0.9-0.7L145.1,192.7z M135.5,225.9H135v-4.7l-2.1,3.6h-0.3l-2.1-3.6v4.7h-0.6v-5.7h0.6l2.2,3.9l2.3-3.9
	h0.6V225.9z M141.1,220.6h-2v5.2h-0.6v-5.2h-2v-0.5h4.7V220.6z"/>
<g>
	<path class="st1" d="M196.6,192.7c-0.2-0.2-0.4-0.4-0.7-0.5c-0.3-0.1-0.5-0.2-0.9-0.2c-0.3,0-0.6,0.1-0.9,0.2
		c-0.3,0.1-0.5,0.3-0.7,0.5c-0.2,0.2-0.3,0.5-0.4,0.8s-0.1,0.6-0.1,0.9c0,0.3,0.1,0.6,0.2,0.9s0.2,0.5,0.4,0.8s0.4,0.4,0.7,0.5
		c0.3,0.1,0.5,0.2,0.9,0.2c0.3,0,0.6-0.1,0.9-0.2c0.3-0.1,0.5-0.3,0.7-0.5c0.2-0.2,0.3-0.5,0.4-0.8c0.1-0.3,0.2-0.6,0.2-0.9
		c0-0.3-0.1-0.6-0.2-0.9C197,193.2,196.8,193,196.6,192.7z"/>
	<path class="st1" d="M209.6,197.8l-0.6-0.3l-0.3-0.4l-0.4-0.2l-0.5-0.1l-0.9,0.1l-0.3-0.1l-0.7-1l-0.5-1.4l-1-0.8l-0.1-0.8l0.8-0.9
		v-0.3l-1.9-1l-0.3-0.5v-0.8l-0.4-0.8l-0.5-0.3l-1-0.1l-0.1-0.2l0.1-0.3l1.3-1.2l-0.2-0.6l0.4-1.3l0.3-0.7l0.3-0.3l0.7-0.3l1.7-0.2
		l-0.2-0.7l0.3-1.6v-0.9l-0.9-0.6l-2.1,0.5l-1,0.7l-1.1-1.5l-0.4-0.4l-1.5-2h-0.4l-0.4-0.7l0.3-0.6l-0.1-0.4l-0.1-0.2l-0.7-0.1
		l-0.2,0.1l-0.9-0.6l0.1-0.3l0.9-0.3l0.9-1l0.1-0.8l-0.1-0.5l0.2-1.2l0.9-3v-0.2l-0.3-0.6l-0.1-0.5l0.1-1.8l-0.3-0.7l-0.2-1.7
		l-0.4-0.5l-1.7-0.7h-0.6l-0.1-0.2v-0.5l-0.3-0.3l-0.9-0.1l-0.5,0.3h-0.7l-1.4-0.7h-0.4l-1,0.3l-1.3,0.9l-0.3,0.3l1.1,0.4l0.9-0.1
		l0.6,0.1l0.5,0.8l0.2,0.2l0.4,0.1l0.6,0.6v0.3l-0.2,0.3l-0.4,0.2h-0.5l-0.1,0.1v0.7l0.5,0.7l-0.5,1.3l-0.3,0.2l-0.7,0.2l-0.1,0.2
		l0.1,0.6l-0.1,0.7l-0.6,0.1l-0.7,0.7l-0.4,0.6l0.1,0.7l-0.1,0.2l-1.2,0.6l-1.7,0.6l-1.2,0.9l-0.1,0.2l0.2,1.1v1.3l-0.6,1l-0.7,0.8
		l-0.1,0.3l0.1,0.4l0.3,0.5l0.8,0.9l0.4,0.2l0.1,0.1l-0.3,2l-0.9,2.5l-0.5,0.4l-0.8,1.6l-0.1,0.5l-0.5,0.8l-0.4,0.4l-0.5,0.1
		l-0.7,0.4l-0.5,0.9l-0.6,0.8l-0.6,0.5l-0.6,0.8l-0.6,2.2l-0.8,1.8l-0.3,0.5l-0.3,0.9l-0.5,0.6l-0.2,1.5l-0.2,0.4l-0.2,0.1l-0.9,2.6
		l-0.3,1.5v1.4l-0.9,2.9v0.4l0.7,0.7l-0.1,0.4l-0.4,0.4v0.2l0.5,1.1l-0.2,1.6v0.8l0.3,0.3l0.2,1.5l-0.4,1.3l0.5,1.6l0.5,0.2h0.4
		l0.2-0.2l0.1-0.9l0.3-0.6l0.9-1l0.3-0.1v0.8l-0.6,0.9l-0.3,1.1l1.2,0.2l1.1,0.5l1.9,0.2l1.5,0.8l2,0.7l0.3-0.1l0.8-2.9l0.7-1.2
		l0.6-0.5l0.6,0.6l0.5,0.9l0.5,1.8l0.3,1.5h0.6l0.4-0.4l0.1-0.5l0.3-0.3l1.3,0.2l2.2-0.3l0.1,0.4l-0.3,0.8l1.5,0.7l1.6,0.3h0.3
		l0.2-1.6h0.3l0.7,1.3l0.2,0.1l0.9-0.4l1.2-1l2.2-0.5h0.8l1.3-0.5l0.9-0.7l2.6-0.7l-0.3-0.7l0.7-1.2v-0.5l-0.1-0.2l-0.2-0.1
		l-0.5-0.1l-0.5-0.3l-0.2-0.6v-1.4l0.1-0.4l1-0.8l0.6-0.2l0.5-0.3l-0.1-0.3l-0.3-0.2l-0.4-0.1l-0.5,0.1l-0.2-0.2v-0.2l0.2-0.5l1-0.4
		l0.3-0.2v-0.4l-0.9-0.5l-1.8-0.3l-0.9-1l-0.1-0.4l0.2-0.6l0.5-0.4l0.7-1.7l0.4-0.3l0.5-0.1l0.2-0.2l-0.6-0.9l0.1-0.2l1.6-1.3l1.9-1
		l0.3-0.2l0.1-0.5l0.3-0.3L209.6,197.8z M192.2,192h-2v5.2h-0.6V192h-2v-0.5h4.7V192z M197.6,195.5c-0.1,0.4-0.3,0.7-0.6,0.9
		c-0.2,0.3-0.5,0.5-0.9,0.6s-0.7,0.2-1.1,0.2c-0.4,0-0.8-0.1-1.1-0.2c-0.3-0.2-0.6-0.4-0.9-0.7c-0.2-0.3-0.4-0.6-0.5-0.9
		c-0.1-0.4-0.2-0.7-0.2-1.1c0-0.4,0.1-0.7,0.2-1.1c0.1-0.4,0.3-0.7,0.6-0.9c0.2-0.3,0.5-0.5,0.9-0.6c0.3-0.2,0.7-0.2,1.1-0.2
		c0.4,0,0.8,0.1,1.1,0.3c0.3,0.2,0.6,0.4,0.8,0.7c0.2,0.3,0.4,0.6,0.5,0.9c0.1,0.3,0.2,0.7,0.2,1.1
		C197.8,194.8,197.7,195.2,197.6,195.5z"/>
</g>
<path class="st1" d="M170.2,271.1l-0.1-0.2l-1.3-1.1l-1.5-0.3l-0.8-0.8l-0.9-0.2h-0.7l-1.6-0.7l-0.3-0.4l-1.5-0.8l-0.3-0.3l-0.7-0.3
	l-0.6-0.1l-1.3-0.8l-1.4,0.1l-1.9-0.3l-0.1-0.2l0.1-0.4l0.3-0.6l0.6-0.9v-0.2l-1.1-0.4l-0.6,0.3l-0.3-0.1l-0.1-0.2l-0.1-0.5l0.1-1.3
	l-0.1-0.9l-0.8,0.2l-0.6-0.3h-0.4h-1.3l-0.3,0.3l-2.3-0.1l-0.9-0.6l-0.6-0.1l-0.1-0.3l0.1-0.2l0.8-1.4l0.9-0.3l0.6-3.2l-0.7,0.1
	l-2.7,2.9h-0.5l-1,0.4h-0.5l-0.1-0.1l-0.1-0.7l-0.8-0.5h-1.2l-0.7,0.3l-0.2,0.4l-0.6,0.4l-2.2,0.3l-0.6-0.3l-0.6-0.5l-1.5-0.6
	l-0.4-0.5l-0.1-0.4l-0.3-0.2l-1.3-0.2l-1.4-0.6l-0.4-0.6l-0.6-0.1l-1,0.2l-0.7,0.6l-0.8,0.2l-0.4-0.2l-0.8,0.1h-1.3l-0.7,0.7v0.6
	l-1,1.4l-1,1l-2.7,1l-1.1-0.7l-0.5-0.5l-0.3-0.1v0.9l1.5,2.9l-0.3,0.6l-1.6,5l0.4,0.1l0.1,1h-0.5l-2.6,5.6l2.1,1.9l-0.4,0.4l-2,1.1
	l0.2,0.9l0.6,1l0.4,0.9l0.3,1.6l0.2-0.3h0.2l0.4,0.5v0.8l0.3,1.1l-0.3,2.9l-0.5,0.7l-0.3,0.7l0.2,1.2l-0.4,3.6l1.2,0.4l0.4-0.3
	l1,0.1l0.2,0.4l1.8,0.3l1.7-0.1l1.3,0.2l0.9,0.3l0.5-0.1l0.8-0.4l0.5,0.3l1.1-1.3l0.8-0.2l0.3,0.7l1.2,1l0.9,0.1l0.7-0.2l1.1,0.1
	l0.8,0.9l0.1,1.1l0.2,0.4l0.8,0.5v0.8l-0.3,0.7v0.4l0.3,1.3l0.4,1v1.4v0.2l0.3,0.4l-0.2,0.7l0.1,1.2l0.4,0.5l0.2,0.3l0.2,2.1
	l0.5,0.3l1.2,0.2l1.3-0.2l0.8-0.2l0.3-0.4l2-1l1.7,0.9l1.2,1.1l1.2-0.8l0.2-0.4l0.8-3.9l0.2-0.2l0.5-0.2l0.8-0.5l0.3-0.3l0.7-1.7
	v-0.6l0.5-1.1l0.5-0.4l2.6-1.1l0.4-0.5l0.4-0.8l0.6-0.6l3.7-2.2l1-0.9l0.6-1.2l0.8-0.8l0.2-0.6l0.7-0.5l0.1-0.6l-0.2-0.4l1-1.1
	l0.6-1.1v-0.5l-0.2-0.9l0.1-0.2l0.5-0.3l1.3-1.8l0.1-1.4l0.3-0.8l0.5-0.1l0.4-0.3l1-1.3l0.6-0.5l0.2-0.1h0.6l0.7-0.4l0.1-0.2
	l0.2-1.2l0.1-1l-0.3-1.6l0.5-2L170.2,271.1z M140.2,281.9h-0.6v-4.7l-2.1,3.6h-0.3l-2.1-3.6v4.7h-0.6v-5.7h0.6l2.2,3.9l2.3-3.9h0.6
	V281.9z M145.4,281.1c-0.1,0.2-0.2,0.4-0.4,0.5c-0.2,0.1-0.4,0.2-0.7,0.3c-0.3,0.1-0.5,0.1-0.8,0.1c-0.9,0-1.7-0.3-2.3-0.8l0.3-0.5
	c0.1,0.1,0.2,0.2,0.4,0.3c0.1,0.1,0.3,0.2,0.5,0.3c0.2,0.1,0.4,0.1,0.6,0.2c0.2,0,0.4,0.1,0.6,0.1c0.5,0,0.8-0.1,1.1-0.2
	c0.3-0.2,0.4-0.4,0.4-0.7c0-0.2,0-0.3-0.1-0.4c-0.1-0.1-0.2-0.2-0.3-0.3s-0.3-0.2-0.5-0.2c-0.2-0.1-0.5-0.1-0.8-0.2
	c-0.3-0.1-0.6-0.1-0.8-0.2c-0.2-0.1-0.4-0.2-0.6-0.3c-0.2-0.1-0.3-0.2-0.4-0.4s-0.1-0.4-0.1-0.6c0-0.3,0-0.5,0.1-0.7
	c0.1-0.2,0.2-0.4,0.4-0.5c0.2-0.1,0.4-0.2,0.6-0.3c0.2-0.1,0.5-0.1,0.8-0.1c0.4,0,0.7,0.1,1,0.2c0.3,0.1,0.6,0.3,0.8,0.5l-0.3,0.5
	c-0.2-0.2-0.4-0.3-0.6-0.4s-0.6-0.2-0.9-0.2c-0.5,0-0.9,0.1-1.1,0.3c-0.2,0.2-0.3,0.5-0.3,0.8c0,0.2,0,0.3,0.1,0.4
	c0.1,0.1,0.2,0.2,0.3,0.3s0.3,0.2,0.5,0.2c0.2,0.1,0.4,0.1,0.7,0.2c0.3,0.1,0.6,0.1,0.8,0.2c0.2,0.1,0.5,0.2,0.6,0.3
	c0.2,0.1,0.3,0.3,0.4,0.4s0.1,0.4,0.1,0.6C145.6,280.7,145.5,280.9,145.4,281.1z"/>
<g>
	<path class="st1" d="M166.9,316.5c0.1-0.1,0.2-0.3,0.2-0.4s0.1-0.3,0.1-0.5c0-0.2,0-0.3-0.1-0.5c-0.1-0.2-0.1-0.3-0.3-0.4
		c-0.1-0.1-0.2-0.2-0.4-0.3s-0.3-0.1-0.4-0.1h-1.8v2.6h1.9c0.2,0,0.3,0,0.5-0.1C166.6,316.7,166.8,316.6,166.9,316.5z"/>
	<path class="st1" d="M161.7,314.7c-0.1-0.1-0.2-0.2-0.4-0.3s-0.3-0.1-0.4-0.1h-1.8v2.6h1.8c0.2,0,0.3,0,0.5-0.1
		c0.1-0.1,0.3-0.2,0.4-0.3c0.1-0.1,0.2-0.3,0.2-0.4c0.1-0.2,0.1-0.3,0.1-0.5c0-0.2,0-0.3-0.1-0.5
		C161.9,314.9,161.9,314.8,161.7,314.7z"/>
	<path class="st1" d="M191.7,321.6l-0.7-0.3l-0.4-1.6l0.2-1l-1-0.3l-0.4,0.1l-0.5,1.3l-0.3,0.4l-0.5-0.3l-0.2-0.4l0.3-1.6l0.4-0.3
		l0.1-0.2l-0.8-0.6l-0.8-0.1l-0.8,0.1l-0.2-0.2l-1.7,0.3l-1.2,0.1l-0.5-0.1l-0.3-0.2l-0.2-1l0.6-1l0.1-0.5l-0.1-0.2l-0.3-0.1l-0.4-1
		v-0.4l-0.2-0.3l-0.3-0.1l-0.6-0.6l-0.7-1.5l0.2-0.3v-0.9l-0.6-0.7l-0.2-0.9l0.1-0.4l0.2-0.3v-1.3l-0.4-0.9l-1.8-1.4l-0.6-0.8
		l-1.5,0.4l-2.6-0.1l-0.3-0.3L172,302l-0.2,0.2H171l-0.3-0.6l-0.3-0.2l-1.7-0.4l-0.9-0.4l-0.4-0.5h-1.3l-0.5,0.3l-0.6-0.1l-1.3-0.5
		l-1.2-0.2l-0.7-0.4l-0.6-0.1l-0.4,0.2l-0.2,0.3l-0.6,0.3l-1.6-0.1l-2,0.1l-1.9-0.3l-1.6,1.1l-2.6,1.1l-0.5,0.4l-0.5,1.1v0.6
		l-0.7,1.7l-0.3,0.3l-0.8,0.5l-0.5,0.2l-0.2,0.2l-0.8,3.9l-0.2,0.4l-1.2,0.8l-0.4,0.3l-0.3,0.5l0.2,0.8l0.4,0.4l0.1,0.5l-0.6,1.2
		l0.1,1.1l-0.6,1.5l-0.4,1.8v0.6l0.2,0.4v0.2l-0.6,1.1l-0.5,0.6l-0.3,0.8l0.1,1.1h0.4l0.7,0.5l0.5-0.4l0.5-0.2l1,0.1l0.5-0.6
		l1.7,1.2l0.5,1.4v1.3l1.2,2l-0.2,0.8h1.8l0.3-0.2h0.3l0.5,0.1l0.2,0.2l1,0.7h1.3l1.1-0.3l2.6,0.8l2.1,0.2l0.5,0.3l0.1,0.2l0.8,0.6
		l1.8,0.2l2.1-0.1l0.7,0.9l0.1-0.2l0.4-0.2h0.4l0.4-0.4l-0.4-1.5l0.3-0.8l0.4-0.4l1-0.6l1.7,0.2l0.9-0.5l0.4-0.4l0.3-0.7l0.7-0.3
		l0.5-0.1l0.7,0.4h0.4l1.1-0.1l1.4-0.4h0.4l0.5,0.2l1.5,1.3l0.6,0.3l0.7,0.1l1.6-1l0.7-0.7l0.8-0.3l0.1,0.2h0.4l0.9-0.1l0.2-0.2h2.6
		l0.2-0.9l-0.1-0.6l-1.4,0.1l0.1-0.2l1.2-0.3l0.6-0.4l0.8-1.4l0.5-0.3l-0.1-0.2l-1-0.3l-0.7,0.1l-0.8-0.3l-0.2-0.2l0.1-0.4l0.2-0.1
		l0.4,0.3l1.2,0.3h0.1l0.4-0.5l-0.3-0.4l0.1-0.5l0.3-0.2l0.3,0.1l0.2,0.2h0.4l0.4-0.2l0.7-0.1l-0.7,0.5l-0.1,0.9l0.3,0.1l0.3-0.7
		l0.7-0.5L191.7,321.6z M162.5,316.3c-0.1,0.2-0.2,0.4-0.3,0.6c-0.1,0.2-0.3,0.3-0.5,0.4c-0.2,0.1-0.4,0.2-0.7,0.2h-1.9v2.1h-0.6
		v-5.7h2.4c0.2,0,0.5,0.1,0.7,0.2c0.2,0.1,0.4,0.2,0.5,0.4c0.2,0.2,0.3,0.4,0.4,0.6c0.1,0.2,0.1,0.4,0.1,0.7
		C162.7,315.8,162.6,316.1,162.5,316.3z M167.2,319.5l-1.4-2.1h-1.7v2.1h-0.6v-5.7h2.4c0.2,0,0.5,0.1,0.7,0.2
		c0.2,0.1,0.4,0.2,0.5,0.4c0.2,0.2,0.3,0.4,0.4,0.6c0.1,0.2,0.1,0.4,0.1,0.7c0,0.2,0,0.4-0.1,0.6s-0.1,0.4-0.3,0.5s-0.2,0.3-0.4,0.4
		c-0.2,0.1-0.3,0.2-0.5,0.2l1.4,2.2H167.2z"/>
</g>
<g>
	<path class="st1" d="M187.9,292.3c-0.1-0.1-0.2-0.2-0.4-0.3s-0.3-0.1-0.4-0.1h-1.8v2.6h1.8c0.2,0,0.3,0,0.5-0.1
		c0.1-0.1,0.3-0.2,0.4-0.3c0.1-0.1,0.2-0.3,0.2-0.4c0.1-0.2,0.1-0.3,0.1-0.5c0-0.2,0-0.3-0.1-0.5C188.1,292.5,188,292.4,187.9,292.3
		z"/>
	<path class="st1" d="M221.3,298.4h-0.8l-1.5,0.3l-0.9-0.2l-0.6-0.8l-0.3-0.6l-0.6-0.3l-0.6,0.4l-1.1,0.1l-0.9,0.5l-0.6,0.6
		l-0.9,0.3l-1.2,0.1h-1.1v-0.2l0.2-0.2v-0.2l-0.6,0.2l-0.1,1.1l0.1,0.1v0.4l-0.4,0.5l-0.6,0.2l-0.3-0.2l-1.8,0.5l-0.1-0.3l-1,0.1
		l-0.6-0.1l-1-1.6l0.6-0.3l-0.2-0.8l-0.9-0.4l-0.9-0.6l-0.4-0.8l0.3-0.8l0.1-1.7l-0.1-1.4l0.9-1.3l0.3-1.1v-0.6l-0.1-0.2l-1.8-0.6
		h-0.5l-0.1,0.2l-0.4,0.2H200v-0.4l-0.4-1l-0.6-0.9l-0.2-1.1l-0.2-0.3l-0.4-0.4l0.1-0.9l0.7-1v-0.3l-0.2-0.8l-0.9-0.6l-0.3-0.3
		l0.1-1.2l0.3-0.5l-0.1-0.5l-1.6-1.6l-0.6,0.1l-0.4,0.3l-0.8-0.4l-1.2,0.1l-0.2,0.3l0.1,0.2l-0.2,0.5l-1.4,0.3l-0.5-0.2l-0.7-0.7
		l-0.5,0.6l-4,0.3l-0.2,0.2l-0.2,0.6l0.1,1.2l-0.2,0.2l-0.6-0.3V279l-0.1-0.5l-0.2-0.2h-0.3l-0.1,0.1l-0.2,0.6l-0.3,0.5l-0.3,0.2
		H183l-0.6-1l-0.2-0.7l0.1-0.4l-0.8-0.4l-1.1-0.7l-1,0.3l-0.8-0.1l-0.8,0.2l-2.1-0.5h-1.2l-0.8-0.8l-0.4-0.1l-0.7,0.3l-0.7,0.8
		l-0.9,0.2l-1.1,0.5l-0.6,0.6l-0.2,1.2l-0.1,0.2l-0.7,0.4h-0.6l-0.2,0.1l-0.6,0.5l-1,1.3l-0.4,0.3L165,282l-0.3,0.8l-0.1,1.4
		l-1.3,1.8l-0.5,0.3l-0.1,0.2l0.2,0.9v0.5l-0.6,1.1l-1,1.1l0.2,0.4l-0.1,0.6l-0.7,0.5l-0.2,0.6l-0.8,0.8l-0.6,1.2l-1,0.9l-3.7,2.2
		l-0.6,0.6l-0.4,0.8l-0.4,0.5l1.6-1.1l1.9,0.3l2-0.1l1.6,0.1l0.6-0.3l0.2-0.3l0.4-0.2l0.6,0.1l0.7,0.4l1.2,0.2l1.3,0.5l0.6,0.1
		l0.5-0.3h1.3l0.4,0.5l0.9,0.5l1.7,0.4l0.3,0.2l0.4,0.6h0.8l0.2-0.2l0.8,0.1l0.3,0.3l2.6,0.1l1.3-0.4l0.6,0.8l1.8,1.4l0.4,0.9v1.3
		l-0.2,0.3l-0.1,0.4l0.2,0.9l0.6,0.7v0.9l-0.2,0.3l0.7,1.5l0.6,0.6l0.3,0.1l0.2,0.3v0.4l0.4,1l0.3,0.1l0.1,0.2l-0.1,0.5l-0.6,1
		l0.2,1l0.3,0.2l0.5,0.1l1.2-0.1l1.7-0.3l0.2,0.2l0.8-0.1l0.8,0.1l0.8,0.6l-0.1,0.2l-0.4,0.3l-0.3,1.6l0.2,0.3l0.5,0.3l0.3-0.4
		l0.5-1.4l0.4-0.1l1,0.3l-0.2,1l0.4,1.6l0.7,0.3l0.1,0.7l0.9-0.2l0.6-0.4l0.3-0.6v-0.4l-0.5,0.2h-0.3l-0.4-0.2l0.2-0.3h0.3l1.1-1
		l2.2-1.6l0.9-0.3l1.6-1l1.6-1.5l0.2-0.6l0.5-0.4l3.7-2.1l0.1-0.3l-0.1-0.4l0.4-0.6l0.6,0.4l0.2,0.6l-0.3,0.2l0.2,0.1l0.6-0.3
		l0.6-1.1l0.2-0.2l0.8-0.4l0.6-0.2l0.4-0.1l1.5,0.2l0.7,0.1l0.3,0.3l0.5-0.1l-0.1,0.1v0.4l0.2,0.2l0.6-0.1l0.8,0.3l0.2-0.2l-0.1-1.4
		l-0.3-0.3l-0.4-0.1l-0.5,0.9l-0.2-0.8V307l0.1-0.2l1.1-0.3l1.6-0.8l0.4-0.3l-0.1-0.1l0.2-0.3l0.7-0.5l0.5,0.4l0.8-0.2v-0.1
		l-0.2-0.1l-0.8-0.8v-0.2l0.5-1.7l0.5-0.6l1.1-0.5l0.2,0.1l1.4-0.2l0.7-0.3l0.8-1.1L221.3,298.4z M183.6,296.3
		c-0.1,0.2-0.2,0.4-0.4,0.5c-0.2,0.1-0.4,0.2-0.7,0.3c-0.3,0.1-0.5,0.1-0.8,0.1c-0.9,0-1.7-0.3-2.3-0.8l0.3-0.5
		c0.1,0.1,0.2,0.2,0.4,0.3c0.1,0.1,0.3,0.2,0.5,0.3c0.2,0.1,0.4,0.1,0.6,0.2c0.2,0,0.4,0.1,0.6,0.1c0.5,0,0.8-0.1,1.1-0.2
		c0.3-0.2,0.4-0.4,0.4-0.7c0-0.2,0-0.3-0.1-0.4c-0.1-0.1-0.2-0.2-0.3-0.3s-0.3-0.2-0.5-0.2s-0.5-0.1-0.8-0.2
		c-0.3-0.1-0.6-0.1-0.8-0.2c-0.2-0.1-0.4-0.2-0.6-0.3s-0.3-0.2-0.4-0.4s-0.1-0.4-0.1-0.6c0-0.3,0-0.5,0.1-0.7
		c0.1-0.2,0.2-0.4,0.4-0.5c0.2-0.1,0.4-0.2,0.6-0.3c0.2-0.1,0.5-0.1,0.8-0.1c0.4,0,0.7,0.1,1,0.2c0.3,0.1,0.6,0.3,0.8,0.5l-0.3,0.5
		c-0.2-0.2-0.4-0.3-0.6-0.4s-0.6-0.2-0.9-0.2c-0.5,0-0.9,0.1-1.1,0.3s-0.3,0.5-0.3,0.8c0,0.2,0,0.3,0.1,0.4c0.1,0.1,0.2,0.2,0.3,0.3
		c0.1,0.1,0.3,0.2,0.5,0.2c0.2,0.1,0.4,0.1,0.7,0.2c0.3,0.1,0.6,0.1,0.8,0.2c0.2,0.1,0.5,0.2,0.6,0.3c0.2,0.1,0.3,0.3,0.4,0.4
		s0.1,0.4,0.1,0.6C183.8,295.9,183.7,296.1,183.6,296.3z M188.7,293.9c-0.1,0.2-0.2,0.4-0.3,0.6c-0.1,0.2-0.3,0.3-0.5,0.4
		c-0.2,0.1-0.4,0.2-0.7,0.2h-1.9v2.1h-0.6v-5.7h2.4c0.2,0,0.5,0.1,0.7,0.2c0.2,0.1,0.4,0.2,0.5,0.4c0.2,0.2,0.3,0.4,0.4,0.6
		c0.1,0.2,0.1,0.4,0.1,0.7C188.8,293.5,188.8,293.7,188.7,293.9z"/>
</g>
<g>
	<polygon class="st1" points="249.2,288.1 249.2,287.5 248.4,287 246.9,287.2 244.8,286.7 243.6,286.1 243.3,283.8 242.4,283.4
		241.2,284.6 240.6,284.7 240.3,284.9 240.7,285.2 239.5,288.2 238.6,290 238.6,290.4 239.3,290.5 239.4,290.8 239.3,291.1
		238.1,291.6 233.5,293.8 232.8,293.9 232.8,293.7 232.6,293.6 231.4,293.5 231.1,293.5 230.3,294 229.7,294.1 228.1,294.1
		227.9,293.9 227.6,293.9 225.6,294.8 225.1,295.2 224.3,295.6 224.1,295.5 222.8,295.6 221.4,296.3 220.2,296.7 219.9,296.9
		220.5,297.2 220.8,297.8 221.4,298.6 222.3,298.8 223.8,298.5 224.6,298.5 225,299.3 224.2,300.4 223.5,300.7 222.1,300.9
		221.9,300.8 220.8,301.3 220.3,301.9 219.8,303.6 219.8,303.8 220.6,304.6 220.8,304.7 221.5,304.6 222,304.7 222.6,304.2
		222.1,303.7 221,303.6 221.1,302.7 221.3,302.3 222.8,301.9 223.3,301.4 223.7,301.2 223.9,301.2 224.6,302.3 224.9,302.3
		225.4,302.1 226.1,301.3 227.5,301 228.2,301.2 229.1,301.8 230.8,301.6 231.6,301.6 232.4,301.4 232.7,301.1 232.6,300.6
		231.9,300 231.7,299.6 231.8,299.3 233.2,298.7 233.6,298.8 233.6,299.1 233.3,299.8 232.8,300.5 232.8,300.8 233,301 234.2,301.2
		237,300.9 240.2,301 241.1,300.8 241.5,300.1 241.6,299.3 241.4,298.7 241.5,297.9 243.2,296.1 244.6,295.3 247.5,294.4 249,293.5
		249.2,293.2 248.6,289.9 248.7,288.9 	"/>
	<path d="M244.4,305.5c0.2-0.1,0.3-0.2,0.4-0.4c0.1-0.2,0.2-0.3,0.3-0.5c0.1-0.2,0.1-0.4,0.1-0.6c0-0.2,0-0.4-0.1-0.7
		c-0.1-0.2-0.2-0.4-0.4-0.6c-0.2-0.2-0.3-0.3-0.5-0.4c-0.2-0.1-0.4-0.2-0.7-0.2h-2.4v5.7h0.6v-2.1h1.7l1.3,2.1h0.6l-1.4-2.2
		C244.1,305.7,244.3,305.6,244.4,305.5z M241.6,305.3v-2.6h1.8c0.2,0,0.3,0,0.4,0.1c0.1,0.1,0.3,0.2,0.4,0.3
		c0.1,0.1,0.2,0.3,0.3,0.4s0.1,0.3,0.1,0.5c0,0.2,0,0.3-0.1,0.5c-0.1,0.2-0.1,0.3-0.2,0.4c-0.1,0.1-0.2,0.2-0.4,0.3
		c-0.1,0.1-0.3,0.1-0.5,0.1H241.6z"/>
	<path d="M248.3,305.1c0,0.4,0,0.7,0,1c0,0.3-0.1,0.6-0.2,0.8c-0.1,0.2-0.2,0.4-0.4,0.5c-0.2,0.1-0.4,0.2-0.7,0.2
		c-0.2,0-0.4,0-0.6-0.1c-0.2-0.1-0.3-0.1-0.5-0.2l-0.2,0.5c0.3,0.2,0.8,0.4,1.2,0.4c0.4,0,0.8-0.1,1-0.2c0.2-0.1,0.4-0.3,0.6-0.6
		c0.1-0.3,0.2-0.6,0.3-0.9c0-0.4,0.1-0.8,0.1-1.2v-2.9h-0.6V305.1z"/>
</g>
<path class="st1" d="M256,247.5l0.7-1.5l-0.2-0.6l-0.4-0.5h-0.4l-0.4-0.2l-1.4-1.2h-1l-1.1-0.3l-1.1-0.5l-1.3-0.3l-1-0.1l-0.6,0.5
	l-0.7,0.2l-1.3-0.2l-0.3,0.1l-0.2-1.9l-3.2-3l-0.2-0.1l-2.1,0.6l-0.7-0.6l-0.2,0.1l-0.5-0.1l-1.2-0.6l-1.1-0.8l-0.5,0.1l-2.1-1.8
	l-0.5-0.3l-1.3-0.4l-0.9,0.1l-0.9,0.4l-0.4,0.5l-0.3,0.1l-2.6-0.7l-0.3-0.2l-0.1-0.7l0.1-0.4l0.6-1.3l-0.4-0.2l-1.1-0.3h-1.1
	l-0.6-0.2h-0.9l-1.9,0.8l-2.1,1.5l-0.3,0.5l-1.6,0.9l-1,0.2l-0.5,0.6l-0.9,0.8l-0.7,0.3l-0.5-0.1l-0.9,1.3l-0.5,0.4l-1-0.2l-0.4,0.1
	l-0.3,0.5l-0.7,0.4l-0.2-0.1l0.7-1.7l-0.2-1.2l-0.5,0.5l-1.6-0.2l-0.4-0.9l-1.2-0.7l-0.6,0.7l0.3,1.8l-0.3,0.3l-0.2,0.1l-1.4-0.6
	l-0.6,0.1l-0.2,0.1l-0.4,1.6h0.4l0.2,0.6l-0.3,0.5l-0.4,0.3v0.9l0.2,0.3l0.3,0.1l0.3,2.1l-0.3,0.3l-1.6,0.4l-1.1,0.7l-0.6,0.1
	l-0.3,0.7l0.2,0.8l-0.3,0.8l-0.5,0.6l-0.2,0.7l0.4,0.6l0.4,0.2l0.7,0.5l0.8,2.2v0.3l-1.1,1.3l-1.6,1.5l-0.2,1l0.5,0.5l0.4-0.2
	l0.8,0.3l0.2,0.3l0.1,0.5l-0.1,0.3l-0.4,0.4l-0.2,0.9l0.6,1.7l-1.5,1l-0.6,0.1l-0.4,0.4l-0.2,0.5l-2.4,1.3l-0.3-0.4l-2.1-0.9
	l-0.3,0.2h-0.3H191l-0.7-0.1l-1.9,0.1l-1-0.4l-2,1.3l-1.4,1.4h-0.2l-0.6-0.7l-0.7-0.1l-1.6,0.8l-1.8-0.3l-1.2,0.5l-1.1,0.3l-0.7,1
	l-0.6,1.2v0.5l-0.4,0.6l-0.4,0.1l-0.4-0.1l-0.2,0.1l-0.5,0.4l-0.8,1l-0.3,0.9l0.3,0.3v0.2l-0.2,0.1l-0.4-0.2l-0.3,0.1l-0.5,2
	l0.3,1.6l-0.2,1.3l0.6-0.6l1.1-0.5l0.9-0.2l0.7-0.8l0.7-0.3l0.4,0.1l0.8,0.8h1.2l2.1,0.5l0.8-0.2l0.8,0.1l1-0.3l1.1,0.7l0.8,0.4
	l-0.1,0.4l0.2,0.7l0.6,1h0.3l0.3-0.2l0.3-0.5l0.2-0.6l0.1-0.1h0.3l0.2,0.2l0.1,0.5v1.4l0.6,0.3l0.2-0.2l-0.1-1.2l0.2-0.6l0.2-0.2
	l4-0.3l0.5-0.6l0.7,0.7l0.5,0.2l1.4-0.3l0.2-0.5l-0.1-0.2l0.2-0.3l1-0.2l0.8,0.4l0.4-0.3l0.6-0.1l1.6,1.6l0.1,0.5l-0.3,0.5l-0.1,1.2
	l0.3,0.3l0.9,0.6l0.2,0.8v0.3l-0.7,1l-0.1,0.9l0.4,0.4l0.2,0.3l0.2,1.1l0.6,0.9l0.4,1v0.4h0.8l0.4-0.2l0.1-0.2h0.5l1.8,0.6l0.1,0.2
	v0.6l-0.3,1.1l-0.9,1.3l0.3,1.1l-0.1,1.7l-0.3,0.8l0.3,0.8l0.9,0.6l0.9,0.4l0.3,0.8l-0.6,0.3l1,1.6l0.5,0.1l1-0.1l0.1,0.3l1.8-0.5
	l0.3,0.2l0.6-0.2l0.4-0.5v-0.4l-0.1-0.1l0.1-1.1l0.6-0.2v0.2l-0.2,0.2v0.2h1.1l1.2-0.1l0.9-0.3l0.6-0.6l0.9-0.5l1.1-0.1l0.6-0.4
	l0.3-0.2l1.2-0.4l1.4-0.7l1.3-0.1l0.2,0.1l0.8-0.4l0.5-0.4l2-0.9h0.2l0.2,0.2h1.6l0.6-0.1l0.8-0.5h0.3l1.2,0.1l0.2,0.1v0.2l0.7-0.1
	l4.6-2.2l1.2-0.5l0.1-0.3l-0.1-0.3l-0.7-0.1v-0.4l0.9-1.8l1.2-3l-0.4-0.3l0.3-0.2l0.6-0.1l1.2-1.1l-0.1-0.1l0.2-1.1l0.3-0.6
	l-0.3-1.5l0.1-0.2l0.8-1h2.5l0.3-0.2l0.5-1.6l0.5-0.6l0.4-1.1l0.1-0.8l0.1-0.2l0.6-0.4l0.8-1l0.3-1.5l-0.1-1.2l-0.6-1.4l-0.5-0.6
	h-0.3l-0.2,0.1l-0.4-0.1l-0.2-0.3l0.2-0.3h0.7l0.4,0.2h0.5l0.5-0.1l0.2-0.2l-0.1-0.8l-0.6-0.2l-0.1-0.2l0.1-0.8v-0.9l-0.3-0.3
	l-0.7-0.3l-0.1-0.3l0.6-0.9l1.1-0.6h0.2l0.5,0.4l0.6,0.1v-0.4l-0.8-1.1l0.7,0.1l1.1-0.1l0.4-0.3l0.5-0.2h0.8l1.2,0.4l0.4,0.3
	l0.1-0.3l0.3-0.7v-0.3l-0.3-0.5l-2-1.5l-0.1-0.2l0.1-0.7l-0.3-0.6l-0.3,0.1l-0.1,0.2l-0.2,0.1L251,256l0.3-2.2l0.4-1.6l0.4-0.4
	l1.2,0.1l0.5-0.3v-0.2l-0.3-0.5l0.1-1.3L256,247.5z M219.9,270.7h-0.6V266l-2.1,3.6h-0.3l-2.1-3.6v4.7h-0.6V265h0.6l2.2,3.9l2.3-3.9
	h0.6V270.7z M226,270.7h-0.5v-0.8c-0.5,0.6-1.1,0.9-1.8,0.9c-0.4,0-0.7-0.1-1.1-0.3c-0.3-0.2-0.6-0.4-0.8-0.7
	c-0.2-0.3-0.4-0.6-0.6-0.9s-0.2-0.7-0.2-1.1c0-0.4,0.1-0.7,0.2-1.1c0.1-0.4,0.3-0.7,0.6-0.9s0.5-0.5,0.8-0.6s0.7-0.2,1.1-0.2
	c0.3,0,0.5,0,0.8,0.1c0.2,0.1,0.4,0.1,0.6,0.3s0.3,0.2,0.5,0.4c0.1,0.2,0.2,0.3,0.3,0.5l-0.4,0.3c-0.2-0.4-0.4-0.6-0.7-0.8
	c-0.3-0.2-0.6-0.3-1-0.3c-0.3,0-0.6,0.1-0.9,0.2c-0.3,0.1-0.5,0.3-0.7,0.5s-0.3,0.5-0.4,0.8c-0.1,0.3-0.1,0.6-0.1,0.9
	c0,0.3,0.1,0.6,0.2,0.9s0.3,0.5,0.5,0.8c0.2,0.2,0.4,0.4,0.7,0.5c0.3,0.1,0.5,0.2,0.9,0.2c0.3,0,0.6-0.1,0.9-0.2
	c0.3-0.2,0.6-0.4,0.9-0.7v-1h-1.3v-0.4h1.8V270.7z"/>
<g>
	<path class="st1" d="M240.5,216.3c0.1-0.1,0.2-0.1,0.3-0.2c0.1-0.1,0.2-0.2,0.2-0.3c0-0.1,0.1-0.3,0.1-0.4c0-0.1,0-0.3-0.1-0.4
		c0-0.1-0.1-0.2-0.2-0.3c-0.1-0.1-0.2-0.2-0.3-0.2s-0.2-0.1-0.4-0.1h-2v2.1h2C240.3,216.4,240.4,216.3,240.5,216.3z"/>
	<path class="st1" d="M241.1,217.2c-0.1-0.1-0.2-0.2-0.3-0.2c-0.1-0.1-0.3-0.1-0.4-0.1h-2.2v2.2h2.1c0.1,0,0.3,0,0.4-0.1
		s0.2-0.1,0.3-0.2c0.1-0.1,0.2-0.2,0.2-0.3s0.1-0.3,0.1-0.4c0-0.1,0-0.3-0.1-0.4C241.2,217.4,241.2,217.3,241.1,217.2z"/>
	<path class="st1" d="M277,209.1h-0.3l-1.4,0.4l-0.8-0.3l-0.3-0.2l-0.2-0.3l-0.9-0.4l-0.3-0.3l-0.1-0.2l0.2-0.2l0.1-0.7l-0.1-0.2
		l-0.7-0.7l-0.3-0.7l-0.5-0.3l-0.5-0.8v-0.4l0.3-0.8l0.2-0.1h0.8l0.6,0.4l1.2-0.5l0.3-0.3l0.1-0.3l-0.4-1.3v-0.4l0.3-0.8v-1.5
		l-0.4-0.6l-1-1l-0.6-1.2l-0.1-1l0.3-0.6l-0.1-0.4l-0.7-0.4h-0.2l-0.5-0.1l-0.3-0.7l-0.6-1.5v-0.5l-1-0.4l-0.2-0.2l-0.2-0.4l0.3-0.4
		v-0.3l-0.2-0.2h-0.5l-0.2,0.2l-0.1,0.9l-0.2,0.1l-0.2-0.1l-0.3-0.8l-0.8-0.6l-1.5-0.2l-1.2-0.4l-0.7-0.4l-0.4-0.7L262,186h-0.3
		l-1.2,0.7l-0.8,0.2l-0.4,1l-1.1,0.2l-0.1,0.1l0.1,0.7l-0.1,0.3l-0.5,0.6l-1.2,0.5h-0.3l-0.4-0.3l-0.4,0.1l-0.2,0.4l-0.4,1.7
		l-1.4,0.4l-0.4,0.4l-0.5,0.1l-0.9-0.3l0.4-0.8l-0.1-1l-1.1-0.4l-0.4-0.9v-1.3l-0.2-0.2l-1.4-0.7l-1.1-0.1l-0.6,0.1l-0.4-0.2
		l-0.2,0.6l-0.7,1.1l-0.5,0.3l-0.4-0.1l-1,0.2v1.2l-0.9,0.9h-0.2l-0.3-0.3h-1.1l-0.4,0.5l-0.4,0.2l-1.3,0.2l-0.7,0.7l-0.4,0.6h-0.8
		l-0.7,0.3l-1.5,0.1l-0.4-0.1l-0.1-0.1l0.1-0.3l-0.8-0.5l-0.7-0.2l-0.7,0.3l-1,0.2l-0.2-0.1l-0.2-0.5l-0.7-0.2h-1l-1.6,0.8v0.5
		l1.1,2.2l0.1,0.6l-0.1,1.3l-0.1,0.4l-0.4,0.4L227,201l-1.5,1.2l-0.7,0.2l-0.7-0.3l-0.7-0.1l-1.1,0.4l-0.6,0.4l-0.3,0.4l-0.6,0.2
		l-0.4,0.7l-0.2,0.1l-1-0.1l-0.9,0.3l-2-0.9l-0.9-1.2l-0.3-1.1l-0.3-0.5l-0.7-0.7H213l-0.3,0.3l-0.1,0.5l-0.3,0.2l-1.9,1l-1.6,1.3
		l-0.1,0.2l0.6,0.9l-0.2,0.2l-0.5,0.1l-0.4,0.3l-0.7,1.7l-0.5,0.4l-0.2,0.6l0.1,0.4l0.9,1l1.7,0.3l0.9,0.5v0.4l-0.3,0.2l-1,0.4
		l-0.2,0.5v0.2l0.2,0.2l0.5-0.1l0.4,0.1l0.3,0.3l0.1,0.3l-0.5,0.4l-0.6,0.2l-1,0.8l-0.1,0.4v1.4l0.2,0.6l0.5,0.3l0.7,0.2l0.1,0.2
		v0.5l-0.7,1.2v0.5l1.3,1.2v0.2l-0.7,0.5l-0.2,1.2l0.1,0.2l0.8,0.4v0.5l-0.1,0.2l-0.8,0.5l-0.6,1.9v0.8l0.3,1.7l0.8,1.7l1.6,1.3v0.2
		l-0.3,0.7v0.3l0.3,0.8l0.1,0.6l-0.1,0.4l-0.7,1l0.2,1.2l-0.7,1.7l0.2,0.1l0.7-0.4l0.3-0.5l0.4-0.1l1,0.2l0.5-0.4l0.9-1.3l0.5,0.1
		l0.7-0.3l0.9-0.8l0.5-0.6l1-0.2l1.6-0.9l0.3-0.5l2.1-1.5l1.9-0.8h0.9l0.6,0.2h1.1l1.1,0.3l0.4,0.2l-0.6,1.3l-0.1,0.4l0.1,0.7
		l0.3,0.2l2.6,0.7l0.3-0.1l0.4-0.5l0.9-0.4l0.9-0.1l1.3,0.4l0.5,0.3l2.1,1.8l0.5-0.1l1.1,0.8l1.2,0.6l0.5,0.1l0.2-0.1l0.7,0.6
		l2.1-0.6l0.2,0.1l3.2,3l0.2,1.9l0.3-0.1l1.3,0.2l0.7-0.2l0.6-0.5l1,0.1l1.3,0.3l1.1,0.5l1.1,0.3h1l1.4,1.2l0.4,0.2h0.4l0.4,0.5
		l0.2,0.6l-0.7,1.5l-2.4,2.1l-0.1,1.3l0.3,0.5v0.2l-0.5,0.3l-1.2-0.1l-0.4,0.4l-0.4,1.6l-0.3,2.2l0.1,0.1l0.2-0.1l0.1-0.2l0.3-0.1
		l0.3,0.6l-0.1,0.7l0.1,0.2l2,1.5l0.3,0.5v0.3l-0.3,0.7l0.2,0.4l1.1,0l4,2.5l0.3-1l1.3-1.9l0.5-0.3l0.9-0.3l1.1-1.5l-0.4-0.8
		l-0.2-2.2v-1.1l0.5-1.8l0.1-1.4l0.2-0.5l0.7-3.3l1.1-3.3l-0.5-1.7l-0.4-3.1l-0.1-2.2l-0.4-1.4l-0.1-1.2l0.2-0.9l0.4-2.7l0.5-1.3
		v-0.9l-0.1-0.3l-0.4,0.3l0.2,1.1l-0.6,0.8l-0.3-0.2l0.1-0.6l0.3,0.1l0.3-0.2l-0.3-1.7l0.5-1.2l-0.2-0.5l-0.1-0.1v-0.3l0.1-0.2
		l-0.1-0.3l-0.2-0.1l-0.1-0.4l-0.1-0.1l-0.1,0l0.1-0.3l0.1-0.2l0.7,0.2l-0.1-0.4l0.1-0.4l0.2-0.3l0.6-0.5l0-0.4l1-0.7v-0.3l-0.3-0.3
		l0.2-0.7l-0.6-0.1l-0.2,0.1l-0.1,0l0.3-0.2l0.2-0.4l0.2-1.1l0.2-0.3l0.3,0.4l0.2,0.6l0.9,0.1l0.2,0.9l-0.1,0.5l-0.2,0.1l-0.1,0.7
		h0.4l1.2-0.6l2.5-2.8l0.5-1.1l1.9-2.5l2-4.3L277,209.1z M241.8,218.6c-0.1,0.2-0.2,0.3-0.3,0.5c-0.1,0.1-0.3,0.2-0.5,0.3
		c-0.2,0.1-0.4,0.1-0.6,0.1h-2.7v-5.7h2.8c0.2,0,0.4,0,0.5,0.1c0.2,0.1,0.3,0.2,0.4,0.3s0.2,0.3,0.3,0.5c0.1,0.2,0.1,0.4,0.1,0.5
		c0,0.3-0.1,0.6-0.2,0.8s-0.3,0.4-0.6,0.5c0.3,0.1,0.6,0.3,0.8,0.5c0.2,0.3,0.3,0.6,0.3,0.9C241.9,218.2,241.9,218.4,241.8,218.6z
		 M246.9,219.5l-0.7-1.8h-2.6l-0.7,1.8h-0.6l2.4-5.7h0.5l2.4,5.7H246.9z M266.2,218.1l0.2-0.3v0.2L266.2,218.1l-0.1,0.2l0.1,0.4
		l-0.2-0.3L266.2,218.1z"/>
	<polygon class="st1" points="243.7,217.3 246,217.3 244.9,214.4 	"/>
</g>
<g>
	<path class="st1" d="M198.4,244.2l0.2-0.7l1.1-0.7l1.6-0.4l0.3-0.3l-0.3-2.1l-0.3-0.1l-0.2-0.3v-0.9l0.4-0.3l0.3-0.5l-0.2-0.6h-0.4
		l0.4-1.6l0.2-0.1l0.6-0.1l1.4,0.6l0.2-0.1l0.3-0.3l-0.3-1.8l0.6-0.7l1.2,0.7l0.4,0.9l1.6,0.2l0.5-0.5l0.7-1l0.1-0.4l-0.1-0.6
		l-0.3-0.8v-0.3l0.4-0.7v-0.2l-1.6-1.3l-0.8-1.7l-0.3-1.7V225l0.6-1.9l0.8-0.5l0.1-0.2v-0.5l-0.8-0.4v-0.2l0.2-1.2l0.7-0.5v-0.2
		l-1.3-1.2l-2.6,0.7l-0.9,0.7l-1.3,0.5h-0.8l-2.2,0.5l-1.2,1l-0.9,0.4l-0.2-0.1l-0.7-1.3h-0.3l-0.2,1.6h-0.3l-1.6-0.3l-1.5-0.7
		l0.3-0.8l-0.1-0.4l-2.2,0.3l-1.3-0.2l-0.3,0.3l-0.1,0.5l-0.4,0.4H187l-0.3-1.5l-0.5-1.8l-0.5-0.9l-0.6-0.6l-0.6,0.5l-0.7,1.2
		l-0.8,2.9l-0.3,0.1l-2-0.7l-1.5-0.8l-1.9-0.2l-1.1-0.5l-1.2-0.2l0.3-1.1l0.6-0.9V216l-0.3,0.1l-0.9,1l-0.3,0.6l-0.1,0.9l-0.2,0.2
		v0.3l-0.1,0.6l-0.5,0.4l-0.2,0.4l0.1,1.3l-0.2,0.5l-1,1.5l-0.5,1.3l-0.6,0.4l0.1,2.5l-0.8,1.5l-0.3,1.3l0.2,0.6v0.4l-0.6,1.4
		l-0.4,1.4l-0.7,0.7l-0.6,0.4l-0.6-0.3l-0.5,0.1l-0.8,0.5l-0.9,0.9l-0.2,0.4l-0.3,2l-0.3,0.5l-1,2l-0.2,0.1l-1.3,0.4l-1.3,0.1
		l-0.7,1.3l-0.9,0.5v0.8l-0.4,0.7l-0.6,0.5l-0.2,0.5l-0.2,1l-0.6,1l-0.9,0.9l-1,0.4l-0.3,0.4l-0.2,1.4l-1.2,1.9l-0.2,1.7l0.1,0.3
		l0.7,1.1l0.1,1.7l0.5,1.1l0.1,0.9l-0.1,1.3l0.1,0.5l0.1,0.2l0.3,0.1l0.6-0.3l1.1,0.4v0.2l-0.6,0.9l-0.3,0.6l-0.1,0.4l0.1,0.2
		l1.9,0.3l1.4-0.1l1.3,0.8l0.6,0.1l0.7,0.3l0.3,0.3l1.5,0.8l0.3,0.4l1.6,0.7h0.7l0.9,0.2l0.8,0.8l1.5,0.3l1.3,1.1l0.1,0.2l0.4,0.2
		l0.2-0.1v-0.2l-0.3-0.3l0.3-0.9l0.8-1l0.5-0.4l0.2-0.1l0.4,0.1l0.4-0.1l0.4-0.6v-0.5l0.6-1.2l0.7-1l1.1-0.3l1.2-0.5l1.8,0.3
		l1.6-0.8l0.7,0.1l0.6,0.7h0.2l1.4-1.4l2-1.3l1,0.4l1.9-0.1l0.7,0.1h0.9h0.3l0.3-0.2l2.1,0.9l0.3,0.4l2.4-1.3l0.2-0.5l0.4-0.4
		l0.6-0.1l1.5-1l-0.6-1.7l0.2-0.9l0.4-0.4l0.1-0.3l-0.1-0.5l-0.2-0.3l-0.8-0.3l-0.4,0.2l-0.5-0.5l0.2-1l1.6-1.5l1.1-1.3v-0.3
		l-0.8-2.2l-0.7-0.5l-0.4-0.2l-0.4-0.6l0.2-0.7l0.5-0.6l0.3-0.8l-0.2-0.8L198.4,244.2 M179,251.8h-0.5v-0.8
		c-0.5,0.6-1.1,0.9-1.8,0.9c-0.4,0-0.7-0.1-1.1-0.3s-0.6-0.4-0.8-0.7c-0.2-0.3-0.4-0.6-0.6-0.9s-0.2-0.7-0.2-1.1
		c0-0.4,0.1-0.7,0.2-1.1s0.3-0.7,0.6-0.9s0.5-0.5,0.8-0.6c0.3-0.2,0.7-0.2,1.1-0.2c0.3,0,0.5,0,0.8,0.1c0.2,0.1,0.4,0.1,0.6,0.3
		s0.3,0.2,0.5,0.4c0.1,0.2,0.2,0.3,0.3,0.5l-0.4,0.3c-0.2-0.4-0.4-0.6-0.7-0.8s-0.6-0.3-1-0.3c-0.3,0-0.6,0.1-0.9,0.2
		s-0.5,0.3-0.7,0.5s-0.3,0.5-0.4,0.8c-0.1,0.3-0.1,0.6-0.1,0.9c0,0.3,0.1,0.6,0.2,0.9s0.3,0.5,0.5,0.8c0.2,0.2,0.4,0.4,0.7,0.5
		c0.3,0.1,0.5,0.2,0.9,0.2c0.3,0,0.6-0.1,0.9-0.2s0.6-0.4,0.9-0.7v-1h-1.3V249h1.8V251.8z M185,250c-0.1,0.4-0.3,0.7-0.6,0.9
		s-0.5,0.5-0.9,0.6c-0.3,0.2-0.7,0.2-1.1,0.2c-0.4,0-0.8-0.1-1.1-0.2s-0.6-0.4-0.9-0.7c-0.2-0.3-0.4-0.6-0.5-0.9
		c-0.1-0.4-0.2-0.7-0.2-1.1c0-0.4,0.1-0.7,0.2-1.1s0.3-0.7,0.6-0.9c0.2-0.3,0.5-0.5,0.9-0.6c0.3-0.2,0.7-0.2,1.1-0.2
		c0.4,0,0.8,0.1,1.1,0.3c0.3,0.2,0.6,0.4,0.8,0.7c0.2,0.3,0.4,0.6,0.5,0.9s0.2,0.7,0.2,1.1C185.2,249.3,185.1,249.7,185,250z"/>
	<path class="st1" d="M184,247.3c-0.2-0.2-0.4-0.4-0.7-0.5c-0.3-0.1-0.5-0.2-0.9-0.2c-0.3,0-0.6,0.1-0.9,0.2
		c-0.3,0.1-0.5,0.3-0.7,0.5c-0.2,0.2-0.3,0.5-0.4,0.8c-0.1,0.3-0.2,0.6-0.2,0.9c0,0.3,0.1,0.6,0.2,0.9s0.2,0.5,0.4,0.8
		s0.4,0.4,0.7,0.5s0.5,0.2,0.9,0.2c0.3,0,0.6-0.1,0.9-0.2c0.3-0.1,0.5-0.3,0.7-0.5c0.2-0.2,0.3-0.5,0.4-0.8c0.1-0.3,0.1-0.6,0.1-0.9
		c0-0.3-0.1-0.6-0.2-0.9C184.3,247.7,184.2,247.5,184,247.3z"/>
</g>
<g>
	<polygon class="st1" points="260.8,271.5 261,270.3 260.6,267.3 260.5,265.5 260.7,264.1 261.2,262.5 257.2,260 257.1,259.7
		256.7,259.4 255.5,259 254.7,259 254.2,259.2 253.8,259.5 252.7,259.6 252,259.5 252.8,260.6 252.8,261 252.2,260.9 251.7,260.5
		251.5,260.5 250.4,261.1 249.8,262 249.9,262.3 250.6,262.6 250.9,262.9 250.9,263.8 250.8,264.6 250.9,264.8 251.5,265
		251.6,265.8 251.4,266 250.9,266.1 250.4,266.1 250,265.9 249.3,265.9 249.1,266.2 249.3,266.5 249.7,266.6 249.9,266.5
		250.2,266.5 250.7,267.1 251.3,268.5 251.4,269.7 251.1,271.2 250.3,272.2 249.7,272.6 249.6,272.8 249.5,273.6 249.1,274.7
		248.6,275.3 248.1,276.9 247.8,277.1 245.3,277.1 244.5,278.1 244.4,278.3 244.7,279.8 244.4,280.4 244.2,281.5 244.3,281.6
		245.6,282.8 245.9,285.1 247.1,285.7 249.2,286.2 250.7,286 251.5,286.5 251.6,285.9 252.4,284.9 252.6,284.3 252.6,283.6 253,283
		253.9,282.7 254,282.8 255.7,280.9 256.6,278.8 255.9,278.5 256,277.9 256.4,278 256.8,278.3 257.2,277.6 257.7,275.7 258.5,274.1
		258.8,273.8 260.1,273.1 	"/>
	<polygon points="260.1,279.8 262.9,279.8 262.9,279.4 260.1,279.4 260.1,277.3 263.3,277.3 263.3,276.8 259.6,276.8 259.6,282.5
		263.4,282.5 263.4,282 260.1,282 	"/>
	<path d="M268.1,280.4c-0.1-0.2-0.2-0.3-0.4-0.4c-0.2-0.1-0.4-0.2-0.6-0.3s-0.5-0.2-0.8-0.2c-0.3-0.1-0.5-0.1-0.7-0.2
		c-0.2-0.1-0.4-0.1-0.5-0.2c-0.1-0.1-0.2-0.2-0.3-0.3c-0.1-0.1-0.1-0.3-0.1-0.4c0-0.3,0.1-0.6,0.3-0.8c0.2-0.2,0.6-0.3,1.1-0.3
		c0.3,0,0.7,0.1,0.9,0.2s0.5,0.3,0.6,0.4l0.3-0.5c-0.2-0.2-0.5-0.4-0.8-0.5c-0.3-0.1-0.6-0.2-1-0.2c-0.3,0-0.6,0-0.8,0.1
		c-0.2,0.1-0.5,0.2-0.6,0.3c-0.2,0.1-0.3,0.3-0.4,0.5c-0.1,0.2-0.2,0.4-0.2,0.7c0,0.2,0,0.4,0.1,0.6s0.2,0.3,0.4,0.4
		c0.2,0.1,0.3,0.2,0.6,0.3c0.2,0.1,0.5,0.1,0.8,0.2c0.3,0.1,0.5,0.1,0.8,0.2c0.2,0.1,0.4,0.1,0.5,0.2s0.3,0.2,0.3,0.3
		c0.1,0.1,0.1,0.3,0.1,0.4c0,0.3-0.1,0.6-0.4,0.7s-0.6,0.2-1.1,0.2c-0.2,0-0.4,0-0.6-0.1c-0.2,0-0.4-0.1-0.6-0.2
		c-0.2-0.1-0.3-0.2-0.5-0.3c-0.1-0.1-0.3-0.2-0.4-0.3l-0.3,0.5c0.6,0.6,1.4,0.8,2.3,0.8c0.3,0,0.6,0,0.8-0.1
		c0.3-0.1,0.5-0.2,0.7-0.3c0.2-0.1,0.3-0.3,0.4-0.5s0.2-0.4,0.2-0.7C268.3,280.8,268.2,280.6,268.1,280.4z"/>
</g>
<path class="st1" d="M189.3,341.8h-0.1l-0.7,0.4l-0.1,0.5l0.2,0.6l-0.4,1.2l-0.1,0.8l-0.2-0.5l-0.2-0.9l0.3-0.4l-0.3-1.3l0.2-1.9
	l0.6-0.3l0.2,0.1h0.2v-0.4l-0.2-0.4l-0.4,0.2l-0.2-0.1l-0.2-0.3l-0.1-2.9l-0.4-0.4v-0.2l0.1-1.1l0.4-1l0.1,0.1l0.3-1.1l0.4-0.6
	l-0.3-0.5h-0.1l-1,1l-0.4-0.3l-0.3-1.3v-0.5l0.4,1.2l0.5,0.2l0.7-0.6v-0.2l-0.2-0.8l0.2-0.6h-2.6l-0.2,0.2l-0.9,0.1h-0.4l-0.1-0.2
	l-0.8,0.3l-0.7,0.7l-1.6,1l-0.7-0.1l-0.6-0.3l-1.5-1.3l-0.5-0.2h-0.4l-1.4,0.4l-1.1,0.1h-0.4l-0.7-0.4l-0.5,0.1l-0.7,0.3l-0.3,0.7
	l-0.4,0.4l-0.9,0.5l-1.7-0.2l-1,0.6l-0.4,0.4l-0.3,0.8l0.4,1.5l-0.4,0.4H167l-0.4,0.2l-0.1,0.2l-0.7-0.9l-2.1,0.1l-1.8-0.2l-0.8-0.6
	l-0.1-0.2l-0.5-0.3l-2.1-0.2l-2.6-0.8l-1.1,0.3h-1.3l-1-0.7l-0.2-0.2l-0.5-0.1h-0.3l-0.3,0.2h-1.8l-0.5,0.9v1.2l-0.2,1.6l0.3,1.6
	l-0.4,1l-0.7,1.4l1.7,0.2l1.6-0.6l0.3-0.4l0.7,0.3l-0.1,0.5h1.5l0.8,0.5l1.3-0.2l0.9,0.6l1.3-0.2l0.8,0.1l1.4-0.1l1.1,0.5l1.2,0.7
	l0.5,1.2l0.8,0.1v-0.2l0.9-0.2l2.7,1.7l0.7,0.8h0.3l0.8,0.5l1.5,1.7l0.8,1.1l0.2,0.7l1.1,1.3l0.6,0.3l3.3,0.5l1-0.2l1.6,0.2l0.4,1.1
	l-1,0.8l-0.6,0.2l-0.4,0.9l0.1,1.1l-0.2,0.8l-0.3,0.6l-0.6,0.1l-0.6,0.8v0.7l0.9,0.6l0.1-0.1l-0.1-0.5v-0.5l0.7-0.4l0.8,0.3l0.4,0.4
	l0.6,0.4h0.2l0.8-1l1.8-2.2l1.4-1.3l2-1.5l0.8-0.3l0.4-0.8l-0.6-0.4l-0.1-1.2l0.1-0.2l0.4,0.6l-0.1,0.5l0.2,0.4h0.2l0.8-2.3l0.3-2
	l0.4-1.1l-0.1-0.1l0.5-0.4l-0.1-0.6l0.3-0.6l0.4-0.4l0.3-1.3L189.3,341.8z M176.3,341c-0.1,0.2-0.2,0.4-0.4,0.5
	c-0.2,0.1-0.4,0.2-0.7,0.3c-0.3,0.1-0.5,0.1-0.8,0.1c-0.9,0-1.7-0.3-2.3-0.8l0.3-0.5c0.1,0.1,0.2,0.2,0.4,0.3
	c0.1,0.1,0.3,0.2,0.5,0.3c0.2,0.1,0.4,0.1,0.6,0.2c0.2,0,0.4,0.1,0.6,0.1c0.5,0,0.8-0.1,1.1-0.2c0.3-0.2,0.4-0.4,0.4-0.7
	c0-0.2,0-0.3-0.1-0.4c-0.1-0.1-0.2-0.2-0.3-0.3s-0.3-0.2-0.5-0.2s-0.5-0.1-0.8-0.2c-0.3-0.1-0.6-0.1-0.8-0.2
	c-0.2-0.1-0.4-0.2-0.6-0.3s-0.3-0.2-0.4-0.4s-0.1-0.4-0.1-0.6c0-0.3,0-0.5,0.1-0.7c0.1-0.2,0.2-0.4,0.4-0.5c0.2-0.1,0.4-0.2,0.6-0.3
	c0.2-0.1,0.5-0.1,0.8-0.1c0.4,0,0.7,0.1,1,0.2c0.3,0.1,0.6,0.3,0.8,0.5l-0.3,0.5c-0.2-0.2-0.4-0.3-0.6-0.4s-0.6-0.2-0.9-0.2
	c-0.5,0-0.9,0.1-1.1,0.3s-0.3,0.5-0.3,0.8c0,0.2,0,0.3,0.1,0.4c0.1,0.1,0.2,0.2,0.3,0.3c0.1,0.1,0.3,0.2,0.5,0.2
	c0.2,0.1,0.4,0.1,0.7,0.2c0.3,0.1,0.6,0.1,0.8,0.2c0.2,0.1,0.5,0.2,0.6,0.3c0.2,0.1,0.3,0.3,0.4,0.4s0.1,0.4,0.1,0.6
	C176.4,340.5,176.4,340.8,176.3,341z M181.6,341.1c-0.2,0.2-0.4,0.3-0.6,0.4c-0.2,0.1-0.4,0.2-0.7,0.3c-0.2,0.1-0.5,0.1-0.7,0.1
	c-0.4,0-0.8-0.1-1.1-0.3c-0.3-0.2-0.6-0.4-0.8-0.7c-0.2-0.3-0.4-0.6-0.6-0.9c-0.1-0.4-0.2-0.7-0.2-1.1c0-0.3,0.1-0.7,0.2-1
	c0.1-0.3,0.3-0.6,0.5-0.9c0.2-0.3,0.5-0.5,0.9-0.7c0.3-0.2,0.7-0.3,1.2-0.3c0.5,0,1,0.1,1.3,0.3c0.4,0.2,0.6,0.5,0.8,0.9l-0.4,0.3
	c-0.1-0.2-0.2-0.3-0.3-0.5c-0.1-0.1-0.3-0.2-0.4-0.3c-0.2-0.1-0.3-0.1-0.5-0.2c-0.2,0-0.3-0.1-0.5-0.1c-0.3,0-0.6,0.1-0.9,0.2
	c-0.3,0.1-0.5,0.3-0.7,0.5c-0.2,0.2-0.3,0.5-0.4,0.8s-0.1,0.6-0.1,0.9c0,0.3,0.1,0.6,0.2,0.9s0.3,0.5,0.5,0.8s0.4,0.4,0.7,0.5
	c0.3,0.1,0.5,0.2,0.9,0.2c0.2,0,0.3,0,0.5-0.1s0.3-0.1,0.5-0.2s0.3-0.2,0.4-0.3c0.1-0.1,0.2-0.3,0.3-0.5l0.5,0.2
	C181.9,340.7,181.8,340.9,181.6,341.1z"/>
<g>
	<path class="st1" d="M152.7,362.5c0.1-0.1,0.2-0.3,0.2-0.4c0.1-0.2,0.1-0.3,0.1-0.5c0-0.2,0-0.3-0.1-0.5c-0.1-0.2-0.1-0.3-0.3-0.4
		c-0.1-0.1-0.2-0.2-0.4-0.3c-0.1-0.1-0.3-0.1-0.4-0.1H150v2.6h1.9c0.2,0,0.3,0,0.5-0.1C152.5,362.7,152.6,362.6,152.7,362.5z"/>
	<path class="st1" d="M177.8,359.3l-0.4-0.4l-0.8-0.3l-0.7,0.4v0.5l0.1,0.5l-0.1,0.1l-0.9-0.6v-0.7l0.6-0.8l0.6-0.1l0.3-0.6l0.2-0.8
		l-0.1-1.1l0.4-0.9l0.6-0.2l1-0.8l-0.4-1.1l-1.6-0.2l-1,0.2l-3.3-0.5l-0.6-0.3l-1.1-1.3l-0.2-0.7l-0.8-1.1l-1.5-1.7l-0.8-0.5H167
		l-0.7-0.8l-2.7-1.7l-0.9,0.2v0.2l-0.8-0.1l-0.5-1.2l-1.2-0.7l-1.1-0.4l-1.4,0.1l-0.8-0.1l-1.3,0.2l-0.9-0.6l-1.3,0.2l-0.8-0.5h-1.5
		l0.1-0.4l-0.7-0.3l-0.3,0.4l-1.6,0.6l-1.7-0.2l-0.1-0.2l-1.1,0.4l-0.5,0.7l-0.3,0.2h-0.2l-1,1.1l-0.6,0.3l-1.3,0.3l-1.2,0.6
		l-0.7,0.1l-0.1-0.1v-0.2h-0.2l-0.6,1.2l-0.1,0.5L138,347l-1.2,0.2l-1.1,0.6l-0.4,0.4v0.4l-0.5,0.5l-1.4,0.5l-0.4,0.5l-0.5,0.2
		l-0.2,0.2v0.2l0.7,0.4l0.1,0.3l-0.2,0.6l-0.3-0.4l-0.8-0.1l-0.5,0.1l-0.7,1l-0.2,0.6l-0.4,0.6l-0.8,0.9l-0.8,0.4l-0.2,0.2v0.3
		l-1,2.1l-0.7,0.2l-0.6,0.4l-0.4,0.5l-0.1,0.5l-0.3,0.7l-2.7,3.2l-0.4,0.5l-0.3,0.1h-0.6l-0.4,0.2l-0.3,0.6l-0.1,0.9l-1.2,1.4
		l-0.5,0.4l-0.4,0.1l0.2,0.1l0.1,0.4l0.3,0.2l1.5-0.1l0.3,0.2h0.5l0.5-0.5v-0.5l0.6-0.7l1.1-0.1l0.9,0.1l1.3,1.1l0.9,1l1.1,1
		l1.2,0.9l1.8,2.1l0.2,0.5l-0.2,0.6v1.4l1.3-0.1l1.3-1.1l0.3-0.9h0.3l1.2,1l0.5,0.7l0.9,1.8l1.1,0.7l0.9-0.1l0.8,0.8l0.4,0.2
		l1.6,0.2l0.9,1.1l0.1,0.8l0.6,0.4l0.7,0.8l0.9,0.7l0.7-0.1l1.2,0.6l0.3,0.3l1,1.1l0.6,1l0.2,0.6v0.8l0.6,0.8l1.1,1.1l1.1,0.3
		l0.5,0.3l0.7,0.8l-1.1,1.3l-0.4,0.8l-1.4,1.2l-0.3,0.6l-0.1,0.5l0.3,2.2l-0.3,2.1l0.1,0.2l0.9,0.5h0.2l1-0.8l3.8-3.7l0.8-1.2l1-2.2
		l0.9-3.4l1.1-2.2l1-0.8l-0.1-0.4l-0.6-0.3l-0.3,0.1l-0.2-0.3l0.1-0.7l0.5-0.3l-0.1-0.5l-0.2-0.4l0.1-0.9l1.3-0.3l0.5-1.1v-1.1
		l0.3-0.8l0.4-0.3l2-0.8l0.3-0.8l0.8-0.3l0.4-0.3l-0.1-0.3v-0.9l0.7-1.6v-0.7l0.3-0.3l0.2,0.2l0.2,0.6v0.3l-0.1,0.1l0.2,0.2l0.1-0.4
		l-0.2-1.5l0.4-1.2l0.3-0.4l-0.6-1l-0.2-1.1l0.3-1.3l0.3,0.3l-0.1,0.3l0.2,0.7l0.4,0.6l0.3,0.2l0.5-0.2l0.4,0.4v0.8l0.4,0.2h0.3
		l0.2-0.8l1-0.2h0.7l0.2-0.1l0.1-0.3l-0.1-0.2l0.1-0.3h0.3l0.5,0.6v0.2l-0.2,1.5l-0.2,0.2h-0.2l-0.2-0.4l-0.3,0.3l0.1,1.1l-0.2,1.3
		l-0.4,0.5l-1.3,0.8l-0.2,0.3l-0.2,1l0.1,0.7l-0.2,0.1l-0.1-0.4l-0.4-0.1h-0.8l-0.1,0.7l0.1,1l-0.1,0.5l-0.2,0.7l-0.5,0.6l-0.5,0.4
		l-0.5,0.1l-0.2-0.1l-0.4,0.3l-1.4,1.8l-0.4,0.3l-1.3,0.7h-0.5l-0.3-0.3l-0.5-0.2l-0.5,0.1v0.2l0.6,0.8l-0.2,1.1l-0.3,0.8l0.1,0.2
		l1.5-2.1l3-1.8l3.2-2.9l2.7-3.3l3.1-5.1l2.1-5.7l1.9-3.4l0.7-0.8h-0.2L177.8,359.3z M153.1,365.5l-1.4-2.1H150v2.1h-0.6v-5.7h2.4
		c0.2,0,0.5,0.1,0.7,0.2c0.2,0.1,0.4,0.2,0.5,0.4s0.3,0.4,0.4,0.6c0.1,0.2,0.1,0.4,0.1,0.7c0,0.2,0,0.4-0.1,0.6
		c-0.1,0.2-0.1,0.4-0.3,0.5c-0.1,0.2-0.2,0.3-0.4,0.4c-0.2,0.1-0.3,0.2-0.5,0.2l1.4,2.2H153.1z M158.5,364.7
		c-0.1,0.2-0.2,0.4-0.4,0.5c-0.2,0.1-0.4,0.2-0.7,0.3c-0.3,0.1-0.5,0.1-0.8,0.1c-0.9,0-1.7-0.3-2.3-0.8l0.3-0.5
		c0.1,0.1,0.2,0.2,0.4,0.3c0.1,0.1,0.3,0.2,0.5,0.3c0.2,0.1,0.4,0.1,0.6,0.2c0.2,0,0.4,0.1,0.6,0.1c0.5,0,0.8-0.1,1.1-0.2
		c0.3-0.2,0.4-0.4,0.4-0.7c0-0.2,0-0.3-0.1-0.4c-0.1-0.1-0.2-0.2-0.3-0.3s-0.3-0.2-0.5-0.2s-0.5-0.1-0.8-0.2
		c-0.3-0.1-0.6-0.1-0.8-0.2c-0.2-0.1-0.4-0.2-0.6-0.3c-0.2-0.1-0.3-0.2-0.4-0.4s-0.1-0.4-0.1-0.6c0-0.3,0-0.5,0.1-0.7
		c0.1-0.2,0.2-0.4,0.4-0.5c0.2-0.1,0.4-0.2,0.6-0.3c0.2-0.1,0.5-0.1,0.8-0.1c0.4,0,0.7,0.1,1,0.2c0.3,0.1,0.6,0.3,0.8,0.5l-0.3,0.5
		c-0.2-0.2-0.4-0.3-0.6-0.4s-0.6-0.2-0.9-0.2c-0.5,0-0.9,0.1-1.1,0.3c-0.2,0.2-0.3,0.5-0.3,0.8c0,0.2,0,0.3,0.1,0.4
		c0.1,0.1,0.2,0.2,0.3,0.3s0.3,0.2,0.5,0.2c0.2,0.1,0.4,0.1,0.7,0.2c0.3,0.1,0.6,0.1,0.8,0.2c0.2,0.1,0.5,0.2,0.6,0.3
		c0.2,0.1,0.3,0.3,0.4,0.4s0.1,0.4,0.1,0.6C158.6,364.3,158.6,364.5,158.5,364.7z"/>
</g>
<g>
	<polygon class="st1" points="48,194.5 34.1,188.6 21.2,181.7 15.3,180.2 3.7,177.4 -5.1,173.7 -4.5,174.5 -4.4,175.2 -4.6,175.4
		-6.1,175.6 -6.1,176.2 -6.3,176.8 -6.6,176.8 -6.6,177 -5.5,177.9 -5.3,178.2 -4.3,178.7 -4.2,178.9 -4.2,179.2 -4.4,179.5
		-4.8,179.5 -4.8,180.1 -3.9,180.6 -3.5,181.4 -3,183.2 -2,183.9 -1.6,185.1 -1,185.7 -0.6,185.8 -0.2,186 0.6,187.4 1,187.6
		1.3,188 1.4,188.6 1.3,189.2 0.9,189.8 -0.3,190.9 -0.4,191.2 3.2,191.3 5.9,191.9 6.4,192.2 6.8,193.2 6.7,193.8 6.8,194
		7.4,194.3 7.5,194.5 7.6,194.9 7.3,195.8 8.3,195.8 14,195.6 14.9,195.1 15.2,194.6 16.2,194.3 17.2,193.1 18,192.6 19.5,191.3
		20.1,191.2 19.9,191.8 19.4,192.4 19.5,192.8 19.5,193.9 19.3,194.2 19.3,194.7 19.3,203.3 20.1,202.7 20.8,203.4 21.6,203.7
		22.9,203.4 24.6,202.5 25.7,202.6 26,202.9 28.5,202.7 31.1,202.9 32.8,203.3 33.5,203.2 33.5,204.2 34,204.2 34.9,204 35.3,203.7
		37.1,203.1 38.3,201.4 38.5,201 38.8,200.8 39.1,200.7 40.3,200.7 40.7,200.8 41.3,201.2 41.6,201.1 41.8,200.5 42.5,199.6
		43.5,199.1 44.4,198.5 44.4,198.2 45.1,198.1 45.4,198.2 46.2,197.8 47.6,196.4 48.6,195.6 49.4,195.3 49.5,195.1 	"/>
	<path class="st2" d="M4.9,203.3L2.5,209h0.6l0.7-1.8h2.6l0.7,1.8h0.6l-2.4-5.7H4.9z M3.9,206.8l1.2-2.8l1.2,2.8H3.9z"/>
	<path class="st2" d="M12.1,208c-0.1,0.1-0.3,0.2-0.4,0.3s-0.3,0.2-0.5,0.2s-0.3,0.1-0.5,0.1c-0.3,0-0.6-0.1-0.9-0.2
		c-0.3-0.1-0.5-0.3-0.7-0.5s-0.3-0.5-0.5-0.8s-0.2-0.6-0.2-0.9c0-0.3,0-0.6,0.1-0.9s0.2-0.5,0.4-0.8c0.2-0.2,0.4-0.4,0.7-0.5
		c0.3-0.1,0.6-0.2,0.9-0.2c0.2,0,0.3,0,0.5,0.1s0.3,0.1,0.5,0.2s0.3,0.2,0.4,0.3c0.1,0.1,0.2,0.3,0.3,0.5l0.4-0.3
		c-0.2-0.4-0.4-0.7-0.8-0.9s-0.8-0.3-1.3-0.3c-0.4,0-0.8,0.1-1.2,0.3c-0.3,0.2-0.6,0.4-0.9,0.7c-0.2,0.3-0.4,0.6-0.5,0.9
		c-0.1,0.3-0.2,0.7-0.2,1c0,0.4,0.1,0.7,0.2,1.1c0.1,0.4,0.3,0.7,0.6,0.9c0.2,0.3,0.5,0.5,0.8,0.7c0.3,0.2,0.7,0.3,1.1,0.3
		c0.2,0,0.4,0,0.7-0.1c0.2-0.1,0.4-0.1,0.7-0.3c0.2-0.1,0.4-0.3,0.6-0.4c0.2-0.2,0.3-0.4,0.4-0.6l-0.5-0.2
		C12.4,207.7,12.3,207.9,12.1,208z"/>
</g>
<g>
	<polygon class="st1" points="217,161.1 219.3,161.1 218.2,158.3 	"/>
	<polygon class="st1" points="219.3,131.1 219.5,131.2 219.6,130.9 219.4,130.5 219.2,130.5 218.7,130.9 218.7,131.2 218.8,131.3
		"/>
	<polygon class="st1" points="217.9,128.9 218,128.7 218,128.5 217.7,128.3 217.3,128.3 216.9,128.8 216.9,129.1 217.1,129.3 	"/>
	<path class="st1" d="M241.2,140.9l-0.1-0.4l0.2-0.7v-0.2l-0.3-0.1l-0.8,0.2l0.3,0.2l-0.1,0.4l-1.2-0.3h-0.8h-0.2l-0.3-0.4l-0.6,0.1
		l-1.2-0.3l-0.9-0.6l-0.6-0.6h-0.7l-1.1-0.7l-0.5-0.1l-1.3-0.5l-0.9-0.2h-1.2l-0.3,0.1l0.2,1.2l-2-0.2l-1.3,0.5l-0.4-0.2l-2.1,2.4
		l-0.1-0.1l0.3-0.2l-0.1-0.4l-0.6,0.2l-0.2,0.4l-0.4-0.1v-0.4l1.6-0.9l0.7-0.9l0.1-0.2v-0.8l-0.2-0.1l-0.3,0.1l-0.8,0.4l-0.5,0.1
		l-0.6,0.3l-0.5,3.1l-0.4,0.6l-1,0.8l-0.3,0.6l-1,0.8v-0.7l0.2-0.1l1-1.1v-0.2l-0.9-0.5l-0.1-0.2l0.3-1.7l0.6-1.1v-0.4l0.6-0.7
		l0.5-0.4l0.5-0.1l0.1-0.6l-0.3-0.9l-0.4-0.4h-0.4l-0.9,0.8l-0.3,0.5v-0.3l0.2-0.4l1.1-1.3l0.1-0.5l-0.4-1.2l-0.8-0.3l-0.4,0.2
		l-0.8-0.9l0.1-0.6l-0.3-0.4l-0.6,0.3v0.2l-0.3-0.3l0.6-0.7l0.2-0.1v-0.4l-0.7,0.5l-1-0.3l-0.5,0.1l-0.6,0.7l-0.1,0.3l0.2,0.5
		l-0.5,0.5l-0.3,0.1l-0.2-0.1l-0.1-0.2v-1.3l0.1-0.5l0.4-0.4v-0.3l-0.2-0.5h-0.2l-0.2,0.8l-0.6,1v-0.3l-0.3-0.3l0.7-0.8l-0.2-0.3
		l-0.8-0.3h-0.4v0.5l-0.1,0.2h-0.1l0.2-1.5v-0.1h-0.1l-0.5,1.6h0l-0.3-1.4l-0.4,0.7l-0.6-0.1l-0.2-0.9l-0.7-0.5l-0.3,0.3l-0.2,0.4
		v0.3l-0.1,0.1h-0.3l-0.4,0.2l-0.2,0.5l0.1,0.7l-0.3,2.1l-0.3,0.4l-0.6,0.1v0.3l0.7,0.5l0.5-0.1l0.2,0.3v0.8l-0.4,1.5l-0.2,0.3
		l-0.9,0.8l-0.2,1.2l0.1,0.8l-1.8,1.5l0.5,0.8l-0.4,0.4l0.1,0.9l-0.2,0.6l-0.4,0.7l-0.7,0.9l-1,0.8l-0.8,2.3L202,148l-0.2,0.6
		l-1.2,1.1l-0.5,0.2l-0.3,1.4l-0.8,0.6l-0.2,0.6l-0.8,1.1l-0.6,0.4l-1.1-0.1l-7.2,5.8h0.2l0.3-0.3l1.3-0.9l1-0.3h0.4l1.4,0.7h0.7
		l0.5-0.3l0.9,0.1l0.3,0.3v0.5l0.1,0.2h0.6l1.7,0.7l0.4,0.5l0.2,1.7l0.3,0.7l-0.1,1.8l0.1,0.5l0.3,0.6v0.2l-0.9,3l-0.2,1.2l0.1,0.5
		l-0.1,0.8l-0.9,1l-0.9,0.3l-0.1,0.3l0.9,0.7l0.2-0.1l0.7,0.1l0.1,0.2l0.1,0.4l-0.3,0.6l0.4,0.7h0.4l1.5,2l0.4,0.4l1.1,1.5l1.1-0.7
		l2.1-0.5l0.9,0.6v0.9l-0.3,1.6l0.2,0.7l-1.7,0.2l-0.7,0.3l-0.3,0.3l-0.3,0.7l-0.4,1.3l0.2,0.6l-1.3,1.2l-0.1,0.3l0.1,0.2l1,0.1
		l0.5,0.3l0.4,0.8v0.8l0.3,0.5l1.9,1v0.3l-0.8,0.9l0.1,0.8l1,0.8l0.5,1.4l0.7,1l0.3,0.1l0.9-0.1l0.5,0.1l0.4,0.2l0.3,0.4l0.6,0.3
		v-0.9l0.1-0.5l0.6-1.2l0.1-3.1l0.4-0.7v-0.3l-0.8-1.5l-0.2-1.6l-0.3-0.9l0.4-1l0.8-0.7l0.6-1.2l0.1-0.7l0.2-0.4l0.1-0.1l0.7-1.3
		l0.3-1.1l0.2-1.5l0.5-1.5l1-1l1.3-0.4l1.3-0.2l0.5-0.2l0.8-0.7h0.5l0.7-0.3l1.4-1.3l1.1-0.4l1-1l0.3-0.4v-0.2l0.9-0.9l0.2-0.1
		l0.4-0.1l0.1,0.1l0.5-0.1l0.5-0.3l0.7-0.1l0.5,0.1l1.2,0.9l0.7-0.1l1.2-0.4h0.4l0.3,0.1l1.1-0.1l0.6-0.6l0.2-0.7l0.1-0.6l0.1-0.2
		l0.2-1.1l-0.1-0.4l-0.1-0.2l-0.8-0.4l-0.9-1l-0.2-1.1l-0.1-1l0.1-1.2l2-2.2l0.1-0.3l0.1-1.2l-0.3-1.5l-0.8-1.4l0.6-1.4l0.1-0.7
		l-0.2-0.6l-0.6-0.4l-0.2-0.9l0.4-0.5l0.3-0.1l0.4-1l0.9-0.9l0.4-0.9v-0.9l1.4-1.7l0.4,0.1l1.6-0.2l2-1.9l0.9-1.1l0.2-0.7
		L241.2,140.9z M214.7,163.3h-0.6v-4.7l-2.1,3.6h-0.3l-2.1-3.6v4.7h-0.6v-5.7h0.6l2.2,3.9l2.3-3.9h0.6V163.3z M220.2,163.3l-0.7-1.8
		h-2.6l-0.7,1.8h-0.6l2.4-5.7h0.5l2.4,5.7H220.2z"/>
	<polygon class="st1" points="220.2,141.9 220.6,141.4 221,141.1 221.1,140.4 221.1,139.3 220.8,139.4 220.4,140 220.3,140.3
		220.5,140.8 220.2,141.5 	"/>
</g>
<g>
	<path class="st1" d="M238.6,175.7c-0.1-0.1-0.2-0.2-0.4-0.3s-0.3-0.1-0.4-0.1H236v2.6h1.8c0.2,0,0.3,0,0.5-0.1
		c0.1-0.1,0.3-0.2,0.4-0.3c0.1-0.1,0.2-0.3,0.2-0.4c0.1-0.2,0.1-0.3,0.1-0.5c0-0.2,0-0.3-0.1-0.5C238.8,176,238.7,175.8,238.6,175.7
		z"/>
	<path class="st1" d="M253.7,170.1l-1.3-0.2l-0.6-0.3l-0.5-1.3l-0.5-2.5l-0.4-1.3l0.1-0.2l-0.5-4l-0.1-0.2l-0.4-0.3l0.4-0.3l0.3-0.8
		l-0.3-1.5l-0.5-1l0.2-0.8l-0.4-1.9l0.4-0.7v-0.4l-0.7-0.8l-0.2-0.8l-1.5-3.1l-0.9-2.3l-0.1-0.6l0.1-0.7l0.8-1l0.5-0.9l0.1-0.4
		l-0.2-0.3l-0.5-0.4l-1.2-0.2l-0.3,0.1l-0.6-0.1l-1.2,0.5l0.1-0.2l-0.2-0.2l-0.7-0.4l-0.4-0.1l-0.2,0.7l0.1,0.4l0.3,0.3l-0.2,0.7
		l-0.9,1.1l-2,1.9l-1.6,0.2l-0.4-0.1l-1.4,1.7v0.9l-0.4,0.9l-0.9,0.9l-0.4,1l-0.3,0.1l-0.4,0.5l0.2,0.9l0.6,0.4l0.2,0.6l-0.1,0.7
		l-0.6,1.4l0.8,1.4l0.3,1.5v1.2l-0.1,0.3l-2,2.2l-0.1,1.2l0.1,1l0.2,1.1l0.9,1l0.8,0.4l0.1,0.2l0.1,0.4l-0.2,1.1l-0.1,0.2l-0.1,0.6
		l-0.2,0.7l-0.6,0.6l-1.1,0.1l-0.3-0.1h-0.4l-1.2,0.4h-0.7l-1.2-0.9l-0.5-0.1l-0.7,0.1l-0.5,0.3l-0.5,0.1l-0.1-0.1l-0.4,0.1
		l-0.2,0.1l-0.9,0.9v0.2l-0.3,0.4l-1,1l-1.1,0.4l-1.4,1.3l-0.7,0.3h-0.5l-0.8,0.7l-0.5,0.2l-1.3,0.2l-1.3,0.4l-1,1l-0.5,1.5
		l-0.2,1.5l-0.3,1.1l-0.7,1.3l-0.1,0.1l-0.2,0.4l-0.1,0.7l-0.6,1.2l-0.8,0.7l-0.4,1l0.3,0.9l0.2,1.6l0.8,1.5v0.2l-0.4,0.7l-0.1,3.1
		l-0.6,1.2l-0.1,0.5v0.9l1.4,0.1h1.1l0.7,0.7l0.3,0.5l0.3,1.1l0.9,1.2l2,0.9l0.9-0.3l1,0.1l0.2-0.1l0.4-0.7l0.6-0.2l0.3-0.4l0.6-0.4
		l1.1-0.4l0.7,0.1l0.7,0.3l0.7-0.2l1.5-1.2l1.4-2.5l0.4-0.4l0.1-0.4l0.1-1.3l-0.1-0.6l-1.1-2.2v-0.5l1.6-0.8h1l0.7,0.2l0.2,0.5
		l0.2,0.1l1-0.2l0.7-0.3l0.7,0.2l0.8,0.5l-0.1,0.3l0.1,0.1l0.4,0.1l1.5-0.1l0.7-0.3h0.8l0.4-0.6l0.7-0.7l1.3-0.2l0.4-0.2l0.4-0.5
		h1.1l0.3,0.3h0.2l0.9-0.9l-0.1-1.2l1-0.2l0.4,0.1l0.5-0.3l0.7-1.1l0.2-0.6l1.3-0.6l1-0.8l0.3-0.4l1.1-0.7l0.5-0.1l1.9-1.9l0.4-0.9
		v-1.1l-0.1-0.3l-0.8-0.8v-1.1l-0.3-0.6v-0.5l0.1-0.2l0.3-0.2l0.9-0.1v-0.6l-0.3-0.3v-0.5l0.6-1.5l0.7-1.1v-0.3L253.7,170.1z
		 M239.4,177.3c-0.1,0.2-0.2,0.4-0.3,0.6c-0.1,0.2-0.3,0.3-0.5,0.4c-0.2,0.1-0.4,0.2-0.7,0.2H236v2.1h-0.6v-5.7h2.4
		c0.2,0,0.5,0.1,0.7,0.2c0.2,0.1,0.4,0.2,0.5,0.4c0.2,0.2,0.3,0.4,0.4,0.6c0.1,0.2,0.1,0.4,0.1,0.7
		C239.5,176.9,239.4,177.1,239.4,177.3z M241,180.6h-0.6v-5.7h0.6V180.6z"/>
</g>
<path class="st1" d="M279.1,154.2l-0.4-0.3l-1.2-0.4h-0.6l-0.7-0.4l-0.5-0.5l-0.7-1l-2-1.5l-1.4-1.9l-0.6-0.3l-1.2-1.4l-1.3-0.4
	l-1.5-1l-1.1-1.1l-0.6-0.1l-2.4-1.5l-0.7-0.3l-2-1.1l-0.9-0.7l-1-0.5l-3.6-0.4l-1,0.3l-1.4,0.2L249,140l-0.3,0.4l0.2,0.3v0.3
	l-0.1,0.1l-0.1,0.4l-0.5,0.9l-0.8,1l-0.1,0.7l0.1,0.6l0.9,2.3l1.5,3.1l0.2,0.8l0.7,0.8v0.4l-0.4,0.7l0.4,1.9l-0.2,0.8l0.5,1l0.3,1.5
	l-0.3,0.8l-0.4,0.3l0.4,0.3l0.1,0.2l0.5,4l-0.1,0.2l0.4,1.3l0.5,2.5l0.5,1.3l0.6,0.3l1.3,0.2l0.4,0.6v0.3l-0.7,1.1l-0.6,1.5v0.5
	l0.3,0.3v0.6l2.4,0.1l0.4,0.1l0.8-0.1l1-0.4h0.6l1.5,0.2l1.4,0.9l0.9,0.4l0.2,0.5l0.5,0.5l0.7,0.2l0.4,0.3l0.3,0.8h0.8l0.8-1.1
	l0.5-0.4l0.8-0.2l-0.1-0.1l0.6-0.5l0.8-1.7l-0.2-0.6H269l-0.6-0.4V172l-0.2-0.4l-0.3-0.1l-0.1-0.2l0.1-0.5l0.1-0.2l0.5-0.3l0.3-0.6
	l-0.3-0.6l0.5-1.5l0.4-0.6v-0.3l-0.3,0.2l-0.3-0.1l0.2-1l0.7-1.1l0.4-0.4h0.2l0.4,0.2l0.5-0.1l0.3-0.5l0.7-0.7l0.7-1.2l-0.1-0.4
	l0.3-0.8l0.4-0.3l0.4-0.5l1.6-3.3l1.3-1l2.4-0.8L279.1,154.2z M261.4,159.5c-0.2,0.2-0.4,0.3-0.6,0.4c-0.2,0.1-0.4,0.2-0.7,0.3
	c-0.2,0.1-0.5,0.1-0.7,0.1c-0.4,0-0.8-0.1-1.1-0.3c-0.3-0.2-0.6-0.4-0.8-0.7c-0.2-0.3-0.4-0.6-0.6-0.9c-0.1-0.4-0.2-0.7-0.2-1.1
	c0-0.3,0.1-0.7,0.2-1c0.1-0.3,0.3-0.6,0.5-0.9c0.2-0.3,0.5-0.5,0.9-0.7c0.3-0.2,0.7-0.3,1.2-0.3c0.5,0,1,0.1,1.3,0.3
	c0.4,0.2,0.6,0.5,0.8,0.9l-0.4,0.3c-0.1-0.2-0.2-0.3-0.3-0.5c-0.1-0.1-0.3-0.2-0.4-0.3c-0.2-0.1-0.3-0.1-0.5-0.2
	c-0.2,0-0.3-0.1-0.5-0.1c-0.3,0-0.6,0.1-0.9,0.2c-0.3,0.1-0.5,0.3-0.7,0.5c-0.2,0.2-0.3,0.5-0.4,0.8s-0.1,0.6-0.1,0.9
	c0,0.3,0.1,0.6,0.2,0.9s0.3,0.5,0.5,0.8s0.4,0.4,0.7,0.5c0.3,0.1,0.5,0.2,0.9,0.2c0.2,0,0.3,0,0.5-0.1s0.3-0.1,0.5-0.2
	s0.3-0.2,0.4-0.3c0.1-0.1,0.2-0.3,0.3-0.5l0.5,0.2C261.7,159.2,261.6,159.4,261.4,159.5z M266.6,160.2h-3.9v-5.7h3.8v0.5h-3.2v2.1
	h2.8v0.5h-2.8v2.2h3.3V160.2z"/>
<g>
	<polygon class="st1" points="301.6,160.1 301.2,159.8 301.1,159 300.4,156.4 300.4,156 300.2,155.1 299.1,152.8 298.8,152.3
		298.3,151.9 297.3,151.5 296.7,151.5 294.5,151.1 293.4,151.5 292.2,151.6 290.8,151.3 289.2,151.5 288.6,151.3 287.8,150.4
		287.2,150.2 285.7,150.2 285.3,149.8 285.1,149.4 282.7,150.2 281.4,151.2 279.8,154.5 279.4,155 279,155.3 278.7,156.1
		278.8,156.5 278.1,157.7 277.4,158.4 277.1,158.9 276.6,159 276.2,158.8 276,158.8 275.6,159.2 274.9,160.3 274.7,161.3 275,161.4
		275.3,161.2 275.6,161 276.5,161.8 276.9,162 278.3,162.3 278.9,161.7 280.5,160.9 280.9,160.6 280.9,160.1 281.1,159.6 282.7,159
		283.4,158.9 285,158.4 285.3,158.4 285.6,158.6 285.6,159.2 284.1,160.8 283.9,161.3 283.6,162.1 283.4,162.3 283,162.4
		282.9,162.6 282.9,163.4 284.6,163.7 284.8,163.8 285,164.5 285.1,164.6 286.6,164 287.5,164 288.5,164.1 288.9,164.7 288.6,165.5
		289,165.9 290.1,165.4 290.3,165 290.6,164.4 290.4,163.9 290.3,163.2 290.5,162.9 291,163.1 290.7,162.4 290.3,162 290.5,161.3
		291.4,160.6 292.1,160.6 292.3,160.8 292.3,161.3 292.6,161.5 294.3,161.7 294.6,161.9 297.4,161.7 298.5,161.8 299.7,162.3
		300.2,162.1 301.9,162.2 302.4,162.1 302.1,161.4 	"/>
	<path d="M305.1,154.6c0.2-0.1,0.3-0.2,0.4-0.4c0.1-0.2,0.2-0.3,0.3-0.5c0.1-0.2,0.1-0.4,0.1-0.6c0-0.2,0-0.4-0.1-0.7
		c-0.1-0.2-0.2-0.4-0.4-0.6c-0.2-0.2-0.3-0.3-0.5-0.4c-0.2-0.1-0.4-0.2-0.7-0.2h-2.4v5.7h0.6v-2.1h1.7l1.3,2.1h0.6l-1.4-2.2
		C304.7,154.7,304.9,154.7,305.1,154.6z M302.3,154.4v-2.6h1.8c0.2,0,0.3,0,0.4,0.1c0.1,0.1,0.3,0.2,0.4,0.3
		c0.1,0.1,0.2,0.3,0.3,0.4s0.1,0.3,0.1,0.5c0,0.2,0,0.3-0.1,0.5c-0.1,0.2-0.1,0.3-0.2,0.4c-0.1,0.1-0.2,0.2-0.4,0.3
		c-0.1,0.1-0.3,0.1-0.5,0.1H302.3z"/>
	<polygon points="311.2,151.2 311.2,156 307.4,151.2 307,151.2 307,157 307.5,157 307.5,152.3 311.3,157 311.8,157 311.8,151.2 	"/>
</g>
<g>
	<polygon class="st1" points="301.1,169.5 300.9,170.2 300.6,170.6 300.6,170.2 300.8,170 300.9,169.5 300.9,169.2 300.2,167.1
		300.2,165.9 299.7,166 298,165.9 297.5,166.1 296.3,165.6 295.2,165.5 292.4,165.7 292.1,165.5 290.4,165.3 290.1,165.1
		290.1,164.6 289.9,164.4 289.2,164.4 288.3,165.1 288.1,165.8 288.5,166.2 288.8,166.9 288.3,166.7 288.1,167 288.2,167.7
		288.4,168.2 288.1,168.8 287.9,169.2 286.8,169.7 286.4,169.3 286.7,168.5 286.3,167.9 285.3,167.8 284.4,167.8 282.9,168.4
		282.8,168.3 282.6,167.6 282.4,167.5 280.7,167.2 280.7,166.4 280.8,166.2 281.2,166.1 281.4,165.9 281.6,165 281.8,164.5
		283.3,162.9 283.3,162.3 283,162.1 282.7,162.1 281.1,162.6 280.4,162.7 278.8,163.3 278.6,163.8 278.6,164.3 278.2,164.6
		276.6,165.4 276,166 274.6,165.7 274.2,165.5 273.3,164.7 273,164.9 273,165.2 272.6,165.8 272.1,167.3 272.4,167.9 272.1,168.5
		271.6,168.8 271.5,169 271.4,169.5 271.5,169.7 271.8,169.8 272,170.2 272,171 272.6,171.4 272.9,171.4 273.1,172 272.3,173.7
		271.7,174.2 271.8,174.3 272,174.3 272.7,175.2 273.2,175.4 273.9,175.2 274.4,174.8 274.6,174.8 274.9,175.4 274.9,175.7
		275.3,175.9 276.6,175.4 277.4,175.3 278.1,174.5 279.4,173.6 279.9,173.4 280.6,173 281.1,172.3 282.2,171.7 282.9,171.5
		284.6,172.4 284.8,173.1 284.7,173.2 283.2,173.7 283,174.1 283,174.3 283.1,175.1 283,175.3 281.8,176.6 281.8,176.8 282.5,176.7
		282.7,176.6 283.3,176.8 283.4,176.9 283.3,177.1 283.5,178.2 284,178.7 284.8,179.1 285.6,178.7 286.3,178.6 287.2,177.9
		287.4,177.7 287.4,177.4 287.2,177 287.5,176.6 287.9,176.3 288.8,176.3 289.1,176 289.9,175.6 291.8,175.7 292.9,175.6
		293.3,175.3 293.3,175 293.9,175 294.9,174.8 295.8,174.3 296,173.4 296.7,172.8 297.8,172.3 299.1,172.4 299.5,172.5 300.7,173.5
		301.1,173.8 301.3,173.5 301.4,171 301.1,170.5 	"/>
	<path d="M306.1,166.2c-0.2-0.2-0.3-0.3-0.5-0.4c-0.2-0.1-0.4-0.2-0.7-0.2h-2.4v5.7h0.6v-2.1h1.9c0.2,0,0.5-0.1,0.7-0.2
		c0.2-0.1,0.4-0.2,0.5-0.4c0.1-0.2,0.3-0.4,0.3-0.6c0.1-0.2,0.1-0.4,0.1-0.7c0-0.2,0-0.4-0.1-0.7
		C306.4,166.5,306.3,166.3,306.1,166.2z M306,167.9c-0.1,0.2-0.1,0.3-0.2,0.4c-0.1,0.1-0.2,0.2-0.4,0.3c-0.1,0.1-0.3,0.1-0.5,0.1
		h-1.8v-2.6h1.8c0.2,0,0.3,0,0.4,0.1s0.3,0.2,0.4,0.3c0.1,0.1,0.2,0.3,0.3,0.4c0.1,0.2,0.1,0.3,0.1,0.5
		C306,167.6,306,167.7,306,167.9z"/>
	<path d="M311.6,168.9c-0.2-0.3-0.5-0.4-0.8-0.5c0.3-0.1,0.5-0.3,0.6-0.5s0.2-0.5,0.2-0.8c0-0.2,0-0.4-0.1-0.5
		c-0.1-0.2-0.1-0.3-0.3-0.5s-0.3-0.2-0.4-0.3c-0.2-0.1-0.3-0.1-0.5-0.1h-2.8v5.7h2.7c0.2,0,0.4,0,0.6-0.1c0.2-0.1,0.4-0.2,0.5-0.3
		c0.1-0.1,0.3-0.3,0.3-0.5c0.1-0.2,0.1-0.4,0.1-0.6C311.9,169.5,311.8,169.2,311.6,168.9z M308.1,166.1h2c0.1,0,0.3,0,0.4,0.1
		s0.2,0.1,0.3,0.2c0.1,0.1,0.1,0.2,0.2,0.3c0,0.1,0.1,0.3,0.1,0.4c0,0.1,0,0.3-0.1,0.4c0,0.1-0.1,0.2-0.2,0.3s-0.2,0.2-0.3,0.2
		s-0.3,0.1-0.4,0.1h-2V166.1z M311.2,170.2c-0.1,0.1-0.1,0.2-0.2,0.3c-0.1,0.1-0.2,0.2-0.3,0.2c-0.1,0.1-0.3,0.1-0.4,0.1h-2.1v-2.2
		h2.2c0.1,0,0.3,0,0.4,0.1c0.1,0.1,0.2,0.1,0.3,0.2c0.1,0.1,0.2,0.2,0.2,0.3c0,0.1,0.1,0.3,0.1,0.4
		C311.3,169.9,311.3,170,311.2,170.2z"/>
</g>
<g>
	<polygon class="st1" points="298.2,178.3 298.8,177.5 298.5,176.9 298.1,176.8 296.9,175.8 296.5,175.7 295.2,175.6 294.1,176.1
		293.4,176.7 293.2,177.6 292.3,178.1 291.3,178.3 290.7,178.3 290.7,178.6 290.3,178.9 289.2,179 287.3,178.9 286.5,179.3
		286.2,179.6 285.3,179.6 284.9,179.9 284.6,180.3 284.8,180.7 284.8,181 284.6,181.2 283.7,181.9 283,182 282.2,182.4 281.4,182
		280.9,181.5 280.7,180.4 280.8,180.2 280.7,180.1 280.1,179.9 279.9,180 279.2,180.1 279.2,179.9 280.4,178.6 280.5,178.4
		280.1,177.5 280.1,177.3 280.3,176.9 281.8,176.4 281.9,176.3 281.7,175.6 280,174.7 279.3,174.9 278.2,175.5 277.7,176.2
		277,176.6 276.5,176.8 275.2,177.7 274.5,178.5 273.7,178.6 272.4,179.1 272,178.9 272,178.6 271.7,178 271.5,178 271,178.4
		270.3,178.6 269.8,178.4 269.1,177.5 268.9,177.5 268.1,177.7 267.6,178.1 266.8,179.2 266,179.2 265.7,178.4 265.3,178.1
		264.6,177.9 264.1,177.4 263.9,176.9 263,176.5 261.6,175.6 260.1,175.4 259.5,175.4 258.5,175.8 257.7,175.9 257.3,175.8
		254.9,175.7 254,175.8 253.7,176 253.6,176.2 253.6,176.7 253.9,177.3 253.9,178.4 254.7,179.2 254.8,179.5 254.8,180.6
		254.4,181.5 252.5,183.4 252,183.5 250.9,184.2 250.6,184.6 249.6,185.4 248.3,186 248.7,186.2 249.3,186.1 250.4,186.2
		251.8,186.9 252,187.1 252,188.4 252.4,189.3 253.5,189.7 253.6,190.7 253.2,191.5 254.1,191.8 254.6,191.7 255,191.3 256.4,190.9
		256.8,189.2 257,188.8 257.4,188.7 257.8,189 258.1,189 259.3,188.5 259.8,187.9 259.9,187.6 259.8,186.9 259.9,186.8 261,186.6
		261.4,185.6 262.2,185.4 263.4,184.7 263.7,184.6 264.4,184.9 264.8,185.6 265.5,186 266.7,186.4 268.2,186.6 269,187.2 269.3,188
		269.5,188.1 269.7,188 269.8,187.1 270,186.9 270.5,186.9 270.7,187.1 270.7,187.4 270.4,187.8 270.6,188.2 270.8,188.4
		271.8,188.8 271.8,189.3 272.4,190.8 273,190.2 273.3,189.7 274.4,189.3 275.6,187.7 275.6,187.4 276,187.1 276.6,187.5
		277.4,187.6 277.9,187.5 279.1,188.5 280,189.5 280.9,190 281.8,190.2 283,189.9 284.5,190 285.1,189.9 286,189.4 286.6,189.4
		287.5,188.9 288.6,187.8 288.7,187.6 289.5,187 290.5,186.9 291.6,187.3 292.9,186.7 293.6,186.6 294.5,187 295.9,187.1 296,187.2
		297.6,182.8 298.6,179.7 298.5,179.2 298.4,179 298.1,178.8 298.1,178.6 	"/>
	<path d="M302.7,180.8c-0.2-0.2-0.3-0.3-0.5-0.4c-0.2-0.1-0.4-0.2-0.7-0.2h-2.4v5.7h0.6v-2.1h1.9c0.2,0,0.5-0.1,0.7-0.2
		c0.2-0.1,0.4-0.2,0.5-0.4c0.1-0.2,0.3-0.4,0.3-0.6c0.1-0.2,0.1-0.4,0.1-0.7c0-0.2,0-0.4-0.1-0.7C303,181.2,302.9,181,302.7,180.8z
		 M302.6,182.5c-0.1,0.2-0.1,0.3-0.2,0.4c-0.1,0.1-0.2,0.2-0.4,0.3c-0.1,0.1-0.3,0.1-0.5,0.1h-1.8v-2.6h1.8c0.2,0,0.3,0,0.4,0.1
		s0.3,0.2,0.4,0.3c0.1,0.1,0.2,0.3,0.3,0.4c0.1,0.2,0.1,0.3,0.1,0.5C302.7,182.2,302.6,182.4,302.6,182.5z"/>
	<polygon points="304.7,185.5 304.7,183.3 307.5,183.3 307.5,182.8 304.7,182.8 304.7,180.7 308,180.7 308,180.2 304.2,180.2
		304.2,186 308,186 308,185.5 	"/>
</g>
<g>
	<polygon class="st1" points="295.7,191.7 297.1,189.3 297,189.2 295.6,189.1 294.7,188.7 294,188.8 292.7,189.4 291.6,189
		290.6,189.1 289.8,189.7 289.7,189.9 288.6,191 287.7,191.5 287.1,191.5 286.2,192 285.6,192.1 284.1,192 282.9,192.3 282,192.1
		281.1,191.6 280.2,190.6 279,189.6 278.5,189.7 277.7,189.6 277.2,189 276.8,189.3 276.8,189.6 275.6,191.2 274.5,191.6
		274.2,192.1 273.6,192.6 273.9,193.3 274.4,193.4 274.6,193.4 275.3,193.7 275.4,194.1 278.6,195.4 280.4,195.9 283,197.4
		283.6,198.6 284.5,199.3 285.3,199.7 285.5,199.7 287.3,200.8 287.6,201.4 288.2,200.5 288.7,199.5 290.3,198.1 291.8,195.9
		293.5,194.2 	"/>
	<path d="M295.6,193.4l-2.4,5.7h0.6l0.7-1.8h2.6l0.7,1.8h0.6l-2.4-5.7H295.6z M294.7,196.9l1.2-2.8l1.2,2.8H294.7z"/>
	<polygon points="299.9,198.6 299.9,193.4 299.3,193.4 299.3,199.1 303.2,199.1 303.2,198.6 	"/>
</g>
<g>
	<path class="st1" d="M286.1,202.5l1.2-0.4l-0.3-0.6l-1.8-1.1H285l-0.8-0.4l-0.9-0.7l-0.6-1.2l-2.6-1.5l-1.8-0.5l-3.2-1.5l-0.3,0.6
		l0.1,1l0.6,1.2l1,1l0.4,0.6v1.5l-0.3,0.8v0.4l0.4,1.3l-0.1,0.3l-0.3,0.3l-1.2,0.5l-0.6-0.4H274l-0.2,0.1l-0.3,0.8v0.4l0.5,0.8
		l0.5,0.3l0.3,0.7l0.7,0.7l0.1,0.2l-0.1,0.7l-0.2,0.2l0.1,0.2l0.3,0.3l0.9,0.4l0.2,0.4l0.3,0.2l0.8,0.3l1.4-0.4l0.6-0.3l0.1-0.3l0,0
		l0.2-0.1l0.5-1l0.4-0.6l0.1-0.9l-0.6-0.3l-0.1-0.3l0.5,0.1l0.2,0.3l0.3,0.2l0.6-1l0.3-1l-0.1-0.1h-0.6l-0.2-0.6l0.5-0.1l0.5,0.9
		l-0.1,0.5h0.2l0.8-1.1l0.5-0.4L286.1,202.5z M280.8,207.6l-0.2,0.5l-0.2,0.2l-0.2,0.1l-0.2,0.7l-0.1,0.1l0-0.2l0.1-0.5l0.2-0.2
		l0.2-0.6v-0.3L280.8,207.6z"/>
	<path d="M287.4,209.7c-0.2-0.1-0.4-0.2-0.6-0.3c-0.2-0.1-0.5-0.2-0.8-0.2c-0.3-0.1-0.5-0.1-0.7-0.2c-0.2-0.1-0.4-0.1-0.5-0.2
		c-0.1-0.1-0.2-0.2-0.3-0.3c-0.1-0.1-0.1-0.3-0.1-0.4c0-0.3,0.1-0.6,0.3-0.8s0.6-0.3,1.1-0.3c0.3,0,0.7,0.1,0.9,0.2s0.5,0.3,0.6,0.4
		l0.3-0.5c-0.2-0.2-0.5-0.4-0.8-0.5c-0.3-0.1-0.6-0.2-1-0.2c-0.3,0-0.6,0-0.8,0.1c-0.2,0.1-0.5,0.2-0.6,0.3
		c-0.2,0.1-0.3,0.3-0.4,0.5c-0.1,0.2-0.1,0.4-0.1,0.7c0,0.2,0,0.4,0.1,0.6s0.2,0.3,0.4,0.4s0.3,0.2,0.6,0.3c0.2,0.1,0.5,0.1,0.8,0.2
		c0.3,0.1,0.5,0.1,0.8,0.2s0.4,0.1,0.5,0.2s0.3,0.2,0.3,0.3c0.1,0.1,0.1,0.3,0.1,0.4c0,0.3-0.1,0.6-0.4,0.7
		c-0.3,0.2-0.6,0.2-1.1,0.2c-0.2,0-0.4,0-0.6-0.1c-0.2,0-0.4-0.1-0.6-0.2c-0.2-0.1-0.3-0.2-0.5-0.3c-0.1-0.1-0.3-0.2-0.4-0.3
		l-0.3,0.5c0.6,0.6,1.4,0.8,2.3,0.8c0.3,0,0.6,0,0.8-0.1c0.3-0.1,0.5-0.2,0.7-0.3c0.2-0.1,0.3-0.3,0.4-0.5s0.2-0.4,0.2-0.7
		c0-0.3,0-0.5-0.1-0.6S287.6,209.8,287.4,209.7z"/>
	<polygon points="289.5,211.8 289.5,209.6 292.3,209.6 292.3,209.1 289.5,209.1 289.5,207 292.7,207 292.7,206.5 289,206.5
		289,212.3 292.8,212.3 292.8,211.8 	"/>
</g>
<g>
	<polygon class="st1" points="174.4,118 174.7,118.1 175.1,117.9 175,116.9 174.9,116.7 174,116.3 173.6,116.6 173.5,116.7
		173.5,116.9 174,117.7 	"/>
	<polygon class="st1" points="180.3,117.9 179.7,118.4 179.8,118.7 180.9,119.1 181.5,118.9 182.9,118.8 183.3,118.4 183.3,118.1
		183,117.6 182.2,117.3 181.2,117.3 	"/>
	<polygon class="st1" points="172.6,120.6 172.7,120.4 172.8,120.1 172.8,119.6 171.6,120.5 171.6,120.6 172,120.6 	"/>
	<polygon class="st1" points="177.1,116.3 176.2,116.3 175.5,116.5 175.5,117.1 175.7,117.6 175.8,117.7 176.2,117.8 177.4,117.8
		177.9,117.9 178.5,118.4 179,118.2 179.9,117 181.2,116.3 181.3,115.8 181,115.5 180.6,115.4 178.2,115.7 	"/>
	<polygon class="st1" points="176.6,115.3 177.4,114.9 178.4,113.9 178.4,113.5 178.1,113.2 178,113.1 176.8,113.5 176.2,114.1
		176.1,114.4 176.2,115.2 	"/>
	<polygon class="st1" points="175.1,116.6 175.2,116.2 175.7,116 175.9,115.6 175.6,114.7 175.6,113.5 175.6,113.3 175.5,113.2
		175.1,113.8 174.8,115.7 174.4,116.2 174.5,116.4 	"/>
	<polygon class="st1" points="181.4,119.8 177.9,118.9 176.2,118.6 175.6,118.7 174.9,118.9 174.4,119.2 173.7,119.9 173.3,120.9
		173.1,121.7 173.5,122.8 174.1,122.9 174.3,123.1 174,123.1 173.2,122.8 173,122.4 172.6,122.8 172.4,125.3 172.5,125.8 173,126.1
		173.8,126.2 174.4,126 174.4,126.3 173.9,126.7 173,126.5 172.7,126.7 172.4,128 172.5,128.9 173,129.7 173.5,130.2 173.6,130.4
		173.7,131.3 174.1,131.6 175.7,131.9 177.7,131.3 178.1,130.9 179.9,131.7 180.2,131.5 180.4,131.1 180.2,130.5 180.3,130.4
		180.6,131.1 181,131.4 181.9,130.8 182.2,130.2 183.2,130.4 184.9,130.1 187.1,129.1 187.7,128.9 188.4,127.2 189.4,125.9
		189.3,125.3 189.5,125 190.1,124.7 190.5,123.1 190.7,121.8 191,121.1 191.3,120.7 191.3,120.1 191,119.9 187.8,119.5 186.4,119.1
		185,119 183.9,119.2 183.3,119.5 183.2,119.6 	"/>
	<polygon class="st1" points="190.2,126.6 190.6,127 191.1,127.1 191.4,126.9 191.4,126.6 191.3,126 190.6,126 	"/>
	<polygon class="st1" points="205.6,125.5 205.5,124.6 205.4,124.5 204.9,124.9 204.8,125.3 205,125.6 	"/>
	<polygon class="st1" points="170.4,121.5 170.3,121.7 170.3,122.1 170.8,122.1 171.2,121.8 171.6,120.8 	"/>
	<polygon class="st1" points="172.6,121.2 172.5,120.8 172.2,120.7 171.8,120.8 171,122.2 172.3,121.5 	"/>
	<polygon class="st1" points="185.8,130.8 186,131.3 186.4,131.5 186.5,131.3 186.9,130.2 186.9,129.8 186.8,129.8 186.3,130 	"/>
	<polygon class="st1" points="164,129.1 164.7,129.2 167.1,127.6 167.5,127.2 168.2,126.2 168.6,126 168.1,126.4 167.8,126.9
		167.9,127.1 168.8,126.8 169.1,126.5 169.5,125.2 169.5,124.5 169.3,124.3 169.2,124.4 169.2,125 169,125.6 168.7,125.9
		169.1,124.4 169.6,123.3 169.2,122.1 167.8,122.2 166.7,122.9 166.1,123.6 165.7,124.9 165.8,126 165.7,126.2 165.3,126.6
		164.2,126.8 164.1,126.9 164.1,127.8 163.6,128.9 	"/>
	<path class="st1" d="M154.8,152.5c-0.1-0.1-0.2-0.2-0.4-0.3c-0.1-0.1-0.3-0.1-0.4-0.1h-1.8v2.6h1.8c0.2,0,0.3,0,0.5-0.1
		c0.1-0.1,0.3-0.2,0.4-0.3s0.2-0.3,0.2-0.4c0.1-0.2,0.1-0.3,0.1-0.5c0-0.2,0-0.3-0.1-0.5C155,152.7,154.9,152.6,154.8,152.5z"/>
	<polygon class="st1" points="161.9,128.4 161.6,128.1 159.9,128.9 159.7,129.1 159.7,129.3 160,129.4 161.2,128.9 161.9,128.5 	"/>
	<polygon class="st1" points="157.1,155.1 159.4,155.1 158.3,152.3 	"/>
	<polygon class="st1" points="171.2,124.2 171.4,124.3 172.1,124.1 172.2,123.4 171.6,123.4 171.2,124.1 	"/>
	<path class="st1" d="M207.9,127.4l-0.3-0.8l-0.3,0.3l-0.7,0.2l0.4-0.9l0.2-0.8l-1.7,0.6l-0.9-0.1l-0.1-0.2l-0.4,0.2l0.3-0.5
		l-0.2-0.8l-0.2-0.3l-1.2,0.1l-0.2-0.2l0.1-0.7l-0.2-0.1l-0.6,1.1l-0.4,0.3v-0.3l0.2-0.2l-0.3-1l-0.8,0.4l-0.8-0.3l-0.3-0.5
		l-0.6-0.3l-1.1-0.1l-0.2,0.1l-0.1,0.2l0.1,0.6l0.1,0.1l0.5,0.2l0.1,0.2l-0.1,0.3l-0.7-0.6l-0.4-0.7l-0.1-0.1l-0.3,0.1l-0.2,0.4
		l-0.4,0.3l-0.5,0.1l0.2-0.3v-0.3l-0.2-0.2h-0.2l-1.4,1l-0.5-0.6h-0.2l-1.4,1.2l-0.6,0.9v0.3l0.3,0.7l-0.5,1.5l-0.5-0.1l-0.3-0.2
		l-0.2,0.1l-0.1,1.2l0.2,0.1l1.7-0.2l0.5,0.2l-1.7,0.2l-0.3,0.5l0.2,0.4v0.4l-0.6-0.3l-0.8-1.1l-0.3,0.2l-0.4-0.2l-0.3,0.2l-0.7,1.1
		l-0.7,0.8l-0.4,0.7l-0.7,0.1l0.2-0.2l0.1-0.3l-0.2-0.2l-0.1-0.4l-0.3,0.2l-0.4,0.8l0.1,0.1l0.3-0.1l0.2,0.1l-0.2,0l-0.3,0.2h-0.4
		l-0.1,0.1l-0.5,0.8l-0.6,1.6l-0.8,1.5v0.7l-0.4,0.6l0.2-1.2l-0.3-0.7v-0.4l0.4-0.5l0.2-0.5l0.1-0.7l1-2v-0.4h-0.4l-0.9,0.2
		l-0.5,0.3l-0.5,0.5l-0.5,0.2l-1.5,0.2l-0.9-0.5l-0.4-0.1l-2,0.5l-0.7,0.4l-0.5,0.1H175l-0.2-0.1l0.3-0.3l-0.2-0.3l-0.9-0.3h-0.8
		l-1.1,1.1v0.2l0.4,1l0.5,0.6l-0.1,0.1l-0.6-0.4v-0.4l-0.4-0.6l-0.7-0.4l-0.4,0.6l-0.2,2.1l0.1,0.3l0.6,0.5l0.4,0.1l0.2,0.3
		l-0.3-0.2l-0.4-0.1l-0.5-0.4l-0.3-0.6l-0.2-1.1l0.4-0.3l0.1-1l-1.2-1.2l-0.1-0.2l-1.1-0.6l-1.3,2.1l-0.1,0.3l0.2,1.3l0.5,0.6
		l-0.4-0.3L167,135l-0.3-1.5l0.3-1.2l1.1-1.9l0.4,0.3l0.1,0.5l1,0.5l0.2,0v0.2l0.8,0.9l0.4,0.1l0.3-0.2l0.4,0.3l0.3,0.1l-0.1-0.8
		l0.1,0.1l0.2-0.1l0.9-0.9l0.1-0.2l-0.1-0.8l-0.6-0.7l-0.4-0.8l-0.2-0.8l0.3-1.3l-0.2-1.9l-0.2-0.1h-0.5l-0.5,0.1l0-0.1l0.5-0.2
		l0.2-0.2h-0.4h-0.4l0.7-1l0.8-0.2l0.1-0.9l-0.3-0.1l-0.4,0.1l-1.3,0.8l-0.5,1.4l-0.1,0.5l0.1,0.1l-0.1,0.1l-0.2,0.3l-0.1,0.4
		l0.1,0.1l0.8-0.4l0.4-0.3l0,0.1l-0.3,0.4l-1,0.5l-0.3,0.3l-0.3,0.5l-1.5,0.9l-0.9,0.4l-0.7,0.2l-1.6,1.1l-0.6,0.3l-0.5,0.2
		l-0.3-0.1l-0.3,0.1h-0.5l-0.4,0.5l-0.3,0.1l-0.1-0.2l0.3-0.2v-0.3l-0.1-0.2l-0.4-0.3l-3.2,0.5v-0.3l0.8-0.3h0.3l0.8-0.4l0.2-0.3
		l1.7-0.8l0.3,0.1l0.4,0.4l0.2,0.1l0.7-0.1l0.6-0.5l0.1-0.3l-0.1-0.8l0.3-0.4h-0.5l-0.4,0.2l-0.6,0.1l-1.4-0.3l-0.7-0.5l-0.2-0.7
		l-0.9-0.7l-0.1-0.6l0.1-0.3l-0.2-0.8l-0.2-0.2l-0.5-0.1l-0.2-0.5v-1.2l-1.4-1.6l-0.4,0.2l-0.4-0.1l-0.7-1.7l0.1-0.8l-0.3-0.9
		l-0.3-0.3l-0.3-0.7l-0.1-1l0.2-1.5l-0.1-0.2l-1.3-0.4l-1-1.1l-0.4-1.4l0.1-0.4l0.3-0.1l-0.2-0.6h-0.3l-1.4-1.3l-0.5,0.1l-0.2,0.2
		l-0.7,0.1l-0.4-0.1l-0.4-0.5l-0.6-0.4l-0.6-0.1l-0.2-0.6l-0.3-0.4l-0.9-0.5l-0.6-0.2l-1.7-0.2l-0.5,0.1h-0.6l-0.2-0.3l-0.1-0.7
		l0.1-2.2l0.3-0.6l-0.2-1.1l-0.3-0.3l-0.2,0.1H141l-0.8-0.8l-5.7,1.1l-1.1-0.5l-0.4-0.4l-0.3-0.1l-0.2,0.1l-0.1,0.5l-0.6,0.7
		l-0.2,0.8l0.6,0.3l1,1.2v1.1l-0.5,0.4l-0.5,0.1l-2.3-0.7l-1.1-0.1l-0.4,0.2H128l-0.4-0.1l-0.8,0.2l-0.3,0.3l-0.8-0.1l-1-0.2
		l-0.4-0.2l-0.2-0.5l-0.2-0.1l-1,0.6l-0.3-0.2l-0.4,0.1l-0.7,0.5l-0.2,0.7l-0.6,0.7l-0.2,0.1l-0.6,0.1l-1-0.2l-1.6,0.8l-0.3,0.7
		h-0.9l-1.3-0.5l-0.7,0.8l-0.9,0.2l0.3,0.9l-0.4,0.5l-1.3-0.1l-0.2,0.4l-0.7,0.3l-0.4-0.1l-0.2-0.2v-0.2l-0.2-0.3l-0.4-0.2l0.8,8.3
		l0.2,2.4l-0.2,0.7l0.1,1.1l0.1,0.3l0.8,0.4l0.1,0.2l-0.2,0.3v1l0.9,1l0.2,0.1l0.3-0.1l0.9,0.6l0.3,0.9v0.5l0.1,0.2l2.3,1.8l2.2,1.2
		l0.3,0.4l0.7,0.5l0.9,0.3l1.2,0.6l1.1,0.3l0.7,0.1l0.6,0.4v0.3l0.6,0.7l1.3,0.7l0.5,1.1l0.9,0.4l0.4-0.3l0.7-0.2l0.1,0.2l-0.1,0.4
		l0.9,0.8L114.8,167l-0.4,0.6l-0.7,0.6l-0.3,0.5v0.6l0.4,1.1l0.2,0.3l0.5,0.3l0.8,0.8l0.3,0.6l0.1,1l0.3,0.3l0.6,0.5l1.2,2l0.2,0.9
		l0.7,1.9l0.7,0.9l0.4,0.8l-0.1,1.2l0.2,1.2l0.4,1.1l0.8,0.5l1.5,1.3l1.7,0.8l0.1,0.5v0.5l0.1,0.2l0.5,0.2l0.4-0.1l0.8,0.2l0.3,0.4
		l0.1,0.5l0.2,0.2l0.7-0.2l1.8,0.7l16.6,1.2l30.8,1.7l0.3-1.1l0.6-2.2l0.6-0.8l0.6-0.5l0.6-0.8l0.5-0.9l0.7-0.4l0.5-0.1l0.4-0.4
		l0.5-0.8l0.1-0.5l0.8-1.6l0.5-0.4l0.9-2.5l0.3-2l-0.1-0.1l-0.4-0.2l-0.8-0.9l-0.3-0.5l-0.1-0.4l0.1-0.3l0.7-0.8l0.6-1v-1.3
		l-0.2-1.1l0.1-0.2l1.2-0.9l1.7-0.6l1.2-0.6l0.1-0.2l-0.1-0.7l0.4-0.6l0.7-0.7l0.6-0.1l0.1-0.7l-0.1-0.6l0.1-0.2l0.7-0.2l0.3-0.2
		l0.4-1.3l-0.5-0.7V162l0.1-0.1h0.5l0.4-0.2l0.2-0.3v-0.3l-0.6-0.6l-0.4-0.1l-0.2-0.2l-0.5-0.8l-0.6-0.1l-0.9,0.1l-1.1-0.4h-0.2
		l7.2-5.8l1.1,0.1l0.6-0.4l0.8-1.1l0.2-0.6l0.8-0.6l0.3-1.4l0.5-0.2l1.2-1.1l0.2-0.6l0.1-0.9l0.8-2.3l1-0.8l0.7-0.9l0.4-0.7l0.2-0.6
		l-0.1-0.9l0.4-0.4l-0.5-0.8l1.8-1.5l-0.1-0.8l0.2-1.2l0.9-0.8l0.2-0.3l0.4-1.5v-0.8l-0.2-0.3l-0.5,0.1l-0.1-0.2v-0.3l0.6-0.1
		l0.3-0.4l0.3-2.1l-0.1-0.7l0.2-0.5L207.9,127.4z M155.2,154.7c-0.1,0.2-0.3,0.3-0.5,0.4c-0.2,0.1-0.4,0.2-0.7,0.2h-1.9v2.1h-0.6
		v-5.7h2.4c0.2,0,0.5,0.1,0.7,0.2c0.2,0.1,0.4,0.2,0.5,0.4c0.2,0.2,0.3,0.4,0.4,0.6c0.1,0.2,0.1,0.4,0.1,0.7c0,0.2,0,0.5-0.1,0.7
		C155.5,154.3,155.4,154.5,155.2,154.7z M160.3,157.3l-0.7-1.8H157l-0.7,1.8h-0.6l2.4-5.7h0.5l2.4,5.7H160.3z"/>
	<polygon class="st1" points="171.8,119.9 172,120 172.8,119.4 173.3,119.2 174.2,118.4 174.2,118.3 173.8,118 173.2,118 172,118.4
		171.1,118.6 170.8,119 170.7,119.6 171.5,119.9 	"/>
	<polygon class="st1" points="169.7,121.9 170,122 170.5,120.8 171.3,120.5 171.3,120.4 170.7,120 170.6,120 169.9,120.9 	"/>
	<polygon class="st1" points="171.7,118.2 172.9,117.9 173,117.9 173.1,117.8 173,117.7 172.8,117.5 172.3,117.4 171.8,117.6
		171.3,118.1 171.4,118.2 	"/>
	<polygon class="st1" points="169.2,120.8 170,120 170.2,119.5 170.3,118.8 169.6,119.1 169.2,119.4 168.8,120.2 168.2,121
		167.9,121.2 167.8,121.5 167.9,121.6 	"/>
	<polygon class="st1" points="162.1,130 163.3,129.8 163.8,129.6 163.9,129.4 163.5,129 163.1,128.8 161.9,129.2 161.6,129.7
		161.7,129.8 161.7,130.3 	"/>
</g>
<g>
	<polygon class="st3" points="197.9,243.7 198,242.4 198.4,241.8 198.4,240.6 197.4,239.6 191.3,239.6 191.1,241.5 190.7,242.4
		191,244.1 198.6,244.1 	"/>
	<path class="st0" d="M188.4,235.6c-0.2-0.3-0.5-0.5-0.9-0.6c-0.3-0.2-0.7-0.2-1.2-0.2h-1.9v5.7h1.9c0.4,0,0.8-0.1,1.1-0.2
		s0.6-0.3,0.9-0.6c0.2-0.3,0.4-0.6,0.6-0.9c0.1-0.4,0.2-0.7,0.2-1.2c0-0.4-0.1-0.8-0.2-1.1C188.8,236.2,188.6,235.8,188.4,235.6z
		 M188.4,238.6c-0.1,0.3-0.2,0.5-0.4,0.8c-0.2,0.2-0.4,0.4-0.7,0.5c-0.3,0.1-0.6,0.2-0.9,0.2H185v-4.7h1.4c0.3,0,0.7,0.1,0.9,0.2
		c0.3,0.1,0.5,0.3,0.7,0.5c0.2,0.2,0.3,0.5,0.4,0.7s0.1,0.6,0.1,1C188.5,238,188.5,238.3,188.4,238.6z"/>
	<polygon class="st0" points="193.4,237.4 190.7,237.4 190.7,235.3 193.9,235.3 193.9,234.7 190.2,234.7 190.2,240.5 190.7,240.5
		190.7,237.8 193.4,237.8 	"/>
</g>
</svg>
