<?xml version="1.0" encoding="iso-8859-1"?>
<!-- Generator: Adobe Illustrator 19.0.0, SVG Export Plug-In . SVG Version: 6.00 Build 0)  -->
<svg version="1.1" id="Capa_1" xmlns="http://www.w3.org/2000/svg" xmlns:xlink="http://www.w3.org/1999/xlink" x="0px" y="0px"
	 viewBox="0 0 512.001 512.001" style="enable-background:new 0 0 512.001 512.001;" xml:space="preserve">
<path style="fill:#3F3E61;" d="M273.136,453.841c-10.415,0-18.858-8.443-18.858-18.858V284.248c0-10.415,8.443-18.858,18.858-18.858
	c10.415,0,18.858,8.443,18.858,18.858v150.735C291.994,445.398,283.551,453.841,273.136,453.841z"/>
<path style="fill:#514E78;" d="M227.612,453.841c-10.415,0-18.858-8.443-18.858-18.858V284.248c0-10.415,8.443-18.858,18.858-18.858
	s18.858,8.443,18.858,18.858v150.735C246.471,445.398,238.027,453.841,227.612,453.841z"/>
<path style="fill:#292D30;" d="M398.238,131.83c-5.632-6.604-15.551-7.391-22.155-1.759l-39.037,33.295l-34.689-26.459
	c-2.739-2.088-6.087-3.22-9.53-3.22H250.71h-0.136h-41.631c-12.389,0-23.731,6.778-29.599,17.688l-10.864,20.196l-33.343-47.21
	c-5.007-7.09-14.813-8.777-21.902-3.771c-7.089,5.007-8.777,14.813-3.771,21.902l47.991,67.95c6.718,9.512,21.135,8.68,26.677-1.621
	l22.892-42.558c0.349-0.65,1.003-1.056,1.73-1.12v119.104h83.24V168.532l36.071,27.514c5.901,4.501,14.117,4.248,19.729-0.539
	l48.684-41.523C403.082,148.352,403.869,138.433,398.238,131.83z"/>
<path style="fill:#1E2124;" d="M398.238,131.83c-5.632-6.604-15.551-7.391-22.155-1.759l-39.037,33.295l-34.689-26.459
	c-2.739-2.088-6.087-3.22-9.53-3.22H250.71h-0.136h-0.192v150.561h41.612V168.533l36.071,27.514
	c5.901,4.501,14.117,4.248,19.729-0.539l48.684-41.523C403.082,148.352,403.869,138.433,398.238,131.83z"/>
<path style="fill:#80391B;" d="M135.138,124.361c-5.007-7.09-14.813-8.777-21.902-3.771c-7.089,5.007-8.777,14.813-3.771,21.902
	L135.138,124.361z"/>
<polygon style="fill:#FFFFFF;" points="226.453,133.686 250.383,196.478 274.313,133.686 "/>
<path style="fill:#414B82;" d="M260.78,155.156l-5.338-9.708l4.611-8.386c0.388-0.706,0.374-1.564-0.035-2.257
	c-0.41-0.693-1.156-1.118-1.961-1.118H242.7c-0.805,0-1.551,0.426-1.961,1.118c-0.41,0.693-0.424,1.551-0.035,2.257l4.619,8.4
	l-5.331,9.695c-0.734,1.335-0.973,2.886-0.675,4.38l3.328,16.656l7.73,20.285l7.758-20.357l3.32-16.583
	C261.753,158.043,261.514,156.491,260.78,155.156z"/>
<polygon style="fill:#FFFFFF;" points="226.453,133.686 250.383,196.478 274.313,133.686 "/>
<path style="fill:#514E78;" d="M260.78,155.156l-5.338-9.708l4.611-8.386c0.388-0.706,0.374-1.564-0.035-2.257
	c-0.41-0.693-1.156-1.118-1.961-1.118H242.7c-0.805,0-1.551,0.426-1.961,1.118c-0.41,0.693-0.424,1.551-0.035,2.257l4.619,8.4
	l-5.331,9.695c-0.734,1.335-0.973,2.886-0.675,4.38l3.328,16.656l7.73,20.285l7.758-20.357l3.32-16.583
	C261.753,158.043,261.514,156.491,260.78,155.156z"/>
<g>
	<polygon style="fill:#FFFFFF;" points="114.12,149.026 139.796,130.897 135.138,124.361 109.465,142.492 	"/>
	<polygon style="fill:#FFFFFF;" points="369.971,135.284 389.776,159.506 396.479,153.984 376.068,130.068 	"/>
</g>
<g>
	<circle style="fill:#80391B;" cx="250.775" cy="90.73" r="32.57"/>
	<path style="fill:#80391B;" d="M398.238,131.83c-5.632-6.604-15.551-7.391-22.155-1.759l20.396,23.913
		C403.082,148.352,403.869,138.433,398.238,131.83z"/>
</g>
<path style="fill:#3F3E61;" d="M260.78,155.156l-5.338-9.708l4.611-8.386c0.388-0.706,0.374-1.564-0.035-2.257
	c-0.41-0.693-1.156-1.118-1.961-1.118h-7.674v62.773l7.75-20.338l3.32-16.583C261.753,158.043,261.514,156.491,260.78,155.156z"/>
<path style="fill:#343E6B;" d="M101.993,453.841c-10.342,0-18.725-8.383-18.725-18.725V285.452c0-10.342,8.383-18.725,18.725-18.725
	s18.725,8.383,18.725,18.725v149.665C120.716,445.459,112.333,453.841,101.993,453.841z"/>
<path style="fill:#414B82;" d="M56.792,453.841c-10.342,0-18.725-8.383-18.725-18.725V285.452c0-10.342,8.383-18.725,18.725-18.725
	s18.725,8.383,18.725,18.725v149.665C75.516,445.459,67.133,453.841,56.792,453.841z"/>
<path style="fill:#252D5C;" d="M158.775,172.338c-0.101-20.259-16.925-36.74-37.5-36.74c-10.16,0-71.347,0-83.768,0
	c-20.576,0-37.399,16.482-37.5,36.74c0,0.026,0,0.052,0,0.078V287.05c0,8.618,6.985,15.603,15.603,15.603
	s15.603-6.986,15.603-15.603V172.469c0.033-2.967,3.025-5.663,6.294-5.663h0.561v118.646h82.649V166.806h0.557
	c3.269,0,6.262,2.696,6.294,5.663v114.582c0,8.618,6.986,15.603,15.603,15.603c8.618,0,15.603-6.986,15.603-15.603V172.417
	C158.776,172.39,158.776,172.364,158.775,172.338z"/>
<path style="fill:#1B224A;" d="M158.775,172.338c-0.101-20.259-16.925-36.74-37.5-36.74c-4.946,0-36.968,0-41.888,0v149.854h41.329
	V166.806h0.557c3.269,0,6.262,2.696,6.294,5.663v114.582c0,8.618,6.986,15.603,15.603,15.603c8.618,0,15.603-6.986,15.603-15.603
	V172.417C158.776,172.39,158.776,172.364,158.775,172.338z"/>
<g>
	<path style="fill:#FFFFFF;" d="M0,279.002v8.049c0,8.618,6.985,15.603,15.603,15.603s15.603-6.986,15.603-15.603v-8.049H0z"/>
	<path style="fill:#FFFFFF;" d="M127.563,279.002v8.049c0,8.618,6.986,15.603,15.603,15.603s15.603-6.986,15.603-15.603v-8.049
		H127.563z"/>
</g>
<g>
	<path style="fill:#FFB69E;" d="M0,286.649v0.402c0,8.618,6.985,15.603,15.603,15.603s15.603-6.986,15.603-15.603v-0.402H0z"/>
	<path style="fill:#FFB69E;" d="M127.563,286.649v0.402c0,8.618,6.986,15.603,15.603,15.603s15.603-6.986,15.603-15.603v-0.402
		H127.563z"/>
	<circle style="fill:#FFB69E;" cx="79.382" cy="93.3" r="32.337"/>
</g>
<polygon style="fill:#FFFFFF;" points="55.579,135.598 79.387,198.079 103.202,135.598 "/>
<path style="fill:#CD2D23;" d="M89.743,156.868l-5.289-9.62l4.559-8.291c0.829-1.508-0.263-3.359-1.987-3.359H71.745
	c-1.721,0-2.816,1.849-1.987,3.359l4.574,8.319l-5.275,9.594c-0.73,1.328-0.968,2.871-0.671,4.358l3.254,16.516l7.746,20.336
	l7.754-20.34l3.272-16.511C90.711,159.741,90.474,158.197,89.743,156.868z"/>
<path style="fill:#B71A16;" d="M89.743,156.868l-5.289-9.62l4.559-8.291c0.829-1.508-0.263-3.359-1.987-3.359h-7.639v62.467v0.013
	l7.754-20.34l3.272-16.511C90.711,159.741,90.474,158.197,89.743,156.868z"/>
<rect x="90.917" y="183.605" style="fill:#252D5C;" width="20.612" height="6.357"/>
<path style="fill:#42464A;" d="M455.23,453.841c-10.339,0-18.72-8.381-18.72-18.72V285.491c0-10.339,8.381-18.72,18.72-18.72
	c10.339,0,18.72,8.381,18.72,18.72v149.63C473.951,445.461,465.569,453.841,455.23,453.841z"/>
<path style="fill:#50555A;" d="M410.04,453.841c-10.339,0-18.72-8.381-18.72-18.72V285.491c0-10.339,8.381-18.72,18.72-18.72
	c10.339,0,18.72,8.381,18.72,18.72v149.63C428.76,445.461,420.379,453.841,410.04,453.841z"/>
<path style="fill:#373C41;" d="M512,172.404c-0.101-20.254-16.92-36.731-37.492-36.731c-10.158,0-71.331,0-83.749,0
	c-20.572,0-37.391,16.478-37.492,36.731c0,0.026,0,0.052,0,0.078v114.606c0,8.616,6.984,15.6,15.6,15.6
	c8.616,0,15.6-6.984,15.6-15.6V172.534c0.033-2.967,3.024-5.661,6.293-5.661h0.561v118.619h82.63v-118.62h0.557
	c3.269,0,6.26,2.696,6.293,5.661v114.555c0,8.616,6.984,15.6,15.6,15.6c8.616,0,15.6-6.984,15.6-15.6V172.482
	C512,172.457,512,172.43,512,172.404z"/>
<path style="fill:#292D30;" d="M512,172.404c-0.101-20.254-16.92-36.731-37.492-36.731c-4.945,0-36.959,0-41.878,0v149.819h41.32
	V166.872h0.557c3.269,0,6.26,2.696,6.293,5.661v114.555c0,8.616,6.984,15.6,15.6,15.6c8.616,0,15.6-6.984,15.6-15.6V172.482
	C512,172.457,512,172.43,512,172.404z"/>
<g>
	<path style="fill:#FFFFFF;" d="M353.261,279.043v8.047c0,8.616,6.984,15.6,15.6,15.6c8.616,0,15.6-6.984,15.6-15.6v-8.047H353.261z
		"/>
	<path style="fill:#FFFFFF;" d="M480.795,279.043v8.047c0,8.616,6.984,15.6,15.6,15.6c8.616,0,15.6-6.984,15.6-15.6v-8.047H480.795z
		"/>
</g>
<g>
	<path style="fill:#FFB69E;" d="M353.261,286.688v0.402c0,8.616,6.984,15.6,15.6,15.6c8.616,0,15.6-6.984,15.6-15.6v-0.402H353.261z
		"/>
	<path style="fill:#FFB69E;" d="M480.795,286.688v0.402c0,8.616,6.984,15.6,15.6,15.6c8.616,0,15.6-6.984,15.6-15.6v-0.402H480.795z
		"/>
	<circle style="fill:#FFB69E;" cx="432.63" cy="93.39" r="32.327"/>
</g>
<polygon style="fill:#FFFFFF;" points="408.828,135.672 432.63,198.139 456.439,135.672 "/>
<path style="fill:#78BEFF;" d="M442.984,156.937l-5.288-9.618l4.558-8.289c0.828-1.508-0.263-3.358-1.986-3.358H424.99
	c-1.72,0-2.816,1.848-1.986,3.358l4.573,8.317l-5.274,9.591c-0.73,1.328-0.968,2.871-0.671,4.357l3.253,16.512l7.745,20.331
	l7.752-20.335l3.271-16.507C443.952,159.809,443.714,158.266,442.984,156.937z"/>
<path style="fill:#5AAAE5;" d="M442.984,156.937l-5.288-9.618l4.558-8.289c0.828-1.508-0.263-3.358-1.986-3.358h-7.637v62.453v0.013
	l7.752-20.335l3.271-16.507C443.952,159.809,443.714,158.266,442.984,156.937z"/>
<rect x="444.155" y="183.665" style="fill:#373C41;" width="20.608" height="6.356"/>
<g>
</g>
<g>
</g>
<g>
</g>
<g>
</g>
<g>
</g>
<g>
</g>
<g>
</g>
<g>
</g>
<g>
</g>
<g>
</g>
<g>
</g>
<g>
</g>
<g>
</g>
<g>
</g>
<g>
</g>
</svg>
