<?xml version="1.0" encoding="utf-8"?>
<!-- Generator: Adobe Illustrator 19.0.0, SVG Export Plug-In . SVG Version: 6.00 Build 0)  -->
<svg version="1.1" id="Camada_1" xmlns="http://www.w3.org/2000/svg" xmlns:xlink="http://www.w3.org/1999/xlink" x="0px" y="0px"
	 viewBox="0 0 512 512" style="enable-background:new 0 0 512 512;" xml:space="preserve">
<style type="text/css">
	.st0{fill:#F7F4FF;}
	.st1{fill:#171717;stroke:#7BA1FF;stroke-width:5;stroke-miterlimit:10;}
</style>
<g id="XMLID_349_">
	<g id="XMLID_558_">
		<g id="XMLID_659_">
			<g id="XMLID_660_">
				<rect id="XMLID_661_" x="176.9" y="170.7" class="st0" width="17.1" height="17.1"/>
			</g>
		</g>
		<g id="XMLID_656_">
			<g id="XMLID_657_">
				<rect id="XMLID_658_" x="176.9" y="204.7" class="st0" width="17.1" height="17.1"/>
			</g>
		</g>
		<g id="XMLID_653_">
			<g id="XMLID_654_">
				<rect id="XMLID_655_" x="176.9" y="238.9" class="st0" width="17.1" height="17.1"/>
			</g>
		</g>
		<g id="XMLID_650_">
			<g id="XMLID_651_">
				<rect id="XMLID_652_" x="176.9" y="273.1" class="st0" width="17.1" height="17.1"/>
			</g>
		</g>
		<g id="XMLID_647_">
			<g id="XMLID_648_">
				<rect id="XMLID_649_" x="211.1" y="170.7" class="st0" width="17.1" height="17.1"/>
			</g>
		</g>
		<g id="XMLID_644_">
			<g id="XMLID_645_">
				<rect id="XMLID_646_" x="211.1" y="204.7" class="st0" width="17.1" height="17.1"/>
			</g>
		</g>
		<g id="XMLID_641_">
			<g id="XMLID_642_">
				<rect id="XMLID_643_" x="211.1" y="238.9" class="st0" width="17.1" height="17.1"/>
			</g>
		</g>
		<g id="XMLID_638_">
			<g id="XMLID_639_">
				<rect id="XMLID_640_" x="211.1" y="273.1" class="st0" width="17.1" height="17.1"/>
			</g>
		</g>
		<g id="XMLID_635_">
			<g id="XMLID_636_">
				<rect id="XMLID_637_" x="245.3" y="170.7" class="st0" width="17.1" height="17.1"/>
			</g>
		</g>
		<g id="XMLID_632_">
			<g id="XMLID_633_">
				<rect id="XMLID_634_" x="245.3" y="204.7" class="st0" width="17.1" height="17.1"/>
			</g>
		</g>
		<g id="XMLID_629_">
			<g id="XMLID_630_">
				<rect id="XMLID_631_" x="245.3" y="238.9" class="st0" width="17.1" height="17.1"/>
			</g>
		</g>
		<g id="XMLID_626_">
			<g id="XMLID_627_">
				<rect id="XMLID_628_" x="245.3" y="273.1" class="st0" width="17.1" height="17.1"/>
			</g>
		</g>
		<g id="XMLID_623_">
			<g id="XMLID_624_">
				<rect id="XMLID_625_" x="279.4" y="170.7" class="st0" width="17.1" height="17.1"/>
			</g>
		</g>
		<g id="XMLID_620_">
			<g id="XMLID_621_">
				<rect id="XMLID_622_" x="211.1" y="136.5" class="st0" width="17.1" height="17.1"/>
			</g>
		</g>
		<g id="XMLID_617_">
			<g id="XMLID_618_">
				<rect id="XMLID_619_" x="245.3" y="136.5" class="st0" width="17.1" height="17.1"/>
			</g>
		</g>
		<g id="XMLID_614_">
			<g id="XMLID_615_">
				<rect id="XMLID_616_" x="279.4" y="136.5" class="st0" width="17.1" height="17.1"/>
			</g>
		</g>
		<g id="XMLID_611_">
			<g id="XMLID_612_">
				<rect id="XMLID_613_" x="279.4" y="204.7" class="st0" width="17.1" height="17.1"/>
			</g>
		</g>
		<g id="XMLID_608_">
			<g id="XMLID_609_">
				<rect id="XMLID_610_" x="279.4" y="238.9" class="st0" width="17.1" height="17.1"/>
			</g>
		</g>
		<g id="XMLID_605_">
			<g id="XMLID_606_">
				<rect id="XMLID_607_" x="279.4" y="273.1" class="st0" width="17.1" height="17.1"/>
			</g>
		</g>
		<g id="XMLID_602_">
			<g id="XMLID_603_">
				<rect id="XMLID_604_" x="313.6" y="170.7" class="st0" width="17.1" height="17.1"/>
			</g>
		</g>
		<g id="XMLID_599_">
			<g id="XMLID_600_">
				<rect id="XMLID_601_" x="313.6" y="204.7" class="st0" width="17.1" height="17.1"/>
			</g>
		</g>
		<g id="XMLID_596_">
			<g id="XMLID_597_">
				<rect id="XMLID_598_" x="313.6" y="238.9" class="st0" width="17.1" height="17.1"/>
			</g>
		</g>
		<g id="XMLID_593_">
			<g id="XMLID_594_">
				<rect id="XMLID_595_" x="313.6" y="273.1" class="st0" width="17.1" height="17.1"/>
			</g>
		</g>
		<g id="XMLID_576_">
			<g id="XMLID_577_">
				<path id="XMLID_578_" class="st0" d="M501.3,128L501.3,128h-128V8.5c0-4.7-3.8-8.5-8.5-8.5l0,0H142.9c-4.7,0-8.5,3.8-8.5,8.5
					l0,0V128H6.2c-4.7,0-8.5,3.8-8.5,8.5l0,0v307.2c0,4.7,3.8,8.5,8.5,8.5l0,0H24c-0.5,2.7-0.7,5.7-0.7,8.5v42.7
					c0,4.7,3.8,8.5,8.5,8.5l0,0h443.8c4.7,0,8.5-3.8,8.5-8.5l0,0v-42.7c0-2.8-0.4-5.8-0.7-8.5h17.8c4.7,0,8.5-3.8,8.5-8.5l0,0V136.5
					C509.8,131.8,506,128,501.3,128z M364.7,367c0,9.4-7.7,17.1-17.1,17.1c-9.4,0-17.1-7.7-17.1-17.1c0-9.4,7.7-17.1,17.1-17.1
					C357.1,349.9,364.7,357.5,364.7,367z M160,349.9c9.4,0,17.1,7.7,17.1,17.1c0,9.4-7.7,17.1-17.1,17.1s-17.1-7.7-17.1-17.1
					C142.9,357.7,150.5,349.9,160,349.9z M108.7,495H40.4v-34.2c0-18.9,15.3-34.2,34.2-34.2s34.2,15.3,34.2,34.2V495z M57.5,392.5
					c0-9.4,7.7-17.1,17.1-17.1s17.1,7.7,17.1,17.1c0,9.4-7.7,17.1-17.1,17.1S57.5,401.9,57.5,392.5z M110,424
					c-3.2-3.1-6.9-5.8-10.8-7.9c13-13.6,12.5-35.2-1.2-48.3c-13.6-13-35.2-12.5-48.3,1.2c-12.6,13.3-12.6,33.9,0,47.2
					c-8.1,4.5-14.9,11.2-19.6,19.2H14.8V145.1h119.5v199.6c-11.7,13.2-11.3,33.1,0.9,45.8C122.5,397.5,113.4,409.7,110,424z
					 M194,495h-68.3v-59.8c0-18.9,15.3-34.2,34.2-34.2s34.2,15.3,34.2,34.2V495z M296.5,495h-85.3v-59.8c0-23.6,19.1-42.7,42.7-42.7
					s42.7,19.1,42.7,42.7V495H296.5z M228.2,349.9c0-14.2,11.4-25.6,25.6-25.6s25.6,11.4,25.6,25.6s-11.4,25.6-25.6,25.6
					C239.7,375.4,228.2,363.9,228.2,349.9z M305.8,405.9c-5.8-10.1-14.2-18.3-24.6-23.7c18-15.2,20.4-42.1,5.1-60.1
					c-15.2-18-42.1-20.4-60.1-5.1c-18,15.2-20.4,42.1-5.1,60.1c1.5,1.8,3.3,3.7,5.1,5.1c-10.2,5.3-18.7,13.5-24.6,23.7
					c-4.5-6.4-10.3-11.7-17.2-15.4c13.2-13.3,12.8-34.9-0.5-47.9c-8.7-8.4-21-11.6-32.6-8.4V17.1h204.7v317
					c-2.7-0.7-5.7-1.2-8.5-1.2c-18.7,0-34.2,15.2-34.2,33.9c0,8.8,3.4,17.3,9.5,23.6C316.1,394.2,310.3,399.5,305.8,405.9z
					 M381.8,460.9V495h-68.3v-59.8c0-18.9,15.3-34.2,34.2-34.2c18.9,0,34.2,15.3,34.2,34.2L381.8,460.9L381.8,460.9z M467.2,495
					h-68.3v-34.2c0-18.9,15.3-34.2,34.2-34.2s34.2,15.3,34.2,34.2L467.2,495L467.2,495z M416,392.5c0-9.4,7.7-17.1,17.1-17.1
					c9.4,0,17.1,7.7,17.1,17.1c0,9.4-7.7,17.1-17.1,17.1C423.7,409.6,416,401.9,416,392.5z M492.8,435.2h-15.4
					c-4.7-8.1-11.4-14.7-19.6-19.2c13-13.6,12.5-35.2-1.2-48.3c-13.6-13-35.2-12.5-48.3,1.2c-12.6,13.3-12.6,33.9,0,47.2
					c-3.9,2.1-7.5,4.7-10.8,7.9c-3.2-14.4-12.3-26.5-25.1-33.5c12.2-12.7,12.6-32.6,0.9-45.8V145.1h119.5L492.8,435.2L492.8,435.2z"
					/>
			</g>
		</g>
		<g id="XMLID_573_">
			<g id="XMLID_574_">
				<rect id="XMLID_575_" x="398.9" y="196.3" class="st0" width="17.1" height="136.5"/>
			</g>
		</g>
		<g id="XMLID_570_">
			<g id="XMLID_571_">
				<rect id="XMLID_572_" x="450.1" y="196.3" class="st0" width="17.1" height="136.5"/>
			</g>
		</g>
		<g id="XMLID_567_">
			<g id="XMLID_568_">
				<rect id="XMLID_569_" x="40.4" y="196.3" class="st0" width="17.1" height="136.5"/>
			</g>
		</g>
		<g id="XMLID_564_">
			<g id="XMLID_565_">
				<rect id="XMLID_566_" x="91.7" y="196.3" class="st0" width="17.1" height="136.5"/>
			</g>
		</g>
		<g id="XMLID_559_">
			<g id="XMLID_560_">
				<path id="XMLID_561_" class="st0" d="M305.1,34.2L305.1,34.2H202.7c-4.7,0-8.5,3.8-8.5,8.5l0,0V111c0,4.7,3.8,8.5,8.5,8.5l0,0
					h102.4c4.7,0,8.5-3.8,8.5-8.5l0,0V42.6C313.6,38,309.7,34.2,305.1,34.2z M296.5,102.4h-85.3V51.1h85.3V102.4z"/>
			</g>
		</g>
	</g>
	<g id="XMLID_27_">
		<circle id="XMLID_895_" class="st1" cx="427.4" cy="414.7" r="84.6"/>
		<g id="XMLID_896_">
			<circle id="XMLID_893_" class="st0" cx="427.4" cy="381.2" r="19.4"/>
			<path id="XMLID_894_" class="st0" d="M460,467.5h-65.2v-32.6c0-18,14.6-32.6,32.6-32.6l0,0c18,0,32.6,14.6,32.6,32.6V467.5z"/>
		</g>
	</g>
</g>
</svg>
