<?xml version="1.0" encoding="utf-8"?>
<!-- Generator: Adobe Illustrator 19.0.0, SVG Export Plug-In . SVG Version: 6.00 Build 0)  -->
<svg version="1.1" id="Capa_1" xmlns="http://www.w3.org/2000/svg" xmlns:xlink="http://www.w3.org/1999/xlink" x="0px" y="0px"
	 viewBox="-14 15.4 482.6 482.6" style="enable-background:new -14 15.4 482.6 482.6;" xml:space="preserve">
<style type="text/css">
	.st0{fill:#F7F4FF;}
</style>
<g>
	<g>
		<path class="st0" d="M103,218.7c13.4-1.8,26.8,2.8,36.3,12.3l24,24l22.7-22.6l-32.8-32.7c-5.1-5.1-5.1-13.4,0-18.5
			s13.4-5.1,18.5,0l32.8,32.8l22.7-22.6l-24.1-24.1c-9.5-9.5-14.1-23-12.3-36.3c4-30.4-5.7-62.2-29-85.6
			C138,21.5,105.4,11.9,74.5,16.5c-4.9,0.7-6.9,6.8-3.4,10.3L102,57.8c14.7,14.7,14.7,38.5,0,53.1l-19,19
			c-14.7,14.7-38.5,14.7-53.1,0l-31-30.9c-3.5-3.5-9.5-1.5-10.3,3.4c-4.6,30.9,5,63.5,28.8,87.3C40.8,213,72.6,222.7,103,218.7z"/>
		<path class="st0" d="M295.2,259.4L272.5,282l134.8,134.8c5.1,5.1,5.1,13.4,0,18.5s-13.4,5.1-18.5,0L254,300.5l-22.7,22.6
			L370.2,462c17.6,17.6,46.1,17.5,63.7-0.1s17.6-46.1,0.1-63.7L295.2,259.4z"/>
		<path class="st0" d="M347.3,169.4h59.9l59.9-119.7l-29.9-29.9L317.4,79.6v59.9L154.6,301.8l-29.3-29.2l-118,118
			c-24.6,24.6-24.6,64.4,0,89s64.4,24.6,89,0l118-118l-29.9-29.9L347.3,169.4z"/>
	</g>
</g>
</svg>
