<?xml version="1.0" encoding="utf-8"?>
<!-- Generator: Adobe Illustrator 19.0.0, SVG Export Plug-In . SVG Version: 6.00 Build 0)  -->
<svg version="1.1" id="Camada_1" xmlns="http://www.w3.org/2000/svg" xmlns:xlink="http://www.w3.org/1999/xlink" x="0px" y="0px"
	 viewBox="0 0 512 512" style="enable-background:new 0 0 512 512;" xml:space="preserve">
<style type="text/css">
	.st0{fill:#F7F4FF;}
	.st1{fill:#171717;stroke:#FF394C;stroke-width:5;stroke-miterlimit:10;}
</style>
<g id="XMLID_21_">
	<g id="XMLID_22_">
		<path id="XMLID_86_" class="st0" d="M407.6,185.1h-33.9L384,67.7c0-0.2,0-0.4,0-0.6l0,0l0,0c0-3.1-1.9-6-4.8-7.2c0,0,0,0-0.1,0
			c-0.2-0.1-0.3-0.1-0.5-0.2c-0.1,0-0.1,0-0.2-0.1c-0.1,0-0.3-0.1-0.4-0.1c-0.1,0-0.2-0.1-0.3-0.1s-0.3,0-0.4-0.1
			c-0.1,0-0.2,0-0.4-0.1c0,0,0,0-0.1,0s-0.3,0-0.4,0c-0.1,0-0.2,0-0.3,0h-0.1l0,0H214.5c-4.3,0-7.9,3.6-7.9,7.9s3.6,7.9,7.9,7.9
			h152.9l-15.7,180.5l0,0l-4,45.5H73.5l4.6-47.4h52.2c4.3,0,7.9-3.6,7.9-7.9s-3.6-7.9-7.9-7.9H79.5l9.7-100h83.2
			c4.3,0,7.9-3.6,7.9-7.9c0-4.3-3.6-7.9-7.9-7.9H90.9l4.5-47.1H183c4.3,0,7.9-3.6,7.9-7.9S187.3,59,183,59H88.3l0,0
			c-3.7,0-6.9,2.6-7.7,6.3c0,0,0,0,0,0.1c0,0.2-0.1,0.4-0.1,0.6c0,0.1,0,0.1,0,0.2l0,0L75.1,122h-95.8c-4.3,0-7.9,3.6-7.9,7.9
			s3.6,7.9,7.9,7.9h94.1l-9.7,100H35.5c-4.3,0-7.9,3.6-7.9,7.9s3.6,7.9,7.9,7.9h26.7L56.8,308l0,0l-8.1,84.2l0,0l0,0
			c0,0.1,0,0.2,0,0.3c0,0.1,0,0.3,0,0.4l0,0c0,0.2,0,0.4,0,0.6c0,0.1,0,0.1,0,0.2c0,0.2,0.1,0.4,0.1,0.6c0,0.1,0,0.1,0,0.2
			c0,0.1,0.1,0.3,0.1,0.4s0,0.2,0.1,0.3v0.1c0.4,1.2,1.1,2.2,1.9,3l0,0c0.1,0.1,0.2,0.2,0.3,0.2c0.5,0.5,1.2,1,1.8,1.3
			c0.1,0.1,0.3,0.1,0.4,0.2h0.1c0.2,0.1,0.4,0.1,0.6,0.2c0,0,0,0,0.1,0c0.2,0.1,0.4,0.1,0.8,0.2h0.1c0.2,0,0.4,0.1,0.8,0.1l0,0
			c0.2,0,0.5,0,0.8,0l0,0h35.2c3.9,29.5,29.2,52.2,59.6,52.2s55.7-22.8,59.6-52.2H338c3.9,29.5,29.2,52.2,59.6,52.2
			c30.5,0,55.7-22.8,59.6-52.2h35.2l0,0c0.3,0,0.5,0,0.8,0h0.1c0.2,0,0.4,0,0.6-0.1c0.1,0,0.2,0,0.2-0.1c0.1,0,0.3-0.1,0.4-0.1
			c0.1,0,0.2-0.1,0.3-0.1c0.1,0,0.2-0.1,0.4-0.1c0.1,0,0.2-0.1,0.3-0.1c0.1-0.1,0.2-0.1,0.3-0.2c0.1-0.1,0.2-0.1,0.3-0.2
			c0.1-0.1,0.2-0.1,0.3-0.2c0.1-0.1,0.2-0.1,0.3-0.2c0.1-0.1,0.2-0.1,0.3-0.2c0.1-0.1,0.2-0.1,0.2-0.2c0.1-0.1,0.2-0.2,0.3-0.3
			s0.1-0.1,0.2-0.2c0.1-0.1,0.2-0.2,0.3-0.3c0.1-0.1,0.1-0.1,0.2-0.2s0.2-0.3,0.3-0.4l0.1-0.1c0.1-0.2,0.2-0.4,0.3-0.6l0,0
			c0.1-0.2,0.2-0.4,0.3-0.6c0-0.1,0-0.1,0.1-0.2c0.1-0.2,0.1-0.3,0.2-0.5c0-0.1,0.1-0.2,0.1-0.3c0-0.1,0.1-0.2,0.1-0.4
			c0-0.1,0-0.2,0.1-0.3c0-0.1,0-0.2,0.1-0.3c0.3-2.6,6.5-52.3,9.3-84.4v-0.1c0.8-9,1.3-16.7,1.3-21.6
			C510.4,231.3,464.3,185.1,407.6,185.1z M372.4,201h32.3l-4.1,47.4h-32.4L372.4,201z M151.3,437.4c-24.4,0-44.3-19.9-44.3-44.3
			c0-24.4,19.9-44.3,44.3-44.3s44.3,19.9,44.3,44.3C195.6,417.6,175.8,437.4,151.3,437.4z M397.2,437.4c-24.4,0-44.3-19.9-44.3-44.3
			c0-24.4,19.9-44.3,44.3-44.3c24.4,0,44.3,19.9,44.3,44.3C441.4,417.6,421.6,437.4,397.2,437.4z M485,385.3h-28.2
			c-3.9-29.5-29.2-52.2-59.6-52.2c-30.5,0-55.7,22.9-59.6,52.2H210.9c-3.9-29.5-29.2-52.2-59.6-52.2S95.5,356,91.6,385.3H65.3
			l6.6-68.5h283.1l0,0l0,0c0.3,0,0.5,0,0.8,0h0.1c0.2,0,0.4-0.1,0.6-0.1c0.1,0,0.2,0,0.2-0.1c0.1,0,0.3-0.1,0.4-0.1
			c0.1,0,0.2-0.1,0.3-0.1s0.3-0.1,0.4-0.1c0.1,0,0.2-0.1,0.3-0.1c0.1-0.1,0.2-0.1,0.3-0.2c0.1-0.1,0.2-0.1,0.3-0.2s0.2-0.1,0.3-0.2
			c0.1-0.1,0.2-0.1,0.3-0.2s0.2-0.1,0.3-0.2c0.1-0.1,0.2-0.1,0.3-0.2c0.1-0.1,0.2-0.2,0.3-0.3c0.1-0.1,0.2-0.1,0.2-0.2
			c0.1-0.1,0.2-0.2,0.3-0.3c0.1-0.1,0.1-0.2,0.2-0.2c0.1-0.1,0.2-0.2,0.2-0.3c0.1-0.1,0.1-0.2,0.2-0.2c0.1-0.1,0.1-0.2,0.2-0.3
			c0.1-0.1,0.1-0.2,0.1-0.3c0.1-0.1,0.1-0.2,0.2-0.4c0-0.1,0.1-0.2,0.1-0.3c0-0.1,0.1-0.2,0.1-0.4c0-0.1,0.1-0.2,0.1-0.3
			c0-0.1,0.1-0.2,0.1-0.4c0-0.1,0.1-0.2,0.1-0.4c0-0.1,0-0.2,0.1-0.4c0-0.1,0-0.2,0.1-0.4c0,0,0,0,0-0.1l4-45.4h40.8
			c24.2,0,35.1,12.5,46.7,25.8c9.6,10.9,20.2,23.1,38.2,26.1C490.3,340.4,486.5,371.7,485,385.3z M493.9,300.3
			c-11.7-2.4-18.9-10.6-27.6-20.7c-10.9-12.5-24.3-27.9-49.9-30.8l4.1-46.9c41.9,6.3,74.1,42.4,74.1,85.9
			C494.5,290.8,494.4,295.1,493.9,300.3z"/>
	</g>
</g>
<g id="XMLID_14_">
	<circle id="XMLID_20_" class="st1" cx="429.3" cy="393" r="82"/>
	<path id="XMLID_19_" class="st0" d="M489,390.6v4.9c0,3.3-2.7,5.9-5.9,5.9H375.7c-3.3,0-5.9-2.7-5.9-5.9v-4.9
		c0-3.3,2.7-5.9,5.9-5.9H483C486.3,384.7,489,387.4,489,390.6z"/>
	<path id="XMLID_18_" class="st0" d="M431.8,452.7h-4.9c-3.3,0-5.9-2.7-5.9-5.9V339.4c0-3.3,2.7-5.9,5.9-5.9h4.9
		c3.3,0,5.9,2.7,5.9,5.9v107.4C437.7,450,435,452.7,431.8,452.7z"/>
</g>
</svg>
