<?xml version="1.0"?>
<svg xmlns="http://www.w3.org/2000/svg" height="512px" viewBox="0 0 512 512.00112" width="512px" class=""><g><path d="m33.902344 232.734375h.164062c8.714844 0 17.066406-3.46875 23.21875-9.640625 23.566406-23.625 55.570313-36.902344 88.941406-36.902344h50.355469c8.703125 0 17.054688-3.464844 23.203125-9.628906l27.25-27.316406c20.996094-21.046875 49.5-32.871094 79.226563-32.871094 29.722656 0 58.230469 11.824219 79.222656 32.871094l50.457031 50.578125c6.148438 6.167969 14.503906 9.636719 23.214844 9.636719 18.15625.023437 32.855469 14.757812 32.832031 32.914062v223.082031c0 25.707031-20.839843 46.542969-46.542969 46.542969h-418.832031c-25.707031 0-46.5429685-20.835938-46.5429685-46.542969 0-.078125 0-.15625 0-.234375l-.0585937-198.585937c-.00781255-18.71875 15.1640622-33.898438 33.8789062-33.902344zm0 0" fill="#daefe6" data-original="#DAEFE6" class="" style="fill:#060606" data-old_color="#212121"/><path d="m504.9375 276.21875-12.917969-12.917969c-39.859375-40.382812-104.90625-40.808593-145.285156-.949219-.160156.15625-.316406.3125-.472656.46875l-32.085938 32.085938-65.214843-65.214844c-.152344-.152344-.304688-.300781-.460938-.449218-.144531-.152344-.292969-.304688-.445312-.457032l-13.921876-13.921875c-16.5-16.484375-42.558593-27.742187-65.628906-28.527343-1.125-.082032-2.242187-.125-3.304687-.125-.199219 0-.402344.003906-.601563.007812-.203125 0-.40625.003906-.609375.007812-3.445312.121094-6.882812.457032-10.285156 1.015626-3.3125.292968-6.601563.757812-9.863281 1.398437-3.871094.855469-7.6875 1.945313-11.425782 3.261719-3.109374.882812-6.167968 1.933594-9.164062 3.152344-4.179688 1.808593-8.230469 3.898437-12.128906 6.257812-2.367188 1.1875-4.65625 2.515625-6.863282 3.980469-6.039062 4.046875-11.671874 8.671875-16.816406 13.808593l-62.222656 62.222657-1.199219 1.195312c-9.09375 9.082031-9.105469 23.820313-.023437 32.914063 9.082031 9.09375 23.820312 9.105468 32.914062.023437.007813-.007812.015625-.015625.023438-.023437l.378906-.378906.222656-.21875.21875-.21875.191406-.195313.136719-.132813.050781-.054687 62.222657-62.222656c3.019531-3.007813 6.324219-5.71875 9.867187-8.089844.007813-.007813.019532-.011719.027344-.019531l.015625-.007813.011719-.011719.019531-.011718.011719-.003906.019531-.015626.007813-.003906c.277343-.183594.566406-.351562.859374-.511718h.003907l.019531-.015626.011719-.003906.015625-.011718.03125-.015626.027344-.015624c.347656-.1875.703124-.367188 1.054687-.542969l2.261719-1.242188c.015625-.007812.03125-.015625.050781-.027343l.003906-.003907c2.035157-1.242187 4.136719-2.363281 6.300781-3.359375l.003907-.003906c.019531-.007812.035156-.015625.054687-.023438l.007813-.003906.046875-.019531.015625-.007813.046875-.019531.011718-.003906.046876-.019531.015624-.007813c.015626-.003906.03125-.011719.046876-.019531l.011718-.003906c.015625-.007813.039063-.015625.058594-.023438.007812-.007812.023438-.011718.035156-.015625h.003906l.039063-.019531.019531-.007812c.523438-.214844 1.058594-.398438 1.601563-.570313.890625-.285156 2.203125-.6875 4.390625-1.371094.445312-.148437.886718-.300781 1.332031-.449219.019531-.007812.035156-.011718.050781-.015624l.046875-.015626.035157-.011718.015624-.007813c1.089844-.359375 2.179688-.703125 3.292969-.984375l.003907-.003906c.011718-.003906.027343-.003906.042968-.007812l.007813-.003907c.058593-.015625.117187-.027343.175781-.042969l.011719-.003906c.011719 0 .023437-.003906.039062-.007812l.011719-.003906.035156-.007813.011719-.003906c.039063-.011719.082031-.019531.117187-.027344l.019532-.003906.03125-.011719.023437-.003906c.007813-.003906.019531-.003906.03125-.007813l.019531-.003906c.011719-.003906.023438-.003906.03125-.007813l.027344-.003906c.015625-.003906.03125-.007812.046875-.011718.007813-.003907.015625-.003907.027344-.007813l.027344-.007813c.007812 0 .015625 0 .027343-.003906l.023438-.003906c.011719-.003906.019531-.003906.03125-.007812l.023438-.003907.03125-.007812.019531-.003907c.019531-.003906.035156-.007812.050781-.011718l.023438-.007813c.011718 0 .019531-.003906.03125-.003906l.023437-.007813.03125-.003906.023437-.003906c.011719-.003906.023438-.007812.035157-.007812l.019531-.003907c.015625-.007812.035156-.011719.050781-.011719l.039063-.011718h.003906l.035156-.007813h.011719l.023437-.003906c.554688-.113281 1.117188-.195313 1.683594-.265625 1.074219-.136719 2.703125-.320312 5.609375-.664062 1.445313-.253907 2.910157-.417969 4.375-.484376h.023438c.113281.003907.222656.015626.335937.039063l.007813-.050781c.109375-.007813.21875-.011719.328125-.019532h.019531l.058594-.003906v.113282c.453125 0 .910156.007812 1.375.03125 10.042969.449218 22.726562 5.691406 30.878906 12.222656 1.054687.835937 2.0625 1.734375 3.015625 2.683594l.015625.015624.058594.054688.011719.011719.007812.011719.015625.011718c.070313.070313.171875.171875.300781.304688l.019532.015625.179687.179687c.007813.007813.015625.015625.023437.023438l.046876.050781c.007812.003906.015624.011719.019531.019531l.027343.023438c.027344.027344.054688.058594.085938.085937l.027344.027344c.113281.117187.238281.242187.371094.371094l.023437.027343c.027344.023438.054687.050782.082031.078126l.015625.019531.308594.308593.015625.011719.160156.160157.0625.066406.195313.191406.011719.015625c.03125.027344.058593.058594.089843.085937l.019531.019532c.007813.007812.015626.019531.027344.027344l.011719.015624.230469.230469.027344.023438.242187.242187c.007813.007813.015625.015625.023437.023438l.027344.03125.722656.722656.015626.011719.027343.03125.023438.019531.023437.027344.027344.023437.019531.019531.03125.035157.105469.101562.042969.046875.097656.097656.050781.046876.046875.046874.144531.148438c.015626.015625.03125.03125.046876.046875h.003906l.144531.144531.042969.046875.203125.203125c.070312.066406.136719.136719.203125.203125l.007812.003907.035156.039062.019532.015625c.007812.007813.015625.015625.023437.027344l.019531.015625c.058594.0625.117188.121094.179688.179687l.007812.007813c.007813.011718.019532.019531.027344.03125l.035156.03125c.011719.015625.027344.03125.039063.042968l.027344.023438.046875.046875.019531.019531.046875.050782.011719.011718.089843.085938v.003906c.050782.050781.101563.101562.152344.148438l.03125.03125c.128906.132812.257813.257812.382813.386718l.046875.046875c.023437.019531.042968.039063.0625.0625l.070312.066407.011719.011718.03125.035156c.035156.03125.066406.066407.101563.101563l.035156.035156.03125.027344c.035156.035156.070312.070313.105468.105469l.023438.027344.28125.28125.003906.003906c.011719.011718.023438.023437.035156.03125l.003907.007812c.066406.066406.132812.132813.195312.195313l.003907.003906c.023437.019531.042968.042969.0625.0625l.019531.015625c.019531.023438.039062.042969.058593.0625l.109376.109375c.039062.039063.078124.078125.117187.113281l.007813.007813c.015624.019531.035156.039062.054687.058593.136719.136719.257813.257813.359375.359376l.078125.078124c.011719.011719.019531.019532.03125.03125l.003906.003907c.019531.019531.035157.035156.054688.050781l.015625.019531.015625.015625c.042969.042969.082031.082032.109375.109375l.035156.035157c.019531.019531.03125.03125.039062.035156v.003906l5.695313 5.695312c.152344.152344.304687.300782.460937.445313.144532.15625.292969.308594.445313.460937.230469.226563 20.921875 20.921876 39.066406 39.066407l26.707031 26.707031 1.476563 1.472656 2.082031 2.085938 6.851563 6.851562 1.476562 1.472656.554688.558594c11 10.996094 28.828125 10.996094 39.824219 0l.011718-.007812.019532-.019532v-.003906l.058593-.054687.015625-.019531.015625-.011719.023438-.027344.023437-.023437.011719-.007813.050781-.054687.097656-.097657.652344-.648437.003906-.007813.265626-.261719.066406-.066406v-.003906l.355468-.355469.035157-.03125.085937-.089843.234375-.234376.066407-.0625c.027343-.027343.054687-.058593.085937-.089843l.496094-.496094.078125-.074219.054687-.058594.691407-.691406c.027343-.023437.050781-.050781.074218-.074218l.789063-.789063c.058593-.054687.113281-.109375.167969-.167969l.074218-.070312c.027344-.03125.054688-.058594.082032-.085938l.011718-.007812.042969-.046875.464844-.460938.113281-.113281v-.003906l.210938-.210938c.101562-.101562.203124-.203125.308593-.304687l.035157-.039063.105468-.101562.148438-.152344.140625-.140625.015625-.011719c.019531-.019531.042968-.042968.0625-.066406l.035156-.03125.121094-.121094.070312-.074218.007813-.007813.367187-.363281.050782-.050782.128906-.132812.136718-.136719.042969-.039062c.015625-.019531.035157-.035157.050781-.054688l1.5-1.5.027344-.023437c.03125-.035156.066406-.066406.097656-.101563l.367188-.363281.304688-.304688v-.003906l.074218-.070312.152344-.15625c.019531-.019532.042969-.042969.066406-.0625l.082032-.085938.035156-.03125.113281-.117187c.027344-.023438.050781-.050781.078125-.078125l.421875-.421875.085937-.082031.804688-.804688c.039062-.042969.078125-.082031.117188-.121094l.070312-.070312c.019531-.015625.039062-.035156.058594-.054688l.082031-.085937c.070313-.070313.140625-.136719.210937-.207031l.207032-.207032.011718-.015625.125-.125c.035157-.03125.070313-.066406.105469-.101562l.195313-.195313.070312-.074218.476563-.472657.039062-.039062c.023438-.027344.050781-.050781.074219-.074219l.039062-.042969c.242188-.238281.488282-.484375.734376-.730469l.019531-.023437c.101562-.097656.203125-.199219.304687-.300781l.027344-.027344.25-.25.210938-.214844c.039062-.035156.082031-.078125.121093-.117187l.207031-.207031.105469-.105469.15625-.15625c.019531-.019531.035157-.035157.050781-.054688l.078126-.074219.074218-.074218.054688-.058594.316406-.3125.011719-.011719.09375-.09375.035156-.035156c.019531-.019531.039063-.042969.0625-.0625l.066406-.066406.03125-.03125.292969-.292969.199219-.199219.121093-.125.257813-.257812.109375-.105469.019531-.023438c.113281-.109374.226563-.222656.339844-.335937l.304687-.304687.132813-.132813.507813-.507813c.128906-.128906.257812-.253906.382812-.386718l.066406-.0625c.0625-.0625.121094-.125.183594-.183594l.136719-.136719.0625-.0625.445312-.445312.644531-.644531c.050782-.054688.101563-.101563.152344-.152344l.105469-.105469c.03125-.03125.0625-.0625.089844-.09375l.167969-.164063.527343-.527343.316407-.3125.070312-.074219.121094-.121094c.136718-.136718.269531-.269531.402344-.40625l.054687-.050781.15625-.15625.105469-.105469c.078125-.082031.160156-.160156.238281-.242187l.023437-.019531c.027344-.027344.058594-.058594.085938-.089844l.046875-.042969.796875-.796875.0625-.0625c.097656-.097656.195312-.199219.296875-.296875l.035156-.035156c.050781-.050781.097657-.097657.144531-.148438l.125-.121093.171876-.171876.027343-.027343c.144531-.148438.289063-.289063.433594-.433594l.109375-.113281c.023438-.019532.042969-.042969.0625-.0625l.214844-.210938.207031-.207031c.042969-.046875.089844-.09375.136719-.136719l.140625-.140625.074219-.074219.066406-.066406c.109375-.113281.226562-.226562.335937-.339844l.226563-.222656c.085937-.089844.179687-.179687.265625-.269531l.164062-.160156.308594-.3125.050781-.050781c.046875-.046876.097656-.09375.144532-.140626l.300781-.300781c.011719-.011719.027343-.027343.039062-.042969l.183594-.183593.007813-.003907.140624-.144531c.050782-.046875.097657-.09375.144532-.140625l.394531-.398437.007813-.003907.226562-.230468c.007812-.007813.015625-.015625.023438-.023438l.054687-.054687.246094-.242188.15625-.15625.015625-.019531.0625-.0625c.019531-.015625.035156-.03125.050781-.050781l.035156-.03125.808594-.808594.035156-.039063c.070313-.070312.140625-.136718.207031-.203124l.074219-.078126.03125-.027343.046875-.046875c.039063-.042969.082032-.085938.125-.128906l.058594-.054688.027344-.027344.0625-.066406c.0625-.0625.121094-.121094.183594-.183594l.101562-.101562c.019531-.015625.039062-.035156.054688-.054688l.027343-.023437c.09375-.09375.183594-.183594.273438-.277344l.042969-.039063c.03125-.035156.066406-.070312.101562-.105468l.105469-.101563.300781-.304687.023438-.019532c.011718-.015624.027343-.027343.042968-.042968l.066406-.066406.585938-.589844.023438-.019532c.027343-.03125.058593-.058593.085937-.089843l.046875-.042969.007812-.011719.132813-.128906.085937-.085937.058594-.058594.082032-.082032.070312-.070312c.007812-.011719.019531-.015625.027344-.023438l.046875-.054687c.058593-.054687.117187-.113281.171875-.167969l.367187-.367187.070313-.070313.078125-.074218.003906-.007813.148437-.148437c.015626-.011719.027344-.027344.042969-.042969l.085938-.085938c.03125-.03125.0625-.066406.097656-.097656l.519531-.519531.125-.121094.085938-.089844c.015625-.015625.03125-.035156.050781-.050781l.128906-.128906.207031-.207031.089844-.089844.183594-.183594.054688-.054688c.023437-.023437.050781-.046874.070312-.074218l.019531-.015625.121094-.121094c.046875-.046875.09375-.097656.140625-.140625l.007812-.007812c.027344-.027344.054688-.058594.085938-.085938l.363281-.363281.070313-.070313.046875-.046875.039062-.042969.023438-.019531.417969-.417969c.027343-.027343.054687-.054687.074218-.078124l.015625-.011719.058594-.058594.050781-.050781.203125-.203125.035157-.035157.097656-.097656.023437-.027344.011719-.007812.125-.121094c.003906-.007812.011719-.015625.015625-.019531l.121094-.121094.023437-.019531c.070313-.074219.148438-.152344.230469-.234375l.085937-.085937.03125-.03125.101563-.101563c.007813-.011719.019531-.019531.027344-.027344l.054687-.054687.128906-.128906.003907-.003907.078125-.078125.230468-.230468.0625-.0625.023438-.027344.03125-.027344.585938-.585938.019531-.023437.003906-.003906.074219-.070313.089844-.089844.179687-.183593.058594-.054688.054687-.054687c.019532-.019532.039063-.042969.0625-.0625l.070313-.070313c.015625-.019531.039062-.039062.058593-.058593l.074219-.074219.082031-.082031.023438-.023438c.027344-.03125.058594-.058594.085938-.085938l.074218-.074218c.015625-.015625.035156-.035156.050782-.054688l.027343-.023437.320313-.320313c.015625-.019531.035156-.035156.050781-.054687l.1875-.1875.050781-.046875.363282-.363282.039062-.042968.03125-.027344.183594-.183594c.023437-.027344.050781-.050781.078125-.078125l.027343-.027343c.011719-.011719.023438-.023438.035157-.039063l.058593-.058594.066407-.0625.023437-.027343.027344-.027344h.003906l.109375-.109375.046875-.050781.070313-.066407.035156-.039062.054687-.050781.105469-.105469.03125-.035157.050781-.046874c.011719-.011719.023438-.027344.039063-.039063l.011719-.015625.039062-.039062.175782-.171876.007812-.011718.046875-.042969.050781-.050781.023438-.027344.078125-.078125h.003906l.347656-.347656.046875-.050781.03125-.03125.082032-.078126.046874-.046874.003907-.007813.070312-.070313.011719-.007812.023438-.027344.082031-.078125.027343-.027343.03125-.035157.019532-.019531.042968-.039062.011719-.015626.007813-.003906.019531-.019531v-.003906l.027344-.023438c10.535156-10.535156 24.824219-16.457031 39.726562-16.457031h.175781c14.839844.046875 29.058594 5.960938 39.550782 16.457031l.394531.394531.027344.023438.039062.039062.019531.023438.515626.515625.53125.527344.605468.609375.609375.605468.527344.53125.515625.515626c.195312.195312.394531.394531.597656.59375 1.121094 1.125 2.355469 2.359374 3.566406 3.566406.195313.195312.386719.390625.578126.582031l.210937.207031.550781.554688.78125.777344 1.789063 1.789062.777343.78125.554688.550781.207031.210938c9.089844 9.085937 23.824219 9.085937 32.914063-.003907 9.089844-9.09375 9.089844-23.824218.003906-32.914062zm0 0" fill="#c0e6d9" data-original="#C0E6D9" class="" style="fill:#060606" data-old_color="#FFFFFF"/><path d="m162.90625.0117188c12.851562 0 23.273438 10.4179692 23.273438 23.2734372v232.722656c0 12.851563-10.421876 23.269532-23.273438 23.269532s-23.273438-10.417969-23.273438-23.269532v-232.722656c0-12.855468 10.421876-23.2734372 23.273438-23.2734372zm0 0" fill="#e08995" data-original="#E08995"/><path d="m162.90625.0117188c12.851562 0 23.273438 10.4179692 23.273438 23.2734372v232.722656c0 12.851563-10.421876 23.269532-23.273438 23.269532s-23.273438-10.417969-23.273438-23.269532v-232.722656c0-12.855468 10.421876-23.2734372 23.273438-23.2734372zm0 0" fill="#f0a319" data-original="#F0A319" class="" style="fill:#F7F733" data-old_color="#f7f733"/><path d="m186.179688 209.460938c0 12.855468-10.421876 23.273437-23.273438 23.273437s-23.273438-10.417969-23.273438-23.273437c0-12.851563 10.421876-23.269532 23.273438-23.269532s23.273438 10.417969 23.273438 23.269532zm0 0" fill="#db6600" data-original="#DB6600" class="" style="fill:#F7F733" data-old_color="#f7f733"/><path d="m467.15625 304.261719c-1.609375-1.605469-3.296875-3.296875-4.742188-4.742188l-3.367187-3.367187-.027344-.023438v-.003906l-.136719-.136719h-.003906l-.085937-.089843h-.003907l-.160156-.164063c-21.941406-21.941406-57.515625-21.941406-79.457031 0l-6.816406 6.816406-38.269531 38.265625c-10.996094 11-28.828126 11-39.824219 0l-13-12.996094-70.398438-70.402343-9.652343-9.652344c-8.058594-8.054687-23.792969-14.960937-35.339844-14.929687-.21875 0-.480469-.085938-.695313-.078126-2.171875.054688-4.277343.511719-6.421875.78125-1.785156.226563-3.605468.289063-5.359375.65625-2.464843.59375-4.894531 1.332032-7.273437 2.207032-1.589844.53125-3.238282.886718-4.777344 1.539062-2.574219 1.167969-5.070312 2.5-7.472656 3.988282-1.199219.699218-2.492188 1.214843-3.648438 1.992187-3.542968 2.371094-6.847656 5.082031-9.867187 8.089844l-62.222657 62.226562-44.5 44.496094c-8.726562 8.730469-13.632812 20.566406-13.632812 32.914063v73.808593c0 25.703125 20.839844 46.542969 46.546875 46.542969h418.898437c25.703126 0 46.542969-20.839844 46.542969-46.542969v-97.082031c0-12.34375-4.902343-24.183594-13.632812-32.914062zm0 0" fill="#9fd9c5" data-original="#9FD9C5" class="" style="fill:#010101" data-old_color="#101111"/><path d="m511.988281 465.457031v-97.082031c0-12.34375-4.902343-24.183594-13.632812-32.914062l-31.199219-31.199219c-1.609375-1.605469-3.296875-3.296875-4.742188-4.742188l-3.53125-3.53125h-.003906l-.085937-.089843-.164063-.164063c-21.941406-21.941406-57.515625-21.941406-79.457031 0l-45.085937 45.085937c-10.996094 10.996094-28.824219 10.996094-39.824219 0l-91.628907-91.628906c-4.429687-4.328125-9.546874-7.886718-15.140624-10.535156-2.199219-1.050781-4.457032-1.972656-6.761719-2.761719-2.144531-.796875-4.332031-1.464843-6.558594-1.992187-.617187-.136719-1.171875-.121094-1.78125-.230469-2.683594-.464844-5.402344-.734375-8.128906-.804687-1.851563.136718-3.671875.441406-5.507813.671874-1.785156.226563-3.605468.289063-5.359375.65625-2.464843.59375-4.894531 1.332032-7.273437 2.207032-1.589844.53125-3.238282.886718-4.777344 1.539062-2.574219 1.167969-5.070312 2.5-7.472656 3.988282-1.199219.699218-2.492188 1.214843-3.648438 1.992187-3.542968 2.371094-6.847656 5.082031-9.867187 8.09375l-62.222657 62.222656-11.589843 11.585938c-12.851563 12.851562-12.851563 33.691406 0 46.542969 12.855469 12.851562 33.691406 12.851562 46.546875 0l52.363281-52.363282c9.636719-9.636718 25.265625-9.640625 34.90625 0l191.996094 191.996094h93.089843c25.703126 0 46.542969-20.839844 46.542969-46.542969zm0 0" fill="#70c5aa" data-original="#70C5AA" class="" style="fill:#060606" data-old_color="#212121"/><path d="m23.273438 372.367188c-12.855469-.003907-23.26953175-10.421876-23.26953175-23.277344 0-6.167969 2.45312475-12.085938 6.81640575-16.449219l99.90625-99.90625c29.996094-30.023437 82.359376-30.023437 112.359376 0 7.628906 7.292969 19.644531 7.292969 27.273437 0l225.902344-225.90625c9.082031-9.09375 23.8125-9.105469 32.910156-.027344 9.09375 9.078125 9.105469 23.8125.027344 32.910157-.007813.007812-.019531.019531-.027344.027343l-225.90625 225.902344c-24.863281 24.886719-68.222656 24.886719-93.085937 0-12.25-12.25-34.296876-12.25-46.546876 0l-99.90625 99.910156c-4.359374 4.371094-10.28125 6.824219-16.453124 6.816407zm0 0" fill="#593558" data-original="#593558" class="" style="fill:#F7F733" data-old_color="#f7f733"/><g fill="#724d71"><path d="m395.628906 139.644531c-12.855468 0-23.269531-10.421875-23.269531-23.273437 0-6.171875 2.453125-12.089844 6.8125-16.453125l69.816406-69.816407c9.089844-9.085937 23.824219-9.085937 32.910157 0 9.085937 9.089844 9.085937 23.820313 0 32.910157l-69.816407 69.816406c-4.359375 4.371094-10.28125 6.824219-16.453125 6.816406zm0 0" data-original="#000000" class="" style="fill:#F7F733" data-old_color="#f7f733"/><path d="m325.8125 209.460938c-12.855469 0-23.273438-10.421876-23.269531-23.273438 0-6.171875 2.453125-12.089844 6.8125-16.453125l23.273437-23.269531c9.082032-9.097656 23.8125-9.109375 32.910156-.027344 9.09375 9.078125 9.105469 23.8125.027344 32.90625-.011718.007812-.019531.019531-.027344.027344l-23.273437 23.273437c-4.359375 4.371094-10.28125 6.824219-16.453125 6.816407zm0 0" data-original="#000000" class="" style="fill:#F7F733" data-old_color="#f7f733"/><path d="m488.714844 116.375c-12.851563-.003906-23.269532-10.421875-23.269532-23.273438v-46.546874h-46.546874c-12.851563-.007813-23.265626-10.429688-23.257813-23.285157.007813-12.839843 10.417969-23.2499998 23.257813-23.2578122h69.816406c12.855468 0 23.273437 10.4179692 23.273437 23.2734372v69.816406c0 12.851563-10.417969 23.269532-23.273437 23.273438zm0 0" data-original="#000000" class="" style="fill:#F7F733" data-old_color="#f7f733"/></g><path d="m139.632812 46.554688c0-12.851563 10.421876-23.269532 23.273438-23.269532h112.585938c14.9375 0 27.046874 12.109375 27.046874 27.046875 0 11.644531-7.449218 21.980469-18.496093 25.660157l-20.238281 6.75c-5.722657 1.90625-8.816407 8.089843-6.910157 13.8125 1.089844 3.261718 3.648438 5.820312 6.910157 6.90625l20.238281 6.746093c11.046875 3.683594 18.496093 14.019531 18.496093 25.660157 0 14.9375-12.109374 27.050781-27.046874 27.050781h-112.585938c-12.851562 0-23.273438-10.421875-23.273438-23.273438zm0 0" fill="#b13b39" data-original="#B13B39" class="" style="fill:#FF0001" data-old_color="#B13B39"/><path d="m162.90625 23.285156c12.851562 0 23.273438 10.417969 23.273438 23.269532v93.089843c0 12.855469-10.421876 23.273438-23.273438 23.273438s-23.273438-10.417969-23.273438-23.273438v-93.089843c0-12.851563 10.421876-23.269532 23.273438-23.269532zm0 0" fill="#c26765" data-original="#C26765" class="active-path" style="fill:#800001" data-old_color="#FF0001"/><path d="m197.8125 69.828125c6.429688 0 11.636719 5.210937 11.636719 11.636719v69.816406c0 6.425781-5.207031 11.636719-11.636719 11.636719-6.425781 0-11.632812-5.210938-11.632812-11.636719v-69.816406c0-6.425782 5.207031-11.636719 11.632812-11.636719zm0 0" fill="#9c0503" data-original="#9C0503" class="" style="fill:#FF0001" data-old_color="#9C0503"/></g> </svg>
