<?xml version="1.0" encoding="utf-8"?>
<!-- Generator: Adobe Illustrator 19.0.0, SVG Export Plug-In . SVG Version: 6.00 Build 0)  -->
<svg version="1.1" id="Capa_1" xmlns="http://www.w3.org/2000/svg" xmlns:xlink="http://www.w3.org/1999/xlink" x="0px" y="0px"
	 viewBox="-95 17 448 448" style="enable-background:new -95 17 448 448;" xml:space="preserve">
<style type="text/css">
	.st0{fill:#F7F4FF;}
</style>
<g>
	<path id="rect4534" class="st0" d="M129,17C61.1,17,3.7,20.7-4.8,25.7c-15,5.1-26.2,39-26.2,79.3v20h-4.1c-0.4-0.9-1-1.8-1.6-2.5
		c1.7-1.9,2.7-4.6,2.7-7.5v-10c0-5.5-3.6-10-8-10h-16c-4.4,0-8,4.5-8,10v10c0,2.9,1,5.6,2.7,7.5c-1.7,1.9-2.7,4.6-2.7,7.5v50
		c0,5.5,3.6,10,8,10h16c2.9,0,5.5-1.9,6.9-5h4.1v90c0,3.6,3.8,6.9,10,8.6v11.7c-8.8,1.1-15,5.1-15,9.7v100c0,14.3,3.8,27.5,10,34.6
		v17.2c0,4.5,3.7,8.2,8.2,8.2h33.6c4.5,0,8.2-3.7,8.2-8.2V445h210v11.8c0,4.5,3.7,8.2,8.2,8.2h33.6c4.5,0,8.2-3.7,8.2-8.2v-17.2
		c6.2-7.1,10-20.3,10-34.6V305c0-4.6-6.2-8.5-15-9.7v-11.7c6.2-1.8,10-5.1,10-8.6v-90h4.1c1.4,3.1,4.1,5,6.9,5h16c4.4,0,8-4.5,8-10
		v-50c0-2.9-1-5.6-2.7-7.5c1.7-1.9,2.7-4.6,2.7-7.5v-10c0-5.5-3.6-10-8-10h-16c-4.4,0-8,4.5-8,10v10c0,2.9,1,5.6,2.7,7.5
		c-0.7,0.7-1.2,1.6-1.6,2.5H289v-20c0-40.5-11.3-74.5-26.4-79.4C253.4,20.7,196.4,17,129,17z M-8.2,75H7.6h34.5h173.7h34.5h15.8
		c4.8,0,8.9,3.4,9.8,8.1c2,10.2,3,21.2,3,32.4l0,0V185c0,5.5-4.5,10-10,10h-28H17h-28c-5.5,0-10-4.5-10-10v-69.6l0,0
		c0-11.2,1-22.2,3-32.4C-17,78.4-12.9,75-8.2,75z M4,295h21.4c2.7,0,4.8,2.1,5,4.7l3.6,65c0.2,2.9-2.1,5.3-5,5.3H4c-2.8,0-5-2.2-5-5
		v-65C-1,297.2,1.2,295,4,295L4,295z M232.6,295H254c2.8,0,5,2.2,5,5v65c0,2.8-2.2,5-5,5h-25c-2.9,0-5.1-2.4-5-5.3l3.6-65
		C227.7,297.1,229.9,295,232.6,295z M46.5,307h165c1.4,0,2.5,1.1,2.5,2.5v3c0,1.4-1.1,2.5-2.5,2.5h-165c-1.4,0-2.5-1.1-2.5-2.5v-3
		C44,308.1,45.1,307,46.5,307L46.5,307z M47.5,325h163c1.4,0,2.5,1.1,2.5,2.5v3c0,1.4-1.1,2.5-2.5,2.5h-163c-1.4,0-2.5-1.1-2.5-2.5
		v-3C45,326.1,46.1,325,47.5,325L47.5,325z M48.5,343h161c1.4,0,2.5,1.1,2.5,2.5v3c0,1.4-1.1,2.5-2.5,2.5h-161
		c-1.4,0-2.5-1.1-2.5-2.5v-3C46,344.1,47.1,343,48.5,343L48.5,343z M49.5,361h159c1.4,0,2.5,1.1,2.5,2.5v3c0,1.4-1.1,2.5-2.5,2.5
		h-159c-1.4,0-2.5-1.1-2.5-2.5v-3C47,362.1,48.1,361,49.5,361L49.5,361z"/>
</g>
</svg>
