<svg height="511pt" viewBox="1 -8 511.99995 511" width="511pt" xmlns="http://www.w3.org/2000/svg"><path d="m156.203125 356.296875h208.273437v138.847656h-208.273437zm0 0" fill="#ea9d2d"/><path d="m364.476562 356.296875h-208.273437l34.710937-86.78125h138.847657zm0 0" fill="#c38325"/><path d="m156.203125 356.296875h-60.746094l34.710938-86.78125h60.746093zm0 0" fill="#f7ba61"/><path d="m364.476562 356.296875h60.742188l-34.710938-86.78125h-60.746093zm0 0" fill="#f7ba61"/><path d="m286.371094 417.042969-26.03125-8.679688-26.035156 8.679688v-60.746094h52.066406zm0 0" fill="#f55648"/><path d="m338.441406 460.433594h-43.390625c-4.792969 0-8.679687-3.886719-8.679687-8.679688 0-4.792968 3.886718-8.679687 8.679687-8.679687h43.390625c4.792969 0 8.675782 3.886719 8.675782 8.679687 0 4.792969-3.882813 8.679688-8.675782 8.679688zm0 0" fill="#c38325"/><path d="m190.914062 269.515625h138.847657v86.78125h-138.847657zm0 0" fill="#da922a"/><path d="m485.964844 148.023438c0 23.964843-19.425782 43.390624-43.386719 43.390624-23.964844 0-43.390625-19.425781-43.390625-43.390624 0-23.960938 19.425781-43.386719 43.390625-43.386719 23.960937 0 43.386719 19.425781 43.386719 43.386719zm0 0" fill="#f7ba61"/><path d="m459.933594 191.414062c0 23.964844-19.425782 43.390626-43.390625 43.390626-23.964844 0-43.390625-19.425782-43.390625-43.390626 0-23.960937 19.425781-43.390624 43.390625-43.390624 23.964843 0 43.390625 19.429687 43.390625 43.390624zm0 0" fill="#6cbae5"/><path d="m512 191.414062c0 23.964844-19.425781 43.390626-43.390625 43.390626-23.960937 0-43.390625-19.425782-43.390625-43.390626 0-23.960937 19.429688-43.390624 43.390625-43.390624 23.964844 0 43.390625 19.429687 43.390625 43.390624zm0 0" fill="#f55648"/><path d="m425.566406 187.945312c.964844-12.304687 7.15625-23.609374 17.011719-31.042968-12.316406-9.453125-28.773437-11.523438-43.042969-5.40625 1.234375 16.042968 11.257813 30.078125 26.03125 36.449218zm0 0" fill="#89b140"/><path d="m442.578125 156.902344c9.851563 7.433594 16.042969 18.738281 17.007813 31.042968 14.773437-6.371093 24.796874-20.40625 26.035156-36.449218-14.269532-6.117188-30.730469-4.046875-43.042969 5.40625zm0 0" fill="#f27e55"/><path d="m459.933594 191.414062c0-1.1875-.261719-2.308593-.347656-3.46875-10.867188 4.628907-23.152344 4.628907-34.019532 0-.085937 1.160157-.347656 2.28125-.347656 3.46875.027344 13.597657 6.460938 26.382813 17.355469 34.511719 10.898437-8.128906 17.332031-20.914062 17.359375-34.511719zm0 0" fill="#d970a2"/><path d="m442.578125 156.902344c-9.855469 7.433594-16.046875 18.738281-17.011719 31.042968 10.867188 4.628907 23.152344 4.628907 34.019532 0-.964844-12.304687-7.15625-23.609374-17.007813-31.042968zm0 0" fill="#3bd6d0"/><path d="m260.339844 199.839844-60.746094-49.089844 60.746094-49.089844 60.746094 49.089844zm0 0" fill="#f7ba61"/><path d="m260.339844 150.75-60.746094-49.089844 60.746094-49.09375 60.746094 49.09375zm0 0" fill="#aedee2"/><path d="m260.339844 98.683594-60.746094-49.09375 60.746094-49.089844 60.746094 49.089844zm0 0" fill="#d970a2"/><path d="m104.136719 130.667969c.09375-23.960938-19.253907-43.464844-43.214844-43.5625-23.964844-.097657-43.46875 19.253906-43.566406 43.214843-.054688 13.820313 6.476562 26.84375 17.589843 35.0625h-.234374v43.386719h52.070312v-43.386719h-.234375c11.035156-8.128906 17.5625-21.007812 17.589844-34.714843zm0 0" fill="#f7ba61"/><path d="m60.746094 208.769531c-4.792969 0-8.679688-3.882812-8.679688-8.675781v-60.746094c0-4.792968 3.886719-8.679687 8.679688-8.679687 4.792968 0 8.679687 3.886719 8.679687 8.679687v60.746094c-.003906 4.792969-3.886719 8.675781-8.679687 8.675781zm0 0" fill="#ea9d2d"/><path d="m60.746094 148.023438c-9.585938 0-17.355469-7.769532-17.355469-17.355469 0-9.582031 7.769531-17.355469 17.355469-17.355469 9.585937 0 17.355468 7.773438 17.355468 17.355469 0 9.585937-7.769531 17.355469-17.355468 17.355469zm0 0" fill="#ea9d2d"/><path d="m34.710938 200.09375h52.070312v8.675781c0 14.378907-11.65625 26.035157-26.035156 26.035157s-26.035156-11.65625-26.035156-26.035157zm0 0" fill="#6fbbc6"/><path d="m147.523438 139.347656h17.359374v17.355469h-17.359374zm0 0" fill="#aedee2"/><g fill="#f7ba61"><path d="m52.066406 43.890625h17.355469v17.355469h-17.355469zm0 0"/><path d="m104.136719 61.246094h17.355469v17.355468h-17.355469zm0 0"/><path d="m0 61.246094h17.355469v17.355468h-17.355469zm0 0"/></g><path d="m251.660156 226.128906h17.355469v17.355469h-17.355469zm0 0" fill="#aedee2"/><path d="m364.476562 78.601562h17.355469v17.355469h-17.355469zm0 0" fill="#aedee2"/></svg>