<?xml version="1.0" encoding="iso-8859-1"?>
<!-- Generator: Adobe Illustrator 19.1.0, SVG Export Plug-In . SVG Version: 6.00 Build 0)  -->
<svg version="1.1" id="Capa_1" xmlns="http://www.w3.org/2000/svg" xmlns:xlink="http://www.w3.org/1999/xlink" x="0px" y="0px"
	 viewBox="0 0 448.001 448.001" style="enable-background:new 0 0 448.001 448.001;" xml:space="preserve">
<g>
	<path id="rect4534" d="M224.001,0C156.058,0.005,98.75,3.749,90.204,8.742C75.239,13.834,64.02,47.77,64.001,88v20h-4.084
		c-0.433-0.94-0.986-1.786-1.637-2.504c1.726-1.895,2.717-4.625,2.721-7.496V88c0-5.523-3.582-9.999-8-10h-16
		c-4.418,0.001-8,4.477-8,10v10c0.002,2.874,0.993,5.607,2.721,7.504c-1.726,1.895-2.717,4.625-2.721,7.496v50
		c0,5.523,3.582,9.999,8,10h16c2.854-0.005,5.491-1.91,6.918-5h4.082v90c0.008,3.568,3.819,6.864,10,8.648v11.678
		c-8.824,1.139-14.992,5.117-15,9.674v100c0.008,14.275,3.819,27.46,10,34.598v17.184c0,4.539,3.68,8.219,8.219,8.219h33.562
		c4.539,0,8.219-3.68,8.219-8.219V428h210v11.781c0,4.539,3.68,8.219,8.219,8.219h33.562c4.539,0,8.219-3.68,8.219-8.219v-17.197
		c6.179-7.135,9.99-20.314,10-34.584V288c-0.011-4.555-6.179-8.531-15-9.67v-11.684c6.18-1.784,9.99-5.079,10-8.646v-90h4.082
		c1.427,3.09,4.064,4.995,6.918,5h16c4.418-0.001,8-4.477,8-10v-50c-0.004-2.871-0.995-5.601-2.721-7.496
		c1.727-1.897,2.718-4.63,2.721-7.504V88c0-5.523-3.582-9.999-8-10h-16c-4.418,0.001-8,4.477-8,10v10
		c0.004,2.871,0.995,5.601,2.721,7.496c-0.651,0.718-1.203,1.564-1.637,2.504H384V88c-0.013-40.451-11.346-74.512-26.406-79.357
		C348.443,3.695,291.417,0.006,224.001,0z M86.844,58h15.822h34.475h173.703h34.49h15.807c4.776,0.001,8.886,3.378,9.811,8.064
		c2.011,10.19,3.036,21.196,3.049,32.359v0.012V168c-0.001,5.523-4.477,9.999-10,10h-28H112.001h-28c-5.523-0.001-9.999-4.477-10-10
		V98.436v-0.008c0.007-11.16,1.026-22.165,3.031-32.357C77.954,61.381,82.065,58,86.844,58z M99,278h21.428
		c2.656-0.001,4.849,2.075,4.994,4.727l3.57,65c0.157,2.864-2.124,5.273-4.992,5.273h-25c-2.761,0-5-2.239-5-5v-65
		C94.001,280.239,96.24,278,99,278L99,278z M327.573,278H349c2.761,0,5,2.239,5,5v65c0,2.761-2.239,5-5,5h-25
		c-2.869,0-5.149-2.409-4.992-5.273l3.57-65C322.724,280.075,324.917,278,327.573,278z M141.5,290h165c1.381,0,2.5,1.119,2.5,2.5v3
		c0,1.381-1.119,2.5-2.5,2.5h-165c-1.381,0-2.5-1.119-2.5-2.5v-3C139.001,291.12,140.12,290,141.5,290L141.5,290z M142.5,308h163
		c1.381,0,2.5,1.119,2.5,2.5v3c0,1.381-1.119,2.5-2.5,2.5h-163c-1.381,0-2.5-1.119-2.5-2.5v-3C140.001,309.12,141.12,308,142.5,308
		L142.5,308z M143.5,326h161c1.381,0,2.5,1.119,2.5,2.5v3c0,1.381-1.119,2.5-2.5,2.5h-161c-1.381,0-2.5-1.119-2.5-2.5v-3
		C141.001,327.12,142.12,326,143.5,326L143.5,326z M144.5,344h159c1.381,0,2.5,1.119,2.5,2.5v3c0,1.381-1.119,2.5-2.5,2.5h-159
		c-1.381,0-2.5-1.119-2.5-2.5v-3C142.001,345.12,143.12,344,144.5,344L144.5,344z"/>
</g>
<g>
</g>
<g>
</g>
<g>
</g>
<g>
</g>
<g>
</g>
<g>
</g>
<g>
</g>
<g>
</g>
<g>
</g>
<g>
</g>
<g>
</g>
<g>
</g>
<g>
</g>
<g>
</g>
<g>
</g>
</svg>
