<?xml version="1.0" encoding="utf-8"?>
<!-- Generator: Adobe Illustrator 19.0.0, SVG Export Plug-In . SVG Version: 6.00 Build 0)  -->
<svg version="1.1" id="Capa_1" xmlns="http://www.w3.org/2000/svg" xmlns:xlink="http://www.w3.org/1999/xlink" x="0px" y="0px"
	 viewBox="-260 -6 806 806" style="enable-background:new -260 -6 806 806;" xml:space="preserve">
<style type="text/css">
	.st0{fill:#F7F4FF;}
</style>
<g>
	<path id="rect4534" class="st0" d="M140.7,4.1C21.6,4.1-79,10.6-93.9,19.4c-26.3,8.9-46,68.4-46,139.1v35.1h-7.2
		c-0.7-1.6-1.8-3.2-2.8-4.4c3-3.3,4.7-8.1,4.7-13.2v-17.5c0-9.6-6.3-17.5-14-17.5h-28.1c-7.7,0-14,7.9-14,17.5V176
		c0,5.1,1.8,9.8,4.7,13.2c-3,3.3-4.7,8.1-4.7,13.2V290c0,9.6,6.3,17.5,14,17.5h28.1c5.1,0,9.6-3.3,12.1-8.8h7.2v157.9
		c0,6.3,6.7,12.1,17.5,15.1v20.5c-15.4,1.9-26.3,8.9-26.3,17v175.4c0,25.1,6.7,48.2,17.5,60.7v30.2c0,7.9,6.5,14.4,14.4,14.4h58.9
		c7.9,0,14.4-6.5,14.4-14.4v-20.7h368.3v20.7c0,7.9,6.5,14.4,14.4,14.4h58.9c7.9,0,14.4-6.5,14.4-14.4v-30.2
		c10.9-12.5,17.5-35.6,17.5-60.7V509.3c0-8.1-10.9-14.9-26.3-17v-20.5c10.9-3.2,17.5-8.9,17.5-15.1V298.8h7.2
		c2.5,5.4,7.2,8.8,12.1,8.8h28.1c7.7,0,14-7.9,14-17.5v-87.7c0-5.1-1.8-9.8-4.7-13.2c3-3.3,4.7-8.1,4.7-13.2v-17.5
		c0-9.6-6.3-17.5-14-17.5h-28.1c-7.7,0-14,7.9-14,17.5V176c0,5.1,1.8,9.8,4.7,13.2c-1.2,1.2-2.1,2.8-2.8,4.4h-7.2v-35.1
		c0-71-19.8-130.7-46.3-139.3C358.9,10.6,259,4.1,140.7,4.1z M-99.9,105.8h27.7h60.5H293h60.5h27.7c8.4,0,15.6,6,17.2,14.2
		c3.5,17.9,5.3,37.2,5.3,56.8l0,0v121.9c0,9.6-7.9,17.5-17.5,17.5H337H-55.7h-49.1c-9.6,0-17.5-7.9-17.5-17.5V176.7l0,0
		c0-19.6,1.8-38.9,5.3-56.8C-115.3,111.8-108.2,105.8-99.9,105.8z M-78.5,491.7H-41c4.7,0,8.4,3.7,8.8,8.2l6.3,114
		c0.4,5.1-3.7,9.3-8.8,9.3h-43.8c-4.9,0-8.8-3.9-8.8-8.8v-114C-87.3,495.6-83.4,491.7-78.5,491.7L-78.5,491.7z M322.4,491.7H360
		c4.9,0,8.8,3.9,8.8,8.8v114c0,4.9-3.9,8.8-8.8,8.8h-43.8c-5.1,0-8.9-4.2-8.8-9.3l6.3-114C313.9,495.4,317.7,491.7,322.4,491.7z
		 M-4,512.8h289.4c2.5,0,4.4,1.9,4.4,4.4v5.3c0,2.5-1.9,4.4-4.4,4.4H-4c-2.5,0-4.4-1.9-4.4-4.4v-5.3C-8.3,514.7-6.4,512.8-4,512.8
		L-4,512.8z M-2.2,544.3h285.9c2.5,0,4.4,1.9,4.4,4.4v5.3c0,2.5-1.9,4.4-4.4,4.4H-2.2c-2.5,0-4.4-1.9-4.4-4.4v-5.3
		C-6.6,546.3-4.7,544.3-2.2,544.3L-2.2,544.3z M-0.5,575.9h282.4c2.5,0,4.4,1.9,4.4,4.4v5.3c0,2.5-1.9,4.4-4.4,4.4H-0.5
		c-2.5,0-4.4-1.9-4.4-4.4v-5.3C-4.8,577.8-2.9,575.9-0.5,575.9L-0.5,575.9z M1.3,607.5h278.9c2.5,0,4.4,1.9,4.4,4.4v5.3
		c0,2.5-1.9,4.4-4.4,4.4H1.3c-2.5,0-4.4-1.9-4.4-4.4v-5.3C-3.1,609.4-1.2,607.5,1.3,607.5L1.3,607.5z"/>
</g>
</svg>
