<?xml version="1.0" encoding="utf-8"?>
<!-- Generator: Adobe Illustrator 19.0.0, SVG Export Plug-In . SVG Version: 6.00 Build 0)  -->
<svg version="1.1" id="Camada_1" xmlns="http://www.w3.org/2000/svg" xmlns:xlink="http://www.w3.org/1999/xlink" x="0px" y="0px"
	 viewBox="0 0 512 512" style="enable-background:new 0 0 512 512;" xml:space="preserve">
<style type="text/css">
	.st0{fill:#F7F4FF;}
	.st1{fill:#171717;stroke:#FF394C;stroke-width:5;stroke-miterlimit:10;}
</style>
<g id="XMLID_49_">
	<path id="rect4534" class="st0" d="M253.6,0C176,0,110.5,4.3,100.8,10c-17.2,5.8-29.9,44.5-29.9,90.6v22.9h-4.7
		c-0.4-1-1.1-2-1.8-2.8c1.9-2.1,3.1-5.3,3.1-8.5v-11.4c0-6.3-4.1-11.4-9.1-11.4H40c-5,0-9.1,5.2-9.1,11.4v11.4
		c0,3.4,1.1,6.4,3.1,8.5c-1.9,2.1-3.1,5.3-3.1,8.5v57.1c0,6.3,4.1,11.4,9.1,11.4h18.3c3.4,0,6.3-2.1,7.8-5.7h4.7v102.8
		c0,4.1,4.4,7.8,11.4,9.9V318c-10.1,1.2-17.2,5.8-17.2,11.1v114.3c0,16.4,4.4,31.4,11.4,39.5v19.6c0,5.2,4.3,9.4,9.4,9.4h38.4
		c5.2,0,9.4-4.3,9.4-9.4V489h239.9v13.5c0,5.2,4.3,9.4,9.4,9.4h38.4c5.2,0,9.4-4.3,9.4-9.4v-19.6c7.1-8.1,11.4-23.2,11.4-39.5V329
		c0-5.3-7.1-9.8-17.2-11.1v-13.3c7.1-2,11.4-5.8,11.4-9.9V191.9h4.7c1.6,3.6,4.7,5.7,7.8,5.7h18.3c5,0,9.1-5.2,9.1-11.4v-57.1
		c0-3.4-1.1-6.4-3.1-8.5c1.9-2.1,3.1-5.3,3.1-8.5v-11.4c0-6.3-4.1-11.4-9.1-11.4H449c-5,0-9.1,5.2-9.1,11.4V112
		c0,3.4,1.1,6.4,3.1,8.5c-0.8,0.8-1.3,1.8-1.8,2.8h-4.7v-22.9c0-46.3-12.9-85.1-30.2-90.7C395.8,4.3,330.6,0,253.6,0z M96.9,66.3
		H115h39.4h198.4h39.4h18.1c5.5,0,10.2,3.9,11.2,9.3c2.2,11.7,3.5,24.2,3.5,37l0,0V192c0,6.3-5.2,11.4-11.4,11.4h-32H125.6h-32
		c-6.3,0-11.4-5.2-11.4-11.4v-79.5l0,0c0-12.8,1.1-25.3,3.5-37C86.8,70.1,91.6,66.3,96.9,66.3z M110.8,317.6h24.4
		c3.1,0,5.5,2.4,5.7,5.4l4.1,74.2c0.2,3.4-2.4,6.1-5.7,6.1h-28.6c-3.3,0-5.7-2.5-5.7-5.7v-74.2C105.1,320,107.7,317.6,110.8,317.6
		L110.8,317.6z M372,317.6h24.4c3.3,0,5.7,2.5,5.7,5.7v74.2c0,3.3-2.5,5.7-5.7,5.7h-28.6c-3.4,0-5.8-2.7-5.7-6.1l4.1-74.2
		C366.4,319.9,368.9,317.6,372,317.6z M159.4,331.2h188.5c1.6,0,2.8,1.2,2.8,2.8v3.5c0,1.6-1.2,2.8-2.8,2.8H159.4
		c-1.6,0-2.8-1.2-2.8-2.8v-3.5C156.5,332.5,157.8,331.2,159.4,331.2L159.4,331.2z M160.5,351.8h186.1c1.6,0,2.8,1.2,2.8,2.8v3.5
		c0,1.6-1.2,2.8-2.8,2.8H160.5c-1.6,0-2.8-1.2-2.8-2.8v-3.4C157.7,353.1,159,351.8,160.5,351.8L160.5,351.8z M161.6,372.4h183.9
		c1.6,0,2.8,1.2,2.8,2.8v3.5c0,1.6-1.2,2.8-2.8,2.8H161.6c-1.6,0-2.8-1.2-2.8-2.8v-3.5C158.8,373.6,160.1,372.4,161.6,372.4
		L161.6,372.4z M162.9,392.9h181.7c1.6,0,2.8,1.2,2.8,2.8v3.5c0,1.6-1.2,2.8-2.8,2.8H162.9c-1.6,0-2.8-1.2-2.8-2.8v-3.5
		C160,394.2,161.2,392.9,162.9,392.9L162.9,392.9z"/>
</g>
<g id="XMLID_41_">
	<circle id="XMLID_130_" class="st1" cx="425.4" cy="400.8" r="86.6"/>
	<path id="XMLID_43_" class="st0" d="M488.4,397.6v5.8c0,3.3-2.7,5.9-5.9,5.9H368.3c-3.3,0-5.9-2.7-5.9-5.9v-5.8
		c0-3.3,2.7-5.9,5.9-5.9h114.1C485.7,391.7,488.4,394.4,488.4,397.6z"/>
	<path id="XMLID_42_" class="st0" d="M428.3,463.6h-5.8c-3.3,0-5.9-2.7-5.9-5.9V343.5c0-3.3,2.7-5.9,5.9-5.9h5.8
		c3.3,0,5.9,2.7,5.9,5.9v114.1C434.2,460.9,431.5,463.6,428.3,463.6z"/>
</g>
</svg>
