<?xml version="1.0" encoding="utf-8"?>
<!-- Generator: Adobe Illustrator 19.0.0, SVG Export Plug-In . SVG Version: 6.00 Build 0)  -->
<svg version="1.1" id="Camada_1" xmlns="http://www.w3.org/2000/svg" xmlns:xlink="http://www.w3.org/1999/xlink" x="0px" y="0px"
	 viewBox="0 0 512 512" style="enable-background:new 0 0 512 512;" xml:space="preserve">
<style type="text/css">
	.st0{fill:#F7F4FF;}
	.st1{fill:#171717;stroke:#7BA1FF;stroke-width:5;stroke-miterlimit:10;}
</style>
<g id="XMLID_1_">
	<g id="XMLID_501_">
		<path id="XMLID_512_" class="st0" d="M226.5,345.2c3.8-3.8,3.8-10,0-13.8s-10-3.8-13.8,0c-3.8,3.8-3.8,10,0,13.8
			C216.4,349,222.6,349,226.5,345.2z"/>
		<path id="XMLID_509_" class="st0" d="M180.2,113.4c0,59.1,48.2,107.4,107.4,107.4S395,172.7,395,113.4S346.9,6,287.6,6
			S180.2,54.2,180.2,113.4z M375.5,113.4c0,48.4-39.5,87.9-87.9,87.9s-87.9-39.5-87.9-87.9s39.5-87.9,87.9-87.9
			S375.5,65,375.5,113.4z"/>
		<path id="XMLID_504_" class="st0" d="M109.1,503.1c3.8,3.8,10,3.8,13.8,0.1l47.3-46.7c8-8,10.5-19.9,6.9-30.3l10.1-9.9
			c5.5-5.2,12.8-8.2,20.3-8.2h129.8c23,0,44.8-8.9,61.4-24.9c0.7-0.7-5.1,6.2,88.6-105.7c13.8-16.5,11.7-41-4.6-55
			c-16.3-13.8-40.8-11.8-54.8,4.4L370.4,286c-7.3-8.9-18.4-14.5-30.4-14.5H231c-15.5-6.4-32-9.8-48.9-9.8c-47,0-88.1,21.7-110,62.5
			c-9.3-1.8-19.1,1.1-26.1,8.1l-46.5,46.6c-3.8,3.8-3.8,10,0,13.8L109.1,503.1z M182.1,281.4c14.9,0,29.4,3,42.9,8.9
			c1.3,0.6,2.5,0.8,3.9,0.8h111c10.5,0,19.6,8.6,19.6,19.6c0,10.7-8.8,19.6-19.6,19.6h-79.8c-5.4,0-9.8,4.4-9.8,9.8s4.4,9.8,9.8,9.8
			H340c21.6,0,39.1-17.5,39.1-39.1c0-1.8-0.1-3.5-0.4-5.1c55.8-57.3,63.5-65.3,64-65.7c6.9-8.2,19.3-9.3,27.5-2.4s9.3,19.3,2.3,27.5
			l-87.6,104.7c-12.8,12.3-29.6,19.1-47.3,19.1H207.7c-12.8,0-24.8,4.9-33.9,13.7l-8.3,8l-76.4-76.4
			C106.9,300.5,140.4,281.4,182.1,281.4z M59.8,346.2c3.2-3.2,8.2-3.8,12.2-1.3c1.7,1.1-3.1-3.5,84.5,84.2
			c3.9,3.9,3.7,10.1,0.1,13.8l-40.4,39.6l-96-96.7L59.8,346.2z"/>
		<path id="XMLID_503_" class="st0" d="M275.9,54.9v11.4c-11.3,4.1-19.6,14.9-19.6,27.7c0,16.1,13.2,29.3,29.3,29.3
			c5.4,0,9.8,4.4,9.8,9.8c0,5.4-4.4,9.8-9.8,9.8c-4.2,0-8.7-2.6-12.8-7.4c-3.5-4.1-9.7-4.6-13.8-1.2c-4.1,3.5-4.6,9.7-1.2,13.8
			c5.1,6.2,11.3,10.5,17.9,12.8v11.4c0,5.4,4.4,9.8,9.8,9.8s9.8-4.4,9.8-9.8v-11.7c11.3-4.1,19.6-14.9,19.6-27.7
			c0-16.1-13.2-29.3-29.3-29.3c-5.4,0-9.8-4.4-9.8-9.8c0-5.4,4.4-9.8,9.8-9.8c3.5,0,7.2,1.8,10.5,5.1c3.9,3.7,10,3.6,13.8-0.2
			c3.7-3.9,3.6-10-0.2-13.8c-5-4.8-10-7.5-14.3-8.9V54.8c0-5.4-4.4-9.8-9.8-9.8C280.2,45.1,275.9,49.5,275.9,54.9z"/>
	</g>
	<g id="XMLID_71_">
		<circle id="XMLID_75_" class="st1" cx="429.8" cy="410.2" r="82.2"/>
		<g id="XMLID_72_">
			<circle id="XMLID_74_" class="st0" cx="429.8" cy="377.6" r="18.9"/>
			<path id="XMLID_73_" class="st0" d="M461.5,461.5h-63.3v-31.7c0-17.5,14.2-31.7,31.7-31.7l0,0c17.5,0,31.7,14.2,31.7,31.7v31.7
				H461.5z"/>
		</g>
	</g>
</g>
</svg>
