<?xml version="1.0" encoding="utf-8"?>
<!-- Generator: Adobe Illustrator 19.0.0, SVG Export Plug-In . SVG Version: 6.00 Build 0)  -->
<svg version="1.1" id="Camada_1" xmlns="http://www.w3.org/2000/svg" xmlns:xlink="http://www.w3.org/1999/xlink" x="0px" y="0px"
	 viewBox="0 0 512 512" style="enable-background:new 0 0 512 512;" xml:space="preserve">
<style type="text/css">
	.st0{fill:#F7F4FF;}
	.st1{fill:#171717;stroke:#FFEF7B;stroke-width:5;stroke-miterlimit:10;}
</style>
<g id="XMLID_8_">
	<g id="XMLID_1_">
		<g id="XMLID_2_">
			<g id="XMLID_3_">
				<path id="XMLID_308_" class="st0" d="M478.4,492h-21.9V173.5c0-14.8-12.1-26.9-26.9-26.9h-48.9c-14.8,0-26.9,12.1-26.9,26.9V492
					H298V317.8c0-14.8-12.1-26.9-26.9-26.9h-48.9c-14.8,0-26.9,12.1-26.9,26.9v174.1h-55.7v-90.2c0-14.8-12.1-26.9-26.9-26.9H63.7
					c-14.8,0-26.9,12.1-26.9,26.9v90.2H13.6c-5.5,0-10,4.5-10,10s4.5,10,10,10h464.7c5.5,0,10-4.5,10-10S483.9,492,478.4,492z
					 M119.5,492H56.7v-90.2c0-3.8,3.1-6.9,6.9-6.9h48.9c3.8,0,6.9,3.1,6.9,6.9V492H119.5z M278.1,492h-62.8V317.8
					c0-3.8,3.1-6.9,6.9-6.9h48.9c3.8,0,6.9,3.1,6.9,6.9V492H278.1z M436.5,492h-62.8V173.5c0-3.8,3.1-6.9,6.9-6.9h48.9
					c3.8,0,6.9,3.1,6.9,6.9L436.5,492L436.5,492z"/>
			</g>
		</g>
		<g id="XMLID_4_">
			<g id="XMLID_5_">
				<path id="XMLID_105_" class="st0" d="M456.3,10.5c0.1-2.7-0.9-5.5-2.9-7.6s-4.9-3.1-7.6-2.9c-0.2,0-0.2,0-0.5,0h-60.4
					c-5.5,0-10,4.5-10,10s4.5,10,10,10h37.4L323.5,119l-37.3-37.3c-2-2-4.4-2.9-7.1-2.9c-2.7,0-5.1,1.1-7.1,2.9L92.2,261.4
					c-3.9,3.9-3.9,10.2,0,14.1c2,2,4.5,2.9,7.1,2.9c2.6,0,5.1-1,7.1-2.9L279,102.8l37.3,37.3c3.9,3.9,10.2,3.9,14.1,0L436.3,34.3V68
					c0,5.5,4.5,10,10,10c5.5,0,10-4.5,10-10V11C456.5,10.8,456.3,10.8,456.3,10.5z"/>
			</g>
		</g>
		<g id="XMLID_6_">
			<g id="XMLID_7_">
				<circle id="XMLID_104_" class="st0" cx="65.6" cy="303.4" r="10"/>
			</g>
		</g>
	</g>
	<g id="XMLID_440_">
		<path id="XMLID_427_" class="st1" d="M401.1,380.2c-41.6,0-78.7,16.9-102.6,43.3c-7.1,7.9-7.1,19,0,26.9
			c23.9,26.4,61,43.3,102.6,43.3s78.7-16.9,102.6-43.3c7.1-7.9,7.1-19,0-26.9C479.7,397.1,442.7,380.2,401.1,380.2z"/>
		<ellipse id="XMLID_424_" class="st0" cx="401.1" cy="437" rx="49" ry="42.7"/>
	</g>
</g>
</svg>
