<?xml version="1.0" encoding="utf-8"?>
<!-- Generator: Adobe Illustrator 19.0.0, SVG Export Plug-In . SVG Version: 6.00 Build 0)  -->
<svg version="1.1" id="Camada_1" xmlns="http://www.w3.org/2000/svg" xmlns:xlink="http://www.w3.org/1999/xlink" x="0px" y="0px"
	 viewBox="0 0 512 512" style="enable-background:new 0 0 512 512;" xml:space="preserve">
<style type="text/css">
	.st0{fill:#F7F4FF;}
	.st1{fill:#171717;stroke:#FFEF7B;stroke-width:5;stroke-miterlimit:10;}
</style>
<g id="XMLID_322_">
	<g id="XMLID_557_">
		<g id="XMLID_806_">
			<path id="XMLID_807_" class="st0" d="M402.6,189h-32l9.7-111.2c0-0.2,0-0.4,0-0.6l0,0l0,0c0-3-1.8-5.6-4.5-6.9c0,0,0,0-0.1,0
				c-0.2-0.1-0.3-0.1-0.5-0.2c-0.1,0-0.1,0-0.2-0.1c-0.1,0-0.3-0.1-0.4-0.1c-0.1,0-0.2-0.1-0.3-0.1c-0.1,0-0.3,0-0.4-0.1
				c-0.1,0-0.2,0-0.4-0.1c0,0,0,0-0.1,0s-0.3,0-0.4,0c-0.1,0-0.2,0-0.3,0h-0.1l0,0H219.7c-4.1,0-7.5,3.3-7.5,7.5
				c0,4.1,3.3,7.5,7.5,7.5h144.8l-14.8,170.9l0,0l-3.8,43H86.1l4.4-44.9H140c4.1,0,7.5-3.3,7.5-7.5c0-4.2-3.3-7.5-7.5-7.5H92
				l9.2-94.7h78.7c4.1,0,7.5-3.3,7.5-7.5c0-4.2-3.3-7.5-7.5-7.5h-77.2l4.3-44.6h82.9c4.1,0,7.5-3.3,7.5-7.5c0-4.1-3.3-7.5-7.5-7.5
				h-89.7l0,0c-3.4,0-6.6,2.5-7.3,5.8c0,0,0,0,0,0.1c0,0.2-0.1,0.4-0.1,0.6c0,0.1,0,0.1,0,0.2l0,0l-5.1,52.7H-2.9
				c-4.1,0-7.5,3.3-7.5,7.5s3.3,7.5,7.5,7.5h89.1L77,238.7H50.2c-4.1,0-7.5,3.3-7.5,7.5s3.3,7.5,7.5,7.5h25.3l-5,51.6l0,0L62.8,385
				l0,0l0,0c0,0.1,0,0.2,0,0.3c0,0.1,0,0.3,0,0.4l0,0c0,0.2,0,0.4,0,0.6c0,0.1,0,0.1,0,0.2c0,0.2,0.1,0.4,0.1,0.6c0,0.1,0,0.1,0,0.2
				c0,0.1,0.1,0.3,0.1,0.4c0,0.1,0,0.2,0.1,0.3v0.1c0.4,1.1,1,2.1,1.8,2.9l0,0c0.1,0.1,0.2,0.2,0.3,0.2c0.5,0.5,1.1,0.9,1.7,1.1
				c0.1,0.1,0.3,0.1,0.4,0.2h0.1c0.2,0.1,0.4,0.1,0.6,0.2c0,0,0,0,0.1,0c0.2,0.1,0.4,0.1,0.7,0.2h0.1c0.2,0,0.4,0.1,0.7,0.1l0,0
				c0.2,0,0.5,0,0.7,0l0,0h33.3c3.7,27.9,27.6,49.5,56.4,49.5s52.7-21.5,56.4-49.5h119.9c3.7,27.9,27.6,49.5,56.4,49.5
				s52.7-21.5,56.4-49.5h33.3l0,0c0.3,0,0.5,0,0.7,0h0.1c0.2,0,0.4,0,0.6-0.1c0.1,0,0.2,0,0.2-0.1c0.1,0,0.3-0.1,0.4-0.1
				s0.2-0.1,0.3-0.1c0.1,0,0.2-0.1,0.4-0.1c0.1,0,0.2-0.1,0.3-0.1c0.1-0.1,0.2-0.1,0.3-0.2c0.1-0.1,0.2-0.1,0.3-0.2
				c0.1-0.1,0.2-0.1,0.3-0.2c0.1-0.1,0.2-0.1,0.3-0.2s0.2-0.1,0.3-0.2c0.1-0.1,0.2-0.1,0.2-0.2c0.1-0.1,0.2-0.2,0.3-0.3
				c0.1-0.1,0.1-0.1,0.2-0.2c0.1-0.1,0.2-0.2,0.3-0.3c0.1-0.1,0.1-0.1,0.2-0.2c0.1-0.1,0.2-0.3,0.3-0.4l0.1-0.1
				c0.1-0.2,0.2-0.4,0.3-0.6l0,0c0.1-0.2,0.2-0.4,0.3-0.6c0-0.1,0-0.1,0.1-0.2c0.1-0.2,0.1-0.3,0.2-0.5c0-0.1,0.1-0.2,0.1-0.3
				s0.1-0.2,0.1-0.4c0-0.1,0-0.2,0.1-0.3c0-0.1,0-0.2,0.1-0.3c0.3-2.5,6.2-49.6,8.8-79.8v-0.1c0.7-8.5,1.1-15.9,1.1-20.5
				C499.8,232.6,456.2,189,402.6,189z M369.2,203.9h30.6l-3.9,44.9h-30.7L369.2,203.9z M159.9,427.8c-23.2,0-42-18.8-42-42
				c0-23.2,18.8-42,42-42s42,18.8,42,42C201.9,409,183,427.8,159.9,427.8z M392.6,427.8c-23.2,0-42-18.8-42-42c0-23.2,18.8-42,42-42
				c23.2,0,42,18.8,42,42C434.6,409,415.8,427.8,392.6,427.8z M475.7,378.3H449c-3.7-27.9-27.6-49.5-56.4-49.5
				c-28.8,0-52.7,21.6-56.4,49.5H216.3c-3.7-27.9-27.6-49.5-56.4-49.5s-52.7,21.6-56.4,49.5H78.5l6.3-64.8h267.9l0,0l0,0
				c0.3,0,0.5,0,0.7,0h0.1c0.2,0,0.4-0.1,0.6-0.1c0.1,0,0.2,0,0.2-0.1c0.1,0,0.3-0.1,0.4-0.1c0.1,0,0.2-0.1,0.3-0.1s0.3-0.1,0.4-0.1
				c0.1,0,0.2-0.1,0.3-0.1c0.1-0.1,0.2-0.1,0.3-0.2c0.1-0.1,0.2-0.1,0.3-0.2c0.1-0.1,0.2-0.1,0.3-0.2c0.1-0.1,0.2-0.1,0.3-0.2
				c0.1-0.1,0.2-0.1,0.3-0.2c0.1-0.1,0.2-0.1,0.3-0.2c0.1-0.1,0.2-0.2,0.3-0.3c0.1-0.1,0.2-0.1,0.2-0.2c0.1-0.1,0.2-0.2,0.3-0.3
				c0.1-0.1,0.1-0.2,0.2-0.2c0.1-0.1,0.2-0.2,0.2-0.3c0.1-0.1,0.1-0.2,0.2-0.2c0.1-0.1,0.1-0.2,0.2-0.3c0.1-0.1,0.1-0.2,0.1-0.3
				c0.1-0.1,0.1-0.2,0.2-0.4c0-0.1,0.1-0.2,0.1-0.3c0-0.1,0.1-0.2,0.1-0.4c0-0.1,0.1-0.2,0.1-0.3c0-0.1,0.1-0.2,0.1-0.4
				c0-0.1,0.1-0.2,0.1-0.4c0-0.1,0-0.2,0.1-0.4c0-0.1,0-0.2,0.1-0.4c0,0,0,0,0-0.1l3.8-43h38.6c23,0,33.2,11.9,44.2,24.4
				c9.1,10.3,19.1,21.9,36.2,24.7C480.8,335.8,477.2,365.5,475.7,378.3z M484.2,297.9c-11.1-2.3-18-10-26.2-19.6
				c-10.3-11.9-23.1-26.4-47.3-29.1l3.9-44.4c39.7,5.8,70.1,40.2,70.1,81.3C484.8,289,484.6,293.1,484.2,297.9z"/>
		</g>
	</g>
	<g id="XMLID_554_">
		<path id="XMLID_556_" class="st1" d="M403.2,380.9c-41.8,0-79.1,17-103.1,43.6c-7.2,7.9-7.2,19.1,0,27
			c24,26.5,61.3,43.6,103.1,43.6s79.1-17,103.1-43.6c7.2-7.9,7.2-19.1,0-27C482.3,397.9,445,380.9,403.2,380.9z"/>
		<ellipse id="XMLID_555_" class="st0" cx="403.2" cy="438" rx="49.3" ry="42.9"/>
	</g>
</g>
</svg>
