<?xml version="1.0" encoding="utf-8"?>
<!-- Generator: Adobe Illustrator 19.0.0, SVG Export Plug-In . SVG Version: 6.00 Build 0)  -->
<svg version="1.1" id="Camada_1" xmlns="http://www.w3.org/2000/svg" xmlns:xlink="http://www.w3.org/1999/xlink" x="0px" y="0px"
	 viewBox="0 0 512 512" style="enable-background:new 0 0 512 512;" xml:space="preserve">
<style type="text/css">
	.st0{fill:#F7F4FF;}
	.st1{fill:#171717;stroke:#FFEF7B;stroke-width:5;stroke-miterlimit:10;}
</style>
<g id="XMLID_294_">
	<path id="rect4534_1_" class="st0" d="M244.8,0C167.1,0,101.6,4.3,91.9,9.9C74.8,15.7,62,54.6,62,100.6v22.9h-4.7
		c-0.5-1-1.2-2.1-1.8-2.9c2-2.2,3.1-5.2,3.1-8.6v-11.4c0-6.2-4.2-11.4-9.1-11.4H31.1c-5.1,0-9.1,5.2-9.1,11.4V112
		c0,3.4,1.2,6.4,3.1,8.6c-2,2.2-3.1,5.2-3.1,8.6v57.1c0,6.2,4.2,11.4,9.1,11.4h18.3c3.4,0,6.2-2.2,7.9-5.7H62v102.9
		c0,4.2,4.4,7.9,11.4,9.8v13.4c-10.1,1.3-17.1,5.8-17.1,11.1v114.3c0,16.3,4.4,31.4,11.4,39.5v19.6c0,5.2,4.3,9.4,9.4,9.4h38.4
		c5.2,0,9.4-4.3,9.4-9.4v-13.5h240.1v13.5c0,5.2,4.3,9.4,9.4,9.4h38.4c5.2,0,9.4-4.3,9.4-9.4V483c7.1-8.1,11.4-23.2,11.4-39.5V329.2
		c0-5.2-7.1-9.7-17.1-11.1v-13.4c7.1-2.1,11.4-5.8,11.4-9.8V192h4.7c1.6,3.6,4.7,5.7,7.9,5.7h18.3c5.1,0,9.1-5.2,9.1-11.4v-57.1
		c0-3.4-1.2-6.4-3.1-8.6c2-2.2,3.1-5.2,3.1-8.6v-11.4c0-6.2-4.2-11.4-9.1-11.4h-18.3c-5.1,0-9.1,5.2-9.1,11.4V112
		c0,3.4,1.2,6.4,3.1,8.6c-0.8,0.8-1.4,1.8-1.8,2.9h-4.9v-22.9c0-46.3-12.9-85.2-30.2-90.7C387,4.2,321.9,0,244.8,0z M88,66.2h18
		h39.4H344h39.4h18c5.4,0,10.2,3.9,11.2,9.2c2.3,11.7,3.5,24.3,3.5,37l0,0v79.4c0,6.2-5.2,11.4-11.4,11.4h-32H116.7h-32
		c-6.2,0-11.4-5.2-11.4-11.4v-79.5l0,0c0-12.8,1.2-25.4,3.5-37C77.9,70.2,82.6,66.2,88,66.2z M101.9,317.7h24.5
		c3.1,0,5.4,2.4,5.7,5.3l4.2,74.3c0.2,3.4-2.4,6-5.7,6h-28.5c-3.2,0-5.7-2.5-5.7-5.7v-74.3C96.2,320.3,98.7,317.7,101.9,317.7
		L101.9,317.7z M363.3,317.7h24.5c3.2,0,5.7,2.5,5.7,5.7v74.3c0,3.2-2.5,5.7-5.7,5.7h-28.5c-3.4,0-5.8-2.8-5.7-6l4.2-74.3
		C357.6,320.1,360.1,317.7,363.3,317.7z M150.5,331.5h188.6c1.6,0,2.9,1.3,2.9,2.9v3.5c0,1.6-1.3,2.9-2.9,2.9H150.5
		c-1.6,0-2.9-1.3-2.9-2.9v-3.5C147.6,332.7,148.9,331.5,150.5,331.5L150.5,331.5z M151.6,352h186.3c1.6,0,2.9,1.3,2.9,2.9v3.5
		c0,1.6-1.3,2.9-2.9,2.9H151.6c-1.6,0-2.9-1.3-2.9-2.9v-3.5C148.7,353.3,150,352,151.6,352L151.6,352z M152.8,372.6h184
		c1.6,0,2.9,1.3,2.9,2.9v3.5c0,1.6-1.3,2.9-2.9,2.9h-184c-1.6,0-2.9-1.3-2.9-2.9v-3.5C149.9,373.9,151.2,372.6,152.8,372.6
		L152.8,372.6z M153.9,393.2h181.7c1.6,0,2.9,1.3,2.9,2.9v3.5c0,1.6-1.3,2.9-2.9,2.9H153.9c-1.6,0-2.9-1.3-2.9-2.9v-3.5
		C151.1,394.5,152.3,393.2,153.9,393.2L153.9,393.2z"/>
</g>
<g id="XMLID_164_">
	<path id="XMLID_166_" class="st1" d="M401.6,379.6c-41.4,0-78.2,16.9-102,43.1c-7.1,7.8-7.1,18.9,0,26.7
		c23.8,26.3,60.6,43.1,102,43.1s78.2-16.9,102-43.1c7.1-7.8,7.1-18.9,0-26.7C479.8,396.4,443,379.6,401.6,379.6z"/>
	<ellipse id="XMLID_165_" class="st0" cx="401.6" cy="436" rx="48.8" ry="42.4"/>
</g>
</svg>
