<?xml version="1.0"?>
<svg xmlns="http://www.w3.org/2000/svg" height="512px" viewBox="0 -2 496 496" width="512px" class=""><g><path d="m424 401.871094 56 81.441406h-208l56-81.441406v41.441406c0 8.800781 7.199219 16 16 16 4.398438 0 8.398438-1.761719 11.28125-4.71875 2.957031-2.882812 4.71875-6.882812 4.71875-11.28125v-16c0-8.800781 7.199219-16 16-16 4.398438 0 8.398438 1.757812 11.28125 4.71875 2.957031 2.878906 4.71875 6.878906 4.71875 11.28125v8c0 8.800781 7.199219 16 16 16 4.398438 0 8.398438-1.761719 11.28125-4.71875 2.957031-2.882812 4.71875-6.882812 4.71875-11.28125zm0 0" fill="#b4dd7f" data-original="#B4DD7F" class="active-path" style="fill:#FBFBFA" data-old_color="#F8F8F7"/><path d="m168 401.871094 56 81.441406h-208l56-81.441406v41.441406c0 8.800781 7.199219 16 16 16 4.398438 0 8.398438-1.761719 11.28125-4.71875 2.957031-2.882812 4.71875-6.882812 4.71875-11.28125v-16c0-8.800781 7.199219-16 16-16 4.398438 0 8.398438 1.757812 11.28125 4.71875 2.957031 2.878906 4.71875 6.878906 4.71875 11.28125v8c0 8.800781 7.199219 16 16 16 4.398438 0 8.398438-1.761719 11.28125-4.71875 2.957031-2.882812 4.71875-6.882812 4.71875-11.28125zm0 0" fill="#b4dd7f" data-original="#B4DD7F" class="active-path" style="fill:#FBFBFA" data-old_color="#F8F8F7"/><g fill="#e6e9ed"><path d="m424 401.871094v33.441406c0 4.398438-1.761719 8.398438-4.71875 11.28125-2.882812 2.957031-6.882812 4.71875-11.28125 4.71875-8.800781 0-16-7.199219-16-16v-8c0-4.402344-1.761719-8.402344-4.71875-11.28125-2.882812-2.960938-6.882812-4.71875-11.28125-4.71875-8.800781 0-16 7.199219-16 16v16c0 4.398438-1.761719 8.398438-4.71875 11.28125-2.882812 2.957031-6.882812 4.71875-11.28125 4.71875-8.800781 0-16-7.199219-16-16v-41.441406l22.960938-33.359375c5.679687-8.238281 15.039062-13.199219 25.039062-13.199219s19.359375 4.960938 25.039062 13.199219zm0 0" data-original="#000000" class="" style="fill:#000000"/><path d="m168 401.871094v33.441406c0 4.398438-1.761719 8.398438-4.71875 11.28125-2.882812 2.957031-6.882812 4.71875-11.28125 4.71875-8.800781 0-16-7.199219-16-16v-8c0-4.402344-1.761719-8.402344-4.71875-11.28125-2.882812-2.960938-6.882812-4.71875-11.28125-4.71875-8.800781 0-16 7.199219-16 16v16c0 4.398438-1.761719 8.398438-4.71875 11.28125-2.882812 2.957031-6.882812 4.71875-11.28125 4.71875-8.800781 0-16-7.199219-16-16v-41.441406l22.960938-33.359375c5.679687-8.238281 15.039062-13.199219 25.039062-13.199219s19.359375 4.960938 25.039062 13.199219zm0 0" data-original="#000000" class="" style="fill:#000000"/><path d="m456 267.3125c17.679688 0 32 14.320312 32 32s-14.320312 32-32 32h-93.519531l-34.160157-60.800781c2.320313-19.839844 19.199219-35.199219 39.679688-35.199219 14.480469 0 27.039062 7.757812 34.078125 19.28125 4.242187-2 8.882813-3.28125 13.921875-3.28125 12.71875 0 23.519531 7.441406 28.71875 18.160156 3.519531-1.359375 7.28125-2.160156 11.28125-2.160156zm0 0" data-original="#000000" class="" style="fill:#000000"/></g><path d="m280.800781 238.59375c8.320313-2.480469 16.320313-5.839844 23.839844-10.082031l23.679687 42 34.160157 60.800781 13.519531 24c-10 0-19.359375 4.960938-25.039062 13.199219l-22.960938 33.359375-56 81.441406h-48l-56-81.441406-22.960938-33.359375c-5.679687-8.238281-15.039062-13.199219-25.039062-13.199219l36-64 35.359375-62.800781c7.519531 4.242187 15.519531 7.601562 23.839844 10.082031 10.5625 3.117188 21.601562 4.71875 32.800781 4.71875s22.238281-1.601562 32.800781-4.71875zm0 0" fill="#fcd770" data-original="#FCD770" class="" style="fill:#F7F733" data-old_color="#020202"/><path d="m304.640625 228.511719c-7.519531 4.242187-15.519531 7.601562-23.839844 10.082031-10.5625 3.117188-21.601562 4.71875-32.800781 4.71875 30.960938 0 56-25.039062 56-56s-25.039062-56-56-56c15.359375 0 30.398438 3.039062 44.320312 8.800781 13.917969 5.757813 26.71875 14.238281 37.601563 25.117188l22.078125 22.082031-22.078125 22.078125c-7.601563 7.601563-16.082031 14-25.28125 19.121094zm0 0" fill="#e6e9ed" data-original="#E6E9ED" class="" style="fill:#FCFAFA" data-old_color="#F9F7F7"/><path d="m248 131.3125c30.960938 0 56 25.039062 56 56s-25.039062 56-56 56-56-25.039062-56-56 25.039062-56 56-56zm0 0" fill="#69d6f4" data-original="#69D6F4" class="" style="fill:#FF0001" data-old_color="#69D6F4"/><path d="m272 187.3125c0 13.253906-10.746094 24-24 24s-24-10.746094-24-24 10.746094-24 24-24 24 10.746094 24 24zm0 0" fill="#4fc1e9" data-original="#4FC1E9" class="" style="fill:#F7F733" data-old_color="#f7f733"/><path d="m215.199219 238.59375c-8.320313-2.480469-16.320313-5.839844-23.839844-10.082031-9.199219-5.121094-17.679687-11.519531-25.28125-19.121094l-22.078125-22.078125 12.238281-12.242188 9.839844-9.839843c21.683594-21.679688 51.203125-33.917969 81.921875-33.917969-30.960938 0-56 25.039062-56 56s25.039062 56 56 56c-11.199219 0-22.238281-1.601562-32.800781-4.71875zm0 0" fill="#e6e9ed" data-original="#E6E9ED" class="" style="fill:#FCFAFA" data-old_color="#F9F7F7"/><path d="m191.359375 228.511719-35.359375 62.800781h-116c-17.679688 0-32-14.320312-32-32s14.320312-32 32-32c0-22.082031 17.921875-40 40-40 3.761719 0 7.28125.71875 10.800781 1.679688 5.757813-15.039063 20.160157-25.679688 37.199219-25.679688 11.039062 0 21.039062 4.480469 28.238281 11.757812l-12.238281 12.242188 22.078125 22.078125c7.601563 7.601563 16.082031 14 25.28125 19.121094zm0 0" fill="#e6e9ed" data-original="#E6E9ED" class="" style="fill:#FCFAFA" data-old_color="#F9F7F7"/><path d="m232 187.3125c0-2.289062.542969-4.59375 1.625-6.847656l-14.449219-6.871094c-2.105469 4.414062-3.175781 9.03125-3.175781 13.71875 0 17.648438 14.351562 32 32 32 4.6875 0 9.3125-1.074219 13.734375-3.175781l-6.886719-14.441407c-10.9375 5.191407-22.847656-3.269531-22.847656-14.382812zm0 0" data-original="#000000" class="" style="fill:#000000"/><path d="m248 155.3125c-4.6875 0-9.3125 1.070312-13.734375 3.175781l6.886719 14.441407c10.9375-5.203126 22.847656 3.269531 22.847656 14.382812 0 2.289062-.542969 4.589844-1.625 6.847656l14.449219 6.871094c2.105469-4.414062 3.175781-9.03125 3.175781-13.71875 0-17.648438-14.351562-32-32-32zm0 0" data-original="#000000" class="" style="fill:#000000"/><path d="m336 83.3125h60.6875l-10.34375 10.34375 11.3125 11.3125 29.65625-29.65625-29.65625-29.65625-11.3125 11.3125 10.34375 10.34375h-76.6875v64h16zm0 0" data-original="#000000" class="" style="fill:#000000"/><path d="m109.65625 93.65625-10.34375-10.34375h60.6875v48h16v-64h-76.6875l10.34375-10.34375-11.3125-11.3125-29.65625 29.65625 29.65625 29.65625zm0 0" data-original="#000000" class="" style="fill:#000000"/><path d="m176.230469 361.386719 3.996093-16.003907 15.523438 3.875-3.996094 16.003907zm0 0" data-original="#000000" class="" style="fill:#000000"/><path d="m240 387.3125h16v16h-16zm0 0" data-original="#000000" class="" style="fill:#000000"/><path d="m300.210938 349.246094 15.523437-3.878906 4 16-15.523437 3.882812zm0 0" data-original="#000000" class="" style="fill:#000000"/><path d="m456 339.3125c22.054688 0 40-17.945312 40-40s-17.945312-40-40-40c-2.503906 0-5.023438.253906-7.550781.765625-9.539063-13.445313-27.105469-20.015625-43.449219-15.15625-9.0625-11.128906-22.472656-17.609375-37-17.609375-17.542969 0-33.007812 9.558594-41.375 23.894531l-11.183594-19.886719c7.183594-4.679687 13.957032-10.089843 20.160156-16.296874l27.710938-27.710938-27.710938-27.71875c-21.503906-21.496094-49.53125-33.984375-79.601562-35.890625v-93.078125l10.34375 10.34375 11.3125-11.3125-29.65625-29.65625-29.65625 29.65625 11.3125 11.3125 10.34375-10.34375v93.078125c-30.0625 1.914063-58.097656 14.394531-79.601562 35.890625l-4.621094 4.621094c-8-5.710938-17.59375-8.902344-27.777344-8.902344-17.609375 0-33.34375 9.414062-41.753906 24.488281-2.140625-.328125-4.207032-.488281-6.246094-.488281-23.984375 0-43.921875 17.679688-47.449219 40.695312-18.511719 3.496094-32.550781 19.792969-32.550781 39.304688 0 22.054688 17.945312 40 40 40h102.320312l-27.175781 48.320312c-10.777343 1.375-20.558593 7.253907-26.800781 16.335938l-87.550781 127.34375h494.414062l-87.542969-127.34375c-6.238281-9.082031-16.023437-14.96875-26.800781-16.335938l-4.6875-8.320312zm-88-96c11.167969 0 21.34375 5.785156 27.246094 15.472656l3.785156 6.222656 6.542969-3.183593c12.417969-6.054688 26.328125-.480469 31.945312 11.128906l3.183594 6.582031 6.839844-2.582031c16.839843-6.359375 32.457031 6.351563 32.457031 22.359375 0 13.230469-10.769531 24-24 24h-88.824219l-30.457031-54.152344c2.90625-14.863281 15.890625-25.847656 31.28125-25.847656zm-168-56c0-26.472656 21.527344-48 48-48s48 21.527344 48 48-21.527344 48-48 48-48-21.527344-48-48zm140.6875 0-16.398438 16.40625c-6.527343 6.527344-13.800781 12-21.546874 16.578125 5.832031-9.648437 9.257812-20.914063 9.257812-32.984375 0-12.074219-3.425781-23.335938-9.257812-32.984375 7.746093 4.574219 15.019531 10.054687 21.546874 16.574219zm-147.429688-32.984375c-5.832031 9.648437-9.257812 20.910156-9.257812 32.984375 0 12.070312 3.425781 23.335938 9.257812 32.984375-7.746093-4.578125-15.019531-10.058594-21.546874-16.578125l-16.398438-16.40625 16.398438-16.410156c6.527343-6.519532 13.808593-12 21.546874-16.574219zm-153.257812 128.984375c-13.230469 0-24-10.769531-24-24 0-13.234375 10.769531-24 24-24h8v-8c0-17.648438 14.351562-32 32-32 2.558594 0 5.304688.429688 8.617188 1.351562l7 1.953126 2.613281-6.777344c4.808593-12.472656 16.496093-20.527344 29.769531-20.527344 5.832031 0 11.304688 1.695312 16.144531 4.542969l-11.457031 11.457031 27.710938 27.71875c6.210937 6.199219 12.984374 11.609375 20.160156 16.296875l-29.238282 51.984375zm61.527344 89.71875c4.183594-6.085938 11.089844-9.71875 18.472656-9.71875s14.289062 3.632812 18.472656 9.71875l21.527344 31.3125v30.96875c0 4.414062-3.59375 8-8 8s-8-3.585938-8-8v-8c0-13.234375-10.769531-24-24-24s-24 10.765625-24 24v16c0 4.414062-3.59375 8-8 8s-8-3.585938-8-8v-38.96875zm-70.320313 102.28125 32.792969-47.695312v15.695312c0 13.230469 10.769531 24 24 24s24-10.769531 24-24v-16c0-4.417969 3.59375-8 8-8s8 3.582031 8 8v8c0 13.230469 10.769531 24 24 24s24-10.769531 24-24v-7.695312l32.792969 47.695312zm197 0-76.542969-111.34375c-4.726562-6.878906-11.503906-11.871094-19.183593-14.519531l62.070312-110.351563c3.625 1.734375 7.320313 3.285156 11.097657 4.664063l-21.410157 85.613281 15.523438 3.871094 21.246093-84.972656c6.207032 1.375 12.550782 2.238281 18.992188 2.648437v120.390625h16v-120.390625c6.441406-.410156 12.785156-1.273437 18.992188-2.648437l21.246093 84.972656 15.523438-3.871094-21.402344-85.613281c3.777344-1.371094 7.472656-2.929688 11.097656-4.664063l62.070313 110.351563c-7.679688 2.640625-14.457032 7.640625-19.183594 14.519531l-76.550781 111.34375zm59 0 32.792969-47.695312v15.695312c0 13.230469 10.769531 24 24 24s24-10.769531 24-24v-16c0-4.417969 3.59375-8 8-8s8 3.582031 8 8v8c0 13.230469 10.769531 24 24 24s24-10.769531 24-24v-7.695312l32.792969 47.695312zm107.265625-102.28125 21.527344 31.3125v30.96875c0 4.414062-3.59375 8-8 8s-8-3.585938-8-8v-8c0-13.234375-10.769531-24-24-24s-24 10.765625-24 24v16c0 4.414062-3.59375 8-8 8s-8-3.585938-8-8v-38.96875l21.527344-31.3125c4.183594-6.085938 11.089844-9.71875 18.472656-9.71875s14.289062 3.632812 18.472656 9.71875zm0 0" data-original="#000000" class="" style="fill:#000000"/><path d="m416 211.3125h16v16h-16zm0 0" data-original="#000000" class="" style="fill:#000000"/><path d="m448 211.3125h16v16h-16zm0 0" data-original="#000000" class="" style="fill:#000000"/><path d="m480 211.3125h16v16h-16zm0 0" data-original="#000000" class="" style="fill:#000000"/><path d="m0 315.3125h16v16h-16zm0 0" data-original="#000000" class="" style="fill:#000000"/><path d="m32 315.3125h16v16h-16zm0 0" data-original="#000000" class="" style="fill:#000000"/><path d="m64 315.3125h16v16h-16zm0 0" data-original="#000000" class="" style="fill:#000000"/></g> </svg>
