<?xml version="1.0" encoding="utf-8"?>
<!-- Generator: Adobe Illustrator 19.0.0, SVG Export Plug-In . SVG Version: 6.00 Build 0)  -->
<svg version="1.1" id="Camada_1" xmlns="http://www.w3.org/2000/svg" xmlns:xlink="http://www.w3.org/1999/xlink" x="0px" y="0px"
	 viewBox="0 0 243.8 118.2" style="enable-background:new 0 0 243.8 118.2;" xml:space="preserve">
<style type="text/css">
	.st0{fill:#FF3031;}
	.st1{fill:#010002;}
</style>
<path class="st0" d="M33.7,103.5c0,0,41.6-51.5,182.6-45.5v-4.3H58.4c0,0-30.8-1.5-30.8,24.9v24.9H33.7z"/>
<g id="XMLID_5_">
	<path class="st1" d="M47.6,29.2c0-1.9,0.3-3.8,1-5.7c0.7-1.9,1.7-3.6,3-5.1c1.3-1.5,3-2.7,4.9-3.7c1.9-0.9,4.1-1.4,6.5-1.4
		c2.9,0,5.4,0.6,7.5,1.9c2.1,1.3,3.6,3,4.7,5l-4,2.7c-0.5-1-1-1.8-1.6-2.4c-0.6-0.7-1.3-1.2-2.1-1.6c-0.8-0.4-1.5-0.7-2.3-0.8
		c-0.8-0.2-1.6-0.2-2.3-0.2c-1.7,0-3.1,0.3-4.4,1c-1.3,0.7-2.3,1.6-3.2,2.7c-0.9,1.1-1.5,2.4-1.9,3.7c-0.4,1.4-0.7,2.8-0.7,4.1
		c0,1.6,0.3,3,0.8,4.5c0.5,1.4,1.2,2.7,2.1,3.7c0.9,1.1,2,1.9,3.3,2.6c1.3,0.6,2.6,1,4.1,1c0.8,0,1.6-0.1,2.4-0.3
		c0.8-0.2,1.6-0.5,2.4-0.9c0.8-0.4,1.5-1,2.1-1.6c0.6-0.7,1.2-1.5,1.6-2.4l4.2,2.4c-0.5,1.2-1.2,2.3-2.2,3.2c-0.9,0.9-2,1.7-3.1,2.3
		s-2.4,1.1-3.7,1.4c-1.3,0.3-2.6,0.5-3.8,0.5c-2.3,0-4.3-0.5-6.2-1.4c-1.9-1-3.5-2.2-4.8-3.8c-1.4-1.5-2.4-3.3-3.1-5.3
		C48,33.2,47.6,31.2,47.6,29.2z"/>
	<path class="st1" d="M89.3,13.4h4.4l12.6,32H101l-3.4-8.7H85.3L82,45.4h-5.4L89.3,13.4z M96.7,33l-5.1-13.7L86.2,33H96.7z"/>
	<path class="st1" d="M110.3,45.4v-32h13.9c1.4,0,2.8,0.3,4,0.9c1.2,0.6,2.3,1.4,3.1,2.4c0.9,1,1.6,2.1,2,3.3
		c0.5,1.2,0.7,2.5,0.7,3.8c0,1.1-0.2,2.1-0.5,3.1c-0.3,1-0.7,1.9-1.3,2.7c-0.5,0.8-1.2,1.6-2,2.2c-0.8,0.6-1.6,1.1-2.6,1.4l7.5,12.1
		h-5.7l-6.9-11.1h-7.4v11.1H110.3z M115.3,29.8h8.8c0.7,0,1.4-0.2,2-0.5s1.1-0.7,1.5-1.3c0.4-0.6,0.8-1.2,1-1.9
		c0.2-0.7,0.4-1.5,0.4-2.3s-0.1-1.6-0.4-2.3c-0.3-0.7-0.7-1.4-1.1-1.9c-0.5-0.5-1-1-1.6-1.3c-0.6-0.3-1.3-0.5-1.9-0.5h-8.6V29.8z"/>
	<path class="st1" d="M162.4,41.4c-2.7,2.8-5.8,4.2-9.3,4.2c-2.1,0-4.1-0.4-5.9-1.3c-1.8-0.9-3.4-2.1-4.8-3.6
		c-1.4-1.5-2.4-3.2-3.2-5.2s-1.1-4.1-1.1-6.2c0-2.2,0.4-4.2,1.1-6.2c0.8-1.9,1.8-3.7,3.2-5.1c1.3-1.5,3-2.6,4.8-3.5s3.9-1.3,6.1-1.3
		c3.1,0,5.6,0.6,7.7,1.9c2.1,1.3,3.6,3,4.7,5.1l-3.9,2.8c-0.9-1.7-2.1-3-3.6-3.9c-1.5-0.9-3.2-1.3-5-1.3c-1.5,0-2.9,0.3-4.1,1
		c-1.2,0.6-2.3,1.5-3.1,2.6c-0.9,1.1-1.5,2.3-2,3.7s-0.7,2.9-0.7,4.4c0,1.6,0.3,3.1,0.8,4.5c0.5,1.4,1.2,2.6,2.2,3.7
		c0.9,1.1,2,1.9,3.3,2.5c1.3,0.6,2.6,0.9,4.1,0.9c1.6,0,3.2-0.4,4.7-1.1c1.5-0.7,2.9-1.9,4.3-3.6V33h-6.7v-3.7h10.9v16.2h-4.2V41.4z
		"/>
	<path class="st1" d="M181.8,13.4h4.4l12.6,32h-5.3l-3.4-8.7h-12.3l-3.3,8.7h-5.4L181.8,13.4z M189.1,33L184,19.2L178.7,33H189.1z"
		/>
</g>
</svg>
