<?xml version="1.0" encoding="utf-8"?>
<!-- Generator: Adobe Illustrator 19.0.0, SVG Export Plug-In . SVG Version: 6.00 Build 0)  -->
<svg version="1.1" id="Camada_1" xmlns="http://www.w3.org/2000/svg" xmlns:xlink="http://www.w3.org/1999/xlink" x="0px" y="0px"
	 viewBox="-184 337.8 241.3 118.2" style="enable-background:new -184 337.8 241.3 118.2;" xml:space="preserve">
<style type="text/css">
	.st0{fill:#FF3031;}
	.st1{fill:none;}
	.st2{enable-background:new    ;}
</style>
<path class="st0" d="M-114,447.9c0,0,71.9-39,152.5-47.9c0,0-48.2-9.5-148.9,14.5C-110.3,414.6-116.7,431.6-114,447.9z"/>
<rect x="-178.3" y="345.9" class="st1" width="229.5" height="39"/>
<g class="st2">
	<path d="M-150,373.9v8.5h-25.3v-35.5h24.9v8.5h-15.1v5h12.9v7.9h-12.9v5.6H-150z"/>
	<path d="M-118.6,382.4v-18.7l-5.9,13.2h-5.2l-6-13.2v18.7h-9.8v-35.5h10.7l7.6,16.7l7.7-16.7h10.6v35.5H-118.6z"/>
	<path d="M-102.7,382.4v-35.5h15.3c1.7,0,3.3,0.4,4.8,1.1c1.5,0.7,2.7,1.6,3.8,2.8c1.1,1.2,1.9,2.5,2.5,4s0.9,3,0.9,4.5
		c0,1.6-0.3,3.1-0.8,4.6c-0.6,1.5-1.4,2.8-2.4,4c-1,1.1-2.3,2.1-3.7,2.8c-1.5,0.7-3,1-4.8,1H-93v10.9H-102.7z M-93,363h5.2
		c0.6,0,1.2-0.3,1.7-0.8c0.5-0.6,0.8-1.5,0.8-3c0-1.5-0.3-2.5-0.9-3c-0.6-0.5-1.2-0.8-1.8-0.8H-93V363z"/>
	<path d="M-71.6,382.4v-35.5h16.3c1.7,0,3.3,0.4,4.8,1.1c1.5,0.7,2.7,1.6,3.8,2.8c1.1,1.2,1.9,2.5,2.5,4c0.6,1.5,0.9,3,0.9,4.5
		c0,2.1-0.4,4-1.3,5.8s-2.2,3.2-3.8,4.4l7.5,13h-11l-6.3-10.9h-3.7v10.9H-71.6z M-61.8,363h6.2c0.6,0,1.2-0.3,1.7-1
		c0.5-0.7,0.8-1.6,0.8-2.8c0-1.2-0.3-2.2-0.9-2.8c-0.6-0.6-1.2-1-1.8-1h-5.9V363z"/>
	<path d="M-12.5,373.9v8.5h-25.3v-35.5H-13v8.5h-15.1v5h12.9v7.9h-12.9v5.6H-12.5z"/>
	<path d="M13.5,358.5c-1-0.6-2-1.1-3.1-1.6c-0.9-0.4-1.9-0.8-3-1.1s-2.2-0.5-3.3-0.5c-0.9,0-1.6,0.1-2.1,0.4
		c-0.5,0.3-0.8,0.7-0.8,1.3c0,0.5,0.2,0.9,0.5,1.2s0.7,0.6,1.3,0.8s1.3,0.5,2.1,0.7c0.8,0.2,1.7,0.5,2.8,0.9c1.6,0.5,3.1,1,4.4,1.6
		c1.3,0.6,2.4,1.3,3.4,2.1c0.9,0.8,1.7,1.8,2.2,3s0.8,2.6,0.8,4.3c0,2.1-0.4,3.9-1.2,5.4c-0.8,1.4-1.8,2.6-3.1,3.5
		c-1.3,0.9-2.7,1.5-4.3,1.9c-1.6,0.4-3.2,0.6-4.9,0.6c-1.3,0-2.6-0.1-4-0.3c-1.4-0.2-2.7-0.5-4.1-0.9c-1.4-0.4-2.7-0.8-3.9-1.3
		s-2.4-1.1-3.5-1.7l4.2-8.5c1.2,0.7,2.4,1.4,3.6,2c1.1,0.5,2.3,1,3.6,1.3c1.4,0.4,2.7,0.6,4.1,0.6c1.1,0,1.8-0.1,2.2-0.4
		c0.4-0.3,0.6-0.7,0.6-1.1c0-0.5-0.2-0.9-0.6-1.3c-0.4-0.4-1-0.7-1.7-0.9s-1.6-0.5-2.5-0.8c-1-0.3-2-0.6-3-0.9
		c-1.6-0.5-2.9-1.1-4-1.7c-1.1-0.6-2.1-1.3-2.8-2.1c-0.7-0.8-1.3-1.7-1.6-2.7c-0.4-1-0.5-2.2-0.5-3.5c0-2,0.4-3.7,1.1-5.2
		c0.7-1.5,1.7-2.8,2.9-3.8c1.2-1,2.6-1.8,4.2-2.3c1.6-0.5,3.3-0.8,5-0.8c1.3,0,2.6,0.1,3.8,0.4s2.4,0.6,3.6,1s2.2,0.8,3.2,1.3
		c1,0.4,1.9,0.9,2.7,1.3L13.5,358.5z"/>
	<path d="M31.2,346.9h8.9l12.3,35.5h-9.9l-2.1-7h-9.5l-2.1,7h-10L31.2,346.9z M38.8,368.9l-3.2-11l-3.3,11H38.8z"/>
</g>
<path class="st0" d="M-177.7,435.2c0,0,71.9-34.1,152.5-43c0,0-50.2-10.7-148.9,9.7C-174,401.9-180.3,418.9-177.7,435.2z"/>
</svg>
