<?xml version="1.0" encoding="utf-8"?>
<!-- Generator: Adobe Illustrator 19.0.0, SVG Export Plug-In . SVG Version: 6.00 Build 0)  -->
<svg version="1.1" id="Camada_1" xmlns="http://www.w3.org/2000/svg" xmlns:xlink="http://www.w3.org/1999/xlink" x="0px" y="0px"
	 viewBox="-184 337.8 241.3 118.2" style="enable-background:new -184 337.8 241.3 118.2;" xml:space="preserve">
<style type="text/css">
	.st0{fill:#FF3031;}
	.st1{fill:none;}
	.st2{enable-background:new    ;}
	.st3{fill:#010002;}
</style>
<g>
	<path class="st0" d="M-113.8,447.9c0,0,71.9-39,152.5-47.9c0,0-48.2-9.5-148.9,14.5C-110.1,414.6-116.5,431.6-113.8,447.9z"/>
	<rect x="-178.1" y="345.9" class="st1" width="229.5" height="39"/>
	<path class="st0" d="M-177.5,435.2c0,0,71.9-34.1,152.5-43c0,0-50.2-10.7-148.9,9.7C-173.8,401.9-180.1,418.9-177.5,435.2z"/>
	<g id="XMLID_8_" class="st2">
		<path class="st3" d="M-166.3,384.9v-35.5h24.4v8.5h-14.6v5.9h11.9v7.9h-11.9v13.2H-166.3z"/>
		<path class="st3" d="M-138.2,384.9v-35.5h16.3c1.7,0,3.3,0.4,4.8,1.1s2.7,1.6,3.8,2.8c1.1,1.2,1.9,2.5,2.5,4s0.9,3,0.9,4.5
			c0,2.1-0.4,4-1.3,5.8s-2.2,3.2-3.8,4.4l7.5,13h-11l-6.3-11h-3.7v10.9H-138.2z M-128.5,365.5h6.2c0.6,0,1.2-0.3,1.7-1
			s0.8-1.6,0.8-2.8c0-1.2-0.3-2.2-0.9-2.8c-0.6-0.6-1.2-1-1.8-1h-5.9L-128.5,365.5L-128.5,365.5z"/>
		<path class="st3" d="M-79.2,376.4v8.5h-25.3v-35.5h24.9v8.5h-15.1v5h12.9v7.9h-12.9v5.6H-79.2z"/>
		<path class="st3" d="M-47,357.9h-10.2v27H-67v-27h-10.3v-8.5h30.2v8.5H-47z"/>
		<path class="st3" d="M-18.1,376.4v8.5h-25.3v-35.5h24.9v8.5h-15.1v5h12.8v7.9h-12.9v5.6H-18.1z"/>
		<path class="st3" d="M7.9,361c-1-0.6-2-1.1-3.1-1.6c-0.9-0.4-1.9-0.8-3-1.1c-1.1-0.3-2.2-0.5-3.3-0.5c-0.9,0-1.6,0.1-2.1,0.4
			c-0.5,0.3-0.8,0.7-0.8,1.3c0,0.5,0.2,0.9,0.5,1.2s0.7,0.6,1.3,0.8c0.6,0.3,1.3,0.5,2.1,0.7s1.7,0.5,2.8,0.9c1.6,0.5,3.1,1,4.4,1.6
			s2.4,1.3,3.4,2.1c0.9,0.8,1.6,1.8,2.1,3s0.8,2.6,0.8,4.3c0,2.1-0.4,3.9-1.2,5.4c-0.8,1.4-1.8,2.6-3.1,3.5s-2.7,1.5-4.4,1.9
			c-1.6,0.4-3.2,0.6-4.9,0.6c-1.3,0-2.6-0.1-4-0.3c-1.4-0.2-2.7-0.5-4.1-0.9c-1.3-0.4-2.6-0.8-3.9-1.3s-2.4-1.1-3.5-1.7l4.2-8.5
			c1.2,0.7,2.4,1.4,3.7,2c1.1,0.5,2.3,1,3.6,1.3c1.3,0.4,2.7,0.6,4.1,0.6c1.1,0,1.8-0.1,2.2-0.4s0.6-0.7,0.6-1.1
			c0-0.5-0.2-0.9-0.6-1.3s-1-0.7-1.7-0.9c-0.7-0.3-1.6-0.5-2.5-0.8c-1-0.3-2-0.6-3-0.9c-1.6-0.5-2.9-1.1-4.1-1.7
			c-1.1-0.6-2.1-1.3-2.8-2.1s-1.3-1.7-1.6-2.7s-0.5-2.2-0.5-3.5c0-2,0.4-3.7,1.1-5.2s1.7-2.8,2.9-3.8s2.6-1.8,4.2-2.3s3.3-0.8,5-0.8
			c1.3,0,2.6,0.1,3.8,0.4s2.4,0.6,3.6,1c1.1,0.4,2.2,0.8,3.2,1.3c1,0.4,1.9,0.9,2.7,1.3L7.9,361z"/>
	</g>
</g>
</svg>
