<?xml version="1.0" encoding="utf-8"?>
<!-- Generator: Adobe Illustrator 19.0.0, SVG Export Plug-In . SVG Version: 6.00 Build 0)  -->
<svg version="1.1" id="Camada_1" xmlns="http://www.w3.org/2000/svg" xmlns:xlink="http://www.w3.org/1999/xlink" x="0px" y="0px"
	 viewBox="-184 337.8 241.3 118.2" style="enable-background:new -184 337.8 241.3 118.2;" xml:space="preserve">
<style type="text/css">
	.st0{fill:#FF3031;}
	.st1{fill:#010002;}
</style>
<path class="st0" d="M-163.5,441.3c0,0,41.6-51.5,182.6-45.5v-4.3h-158c0,0-30.8-1.5-30.8,24.9v24.9H-163.5z"/>
<g id="XMLID_5_">
	<path class="st1" d="M-154.3,382.9c1.7,0,3.1-0.3,4.2-1c1.1-0.7,2-1.5,2.7-2.6c0.7-1.1,1.2-2.3,1.4-3.6c0.3-1.4,0.4-2.8,0.4-4.2
		v-16.2h5.1v16.2c0,2.2-0.3,4.3-0.8,6.2c-0.5,1.9-1.3,3.6-2.4,5.1c-1.1,1.5-2.5,2.6-4.3,3.4c-1.8,0.8-3.9,1.3-6.3,1.3
		c-2.6,0-4.7-0.4-6.5-1.3c-1.8-0.9-3.2-2.1-4.3-3.6c-1.1-1.5-1.9-3.2-2.3-5.1c-0.5-1.9-0.7-3.9-0.7-6v-16.2h5v16.2
		c0,1.5,0.1,2.9,0.4,4.3c0.3,1.4,0.8,2.6,1.4,3.6c0.7,1.1,1.6,1.9,2.7,2.6C-157.3,382.5-155.9,382.9-154.3,382.9z"/>
	<path class="st1" d="M-114.9,362.7c-0.3-0.3-0.7-0.7-1.3-1.1c-0.6-0.4-1.2-0.7-2-1.1c-0.8-0.3-1.6-0.6-2.5-0.8
		c-0.9-0.2-1.9-0.3-2.8-0.3c-2.1,0-3.7,0.4-4.7,1.2c-1,0.8-1.5,1.9-1.5,3.2c0,0.8,0.2,1.4,0.5,1.9s0.8,0.9,1.5,1.3
		c0.7,0.4,1.5,0.7,2.5,1c1,0.3,2.1,0.6,3.5,0.9c1.6,0.4,3.1,0.8,4.4,1.3c1.3,0.5,2.4,1.1,3.3,1.8c0.9,0.7,1.6,1.5,2.1,2.5
		c0.5,1,0.7,2.2,0.7,3.7c0,1.6-0.3,3-0.9,4.2c-0.6,1.2-1.5,2.1-2.5,2.9c-1.1,0.7-2.3,1.3-3.7,1.6c-1.4,0.3-2.9,0.5-4.5,0.5
		c-2.4,0-4.8-0.4-7-1.1c-2.3-0.7-4.3-1.8-6.1-3.2l2.3-4.3c0.4,0.4,1,0.8,1.7,1.3c0.7,0.5,1.6,0.9,2.6,1.3c1,0.4,2,0.8,3.2,1
		c1.1,0.3,2.3,0.4,3.6,0.4c2,0,3.5-0.3,4.6-1c1.1-0.7,1.6-1.7,1.6-3.1c0-0.8-0.2-1.5-0.6-2c-0.4-0.5-1-1-1.7-1.4
		c-0.8-0.4-1.7-0.8-2.7-1.1c-1.1-0.3-2.3-0.7-3.7-1c-1.6-0.4-3-0.9-4.2-1.3c-1.2-0.5-2.2-1-2.9-1.7c-0.8-0.7-1.4-1.4-1.8-2.3
		c-0.4-0.9-0.6-2-0.6-3.2c0-1.6,0.3-2.9,0.9-4.2c0.6-1.2,1.4-2.2,2.5-3.1c1-0.8,2.3-1.4,3.7-1.9c1.4-0.4,2.9-0.6,4.6-0.6
		c2.2,0,4.2,0.3,6,1c1.8,0.7,3.4,1.5,4.8,2.6L-114.9,362.7z"/>
	<path class="st1" d="M-93,382.9c1.7,0,3.1-0.3,4.2-1c1.1-0.7,2-1.5,2.7-2.6c0.7-1.1,1.2-2.3,1.4-3.6c0.3-1.4,0.4-2.8,0.4-4.2v-16.2
		h5.1v16.2c0,2.2-0.3,4.3-0.8,6.2c-0.5,1.9-1.3,3.6-2.4,5.1c-1.1,1.5-2.5,2.6-4.3,3.4c-1.8,0.8-3.9,1.3-6.3,1.3
		c-2.6,0-4.7-0.4-6.5-1.3c-1.8-0.9-3.2-2.1-4.3-3.6c-1.1-1.5-1.9-3.2-2.3-5.1c-0.5-1.9-0.7-3.9-0.7-6v-16.2h5v16.2
		c0,1.5,0.1,2.9,0.4,4.3c0.3,1.4,0.8,2.6,1.4,3.6c0.7,1.1,1.6,1.9,2.7,2.6C-96,382.5-94.6,382.9-93,382.9z"/>
	<path class="st1" d="M-64.4,355.2h4.4l12.6,32h-5.3l-3.4-8.7h-12.3l-3.3,8.7h-5.4L-64.4,355.2z M-57,374.8l-5.1-13.7l-5.3,13.7H-57
		z M-61.1,351.9l-3.2-1l2.6-5h4.7L-61.1,351.9z"/>
	<path class="st1" d="M-43.4,387.2v-32h13.9c1.4,0,2.8,0.3,4,0.9s2.3,1.4,3.1,2.4c0.9,1,1.6,2.1,2,3.3c0.5,1.2,0.7,2.5,0.7,3.8
		c0,1.1-0.2,2.1-0.5,3.1c-0.3,1-0.7,1.9-1.3,2.7c-0.5,0.8-1.2,1.6-2,2.2c-0.8,0.6-1.6,1.1-2.6,1.4l7.5,12.1h-5.7l-6.9-11.1h-7.4
		v11.1H-43.4z M-38.4,371.6h8.8c0.7,0,1.4-0.2,2-0.5c0.6-0.3,1.1-0.7,1.5-1.3c0.4-0.6,0.8-1.2,1-1.9c0.2-0.7,0.4-1.5,0.4-2.3
		s-0.1-1.6-0.4-2.3c-0.3-0.7-0.7-1.4-1.1-1.9c-0.5-0.5-1-1-1.6-1.3c-0.6-0.3-1.3-0.5-1.9-0.5h-8.6V371.6z"/>
	<path class="st1" d="M-13.7,387.2v-32h5v32H-13.7z"/>
	<path class="st1" d="M11.8,387.4c-2.3,0-4.4-0.5-6.2-1.4c-1.9-0.9-3.5-2.1-4.8-3.6c-1.3-1.5-2.4-3.2-3.1-5.2
		c-0.7-1.9-1.1-3.9-1.1-6c0-2.1,0.4-4.2,1.2-6.1c0.8-1.9,1.9-3.7,3.2-5.2c1.4-1.5,3-2.7,4.9-3.6c1.9-0.9,3.9-1.3,6.1-1.3
		c2.3,0,4.4,0.5,6.2,1.4c1.9,0.9,3.5,2.2,4.8,3.7c1.3,1.5,2.4,3.3,3.1,5.2s1.1,3.9,1.1,5.9c0,2.1-0.4,4.2-1.1,6.1
		c-0.8,2-1.8,3.7-3.2,5.2c-1.4,1.5-3,2.7-4.9,3.6C16.1,387,14,387.4,11.8,387.4z M1.7,371.2c0,1.5,0.2,3,0.7,4.4
		c0.5,1.4,1.2,2.7,2,3.7c0.9,1.1,2,1.9,3.2,2.6c1.3,0.6,2.7,1,4.2,1c1.6,0,3.1-0.3,4.3-1c1.2-0.7,2.3-1.6,3.2-2.7s1.5-2.4,2-3.7
		c0.5-1.4,0.7-2.8,0.7-4.2c0-1.5-0.2-3-0.7-4.4c-0.5-1.4-1.2-2.6-2-3.7c-0.9-1.1-2-1.9-3.2-2.6c-1.2-0.6-2.6-1-4.2-1
		c-1.6,0-3.1,0.3-4.3,1c-1.3,0.7-2.3,1.6-3.2,2.6c-0.9,1.1-1.5,2.3-2,3.7S1.7,369.8,1.7,371.2z"/>
	<path class="st1" d="M51.3,362.7c-0.3-0.3-0.7-0.7-1.3-1.1c-0.6-0.4-1.2-0.7-2-1.1s-1.6-0.6-2.5-0.8c-0.9-0.2-1.9-0.3-2.8-0.3
		c-2.1,0-3.7,0.4-4.7,1.2c-1,0.8-1.5,1.9-1.5,3.2c0,0.8,0.2,1.4,0.5,1.9c0.3,0.5,0.8,0.9,1.5,1.3c0.7,0.4,1.5,0.7,2.5,1
		c1,0.3,2.1,0.6,3.5,0.9c1.6,0.4,3.1,0.8,4.4,1.3c1.3,0.5,2.4,1.1,3.3,1.8c0.9,0.7,1.6,1.5,2.1,2.5c0.5,1,0.7,2.2,0.7,3.7
		c0,1.6-0.3,3-0.9,4.2c-0.6,1.2-1.5,2.1-2.5,2.9c-1.1,0.7-2.3,1.3-3.7,1.6c-1.4,0.3-2.9,0.5-4.5,0.5c-2.4,0-4.8-0.4-7-1.1
		c-2.3-0.7-4.3-1.8-6.1-3.2l2.3-4.3c0.4,0.4,1,0.8,1.7,1.3c0.7,0.5,1.6,0.9,2.6,1.3c1,0.4,2,0.8,3.2,1c1.1,0.3,2.3,0.4,3.6,0.4
		c2,0,3.5-0.3,4.6-1c1.1-0.7,1.6-1.7,1.6-3.1c0-0.8-0.2-1.5-0.6-2c-0.4-0.5-1-1-1.7-1.4c-0.8-0.4-1.7-0.8-2.7-1.1
		c-1.1-0.3-2.3-0.7-3.7-1c-1.6-0.4-3-0.9-4.2-1.3c-1.2-0.5-2.2-1-2.9-1.7c-0.8-0.7-1.4-1.4-1.8-2.3c-0.4-0.9-0.6-2-0.6-3.2
		c0-1.6,0.3-2.9,0.9-4.2c0.6-1.2,1.4-2.2,2.5-3.1c1-0.8,2.3-1.4,3.7-1.9c1.4-0.4,2.9-0.6,4.6-0.6c2.2,0,4.2,0.3,6,1
		c1.8,0.7,3.4,1.5,4.8,2.6L51.3,362.7z"/>
</g>
</svg>
