<?xml version="1.0" encoding="utf-8"?>
<!-- Generator: Adobe Illustrator 19.0.0, SVG Export Plug-In . SVG Version: 6.00 Build 0)  -->
<svg version="1.1" id="Camada_1" xmlns="http://www.w3.org/2000/svg" xmlns:xlink="http://www.w3.org/1999/xlink" x="0px" y="0px"
	 viewBox="0 0 243.8 118.2" style="enable-background:new 0 0 243.8 118.2;" xml:space="preserve">
<style type="text/css">
	.st0{fill:#FF3031;}
	.st1{fill:#010002;}
</style>
<path class="st0" d="M26,103.5c0,0,41.6-51.5,182.6-45.5v-4.3H50.7c0,0-30.8-1.5-30.8,24.9v24.9H26z"/>
<g id="XMLID_1_">
	<path class="st1" d="M20.2,13.9l9.6,25.6l9.6-25.6h5.4L32,45.9h-4.3l-12.8-32H20.2z"/>
	<path class="st1" d="M70.6,41.4v4.5H48.7v-32h21.5v4.5H53.8v9.1H68v4.2H53.8v9.8H70.6z"/>
	<path class="st1" d="M75.9,45.9v-32h5v32H75.9z M79.5,10.6l-3.2-1l2.6-5h4.7L79.5,10.6z"/>
	<path class="st1" d="M86.1,29.7c0-1.9,0.3-3.8,1-5.7c0.7-1.9,1.7-3.6,3-5.1c1.3-1.5,3-2.7,4.9-3.7c1.9-0.9,4.1-1.4,6.5-1.4
		c2.9,0,5.4,0.6,7.5,1.9c2.1,1.3,3.6,3,4.7,5l-4,2.7c-0.5-1-1-1.8-1.6-2.4c-0.6-0.7-1.3-1.2-2.1-1.6c-0.8-0.4-1.5-0.7-2.3-0.8
		c-0.8-0.2-1.6-0.2-2.3-0.2c-1.7,0-3.1,0.3-4.4,1c-1.3,0.7-2.3,1.6-3.2,2.7c-0.9,1.1-1.5,2.4-1.9,3.7c-0.4,1.4-0.7,2.8-0.7,4.1
		c0,1.6,0.3,3,0.8,4.5c0.5,1.4,1.2,2.7,2.1,3.7c0.9,1.1,2,1.9,3.3,2.6c1.3,0.6,2.6,1,4.1,1c0.8,0,1.6-0.1,2.4-0.3
		c0.8-0.2,1.6-0.5,2.4-0.9c0.8-0.4,1.5-1,2.1-1.6c0.6-0.7,1.2-1.5,1.6-2.4l4.2,2.4c-0.5,1.2-1.2,2.3-2.2,3.2c-0.9,0.9-2,1.7-3.1,2.3
		s-2.4,1.1-3.7,1.4c-1.3,0.3-2.6,0.5-3.8,0.5c-2.3,0-4.3-0.5-6.2-1.4c-1.9-1-3.5-2.2-4.8-3.8c-1.4-1.5-2.4-3.3-3.1-5.3
		C86.5,33.7,86.1,31.7,86.1,29.7z"/>
	<path class="st1" d="M132.2,41.5c1.7,0,3.1-0.3,4.2-1c1.1-0.7,2-1.5,2.7-2.6c0.7-1.1,1.2-2.3,1.4-3.6c0.3-1.4,0.4-2.8,0.4-4.2V13.9
		h5.1v16.2c0,2.2-0.3,4.3-0.8,6.2s-1.3,3.6-2.4,5.1c-1.1,1.5-2.5,2.6-4.3,3.4c-1.8,0.8-3.9,1.3-6.3,1.3c-2.5,0-4.7-0.4-6.5-1.3
		c-1.8-0.9-3.2-2.1-4.3-3.6c-1.1-1.5-1.9-3.2-2.3-5.1c-0.5-1.9-0.7-3.9-0.7-6V13.9h5v16.2c0,1.5,0.1,2.9,0.4,4.3
		c0.3,1.4,0.8,2.6,1.4,3.6c0.7,1.1,1.6,1.9,2.7,2.6C129.2,41.2,130.6,41.5,132.2,41.5z"/>
	<path class="st1" d="M152.7,45.9v-32h5v27.5h17.1v4.5H152.7z"/>
	<path class="st1" d="M190.3,46.1c-2.3,0-4.4-0.5-6.2-1.4c-1.9-0.9-3.5-2.1-4.8-3.6c-1.3-1.5-2.4-3.2-3.1-5.2
		c-0.7-1.9-1.1-3.9-1.1-6c0-2.1,0.4-4.2,1.2-6.1c0.8-1.9,1.9-3.7,3.2-5.2c1.4-1.5,3-2.7,4.9-3.6c1.9-0.9,3.9-1.3,6.1-1.3
		c2.3,0,4.4,0.5,6.2,1.4c1.9,0.9,3.5,2.2,4.8,3.7c1.3,1.5,2.4,3.3,3.1,5.2s1.1,3.9,1.1,5.9c0,2.1-0.4,4.2-1.1,6.1
		c-0.8,2-1.8,3.7-3.2,5.2c-1.4,1.5-3,2.7-4.9,3.6C194.5,45.6,192.4,46.1,190.3,46.1z M180.1,29.9c0,1.5,0.2,3,0.7,4.4
		c0.5,1.4,1.2,2.7,2,3.7c0.9,1.1,2,1.9,3.2,2.6c1.3,0.6,2.7,1,4.2,1c1.6,0,3.1-0.3,4.3-1c1.2-0.7,2.3-1.6,3.2-2.7s1.5-2.4,2-3.7
		c0.5-1.4,0.7-2.8,0.7-4.2c0-1.5-0.2-3-0.7-4.4c-0.5-1.4-1.2-2.6-2-3.7c-0.9-1.1-2-1.9-3.2-2.6c-1.2-0.6-2.6-1-4.2-1
		c-1.6,0-3.1,0.3-4.3,1c-1.3,0.7-2.3,1.6-3.2,2.6c-0.9,1.1-1.5,2.3-2,3.7S180.1,28.4,180.1,29.9z"/>
	<path class="st1" d="M229.7,21.4c-0.3-0.3-0.7-0.7-1.3-1.1c-0.6-0.4-1.2-0.7-2-1.1s-1.6-0.6-2.5-0.8c-0.9-0.2-1.9-0.3-2.8-0.3
		c-2.1,0-3.7,0.4-4.7,1.2c-1,0.8-1.5,1.9-1.5,3.2c0,0.8,0.2,1.4,0.5,1.9c0.3,0.5,0.8,0.9,1.5,1.3c0.7,0.4,1.5,0.7,2.5,1
		c1,0.3,2.1,0.6,3.5,0.9c1.6,0.4,3.1,0.8,4.4,1.3c1.3,0.5,2.4,1.1,3.3,1.8c0.9,0.7,1.6,1.5,2.1,2.5c0.5,1,0.7,2.2,0.7,3.7
		c0,1.6-0.3,3-0.9,4.2c-0.6,1.2-1.5,2.1-2.5,2.9c-1.1,0.7-2.3,1.3-3.7,1.6c-1.4,0.3-2.9,0.5-4.5,0.5c-2.4,0-4.8-0.4-7-1.1
		c-2.3-0.7-4.3-1.8-6.1-3.2l2.3-4.3c0.4,0.4,1,0.8,1.7,1.3c0.7,0.5,1.6,0.9,2.6,1.3c1,0.4,2,0.8,3.2,1c1.1,0.3,2.3,0.4,3.6,0.4
		c2,0,3.5-0.3,4.6-1c1.1-0.7,1.6-1.7,1.6-3.1c0-0.8-0.2-1.5-0.6-2c-0.4-0.5-1-1-1.7-1.4c-0.8-0.4-1.7-0.8-2.7-1.1
		c-1.1-0.3-2.3-0.7-3.7-1c-1.6-0.4-3-0.9-4.2-1.3c-1.2-0.5-2.2-1-2.9-1.7c-0.8-0.7-1.4-1.4-1.8-2.3c-0.4-0.9-0.6-2-0.6-3.2
		c0-1.6,0.3-2.9,0.9-4.2c0.6-1.2,1.4-2.2,2.5-3.1c1-0.8,2.3-1.4,3.7-1.9c1.4-0.4,2.9-0.6,4.6-0.6c2.2,0,4.2,0.3,6,1
		c1.8,0.7,3.4,1.5,4.8,2.6L229.7,21.4z"/>
</g>
</svg>
