<?xml version="1.0" encoding="utf-8"?>
<!-- Generator: Adobe Illustrator 19.0.0, SVG Export Plug-In . SVG Version: 6.00 Build 0)  -->
<svg version="1.1" id="Camada_1" xmlns="http://www.w3.org/2000/svg" xmlns:xlink="http://www.w3.org/1999/xlink" x="0px" y="0px"
	 viewBox="-183 337.8 243.8 118.2" style="enable-background:new -183 337.8 243.8 118.2;" xml:space="preserve">
<style type="text/css">
	.st0{fill:#00FF68;}
	.st1{fill:#070101;}
</style>
<path class="st0" d="M-162.5,436.6c0,0,41.5-51.5,182.5-45.5v-4.3h-157.9c0,0-30.8-1.5-30.8,24.9v24.9H-162.5z"/>
<g id="XMLID_5_">
	<path class="st1" d="M-146,348.7l5.8,20.9l5.7-20.9h8.5l-10.8,32h-6.7l-10.9-32H-146z"/>
	<path class="st1" d="M-102.9,373v7.6h-20.9v-32h20.6v7.7h-12.5v4.5h10.7v7.1h-10.7v5H-102.9z"/>
	<path class="st1" d="M-91,364.9v15.7h-8.1v-32h6.3l11.8,16.2v-16.2h8.1v32h-6.4L-91,364.9z"/>
	<path class="st1" d="M-67.9,380.6v-32h11.3c2.4,0,4.6,0.4,6.4,1.3c1.8,0.8,3.4,2,4.6,3.4c1.2,1.4,2.2,3.1,2.8,5.1s1,4,1,6.2
		c0,2.4-0.4,4.6-1.1,6.6c-0.7,2-1.7,3.6-3,5c-1.3,1.4-2.9,2.5-4.7,3.2c-1.8,0.8-3.8,1.1-6.1,1.1H-67.9z M-50,364.6
		c0-1.2-0.2-2.4-0.5-3.4c-0.3-1-0.7-1.9-1.3-2.6c-0.6-0.7-1.3-1.3-2.1-1.7c-0.8-0.4-1.8-0.6-2.8-0.6h-3.2V373h3.2c1,0,2-0.2,2.8-0.6
		c0.8-0.4,1.5-1,2.1-1.8c0.6-0.7,1-1.6,1.3-2.7C-50.1,366.9-50,365.8-50,364.6z"/>
	<path class="st1" d="M-31.8,348.7h7.4l10.2,32h-8.2l-1.8-6.3h-7.8l-1.7,6.3h-8.2L-31.8,348.7z M-25.5,368.5l-2.6-9.9l-2.7,9.9
		H-25.5z"/>
	<path class="st1" d="M5.6,359.1c-0.8-0.5-1.7-1-2.6-1.4c-0.7-0.4-1.6-0.7-2.5-1s-1.8-0.5-2.7-0.5c-0.7,0-1.3,0.1-1.7,0.4
		c-0.4,0.2-0.6,0.6-0.6,1.2c0,0.4,0.1,0.8,0.4,1c0.2,0.3,0.6,0.5,1.1,0.7c0.5,0.2,1,0.4,1.7,0.7c0.7,0.2,1.4,0.5,2.3,0.8
		c1.4,0.5,2.6,0.9,3.7,1.5c1.1,0.5,2,1.2,2.8,1.9c0.8,0.7,1.4,1.6,1.8,2.7c0.4,1.1,0.6,2.3,0.6,3.8c0,1.9-0.3,3.5-1,4.8
		c-0.6,1.3-1.5,2.3-2.6,3.1c-1.1,0.8-2.3,1.3-3.6,1.7c-1.3,0.3-2.7,0.5-4,0.5c-1.1,0-2.2-0.1-3.3-0.3c-1.1-0.2-2.3-0.4-3.4-0.8
		c-1.1-0.3-2.2-0.7-3.2-1.2c-1-0.5-2-1-2.9-1.5l3.5-7.7c1,0.7,2,1.2,3,1.8c0.9,0.5,1.9,0.9,3,1.2c1.1,0.4,2.3,0.5,3.4,0.5
		c0.9,0,1.5-0.1,1.8-0.4c0.3-0.3,0.5-0.6,0.5-1c0-0.4-0.2-0.8-0.5-1.1s-0.8-0.6-1.4-0.8c-0.6-0.2-1.3-0.5-2.1-0.7
		c-0.8-0.2-1.6-0.5-2.5-0.9c-1.3-0.5-2.4-1-3.4-1.6c-0.9-0.6-1.7-1.2-2.3-1.9c-0.6-0.7-1.1-1.5-1.3-2.4c-0.3-0.9-0.4-1.9-0.4-3.1
		c0-1.8,0.3-3.3,0.9-4.7c0.6-1.4,1.4-2.5,2.4-3.4c1-0.9,2.2-1.6,3.5-2c1.3-0.5,2.7-0.7,4.2-0.7c1.1,0,2.1,0.1,3.1,0.3
		c1,0.2,2,0.5,3,0.9c1,0.3,1.8,0.7,2.7,1.1c0.8,0.4,1.6,0.8,2.2,1.1L5.6,359.1z"/>
</g>
</svg>
