<?xml version="1.0" encoding="utf-8"?>
<!-- Generator: Adobe Illustrator 19.0.0, SVG Export Plug-In . SVG Version: 6.00 Build 0)  -->
<svg version="1.1" id="Capa_1" xmlns="http://www.w3.org/2000/svg" xmlns:xlink="http://www.w3.org/1999/xlink" x="0px" y="0px"
	 viewBox="-63 -16 512 512" style="enable-background:new -63 -16 512 512;" xml:space="preserve">
<style type="text/css">
	.st0{fill:#F7F4FF;}
</style>
<g>
	<g>
		<path class="st0" d="M351.5,172.8h-32.2L329,61.3c0-0.2,0-0.4,0-0.6l0,0l0,0c0-3-1.8-5.7-4.5-6.9c0,0,0,0-0.1,0
			c-0.2-0.1-0.3-0.1-0.5-0.2c-0.1,0-0.1,0-0.2-0.1c-0.1,0-0.3-0.1-0.4-0.1c-0.1,0-0.2-0.1-0.3-0.1s-0.3,0-0.4-0.1
			c-0.1,0-0.2,0-0.4-0.1c0,0,0,0-0.1,0s-0.3,0-0.4,0c-0.1,0-0.2,0-0.3,0h-0.1l0,0H167.9c-4.1,0-7.5,3.4-7.5,7.5s3.4,7.5,7.5,7.5
			h145.3l-14.9,171.4l0,0l-3.8,43.2H33.9l4.4-45h49.6c4.1,0,7.5-3.4,7.5-7.5s-3.4-7.5-7.5-7.5H39.7l9.2-95h79c4.1,0,7.5-3.4,7.5-7.5
			s-3.4-7.5-7.5-7.5H50.4L54.7,68h83.2c4.1,0,7.5-3.4,7.5-7.5s-3.4-7.5-7.5-7.5h-90l0,0c-3.5,0-6.6,2.5-7.3,5.9c0,0,0,0,0,0.1
			c0,0.2-0.1,0.4-0.1,0.6c0,0.1,0,0.1,0,0.2l0,0l-5.1,52.9h-90.9c-4.1,0-7.5,3.4-7.5,7.5s3.4,7.5,7.5,7.5h89.4l-9.2,95H-2.1
			c-4.1,0-7.5,3.4-7.5,7.5s3.4,7.5,7.5,7.5h25.3l-5,51.7l0,0l-7.7,80l0,0l0,0c0,0.1,0,0.2,0,0.3s0,0.3,0,0.4l0,0c0,0.2,0,0.4,0,0.6
			c0,0.1,0,0.1,0,0.2c0,0.2,0.1,0.4,0.1,0.6c0,0.1,0,0.1,0,0.2s0.1,0.3,0.1,0.4s0,0.2,0.1,0.3v0.1c0.4,1.1,1,2.1,1.8,2.9l0,0
			c0.1,0.1,0.2,0.2,0.3,0.2c0.5,0.5,1.1,0.9,1.7,1.2c0.1,0.1,0.3,0.1,0.4,0.2h0.1c0.2,0.1,0.4,0.1,0.6,0.2c0,0,0,0,0.1,0
			c0.2,0.1,0.4,0.1,0.7,0.2h0.1c0.2,0,0.4,0.1,0.7,0.1l0,0c0.2,0,0.5,0,0.7,0l0,0h33.4c3.7,28,27.7,49.6,56.6,49.6
			s52.9-21.6,56.6-49.6H285c3.7,28,27.7,49.6,56.6,49.6c28.9,0,52.9-21.6,56.6-49.6h33.4l0,0c0.3,0,0.5,0,0.7,0h0.1
			c0.2,0,0.4,0,0.6-0.1c0.1,0,0.2,0,0.2-0.1c0.1,0,0.3-0.1,0.4-0.1c0.1,0,0.2-0.1,0.3-0.1s0.2-0.1,0.4-0.1c0.1,0,0.2-0.1,0.3-0.1
			c0.1-0.1,0.2-0.1,0.3-0.2c0.1-0.1,0.2-0.1,0.3-0.2s0.2-0.1,0.3-0.2c0.1-0.1,0.2-0.1,0.3-0.2s0.2-0.1,0.3-0.2
			c0.1-0.1,0.2-0.1,0.2-0.2c0.1-0.1,0.2-0.2,0.3-0.3s0.1-0.1,0.2-0.2c0.1-0.1,0.2-0.2,0.3-0.3s0.1-0.1,0.2-0.2
			c0.1-0.1,0.2-0.3,0.3-0.4l0.1-0.1c0.1-0.2,0.2-0.4,0.3-0.6l0,0c0.1-0.2,0.2-0.4,0.3-0.6c0-0.1,0-0.1,0.1-0.2
			c0.1-0.2,0.1-0.3,0.2-0.5c0-0.1,0.1-0.2,0.1-0.3s0.1-0.2,0.1-0.4c0-0.1,0-0.2,0.1-0.3c0-0.1,0-0.2,0.1-0.3
			c0.3-2.5,6.2-49.7,8.8-80.1v-0.1c0.7-8.5,1.2-15.9,1.2-20.5C449,216.6,405.3,172.8,351.5,172.8z M318,187.8h30.7l-3.9,45H314
			L318,187.8z M107.9,412.4c-23.2,0-42.1-18.9-42.1-42.1s18.9-42.1,42.1-42.1s42.1,18.9,42.1,42.1
			C150.1,393.5,131.2,412.4,107.9,412.4z M341.5,412.4c-23.2,0-42.1-18.9-42.1-42.1s18.9-42.1,42.1-42.1c23.2,0,42.1,18.9,42.1,42.1
			C383.5,393.5,364.7,412.4,341.5,412.4z M424.9,362.8h-26.8c-3.7-28-27.7-49.6-56.6-49.6c-28.9,0-52.9,21.7-56.6,49.6H164.6
			c-3.7-28-27.7-49.6-56.6-49.6s-52.9,21.7-56.6,49.6H26.2l6.3-65h268.9l0,0l0,0c0.3,0,0.5,0,0.7,0h0.1c0.2,0,0.4-0.1,0.6-0.1
			c0.1,0,0.2,0,0.2-0.1c0.1,0,0.3-0.1,0.4-0.1c0.1,0,0.2-0.1,0.3-0.1s0.3-0.1,0.4-0.1c0.1,0,0.2-0.1,0.3-0.1
			c0.1-0.1,0.2-0.1,0.3-0.2c0.1-0.1,0.2-0.1,0.3-0.2s0.2-0.1,0.3-0.2s0.2-0.1,0.3-0.2c0.1-0.1,0.2-0.1,0.3-0.2
			c0.1-0.1,0.2-0.1,0.3-0.2s0.2-0.2,0.3-0.3c0.1-0.1,0.2-0.1,0.2-0.2c0.1-0.1,0.2-0.2,0.3-0.3c0.1-0.1,0.1-0.2,0.2-0.2
			c0.1-0.1,0.2-0.2,0.2-0.3c0.1-0.1,0.1-0.2,0.2-0.2c0.1-0.1,0.1-0.2,0.2-0.3c0.1-0.1,0.1-0.2,0.1-0.3c0.1-0.1,0.1-0.2,0.2-0.4
			c0-0.1,0.1-0.2,0.1-0.3s0.1-0.2,0.1-0.4c0-0.1,0.1-0.2,0.1-0.3c0-0.1,0.1-0.2,0.1-0.4c0-0.1,0.1-0.2,0.1-0.4c0-0.1,0-0.2,0.1-0.4
			c0-0.1,0-0.2,0.1-0.4c0,0,0,0,0-0.1l3.8-43.1h38.8c23,0,33.3,11.9,44.3,24.5c9.1,10.4,19.2,22,36.3,24.8
			C430,320.2,426.4,349.9,424.9,362.8z M433.4,282.1c-11.1-2.3-18-10.1-26.3-19.7c-10.4-11.9-23.1-26.5-47.4-29.2l3.9-44.5
			c39.8,5.9,70.4,40.3,70.4,81.6C434,273.1,433.8,277.2,433.4,282.1z"/>
	</g>
</g>
<g>
	<g>
		<path class="st0" d="M340,110.5c-15.2,0-27.5,12.3-27.5,27.5s12.3,27.5,27.5,27.5s27.5-12.3,27.5-27.5
			C367.5,122.9,355.2,110.5,340,110.5z M340,150.5c-6.9,0-12.5-5.6-12.5-12.5s5.6-12.5,12.5-12.5s12.5,5.6,12.5,12.5
			S346.9,150.5,340,150.5z"/>
	</g>
</g>
<g>
	<g>
		<path class="st0" d="M573.5,110.5c-15.2,0-27.5,12.3-27.5,27.5s12.3,27.5,27.5,27.5S601,153.2,601,138
			C601,122.9,588.7,110.5,573.5,110.5z M573.5,150.5c-6.9,0-12.5-5.6-12.5-12.5s5.6-12.5,12.5-12.5S586,131.1,586,138
			S580.4,150.5,573.5,150.5z"/>
	</g>
</g>
<g>
	<g>
		<path class="st0" d="M240-59.5h-36.7c-4.1,0-7.5,3.4-7.5,7.5s3.4,7.5,7.5,7.5H240c4.1,0,7.5-3.4,7.5-7.5S244.1-59.5,240-59.5z"/>
	</g>
</g>
</svg>
