<?xml version="1.0" encoding="utf-8"?>
<!-- Generator: Adobe Illustrator 19.0.0, SVG Export Plug-In . SVG Version: 6.00 Build 0)  -->
<svg version="1.1" id="Camada_1" xmlns="http://www.w3.org/2000/svg" xmlns:xlink="http://www.w3.org/1999/xlink" x="0px" y="0px"
	 viewBox="0 0 1024 480" style="enable-background:new 0 0 1024 480;" xml:space="preserve">
<style type="text/css">
	.st0{fill:#FF0101;}
</style>
<g id="desenhos_x5F_cima">
	<path id="XMLID_154_" class="st0" d="M580.3,61.4c11.6,6.7,23,13.9,34.9,20c54.8,28.4,113.1,47.3,173,61.5
		c40.5,9.6,81.5,16.8,122.7,22.6c2,0.3,3.9,1,5.8,1.6c0,0.4-0.1,0.7-0.1,1.1c-6,0.3-12,0.8-18,1c-36,1-71.9,0.1-107.8-3.2
		c-41.5-3.9-82.8-8.7-123.8-15.9c-25.3-4.5-50.7-8.9-76-13.3c-2.9-0.5-5-1.4-5.6-4.8c-4.3-23.3-7-46.8-6.8-70.5
		C579.3,61.4,579.8,61.4,580.3,61.4z"/>
	<path id="XMLID_153_" class="st0" d="M359.4,74.7c1.2,0.5,2.1,0.9,3,1.4c54.7,31.3,113.6,52,174.6,66.9c42.2,10.4,85,17.8,128,23.4
		c13,1.7,26.1,3.4,39.1,5.6c-5.6,0.6-11.2,1.3-16.9,1.7c-29.6,2.1-59.2,2.6-88.8,1.1c-27.2-1.4-54.5-3.1-81.6-5.8
		c-30.5-3-60.8-7.2-91.2-11.2c-17.4-2.3-34.8-5.3-52.1-7.8c-2.6-0.4-4.4-1.2-5-3.9C363.4,122.7,360.4,99,359.4,74.7z"/>
</g>
<g id="desenho_x5F_baixo">
	<path id="XMLID_152_" class="st0" d="M107.2,420.5c0.7-8.9,1-17,2-25c2-14.7,4.5-29.4,6.8-44.1c0.6-4.1,2.6-6.2,7-6.8
		c38.3-5.2,76.5-11,114.8-16c38.6-5,77.4-7.9,116.4-9c31.8-0.9,63.6-0.9,95.3,2.8c0.5,0.1,1,0.2,2.1,0.4c-0.9,0.5-1.3,1-1.7,1
		c-22,2.9-44.2,5.3-66.1,8.7c-78.3,12-155,29.9-227.5,63c-14.8,6.7-29,14.7-43.5,22.1C111.1,418.3,109.6,419.2,107.2,420.5z"/>
	<path id="XMLID_151_" class="st0" d="M666.5,328c-7.9,1.2-15.8,2.4-23.6,3.6c-84.5,13-167.6,31.3-246.4,65.9
		c-22.4,9.8-44.1,21-65,33.7c-1.2,0.7-2.4,1.4-4.6,2.6c0.4-10.8,0.4-20.9,1.3-30.8c1.2-12.1,3.2-24.1,4.7-36.1
		c0.7-5.6,3.5-8.3,9-9.3c25-4.3,49.8-9.4,74.8-13.2c32.3-4.9,64.7-9.3,97.2-13.1c30.7-3.5,61.5-6.1,92.5-5.8
		c18,0.2,35.9,0.5,53.9,0.8c2,0,4.1,0.6,6.1,0.8C666.5,327.4,666.5,327.7,666.5,328z"/>
</g>
<g id="letras_x5F_principais">
	<path id="XMLID_148_" d="M853.1,311.1c-2.2,0.2-3.7,0.4-5.2,0.4c-8.4,0-16.8-0.1-25.2,0.1c-5.2,0.1-8.3-1.9-10.6-6.6
		c-3.3-7-7.3-13.7-11.2-20.4c-0.7-1.3-2.3-2.1-3.4-3.1c-0.6,1.5-1.6,2.9-1.8,4.4c-0.7,6.4-1.3,12.9-1.8,19.3
		c-0.4,5.2-1.2,6.1-6.3,6.2c-9.1,0.1-18.1,0.1-27.2,0.1c-4.4,0-5-0.6-4.6-5.1c1.3-15.1,2.8-30.1,4.3-45.2
		c1.1-11.8,2.3-23.7,3.5-35.5c0.2-2.1,0.5-4.1,0.8-6.4c1.3-0.1,2.4-0.3,3.5-0.3c16-0.3,32.1-0.7,48.1-1c10.5-0.2,20.9-0.3,31.4-0.7
		c3.1-0.1,4.7,1,5.6,4c1.8,5.9,4.1,11.7,5.9,17.6c0.5,1.6,0.3,3.6-0.2,5.1c-4,11.7-10.7,21.4-22.2,27.1c-3.6,1.7-2.8,4.5-1.3,7.2
		c5.4,9.7,10.8,19.4,16.2,29.1C852,308.4,852.4,309.4,853.1,311.1z M810.3,227.2c0,0.1,0,0.2,0,0.4c-1.5,0-3.1,0-4.6,0
		c-2.8-0.1-4.3,1.4-4.7,4.1c-0.4,3.1-0.9,6.2-0.8,9.2c0,1.3,1.6,3.7,2.2,3.6c6.2-0.6,12.5-1.3,18.5-2.8c3.5-0.9,4.4-4.6,3.9-8
		c-0.4-3.2-2.5-5-5.7-5.4C816.2,228,813.2,227.6,810.3,227.2z"/>
	<path id="XMLID_147_" d="M757.9,219.6c-0.2,6.9-1.1,7.8-7.6,7.8c-13.3,0-26.7,0-40,0c-2.3,0-4.5,0-5,3c-0.6,3.5,0.6,5,4.4,5
		c11.6,0.1,23.3,0,34.9,0c6.7,0,7.2,0.6,6.6,6.9c-0.6,6.4-1.2,12.8-1.7,19.2c-0.5,5.9-1.5,6.9-7.4,6.9c-11.8,0-23.5-0.1-35.3,0.1
		c-1.7,0-3.9,0.5-4.8,1.6c-0.9,1.1-1.3,3.7-0.7,4.9c0.6,1.2,2.9,2.1,4.4,2.1c13.5,0.1,26.9,0,40.4,0c5.8,0,6.3,0.6,5.7,6.2
		c-0.8,7.3-1.6,14.6-2.1,22c-0.3,3.9-1.7,5.3-5.8,5.3c-26,0.1-52,0.4-78,0.6c-6.2,0-6.8-0.7-6.2-6.6c2.2-21.1,4.4-42.2,6.6-63.3
		c0.5-5,1-10,1.3-15.1c0.2-2.7,1.3-3.6,4.1-3.7c28.4-1.1,56.8-2.3,85.2-3.5C757.1,219.3,757.3,219.4,757.9,219.6z"/>
	<path id="XMLID_146_" d="M382.6,247.6c28.5-3.2,56.7-6.4,85.6-9.6c-0.6,6.9-1.1,13-1.6,19.1c-0.1,1-0.3,2-0.4,3.1
		c-0.5,8-1.3,8.7-9.4,8.6c-11.2,0-22.5-0.1-33.7-0.1c-2.9,0-5.1,0.6-5.3,4.1c-0.2,3.1,0.8,4.7,4,4.7c8.5,0,17.1,0,25.6,0.1
		c5.9,0.1,11.9,0.4,17.8,0.4c2.7,0,3.4,1.1,3.2,3.5c-0.8,8.9-1.4,17.7-2.5,26.6c-0.1,1.1-2.6,2.6-4.2,2.8
		c-5.1,0.4-10.3,0.3-15.5,0.4c-21.7,0.2-43.4,0.3-65.2,0.4c-4.2,0-5.2-1-4.7-5c1.9-18.6,3.8-37.3,5.8-55.9
		C382.2,249.7,382.4,249,382.6,247.6z"/>
	<path id="XMLID_145_" d="M181.7,256c1.1-6.5,1.4-12.4,3.2-18c10.5-33.1,40.4-53,74.9-50.1c14,1.2,25.8,7.1,35,17.8
		c0.6,0.7,1.2,1.8,1.1,2.7c-1.2,11.3-2.5,22.5-3.7,33.8c-0.3,2.4-1.4,3.3-3.7,3.4c-5.4,0.3-10.8,0.7-15.7,1c-2.3-4.3-4-8.8-6.8-12.3
		c-6.4-7.8-15-9.8-24.5-7.1c-11.2,3.2-18.2,10.9-20.9,22.3c-0.5,2.2-1.5,3.2-3.4,3.4C205.8,253.9,194.3,254.9,181.7,256z"/>
	<path id="XMLID_144_" d="M198.9,208.7c-3.7,5.3-6.1,11.9-10.8,14.9c-6.3,4.1-14.4,5.4-21.7,7.8c-0.5,0.2-1.4-0.6-2-1.1
		c-5.5-4.1-11.5-3.6-17.2-0.9c-1.7,0.8-3.9,3.5-3.6,4.7c0.5,2,2.7,4.4,4.6,4.9c4.3,1.2,9,0.9,13.4,1.9c6.3,1.4,12.5,3.3,18.7,5.1
		c-0.4,2.4-0.7,3.9-0.8,5.4c-0.4,5.6-0.4,5.3-5.9,5.7c-14.6,1.1-29.2,2.5-43.8,3.7c-1,0.1-2.1-0.2-3-0.6
		C103,248.9,99.2,224.6,116,208c14.2-14.1,32.2-17.9,51.6-15.6C180,193.9,191,198.5,198.9,208.7z"/>
	<path id="XMLID_143_" d="M331.5,254.3c-0.4,5.7-0.9,10.7-1.1,15.7c-0.2,4.7,1.7,6.1,6.2,4.8c9.8-2.9,16.1-9.4,19.3-19
		c0.5-1.5,0.8-3,1.2-4.8c7.4-0.9,14.9-1.9,22.8-2.9c-0.9,9.6-1.8,18.7-2.7,27.8c-0.1,1.2-0.5,2.3-0.3,3.5
		c1.1,9.6-4.5,15.1-11.9,19.7c-13.8,8.5-28.7,12.7-44.9,12.5c-9.1-0.1-18.1-0.2-27.2-0.1c-3.6,0-4.9-1.5-4.6-5
		c1.5-14.6,3-29.3,4.7-43.9c0.1-1.2,1.6-3.1,2.7-3.2C307.5,257.5,319.3,256,331.5,254.3z"/>
	<path id="XMLID_142_" d="M854.2,217.7c23,0,45.3,0,68.3,0c-3.1,5.8-5.5,11.6-9.1,16.6c-8.2,11.5-10.7,24.4-11.5,38
		c-0.7,11.5-2.1,22.9-3.1,34.4c-0.3,3.3-1.9,4.9-5.2,4.9c-9.6,0-19.1-0.1-28.7,0c-3.5,0-4.5-1.6-4.2-4.9c1.2-12,2.3-23.9,3.5-35.9
		c0.6-5.8,1.2-11.6,1.7-17.4c0.1-1.5-0.3-3.1-0.8-4.5c-3.2-9-6.5-18-9.7-27C855,220.8,854.7,219.6,854.2,217.7z"/>
	<path id="XMLID_141_" d="M540.7,273.7c-1.1,12.7-2.2,25-3.4,37.6c-0.8,0.1-1.8,0.3-2.8,0.3c-18.6,0-37.2,0-55.9,0
		c-6.5,0-6.8-0.2-6.2-6.5c2.1-21.6,4.3-43.2,6.5-64.8c0.1-1,0.4-2,0.7-3.4c12.4-1,24.9-2,37.8-3c-0.6,7-1.2,13.6-1.9,20.3
		c-0.4,4.5-1,9-1.3,13.5c-0.4,5.3,0.3,5.9,5.4,5.8c5.7-0.1,11.4,0,17.1,0C538,273.4,539.2,273.6,540.7,273.7z"/>
	<path id="XMLID_140_" d="M594.9,227.4c23.8-1.5,46.9-2.9,70.5-4.3c-0.5,6.2-0.8,11.6-3.3,17.2c-7.7,16.9-14.7,34.1-22,51.2
		c-1.9,4.4-3.7,8.8-5.7,13.1c-2.4,5.2-6.5,7.9-11.1,7.6c-4.6-0.4-7.5-3.2-9.1-9.2c-6.2-23.9-12.4-47.8-18.6-71.7
		C595.4,230.2,595.2,229.1,594.9,227.4z"/>
	<path id="XMLID_139_" d="M322.9,190.8c10.4,1.2,20.8,1.7,31,3.6c10.8,2.1,19.8,8,27.3,16c1.1,1.2,1.9,3.2,1.8,4.7
		c-0.6,7-1.7,14-2.4,21.1c-0.2,2.1-1.1,2.8-3.1,2.9c-6.7,0.4-13.4,1-20,1.3c-1,0-2.3-1-2.9-1.8c-3.9-5-8.6-8.9-15.1-10.1
		c-2.9-0.5-4.9,0.2-5.4,3.3c-0.5,2.9-1,5.8-1.4,8.8c-0.3,2.2-1.3,3.1-3.5,3.2c-10.4,0.7-20.8,1.4-31.2,2.2c-2.1,0.2-3.1-0.6-2.9-2.9
		c1.4-15.1,2.8-30.3,4.2-45.4c0.5-5,1.5-6,6.6-6c5.7,0,11.4,0,17.1,0C322.8,191.5,322.9,191.1,322.9,190.8z"/>
	<path id="XMLID_138_" d="M184.9,276.6c13.5-2.4,26.6-4.7,39.8-6.8c1.2-0.2,2.7,0.5,3.9,1.3c12.5,8.1,23.4,7.2,34-2.9
		c4.1-4,8.9-6.4,14.8-6.6c4.2-0.1,8.4-1.1,13.2-1.8c-0.2,3.1-0.4,5.7-0.6,8.3c-0.7,8.4-1.4,16.7-2.2,25.1c-0.1,1.1-0.4,2.4-1.1,3.1
		c-23.5,23.3-67,26.4-90.5-0.3C191.2,290.5,187.5,284.2,184.9,276.6z"/>
	<path id="XMLID_137_" d="M421.8,236c-12.6,1.1-25.2,2.2-37.8,3.4c0-3.8-0.2-7.3,0-10.6c0.9-10.4,1.9-20.8,2.9-31.2
		c0.4-4.5,1.4-5.7,6-5.7c26.6,0,53.3,0,79.9-0.1c3.1,0,4.4,1,4.1,4.3c-0.9,8.2-1.6,16.4-2.2,24.6c-0.4,5.2-1.7,6.6-6.9,6.6
		c-12.8,0-25.6,0-38.4,0C421.7,227.3,421.1,227.9,421.8,236z"/>
	<path id="XMLID_136_" d="M585.7,228.3c-2.6,26.3-5.1,51.9-7.6,77.4c-0.5,4.8-1.5,5.8-6.3,5.8c-8.9,0-17.9,0-26.8,0
		c-4.7,0-5.5-0.7-5-5.6c1.8-19.4,3.8-38.9,5.7-58.3c0.4-4.5,0.8-9,1.3-13.5c0.2-2,0.7-3.5,3.4-3.7c10.1-0.6,20.1-1.4,30.1-2.2
		C582.1,228.2,583.7,228.3,585.7,228.3z"/>
	<path id="XMLID_135_" d="M669,216.5c0.4-5.4,0.7-10.2,1-15c0.1-1.4,0.4-2.8,0.4-4.2c0.1-4.6,0.9-5.5,5.4-5.5
		c19.1,0,38.2,0.1,57.4,0.1c7.8,0,15.5,0.1,23.3-0.1c3-0.1,4.1,1.5,3.9,4c-0.3,3.7-1.3,7.3-1.6,11c-0.3,2.5-1.7,2.8-3.7,3
		c-18.2,1.3-36.5,2.5-54.7,3.9C690.2,214.4,680,215.5,669,216.5z"/>
	<path id="XMLID_134_" d="M105.6,292.3c13.2-2.7,26.1-5.3,39-7.9c11.4-2.3,22.8-4.4,34.2-6.7c2.7-0.6,4-0.1,5.2,2.7
		c1.9,4.7,4.7,9.1,7.1,13.7C170.6,317.6,120.4,317.5,105.6,292.3z"/>
	<path id="XMLID_133_" d="M502.6,191.8c4.8,0,9.6,0.1,14.3,0c3.5-0.1,4.7,1.5,4.3,4.7c-1.1,9.9-2.2,19.7-3.5,29.6
		c-0.1,0.8-1.5,2.1-2.5,2.1c-10.8,0.9-21.6,1.6-32.4,2.2c-0.8,0-2.5-1.8-2.4-2.8c0.3-7.3,0.9-14.6,1.5-21.9c0.3-3.3,0.9-6.7,1.2-10
		c0.2-2.7,1.6-3.9,4.3-3.8C492.5,191.8,497.6,191.8,502.6,191.8z"/>
	<path id="XMLID_132_" d="M583.4,191.8c1.3,5.7,3,10.8,3.5,16c0.5,4.3-0.3,8.7-0.7,13c0,0.5-1.1,1.1-1.7,1.2
		c-11.8,1-23.6,1.9-35.9,2.9c0.3-5.6,0.4-10.5,0.8-15.5c0.3-4.5,1-9,1.4-13.4c0.2-2.4,1-4.1,3.6-4.1
		C564.2,191.8,573.8,191.8,583.4,191.8z"/>
	<path id="XMLID_131_" d="M593.8,222.6c-2.4-8.7-4.8-17.3-7.1-26c-0.8-2.9,0.3-4.7,3.7-4.7c9.2-0.1,18.4-0.4,27.5-0.6
		c3-0.1,4.9,0.9,5.5,4.1c1.5,7.1,3.1,14.1,4.7,21.1c0.5,2.3-0.2,3.4-2.6,3.7c-4.5,0.4-9,1-13.5,1.3
		C606.2,221.8,600.3,222.1,593.8,222.6z"/>
	<path id="XMLID_130_" d="M234.6,179.1c2.3-5.7,4.5-11.1,6.8-16.6c4.5-10.9,4.5-10.9,16.4-10.9c8.4,0,16.7,0,25.6,0
		c-0.4,1.7-0.6,2.9-1.1,4c-2.8,6.9-5.5,13.9-8.6,20.7c-0.7,1.5-2.6,3.3-4,3.3c-11.1,0.3-22.2,0.1-33.3,0.1
		C236,179.7,235.7,179.4,234.6,179.1z"/>
	<path id="XMLID_129_" d="M844.6,200.8c-3.1,0.4-6.3,0.9-9.4,1.1c-11.4,0.9-22.9,1.6-34.3,2.5c-10.5,0.8-21,1.8-31.6,2.8
		c-2.8,0.3-4.3,0.1-3.4-3.4c0.7-2.6,0.6-5.3,0.8-8c0.1-2.9,1.6-4,4.5-3.9c6.2,0.1,12.4-0.1,18.6-0.2c8.5-0.1,17-0.3,25.6-0.4
		c9.4-0.2,18.6,0.5,26.9,5.4c1.2,0.7,2,1.9,3,2.9C845,200,844.8,200.4,844.6,200.8z"/>
	<path id="XMLID_128_" d="M636.1,219.3c3.2-9.1,5.8-17,8.8-24.8c0.5-1.4,2.5-3,3.9-3.1c6.5-0.3,13.1-0.1,19.9-0.1
		c-0.9,8.4-1.7,16-2.6,23.6c-0.1,0.8-1.1,2.2-1.7,2.2C655.4,218,646.3,218.6,636.1,219.3z"/>
	<path id="XMLID_126_" d="M849.4,201.3c-0.4-0.3-0.6-0.3-0.6-0.4c-4.2-8.8-4.2-8.8,5.5-8.8c7.6,0,15.2,0.2,22.9-0.1
		c4-0.1,6.4,1.1,7.3,6.2C872.6,199.3,860.9,200.3,849.4,201.3z"/>
	<path id="XMLID_108_" d="M896.3,197.6c1.1-3.6,3.3-5.4,6.5-5.4c9.7-0.1,19.4,0,29,0c2.1,0,3.8,0.4,2.7,2.3
		C921.5,195.5,909.1,196.6,896.3,197.6z"/>
</g>
<g id="letras_x5F_secundarias">
	<path id="XMLID_127_" d="M843.6,339.7c0,4.9,0.1,9.8-0.1,14.7c0,0.9-0.9,1.8-1.4,2.7c-0.6-0.8-1.6-1.7-1.6-2.5
		c-0.1-9.2-0.1-18.4,0-27.6c0-0.8,0.8-1.6,1.3-2.3c0.7,0.7,1.8,1.4,2.1,2.2c1.6,5.6,2.9,11.2,5,16.8c1.3-5.2,2.6-10.4,4-15.5
		c0.4-1.3,1.5-2.4,2.2-3.5c0.5,1.3,1.5,2.5,1.5,3.8c0.1,8.4,0.1,16.8,0,25.2c0,1.1-1,2.3-1.5,3.4c-0.5-1.1-1.5-2.2-1.5-3.3
		c-0.2-4.1-0.1-8.2-0.1-12.3c-0.4,0-0.7-0.1-1.1-0.1c-1.2,4.1-2.4,8.2-3.9,13.3c-1.6-5.6-3-10.3-4.4-14.9
		C844,339.7,843.8,339.7,843.6,339.7z"/>
	<path id="XMLID_122_" d="M880.3,339.8c1,2.7,2.2,13.4,0.5,15.8c-0.5,0.7-1.6,1.3-2.5,1.5c-8.8,1.6-10.1,0.5-10.1-8.3
		c0-6.8,0.1-13.7,0-20.5c0-2.5,0.6-3.7,3.4-3.8c9.1-0.2,9.2-0.3,9.2,8.9C881,335.5,880.6,337.7,880.3,339.8z M878.5,348.4
		c0-1.2,0.1-2.3,0-3.5c-0.2-2.5-4.6-5.2-5.4-3.7c-1.5,3-1.5,6.8-1.8,10.4c-0.1,0.8,1.5,2.4,2.5,2.6C878,355,878.6,354.1,878.5,348.4
		z M871.5,338.4c6,0.6,7-0.2,7-5.6c0-0.8-0.1-1.6,0-2.3c0.2-2.2-0.4-4.3-2.8-3.9c-1.6,0.3-3.7,2.1-4.1,3.6
		C871,332.7,871.5,335.5,871.5,338.4z"/>
	<path id="XMLID_119_" d="M835.8,340.8c0,4,0,8,0,12c0,3.1-1.7,4.5-4.6,4.5c-1.9,0-3.9-0.2-5.8-0.2c-2.4,0-3.6-1.1-3.6-3.5
		c0-8.5,0-17.1,0-25.6c0-0.3,0-0.5,0.1-0.8c2.2-4.9,6.5-2,9.9-2.6c2.3-0.4,4,0.6,4,3.4C835.8,332.3,835.8,336.6,835.8,340.8z
		 M832.8,340.7c0-3.5-0.1-7,0-10.4c0.1-2.5-0.9-3.6-3.4-3.4c-2.3,0.2-4.8-0.4-4.7,3.3c0.2,7,0.1,13.9,0,20.9c0,3.1,1.8,3.2,4,3.2
		c2.2,0,4.2-0.1,4-3.2C832.7,347.7,832.8,344.2,832.8,340.7z"/>
	<path id="XMLID_118_" d="M890.9,340.2c2.2-1.1,5-1.7,5.2-2.8c0.5-3,0.3-6.2-0.3-9.1c-0.1-0.7-3-1.2-4.4-1c-0.8,0.1-1.9,2-2,3.1
		c-0.2,7.8,0,15.5-0.2,23.3c0,1.1-1,2.2-1.5,3.3c-0.5-1.1-1.4-2.2-1.4-3.4c-0.1-8.5,0-17.1-0.2-25.6c0-2.7,0.8-3.9,3.6-3.4
		c0.3,0,0.5,0,0.8,0c2.8,0.2,7-2,7.9,1.6c1.1,4.3,0.3,9.1,0.4,13.7c-7.1,3.8-0.7,8.2-0.6,12.3c0.1,1.6,0.2,3.2,0.4,4.8
		c-1.1-1.3-2.6-2.5-3.2-4C893.7,348.8,892.3,344.3,890.9,340.2z"/>
	<path id="XMLID_117_" d="M772.1,326.9c-2.3,0.4-5.6,0.1-6,1.1c-0.8,2-0.6,4.8,0.3,6.8c1,2.3,2.9,4.3,4.8,6c4.3,3.7,4.5,8.5,4,13.5
		c-0.1,0.9-1.2,2.3-1.9,2.4c-2.9,0.3-5.9,0.2-8.8,0c-0.7-0.1-1.5-1.3-1.8-2.1c-0.3-1.1-0.3-2.3-0.1-3.5c0.3-1.6,0.9-3.2,1.3-4.7
		c0.5,1.4,1.2,2.7,1.5,4.2c0.5,2.3,1.2,3.9,4,3.7c2.9-0.2,3.1-2.2,2.7-4.1c-0.5-2.3-1.3-4.6-2.6-6.6c-1.3-2.2-3.3-4-4.9-6
		c-2.8-3.5-2.6-7.4-1.6-11.4c0.1-0.4,0.3-1,0.5-1c3.5,0.1,7.3-0.5,10.4,0.6c3.2,1.2,2.3,4.8,1.4,7.5c-0.2,0.6-1.3,0.9-2,1.3
		c-0.4-0.6-1-1.2-1-1.8C772,331.2,772.1,329.5,772.1,326.9z"/>
	<path id="XMLID_116_" d="M790.5,334.8c-0.4-1.3-1.1-2.6-1-3.9c0.2-2.7-0.9-3.8-3.5-3.9c-2.8,0-3,1.6-3,3.8c0,4.5,2.8,7.6,5.8,10.1
		c4.6,4,3.7,9,3.5,14c0,0.7-1.2,1.5-2,1.8c-0.8,0.3-1.8,0.2-2.7,0.3c-7.5,0.6-9.4-1.6-7.7-9c0.2-0.7,1.1-1.1,1.6-1.7
		c0.5,0.6,1.1,1.1,1.6,1.8c0.2,0.3,0.1,0.8,0.1,1.1c0.2,5.1,0.2,5.1,5.7,4.6c1.4-3.8,1.1-7.2-1.8-10.3c-1.5-1.6-2.8-3.4-4.3-5
		c-3.2-3.4-3.2-7.5-2.6-11.7c0.1-0.9,1.4-2.1,2.2-2.2c2.7-0.3,5.4-0.2,8.1,0c0.7,0.1,1.8,1.2,1.9,2c0.2,2.6,0.1,5.2,0.1,7.8
		C791.8,334.6,791.1,334.7,790.5,334.8z"/>
	<path id="XMLID_115_" d="M734.6,340.2c2.2-1.1,4.9-1.7,5.1-2.8c0.5-3,0.2-6.2-0.4-9.2c-0.1-0.7-3-1.3-4.4-1c-1,0.2-2.2,2.1-2.2,3.2
		c-0.2,7.7-0.1,15.5-0.2,23.2c0,1.1-0.7,2.2-1.1,3.3c-0.6-1.1-1.6-2.1-1.6-3.2c-0.1-8.5,0-17-0.1-25.6c0-2.6,0.8-3.6,3.6-3.7
		c8.9-0.2,9.3,0.2,9.4,9.2c0,0.6,0,1.3,0,1.9c0.3,3.1,0.1,6-4.3,6.6c0.9,2.6,1.6,4.9,2.4,7.2c0.8,2.3,1.6,4.6,2.8,8
		c-1.6-0.6-3.1-0.7-3.4-1.3C738.3,350.7,736.4,345.3,734.6,340.2z"/>
	<path id="XMLID_114_" d="M701.7,345.8c-1,3-1.9,6.1-3.1,9.1c-0.3,0.9-1.5,1.4-2.2,2.1c-0.1-1-0.6-2-0.3-2.9
		c0.9-3.2,2.4-6.3,3.1-9.5c1.5-6.8-0.5-13-3.8-18.9c2.9-1.5,3.2-1.3,4.4,2.6c0.7,2.2,1.3,4.4,2.1,7c3-3.2,1.6-8.8,5.7-10.8
		c0.4,0.2,0.9,0.5,1.3,0.7c-0.4,1.1-0.7,2.3-1.2,3.4c-4.1,8.3-3.6,16.4,0.4,24.6c0.5,1,0.1,2.6,0.1,3.9c-1-1-2.3-1.8-2.8-3
		c-1.2-2.7-1.9-5.5-2.8-8.3C702.3,345.8,702,345.8,701.7,345.8z"/>
	<path id="XMLID_113_" d="M813.6,353.9c1.2-7,1.2-7,3.6-7.3c0,2.6,0.3,5.2-0.1,7.7c-0.2,1.1-1.8,2.7-3,2.9c-2.4,0.4-4.9,0.4-7.3-0.1
		c-1-0.2-2.3-2.1-2.3-3.2c-0.2-8.5-0.1-17-0.1-25.6c0-2.6,1.2-3.8,3.8-3.6c1,0.1,2.1,0,3.1,0c5.9,0.2,7.6,2.5,6,8.1
		c-0.2,0.8-1.2,1.3-1.8,2c-0.5-0.8-1.3-1.5-1.4-2.3c-0.3-2.5,0-5.2-3.5-5.5c-2.1-0.2-3.5,0.4-3.5,2.9c0.1,7.2,0,14.5,0.1,21.7
		C807.3,354.4,807.6,354.4,813.6,353.9z"/>
	<path id="XMLID_110_" d="M713,325.1c3.7,0,6.8-0.2,9.8,0.1c1,0.1,2.5,1.7,2.6,2.7c0.3,4.1,0.2,8.2,0.2,12.4c0,2.8-1.3,3.9-4,4
		c-6.1,0.2-6.1,0.3-6.1,6.4c0,1.3,0.1,2.6-0.1,3.9c-0.1,0.9-0.8,1.7-1.2,2.5c-0.5-0.9-1.1-1.7-1.5-2.6c-0.2-0.4,0-1,0-1.5
		c0-8,0-16,0-24C712.8,327.6,712.9,326.3,713,325.1z M722.6,327.6c-5.4-1.9-7-0.8-7.1,4.4c0,2.3,0,4.7-0.1,7
		c-0.1,2.6,1.6,2.9,3.6,2.9c2,0,3.7-0.3,3.6-2.9C722.5,335.1,722.6,331.3,722.6,327.6z"/>
	<path id="XMLID_109_" d="M758.3,326.5c-1.3,0.2-2.7,0.7-4,0.5c-2.8-0.3-3.8,1-3.8,3.5c0,1.6,0.1,3.1,0,4.7
		c-0.2,3.1,0.9,4.6,4.3,4.2c0.8-0.1,1.7,0.9,2.6,1.3c-0.9,0.4-1.9,1.1-2.8,1c-3.1-0.3-4.3,1.1-4,4.1c0.1,0.8,0.1,1.6,0,2.3
		c-0.4,3.8,1.1,5.9,5.1,6c0.9,0,1.7,0.9,2.6,1.5c-0.9,0.5-1.7,1.4-2.6,1.6c-7.2,1-8,0.2-8-7.3c0-7.2,0.1-14.5,0-21.7
		c0-2.7,0.8-3.8,3.6-3.6c2.4,0.2,4.8,0.1,7.2,0.2C758.2,325.3,758.2,325.9,758.3,326.5z"/>
	<path id="XMLID_107_" d="M691.6,340.8c-1,0.4-2.1,1.1-3.1,1c-3.4-0.3-4.4,1.3-4,4.3c0.1,1.1,0.1,2.3,0,3.5
		c-0.3,3.2,0.7,4.9,4.3,4.6c1.1-0.1,2.3,0.8,3.4,1.3c-1.1,0.6-2.2,1.5-3.3,1.6c-6.1,0.5-6.8-0.1-6.9-6.1c-0.1-7.6,0.1-15.3,0-22.9
		c0-2.6,0.8-3.8,3.6-3.6c2.1,0.2,4.3,0,6.5,0c0.1,0.5,0.2,1,0.3,1.6c-1.1,0.3-2.3,1-3.4,0.9c-3.5-0.4-4.8,1.1-4.5,4.4
		c0.1,1,0.1,2.1,0,3.1c-0.3,3.6,1.1,5.4,5,4.8c0.6-0.1,1.2,0.2,1.8,0.3C691.4,340.1,691.5,340.4,691.6,340.8z"/>
</g>
</svg>
