<?xml version="1.0" encoding="utf-8"?>
<!-- Generator: Adobe Illustrator 19.0.0, SVG Export Plug-In . SVG Version: 6.00 Build 0)  -->
<svg version="1.1" id="Capa_1" xmlns="http://www.w3.org/2000/svg" xmlns:xlink="http://www.w3.org/1999/xlink" x="0px" y="0px"
	 viewBox="6 -6 60 60" style="enable-background:new 6 -6 60 60;" xml:space="preserve">
<style type="text/css">
	.st0{fill:#F7F4FF;}
</style>
<g>
	<path class="st0" d="M51.6,23.2l-22-15c-0.3-0.2-0.7-0.2-1-0.1C28.2,8.3,28,8.6,28,9v30c0,0.4,0.2,0.7,0.5,0.9
		C28.7,40,28.8,40,29,40c0.2,0,0.4-0.1,0.6-0.2l22-15c0.3-0.2,0.4-0.5,0.4-0.8S51.8,23.4,51.6,23.2z M30,37.1V10.9L49.2,24L30,37.1z
		"/>
	<path class="st0" d="M36-6C19.5-6,6,7.5,6,24s13.5,30,30,30s30-13.5,30-30S52.5-6,36-6z M36,52C20.6,52,8,39.4,8,24S20.6-4,36-4
		S64,8.6,64,24S51.4,52,36,52z"/>
</g>
</svg>
