<?xml version="1.0" encoding="utf-8"?>
<!-- Generator: Adobe Illustrator 19.0.0, SVG Export Plug-In . SVG Version: 6.00 Build 0)  -->
<svg version="1.1" id="Capa_1" xmlns="http://www.w3.org/2000/svg" xmlns:xlink="http://www.w3.org/1999/xlink" x="0px" y="0px"
	 viewBox="-289 211 60 60" style="enable-background:new -289 211 60 60;" xml:space="preserve">
<style type="text/css">
	.st0{fill:#FFFFFF;}
</style>
<g>
	<path class="st0" d="M-258,227h-14v14h14V227z M-260,239h-10v-10h10V239z"/>
	<path class="st0" d="M-237,227h-16c-0.6,0-1,0.4-1,1s0.4,1,1,1h16c0.6,0,1-0.4,1-1S-236.4,227-237,227z"/>
	<path class="st0" d="M-237,233h-16c-0.6,0-1,0.4-1,1s0.4,1,1,1h16c0.6,0,1-0.4,1-1S-236.4,233-237,233z"/>
	<path class="st0" d="M-237,239h-16c-0.6,0-1,0.4-1,1s0.4,1,1,1h16c0.6,0,1-0.4,1-1S-236.4,239-237,239z"/>
	<path class="st0" d="M-237,245h-33c-0.6,0-1,0.4-1,1s0.4,1,1,1h33c0.6,0,1-0.4,1-1S-236.4,245-237,245z"/>
	<path class="st0" d="M-255,251h-15c-0.6,0-1,0.4-1,1s0.4,1,1,1h15c0.6,0,1-0.4,1-1S-254.4,251-255,251z"/>
	<path class="st0" d="M-255,257h-15c-0.6,0-1,0.4-1,1s0.4,1,1,1h15c0.6,0,1-0.4,1-1S-254.4,257-255,257z"/>
	<path class="st0" d="M-255,263h-15c-0.6,0-1,0.4-1,1s0.4,1,1,1h15c0.6,0,1-0.4,1-1S-254.4,263-255,263z"/>
	<path class="st0" d="M-250,265h14v-14h-14V265z M-248,253h10v10h-10V253z"/>
	<path class="st0" d="M-230,224L-230,224v-13h-48v30h-10v24c0,3.3,2.7,6,6,6h46c3.3,0,6-2.7,6-6V224L-230,224z M-232,213v10h-44v-10
		H-232z M-286,265v-22h8v22c0,2.2-1.8,4-4,4S-286,267.2-286,265z M-236,269h-41.5c0,0,0,0,0-0.1c0.2-0.2,0.4-0.5,0.6-0.7l0.1-0.1
		c0.2-0.3,0.3-0.6,0.4-0.8v-0.1c0.1-0.3,0.2-0.6,0.3-0.9v-0.1c0.1-0.3,0.1-0.7,0.1-1.1v-24v-16h44v40C-232,267.2-233.8,269-236,269z
		"/>
	<path class="st0" d="M-242,215h-24v6h24V215z M-244,219h-20v-2h20V219z"/>
</g>
</svg>
