<?xml version="1.0" encoding="utf-8"?>
<!-- Generator: Adobe Illustrator 19.0.0, SVG Export Plug-In . SVG Version: 6.00 Build 0)  -->
<svg version="1.1" id="Camada_1" xmlns="http://www.w3.org/2000/svg" xmlns:xlink="http://www.w3.org/1999/xlink" x="0px" y="0px"
	 viewBox="-134 197.8 241.3 118.2" style="enable-background:new -134 197.8 241.3 118.2;" xml:space="preserve">
<style type="text/css">
	.st0{fill:#FF3031;}
</style>
<g>
	<path class="st0" d="M-114.5,302.3c0,0,41.6-51.5,182.6-45.5v-4.3h-158c0,0-30.8-1.5-30.8,24.9v24.9H-114.5z"/>
	<g>
		<path d="M-102.6,239.2v4.5h-21.9v-32h21.5v4.5h-16.5v9.1h14.3v4.2h-14.3v9.8H-102.6z"/>
		<path d="M-70.5,243.7v-23l-9.5,17.4h-2.8l-9.5-17.4v23h-5v-32h5.4l10.6,19.5l10.6-19.5h5.4v32H-70.5z"/>
		<path d="M-58.2,243.7v-32h13.4c1.4,0,2.8,0.3,4,0.9c1.2,0.6,2.3,1.4,3.1,2.4c0.9,1,1.6,2.1,2,3.3c0.5,1.2,0.7,2.5,0.7,3.8
			c0,1.3-0.2,2.6-0.7,3.9c-0.5,1.2-1.1,2.4-2,3.3c-0.8,1-1.9,1.8-3,2.3s-2.5,0.9-3.9,0.9h-8.6v11.1H-58.2z M-53.2,228.1h8.3
			c0.7,0,1.4-0.1,2-0.4s1.1-0.7,1.5-1.3c0.4-0.5,0.7-1.2,1-1.9c0.2-0.7,0.4-1.5,0.4-2.4c0-0.9-0.1-1.7-0.4-2.4
			c-0.3-0.7-0.6-1.3-1.1-1.9c-0.5-0.5-1-0.9-1.6-1.2c-0.6-0.3-1.3-0.4-1.9-0.4h-8.1V228.1z"/>
		<path d="M-30.2,243.7v-32h13.9c1.4,0,2.8,0.3,4,0.9c1.2,0.6,2.3,1.4,3.1,2.4c0.9,1,1.6,2.1,2,3.3c0.5,1.2,0.7,2.5,0.7,3.8
			c0,1.1-0.2,2.1-0.4,3.1c-0.3,1-0.7,1.9-1.3,2.7s-1.2,1.6-2,2.2c-0.8,0.6-1.6,1.1-2.6,1.4l7.5,12.2h-5.7l-6.9-11.1h-7.4v11.1H-30.2
			z M-25.2,228.1h8.8c0.7,0,1.4-0.2,2-0.5c0.6-0.3,1.1-0.7,1.5-1.3c0.4-0.6,0.7-1.2,1-1.9c0.2-0.7,0.4-1.5,0.4-2.3
			c0-0.8-0.1-1.6-0.4-2.3c-0.3-0.7-0.7-1.4-1.1-1.9c-0.5-0.5-1-1-1.6-1.3c-0.6-0.3-1.3-0.5-1.9-0.5h-8.5V228.1z"/>
		<path d="M21.5,239.2v4.5H-0.4v-32h21.5v4.5H4.6v9.1h14.3v4.2H4.6v9.8H21.5z"/>
		<path d="M44.9,219.2c-0.3-0.3-0.7-0.7-1.3-1.1s-1.2-0.7-2-1.1c-0.8-0.3-1.6-0.6-2.5-0.8c-0.9-0.2-1.9-0.3-2.8-0.3
			c-2.1,0-3.7,0.4-4.7,1.2c-1,0.8-1.5,1.9-1.5,3.2c0,0.8,0.2,1.4,0.5,1.9s0.8,0.9,1.5,1.3c0.7,0.4,1.5,0.7,2.5,1
			c1,0.3,2.1,0.6,3.5,0.9c1.6,0.4,3.1,0.8,4.4,1.3c1.3,0.5,2.4,1.1,3.3,1.8c0.9,0.7,1.6,1.5,2.1,2.5s0.7,2.2,0.7,3.7
			c0,1.6-0.3,3-0.9,4.2c-0.6,1.2-1.5,2.1-2.5,2.9s-2.3,1.3-3.7,1.6c-1.4,0.3-2.9,0.5-4.5,0.5c-2.4,0-4.8-0.4-7-1.1
			c-2.3-0.7-4.3-1.8-6.1-3.2l2.3-4.3c0.4,0.4,1,0.8,1.7,1.3c0.7,0.5,1.6,0.9,2.6,1.3c1,0.4,2,0.8,3.2,1c1.1,0.3,2.3,0.4,3.6,0.4
			c2,0,3.5-0.3,4.6-1s1.6-1.7,1.6-3.1c0-0.8-0.2-1.5-0.6-2c-0.4-0.5-1-1-1.7-1.4c-0.8-0.4-1.7-0.8-2.7-1.1c-1.1-0.3-2.3-0.7-3.7-1
			c-1.6-0.4-3-0.9-4.2-1.3c-1.2-0.5-2.2-1-2.9-1.7c-0.8-0.7-1.4-1.4-1.8-2.3c-0.4-0.9-0.6-2-0.6-3.2c0-1.6,0.3-2.9,0.9-4.2
			c0.6-1.2,1.4-2.2,2.5-3.1c1-0.8,2.3-1.4,3.7-1.9s2.9-0.6,4.6-0.6c2.2,0,4.2,0.3,6,1c1.8,0.7,3.4,1.5,4.8,2.6L44.9,219.2z"/>
		<path d="M62.4,211.7h4.4l12.6,32h-5.3l-3.4-8.7H58.4l-3.3,8.7h-5.4L62.4,211.7z M69.7,231.3l-5.1-13.7l-5.3,13.7H69.7z"/>
		<path d="M101.7,219.2c-0.3-0.3-0.7-0.7-1.3-1.1s-1.2-0.7-2-1.1c-0.8-0.3-1.6-0.6-2.5-0.8c-0.9-0.2-1.9-0.3-2.8-0.3
			c-2.1,0-3.7,0.4-4.7,1.2c-1,0.8-1.5,1.9-1.5,3.2c0,0.8,0.2,1.4,0.5,1.9s0.8,0.9,1.5,1.3c0.7,0.4,1.5,0.7,2.5,1
			c1,0.3,2.1,0.6,3.5,0.9c1.6,0.4,3.1,0.8,4.4,1.3c1.3,0.5,2.4,1.1,3.3,1.8c0.9,0.7,1.6,1.5,2.1,2.5s0.7,2.2,0.7,3.7
			c0,1.6-0.3,3-0.9,4.2c-0.6,1.2-1.5,2.1-2.5,2.9s-2.3,1.3-3.7,1.6c-1.4,0.3-2.9,0.5-4.5,0.5c-2.4,0-4.8-0.4-7-1.1
			c-2.3-0.7-4.3-1.8-6.1-3.2l2.3-4.3c0.4,0.4,1,0.8,1.7,1.3c0.7,0.5,1.6,0.9,2.6,1.3c1,0.4,2,0.8,3.2,1c1.1,0.3,2.3,0.4,3.6,0.4
			c2,0,3.5-0.3,4.6-1s1.6-1.7,1.6-3.1c0-0.8-0.2-1.5-0.6-2c-0.4-0.5-1-1-1.7-1.4c-0.8-0.4-1.7-0.8-2.7-1.1c-1.1-0.3-2.3-0.7-3.7-1
			c-1.6-0.4-3-0.9-4.2-1.3c-1.2-0.5-2.2-1-2.9-1.7c-0.8-0.7-1.4-1.4-1.8-2.3c-0.4-0.9-0.6-2-0.6-3.2c0-1.6,0.3-2.9,0.9-4.2
			c0.6-1.2,1.4-2.2,2.5-3.1c1-0.8,2.3-1.4,3.7-1.9s2.9-0.6,4.6-0.6c2.2,0,4.2,0.3,6,1c1.8,0.7,3.4,1.5,4.8,2.6L101.7,219.2z"/>
	</g>
</g>
</svg>
