<?xml version="1.0" encoding="utf-8"?>
<!-- Generator: Adobe Illustrator 19.0.0, SVG Export Plug-In . SVG Version: 6.00 Build 0)  -->
<svg version="1.1" id="Camada_1" xmlns="http://www.w3.org/2000/svg" xmlns:xlink="http://www.w3.org/1999/xlink" x="0px" y="0px"
	 viewBox="-32 305.3 545.5 182.7" style="enable-background:new -32 305.3 545.5 182.7;" xml:space="preserve">
<style type="text/css">
	.st0{fill:#FF3031;}
</style>
<g>
	<path id="XMLID_9_" class="st0" d="M57.3,473.6c0,0,71.9-39,152.5-47.9c0,0-48.2-9.5-148.9,14.5C61,440.3,54.7,457.3,57.3,473.6z"
		/>
	<path id="XMLID_6_" class="st0" d="M-6.3,461c0,0,71.9-34.1,152.5-43c0,0-50.2-10.7-148.9,9.7C-2.7,427.6-9,444.6-6.3,461z"/>
	<path id="XMLID_2_" class="st0" d="M424.2,473.6c0,0-71.9-39-152.5-47.9c0,0,48.2-9.5,148.9,14.5
		C420.5,440.3,426.9,457.3,424.2,473.6z"/>
	<path id="XMLID_1_" class="st0" d="M487.9,461c0,0-71.9-34.1-152.5-43c0,0,50.2-10.7,148.9,9.7C484.2,427.6,490.6,444.6,487.9,461z
		"/>
</g>
<g>
	<path d="M88.8,382.8V393H58.4v-42.6h29.8v10.2H70.1v6h15.5v9.5H70.1v6.7H88.8z"/>
	<path d="M120,364.4c-1.2-0.7-2.4-1.4-3.7-1.9c-1.1-0.5-2.3-0.9-3.6-1.4c-1.3-0.4-2.7-0.6-3.9-0.6c-1,0-1.9,0.2-2.5,0.5
		c-0.6,0.3-0.9,0.9-0.9,1.6c0,0.6,0.2,1,0.5,1.4c0.4,0.4,0.9,0.7,1.6,1c0.7,0.3,1.5,0.6,2.5,0.9c1,0.3,2.1,0.6,3.3,1
		c2,0.6,3.7,1.3,5.3,2c1.6,0.7,2.9,1.6,4,2.6c1.1,1,2,2.2,2.6,3.6c0.6,1.4,0.9,3.1,0.9,5.1c0,2.6-0.5,4.7-1.4,6.5
		c-0.9,1.7-2.2,3.1-3.7,4.2c-1.5,1-3.3,1.8-5.2,2.3c-1.9,0.5-3.9,0.7-5.9,0.7c-1.6,0-3.2-0.1-4.8-0.4c-1.6-0.2-3.3-0.6-4.9-1
		c-1.6-0.4-3.2-1-4.7-1.6s-2.9-1.3-4.2-2l5-10.3c1.4,0.9,2.9,1.7,4.4,2.3c1.3,0.6,2.7,1.1,4.3,1.6c1.6,0.5,3.3,0.7,5,0.7
		c1.3,0,2.2-0.2,2.7-0.5c0.5-0.3,0.8-0.8,0.8-1.4c0-0.6-0.3-1.1-0.8-1.5c-0.5-0.4-1.2-0.8-2.1-1.1c-0.9-0.3-1.9-0.6-3-1
		c-1.1-0.3-2.4-0.7-3.6-1.1c-1.9-0.6-3.5-1.3-4.9-2.1c-1.4-0.7-2.5-1.6-3.4-2.5c-0.9-0.9-1.5-2-2-3.2c-0.4-1.2-0.6-2.6-0.6-4.1
		c0-2.4,0.4-4.4,1.3-6.2c0.9-1.8,2-3.3,3.5-4.5c1.5-1.2,3.2-2.1,5.1-2.7c1.9-0.6,3.9-0.9,6-0.9c1.6,0,3.1,0.1,4.6,0.5
		c1.5,0.3,2.9,0.7,4.3,1.1c1.4,0.5,2.7,1,3.9,1.5c1.2,0.5,2.3,1.1,3.2,1.5L120,364.4z"/>
	<path d="M164.4,360.6h-12.2V393h-11.7v-32.4h-12.3v-10.2h36.2V360.6z"/>
	<path d="M175.8,350.4h10.7l14.8,42.6h-11.9l-2.6-8.3h-11.3L173,393H161L175.8,350.4z M185,376.9l-3.8-13.2l-4,13.2H185z"/>
	<path d="M234.1,360.6h-12.2V393h-11.7v-32.4h-12.3v-10.2h36.2V360.6z"/>
	<path d="M238.4,393v-42.6h11.7V393H238.4z M247.7,348.6l-7.2-1.9l3-8.5h10.1L247.7,348.6z"/>
	<path d="M283.2,364.4c-1.2-0.7-2.4-1.4-3.7-1.9c-1.1-0.5-2.3-0.9-3.6-1.4c-1.3-0.4-2.7-0.6-3.9-0.6c-1,0-1.9,0.2-2.5,0.5
		c-0.6,0.3-0.9,0.9-0.9,1.6c0,0.6,0.2,1,0.5,1.4c0.4,0.4,0.9,0.7,1.6,1c0.7,0.3,1.5,0.6,2.5,0.9c1,0.3,2.1,0.6,3.3,1
		c2,0.6,3.7,1.3,5.3,2c1.6,0.7,2.9,1.6,4,2.6c1.1,1,2,2.2,2.6,3.6c0.6,1.4,0.9,3.1,0.9,5.1c0,2.6-0.5,4.7-1.4,6.5
		c-0.9,1.7-2.2,3.1-3.7,4.2c-1.5,1-3.3,1.8-5.2,2.3c-1.9,0.5-3.9,0.7-5.8,0.7c-1.6,0-3.2-0.1-4.8-0.4c-1.6-0.2-3.3-0.6-4.9-1
		c-1.6-0.4-3.2-1-4.7-1.6s-2.9-1.3-4.2-2l5-10.3c1.4,0.9,2.9,1.7,4.4,2.3c1.3,0.6,2.7,1.1,4.3,1.6c1.6,0.5,3.3,0.7,5,0.7
		c1.3,0,2.2-0.2,2.7-0.5c0.5-0.3,0.8-0.8,0.8-1.4c0-0.6-0.3-1.1-0.8-1.5c-0.5-0.4-1.2-0.8-2.1-1.1c-0.9-0.3-1.9-0.6-3-1
		c-1.1-0.3-2.4-0.7-3.6-1.1c-1.9-0.6-3.5-1.3-4.9-2.1c-1.4-0.7-2.5-1.6-3.4-2.5c-0.9-0.9-1.5-2-2-3.2c-0.4-1.2-0.6-2.6-0.6-4.1
		c0-2.4,0.4-4.4,1.3-6.2c0.9-1.8,2-3.3,3.5-4.5c1.5-1.2,3.2-2.1,5.1-2.7c1.9-0.6,3.9-0.9,6-0.9c1.6,0,3.1,0.1,4.6,0.5
		c1.5,0.3,2.9,0.7,4.3,1.1c1.4,0.5,2.7,1,3.9,1.5s2.3,1.1,3.2,1.5L283.2,364.4z"/>
	<path d="M327.6,360.6h-12.2V393h-11.7v-32.4h-12.3v-10.2h36.2V360.6z"/>
	<path d="M331.8,393v-42.6h11.7V393H331.8z"/>
	<path d="M348.5,371.4c0-2.6,0.5-5.2,1.5-7.7c1-2.5,2.4-4.8,4.3-6.8c1.9-2,4.2-3.6,6.8-4.9c2.7-1.2,5.7-1.9,9.2-1.9
		c4.1,0,7.7,0.9,10.7,2.5c3,1.7,5.3,4,6.8,6.8l-8.9,6.4c-0.4-1-0.9-1.9-1.6-2.6c-0.7-0.7-1.4-1.2-2.2-1.6c-0.8-0.4-1.6-0.7-2.5-0.8
		c-0.9-0.2-1.7-0.2-2.5-0.2c-1.7,0-3.1,0.3-4.4,1c-1.2,0.7-2.2,1.5-3,2.6c-0.8,1.1-1.4,2.3-1.7,3.6c-0.4,1.3-0.6,2.7-0.6,4
		c0,1.5,0.2,2.9,0.7,4.3c0.4,1.4,1.1,2.6,1.9,3.6c0.8,1,1.9,1.9,3.1,2.5c1.2,0.6,2.6,0.9,4.1,0.9c0.8,0,1.6-0.1,2.5-0.3
		c0.8-0.2,1.6-0.5,2.4-0.9s1.5-1,2.1-1.6s1.1-1.5,1.5-2.4l9.5,5.7c-0.6,1.6-1.6,3-2.9,4.2c-1.3,1.2-2.8,2.3-4.4,3.1
		c-1.7,0.8-3.4,1.5-5.3,1.9c-1.9,0.4-3.8,0.7-5.5,0.7c-3.2,0-6.1-0.6-8.7-1.9c-2.6-1.3-4.9-2.9-6.8-5c-1.9-2.1-3.4-4.4-4.4-7.1
		C349,376.8,348.5,374.1,348.5,371.4z"/>
	<path d="M402.7,350.4h10.7l14.8,42.6h-11.9l-2.6-8.3h-11.3l-2.5,8.3h-11.9L402.7,350.4z M411.8,376.9l-3.8-13.2l-4,13.2H411.8z"/>
</g>
</svg>
