<?xml version="1.0" encoding="utf-8"?>
<!-- Generator: Adobe Illustrator 19.0.0, SVG Export Plug-In . SVG Version: 6.00 Build 0)  -->
<svg version="1.1" id="Camada_1" xmlns="http://www.w3.org/2000/svg" xmlns:xlink="http://www.w3.org/1999/xlink" x="0px" y="0px"
	 viewBox="0 0 545.5 182.7" style="enable-background:new 0 0 545.5 182.7;" xml:space="preserve">
<style type="text/css">
	.st0{fill:#010002;}
	.st1{fill:#FF3031;}
</style>
<g id="XMLID_7_">
	<path class="st0" d="M139.5,73.5v8.8h-26.2V45.6h25.7v8.8h-15.6v5.2h13.4v8.2h-13.4v5.8H139.5z"/>
	<path class="st0" d="M166.5,57.6c-1-0.6-2.1-1.2-3.2-1.7c-0.9-0.4-2-0.8-3.1-1.2c-1.2-0.4-2.3-0.5-3.4-0.5c-0.9,0-1.6,0.1-2.1,0.4
		c-0.5,0.3-0.8,0.7-0.8,1.4c0,0.5,0.2,0.9,0.5,1.2c0.3,0.3,0.8,0.6,1.3,0.9c0.6,0.3,1.3,0.5,2.1,0.7c0.8,0.2,1.8,0.5,2.9,0.9
		c1.7,0.5,3.2,1.1,4.6,1.7c1.4,0.6,2.5,1.4,3.5,2.2c1,0.8,1.7,1.9,2.2,3.1c0.5,1.2,0.8,2.7,0.8,4.4c0,2.2-0.4,4.1-1.2,5.6
		c-0.8,1.5-1.9,2.7-3.2,3.6c-1.3,0.9-2.8,1.5-4.5,1.9c-1.7,0.4-3.4,0.6-5,0.6c-1.3,0-2.7-0.1-4.1-0.3c-1.4-0.2-2.8-0.5-4.2-0.9
		c-1.4-0.4-2.7-0.8-4-1.3c-1.3-0.5-2.5-1.1-3.6-1.8l4.3-8.8c1.2,0.8,2.5,1.4,3.8,2c1.1,0.5,2.4,1,3.8,1.4c1.4,0.4,2.8,0.6,4.3,0.6
		c1.1,0,1.9-0.1,2.3-0.4c0.4-0.3,0.6-0.7,0.6-1.2c0-0.5-0.2-1-0.6-1.3c-0.4-0.4-1-0.7-1.8-1c-0.8-0.3-1.6-0.6-2.6-0.8
		c-1-0.3-2-0.6-3.1-1c-1.6-0.6-3-1.1-4.2-1.8c-1.2-0.6-2.1-1.4-2.9-2.2c-0.8-0.8-1.3-1.7-1.7-2.8c-0.4-1-0.5-2.2-0.5-3.6
		c0-2,0.4-3.8,1.1-5.4c0.7-1.6,1.8-2.8,3-3.9c1.3-1,2.7-1.8,4.4-2.4c1.6-0.5,3.4-0.8,5.2-0.8c1.3,0,2.7,0.1,3.9,0.4
		c1.3,0.3,2.5,0.6,3.7,1c1.2,0.4,2.3,0.8,3.3,1.3c1,0.5,2,0.9,2.8,1.3L166.5,57.6z"/>
	<path class="st0" d="M204.8,54.4h-10.6v27.9h-10.1V54.4h-10.6v-8.8h31.3V54.4z"/>
	<path class="st0" d="M214.6,45.6h9.2l12.7,36.7h-10.2l-2.2-7.2h-9.8l-2.2,7.2h-10.3L214.6,45.6z M222.5,68.4L219.2,57l-3.4,11.4
		H222.5z"/>
	<path class="st0" d="M264.9,54.4h-10.6v27.9h-10.1V54.4h-10.6v-8.8h31.3V54.4z"/>
	<path class="st0" d="M268.5,82.3V45.6h10.1v36.7H268.5z"/>
	<path class="st0" d="M307.2,57.6c-1-0.6-2.1-1.2-3.2-1.7c-0.9-0.4-2-0.8-3.1-1.2c-1.2-0.4-2.3-0.5-3.4-0.5c-0.9,0-1.6,0.1-2.1,0.4
		c-0.5,0.3-0.8,0.7-0.8,1.4c0,0.5,0.2,0.9,0.5,1.2c0.3,0.3,0.8,0.6,1.3,0.9c0.6,0.3,1.3,0.5,2.1,0.7c0.8,0.2,1.8,0.5,2.9,0.9
		c1.7,0.5,3.2,1.1,4.6,1.7c1.4,0.6,2.5,1.4,3.5,2.2c1,0.8,1.7,1.9,2.2,3.1c0.5,1.2,0.8,2.7,0.8,4.4c0,2.2-0.4,4.1-1.2,5.6
		c-0.8,1.5-1.9,2.7-3.2,3.6c-1.3,0.9-2.8,1.5-4.5,1.9c-1.7,0.4-3.4,0.6-5,0.6c-1.3,0-2.7-0.1-4.1-0.3c-1.4-0.2-2.8-0.5-4.2-0.9
		c-1.4-0.4-2.7-0.8-4-1.3c-1.3-0.5-2.5-1.1-3.6-1.8l4.3-8.8c1.2,0.8,2.5,1.4,3.8,2c1.1,0.5,2.4,1,3.8,1.4c1.4,0.4,2.8,0.6,4.3,0.6
		c1.1,0,1.9-0.1,2.3-0.4c0.4-0.3,0.6-0.7,0.6-1.2c0-0.5-0.2-1-0.6-1.3c-0.4-0.4-1-0.7-1.8-1c-0.8-0.3-1.6-0.6-2.6-0.8
		c-1-0.3-2-0.6-3.1-1c-1.6-0.6-3-1.1-4.2-1.8c-1.2-0.6-2.1-1.4-2.9-2.2c-0.8-0.8-1.3-1.7-1.7-2.8c-0.4-1-0.5-2.2-0.5-3.6
		c0-2,0.4-3.8,1.1-5.4c0.7-1.6,1.8-2.8,3-3.9c1.3-1,2.7-1.8,4.4-2.4c1.6-0.5,3.4-0.8,5.2-0.8c1.3,0,2.7,0.1,3.9,0.4
		c1.3,0.3,2.5,0.6,3.7,1c1.2,0.4,2.3,0.8,3.3,1.3c1,0.5,2,0.9,2.8,1.3L307.2,57.6z"/>
	<path class="st0" d="M345.5,54.4h-10.6v27.9h-10.1V54.4h-10.6v-8.8h31.3V54.4z"/>
	<path class="st0" d="M349.2,82.3V45.6h10.1v36.7H349.2z"/>
	<path class="st0" d="M363.5,63.6c0-2.2,0.4-4.5,1.3-6.6c0.8-2.2,2.1-4.1,3.7-5.8c1.6-1.7,3.6-3.1,5.9-4.2c2.3-1.1,5-1.6,7.9-1.6
		c3.6,0,6.6,0.7,9.2,2.2c2.6,1.5,4.5,3.4,5.8,5.8l-7.7,5.5c-0.3-0.9-0.8-1.6-1.4-2.2c-0.6-0.6-1.2-1.1-1.9-1.4
		c-0.7-0.3-1.4-0.6-2.1-0.7c-0.7-0.1-1.5-0.2-2.1-0.2c-1.4,0-2.7,0.3-3.8,0.9c-1.1,0.6-1.9,1.3-2.6,2.2c-0.7,0.9-1.2,1.9-1.5,3.1
		c-0.3,1.2-0.5,2.3-0.5,3.4c0,1.3,0.2,2.5,0.6,3.7c0.4,1.2,0.9,2.2,1.7,3.1c0.7,0.9,1.6,1.6,2.7,2.1c1.1,0.5,2.2,0.8,3.5,0.8
		c0.7,0,1.4-0.1,2.1-0.2c0.7-0.2,1.4-0.4,2.1-0.8c0.7-0.4,1.3-0.8,1.8-1.4c0.5-0.6,1-1.3,1.3-2.1l8.2,4.9c-0.6,1.3-1.4,2.6-2.5,3.6
		c-1.1,1.1-2.4,2-3.8,2.7c-1.4,0.7-3,1.3-4.6,1.7c-1.6,0.4-3.2,0.6-4.8,0.6c-2.7,0-5.2-0.5-7.5-1.6c-2.3-1.1-4.2-2.5-5.8-4.3
		c-1.6-1.8-2.9-3.8-3.8-6.1C364,68.3,363.5,66,363.5,63.6z"/>
	<path class="st0" d="M410.3,45.6h9.2l12.7,36.7H422l-2.2-7.2H410l-2.2,7.2h-10.3L410.3,45.6z M418.1,68.4L414.9,57l-3.4,11.4H418.1
		z"/>
</g>
<g>
	<path id="XMLID_9_" class="st1" d="M89.3,168.3c0,0,71.9-39,152.5-47.9c0,0-48.2-9.5-148.9,14.5C93,135,86.7,152,89.3,168.3z"/>
	<path id="XMLID_6_" class="st1" d="M25.7,155.7c0,0,71.9-34.1,152.5-43c0,0-50.2-10.7-148.9,9.7C29.3,122.3,23,139.3,25.7,155.7z"
		/>
	<path id="XMLID_2_" class="st1" d="M456.2,168.3c0,0-71.9-39-152.5-47.9c0,0,48.2-9.5,148.9,14.5C452.5,135,458.9,152,456.2,168.3z
		"/>
	<path id="XMLID_1_" class="st1" d="M519.9,155.7c0,0-71.9-34.1-152.5-43c0,0,50.2-10.7,148.9,9.7
		C516.2,122.3,522.6,139.3,519.9,155.7z"/>
</g>
</svg>
