<?xml version="1.0" encoding="utf-8"?>
<!-- Generator: Adobe Illustrator 19.0.0, SVG Export Plug-In . SVG Version: 6.00 Build 0)  -->
<svg version="1.1" id="Camada_1" xmlns="http://www.w3.org/2000/svg" xmlns:xlink="http://www.w3.org/1999/xlink" x="0px" y="0px"
	 viewBox="-134 197.8 241.3 118.2" style="enable-background:new -134 197.8 241.3 118.2;" xml:space="preserve">
<style type="text/css">
	.st0{fill:#FF3031;}
</style>
<path class="st0" d="M-114.5,302.3c0,0,41.6-51.5,182.6-45.5v-4.3h-158c0,0-30.8-1.5-30.8,24.9v24.9H-114.5z"/>
<g>
	<path d="M-106.1,242.8v-32h21.3v4.5H-101v9.5h13.6v4.2H-101v13.8H-106.1z"/>
	<path d="M-80,242.8v-32h13.9c1.4,0,2.8,0.3,4,0.9c1.2,0.6,2.3,1.4,3.1,2.4c0.9,1,1.6,2.1,2,3.3c0.5,1.2,0.7,2.5,0.7,3.8
		c0,1.1-0.2,2.1-0.4,3.1c-0.3,1-0.7,1.9-1.3,2.7c-0.5,0.8-1.2,1.6-2,2.2c-0.8,0.6-1.6,1.1-2.6,1.4l7.5,12.1h-5.7l-6.9-11.1H-75v11.1
		H-80z M-75,227.2h8.8c0.7,0,1.4-0.2,2-0.5s1.1-0.7,1.5-1.3c0.4-0.6,0.7-1.2,1-1.9c0.2-0.7,0.4-1.5,0.4-2.3s-0.1-1.6-0.4-2.3
		c-0.3-0.7-0.7-1.4-1.1-1.9c-0.5-0.5-1-1-1.6-1.3c-0.6-0.3-1.3-0.5-1.9-0.5H-75V227.2z"/>
	<path d="M-28.3,238.3v4.5h-21.9v-32h21.5v4.5h-16.5v9.1H-31v4.2h-14.3v9.8H-28.3z"/>
	<path d="M0.3,215.3h-10.6v27.5h-5.1v-27.5H-26v-4.5H0.3V215.3z"/>
	<path d="M26.5,238.3v4.5H4.6v-32h21.5v4.5H9.6v9.1h14.3v4.2H9.6v9.8H26.5z"/>
	<path d="M50,218.4c-0.3-0.3-0.7-0.7-1.3-1.1c-0.6-0.4-1.2-0.7-2-1.1c-0.8-0.3-1.6-0.6-2.5-0.8c-0.9-0.2-1.9-0.3-2.8-0.3
		c-2.1,0-3.7,0.4-4.7,1.2c-1,0.8-1.5,1.9-1.5,3.2c0,0.8,0.2,1.4,0.5,1.9s0.8,0.9,1.5,1.3c0.7,0.4,1.5,0.7,2.5,1
		c1,0.3,2.1,0.6,3.5,0.9c1.6,0.4,3.1,0.8,4.4,1.3c1.3,0.5,2.4,1.1,3.3,1.8c0.9,0.7,1.6,1.5,2.1,2.5c0.5,1,0.7,2.2,0.7,3.7
		c0,1.6-0.3,3-0.9,4.2c-0.6,1.2-1.5,2.1-2.5,2.9c-1.1,0.7-2.3,1.3-3.7,1.6c-1.4,0.3-2.9,0.5-4.5,0.5c-2.4,0-4.8-0.4-7-1.1
		c-2.3-0.7-4.3-1.8-6.1-3.2l2.3-4.3c0.4,0.4,1,0.8,1.7,1.3c0.7,0.5,1.6,0.9,2.6,1.3c1,0.4,2,0.8,3.2,1c1.1,0.3,2.3,0.4,3.6,0.4
		c2,0,3.5-0.3,4.6-1c1.1-0.7,1.6-1.7,1.6-3.1c0-0.8-0.2-1.5-0.6-2c-0.4-0.5-1-1-1.7-1.4c-0.8-0.4-1.7-0.8-2.7-1.1
		c-1.1-0.3-2.3-0.7-3.7-1c-1.6-0.4-3-0.9-4.2-1.3c-1.2-0.5-2.2-1-2.9-1.7c-0.8-0.7-1.4-1.4-1.8-2.3c-0.4-0.9-0.6-2-0.6-3.2
		c0-1.6,0.3-2.9,0.9-4.2c0.6-1.2,1.4-2.2,2.5-3.1c1-0.8,2.3-1.4,3.7-1.9c1.4-0.4,2.9-0.6,4.6-0.6c2.2,0,4.2,0.3,6,1
		c1.8,0.7,3.4,1.5,4.8,2.6L50,218.4z"/>
</g>
</svg>
