<?xml version="1.0" encoding="utf-8"?>
<!-- Generator: Adobe Illustrator 19.0.0, SVG Export Plug-In . SVG Version: 6.00 Build 0)  -->
<svg version="1.1" id="Camada_1" xmlns="http://www.w3.org/2000/svg" xmlns:xlink="http://www.w3.org/1999/xlink" x="0px" y="0px"
	 viewBox="-184 337.8 241.3 118.2" style="enable-background:new -184 337.8 241.3 118.2;" xml:space="preserve">
<style type="text/css">
	.st0{fill:#FF3031;}
</style>
<path class="st0" d="M-145.6,441.3c0,0,41.6-51.5,182.6-45.5v-4.3h-158c0,0-30.8-1.5-30.8,24.9v24.9H-145.6z"/>
<g>
	<path d="M-143.5,382.3v-20.1h8.3c0.9,0,1.7,0.2,2.4,0.6c0.7,0.4,1.4,0.9,1.9,1.4c0.5,0.6,0.9,1.3,1.2,2c0.3,0.8,0.5,1.5,0.5,2.3
		c0,0.8-0.1,1.6-0.4,2.4c-0.3,0.8-0.7,1.4-1.2,2c-0.5,0.6-1.1,1.1-1.8,1.4c-0.7,0.4-1.5,0.5-2.4,0.5h-6.5v7.4H-143.5z M-141.5,373.1
		h6.4c0.6,0,1.1-0.1,1.6-0.4c0.5-0.3,0.9-0.6,1.2-1c0.3-0.4,0.6-0.9,0.8-1.5c0.2-0.6,0.3-1.1,0.3-1.7c0-0.6-0.1-1.2-0.3-1.8
		c-0.2-0.6-0.5-1-0.9-1.5c-0.4-0.4-0.8-0.7-1.3-1s-1-0.4-1.6-0.4h-6.3V373.1z"/>
	<path d="M-120.9,362.2h1.7l8.4,20.1h-2.1l-2.6-6.3h-9l-2.6,6.3h-2.1L-120.9,362.2z M-116,374.5l-4.1-9.9l-4.1,9.9H-116z"/>
	<path d="M-94.1,379.4c-1.9,2.1-4,3.1-6.5,3.1c-1.4,0-2.6-0.3-3.8-0.9c-1.1-0.6-2.1-1.4-3-2.3c-0.8-1-1.5-2.1-2-3.3
		c-0.5-1.2-0.7-2.5-0.7-3.8c0-1.3,0.2-2.6,0.7-3.9c0.5-1.2,1.1-2.3,1.9-3.2c0.8-0.9,1.8-1.7,2.9-2.2c1.1-0.6,2.4-0.8,3.7-0.8
		c1,0,1.9,0.1,2.7,0.3c0.8,0.2,1.5,0.5,2.2,0.9c0.6,0.4,1.2,0.8,1.6,1.4c0.5,0.5,0.9,1.1,1.2,1.8l-1.5,1c-0.7-1.2-1.5-2.2-2.6-2.7
		c-1.1-0.6-2.3-0.9-3.6-0.9c-1.1,0-2.1,0.2-3,0.7c-0.9,0.5-1.7,1.1-2.3,1.9c-0.6,0.8-1.1,1.7-1.5,2.7c-0.3,1-0.5,2.1-0.5,3.1
		c0,1.1,0.2,2.2,0.6,3.2c0.4,1,0.9,1.9,1.6,2.7c0.7,0.8,1.5,1.4,2.4,1.8c0.9,0.5,1.9,0.7,3,0.7c1.2,0,2.3-0.3,3.3-0.8
		c1-0.5,2.1-1.4,3-2.6v-3.3h-4.5v-1.5h6.1v9.9h-1.7V379.4z"/>
	<path d="M-82.2,362.2h1.7l8.4,20.1h-2.1l-2.6-6.3h-9l-2.6,6.3h-2.1L-82.2,362.2z M-77.3,374.5l-4.1-9.9l-4.1,9.9H-77.3z"/>
	<path d="M-51.4,382.3v-16.5l-7.3,12.8h-1.2l-7.3-12.8v16.5h-2v-20.1h2l7.8,13.8l7.9-13.8h2v20.1H-51.4z"/>
	<path d="M-30.9,380.5v1.8h-13.5v-20.1h13.3v1.8h-11.3v7.3h9.8v1.7h-9.8v7.7H-30.9z"/>
	<path d="M-25.1,365.9v16.4h-2v-20.1h1.5l13.3,16.7v-16.7h2v20.1H-12L-25.1,365.9z"/>
	<path d="M9,363.9H1.9v18.4h-2v-18.4h-7.2v-1.8H9V363.9z"/>
	<path d="M19.2,382.4c-1.4,0-2.7-0.3-3.8-0.9c-1.2-0.6-2.2-1.3-3-2.3c-0.8-1-1.5-2-1.9-3.3s-0.7-2.5-0.7-3.8c0-1.3,0.2-2.6,0.7-3.9
		c0.5-1.2,1.1-2.3,2-3.3c0.9-0.9,1.9-1.7,3-2.3c1.2-0.6,2.4-0.8,3.7-0.8c1.4,0,2.7,0.3,3.8,0.9c1.2,0.6,2.2,1.4,3,2.3
		c0.8,1,1.5,2.1,1.9,3.3c0.5,1.2,0.7,2.5,0.7,3.7c0,1.3-0.2,2.6-0.7,3.9c-0.5,1.2-1.1,2.3-2,3.2c-0.8,0.9-1.8,1.7-3,2.2
		C21.8,382.2,20.6,382.4,19.2,382.4z M11.8,372.2c0,1.1,0.2,2.1,0.5,3.2c0.4,1,0.9,1.9,1.5,2.7c0.7,0.8,1.4,1.4,2.4,1.9
		c0.9,0.5,1.9,0.7,3,0.7c1.1,0,2.2-0.2,3.1-0.7c0.9-0.5,1.7-1.1,2.4-1.9c0.6-0.8,1.1-1.7,1.5-2.7c0.3-1,0.5-2,0.5-3.1
		c0-1.1-0.2-2.1-0.6-3.2c-0.4-1-0.9-1.9-1.5-2.7c-0.7-0.8-1.4-1.4-2.4-1.9c-0.9-0.5-1.9-0.7-3-0.7c-1.1,0-2.2,0.2-3.1,0.7
		c-0.9,0.5-1.7,1.1-2.4,1.9c-0.6,0.8-1.1,1.7-1.5,2.7C11.9,370.2,11.8,371.2,11.8,372.2z"/>
</g>
</svg>
