<?xml version="1.0" encoding="utf-8"?>
<!-- Generator: Adobe Illustrator 19.0.0, SVG Export Plug-In . SVG Version: 6.00 Build 0)  -->
<svg version="1.1" id="Camada_1" xmlns="http://www.w3.org/2000/svg" xmlns:xlink="http://www.w3.org/1999/xlink" x="0px" y="0px"
	 viewBox="0 0 241.3 118.2" style="enable-background:new 0 0 241.3 118.2;" xml:space="preserve">
<style type="text/css">
	.st0{fill:#FF3031;}
</style>
<g>
	<path d="M41.9,15.6l9.6,25.6l9.6-25.6h5.4l-12.8,32h-4.3l-12.8-32H41.9z"/>
	<path d="M92.3,43.1v4.5H70.4v-32h21.5V20H75.4v9.1h14.3v4.2H75.4v9.8H92.3z"/>
	<path d="M102.6,25v22.5h-5v-32h4l18.3,23v-23h5.1v31.9h-4.2L102.6,25z"/>
	<path d="M132,47.5v-32h11.3c2.6,0,4.8,0.4,6.8,1.3c1.9,0.8,3.6,2,4.9,3.4c1.3,1.4,2.3,3.1,2.9,5.1s1,4,1,6.2c0,2.4-0.4,4.6-1.1,6.6
		c-0.7,2-1.8,3.6-3.1,5c-1.4,1.4-3,2.5-4.9,3.2s-4.1,1.1-6.4,1.1H132z M153.8,31.5c0-1.7-0.2-3.2-0.7-4.6c-0.5-1.4-1.1-2.6-2-3.6
		c-0.9-1-2-1.8-3.3-2.4c-1.3-0.6-2.8-0.9-4.4-0.9h-6.3v23h6.3c1.7,0,3.2-0.3,4.5-0.9c1.3-0.6,2.4-1.4,3.3-2.4c0.9-1,1.6-2.3,2-3.7
		C153.6,34.7,153.8,33.1,153.8,31.5z"/>
	<path d="M172.5,15.6h4.4l12.6,32h-5.3l-3.4-8.7h-12.3l-3.3,8.7h-5.4L172.5,15.6z M179.9,35.1l-5.1-13.7l-5.3,13.7H179.9z"/>
	<path d="M211.9,23.1c-0.3-0.3-0.7-0.7-1.3-1.1c-0.6-0.4-1.2-0.7-2-1.1s-1.6-0.6-2.5-0.8c-0.9-0.2-1.9-0.3-2.8-0.3
		c-2.1,0-3.7,0.4-4.7,1.2c-1,0.8-1.5,1.9-1.5,3.2c0,0.8,0.2,1.4,0.5,1.9c0.3,0.5,0.8,0.9,1.5,1.3c0.7,0.4,1.5,0.7,2.5,1
		c1,0.3,2.1,0.6,3.5,0.9c1.6,0.4,3.1,0.8,4.4,1.3c1.3,0.5,2.4,1.1,3.3,1.8c0.9,0.7,1.6,1.5,2.1,2.5c0.5,1,0.7,2.2,0.7,3.7
		c0,1.6-0.3,3-0.9,4.2c-0.6,1.2-1.5,2.1-2.5,2.9c-1.1,0.7-2.3,1.3-3.7,1.6c-1.4,0.3-2.9,0.5-4.5,0.5c-2.4,0-4.8-0.4-7-1.1
		c-2.3-0.7-4.3-1.8-6.1-3.2l2.3-4.3c0.4,0.4,1,0.8,1.7,1.3c0.7,0.5,1.6,0.9,2.6,1.3c1,0.4,2,0.8,3.2,1c1.1,0.3,2.3,0.4,3.6,0.4
		c2,0,3.5-0.3,4.6-1c1.1-0.7,1.6-1.7,1.6-3.1c0-0.8-0.2-1.5-0.6-2c-0.4-0.5-1-1-1.7-1.4c-0.8-0.4-1.7-0.8-2.7-1.1
		c-1.1-0.3-2.3-0.7-3.7-1c-1.6-0.4-3-0.9-4.2-1.3c-1.2-0.5-2.2-1-2.9-1.7c-0.8-0.7-1.4-1.4-1.8-2.3c-0.4-0.9-0.6-2-0.6-3.2
		c0-1.6,0.3-2.9,0.9-4.2c0.6-1.2,1.4-2.2,2.5-3.1c1-0.8,2.3-1.4,3.7-1.9c1.4-0.4,2.9-0.6,4.6-0.6c2.2,0,4.2,0.3,6,1
		c1.8,0.7,3.4,1.5,4.8,2.6L211.9,23.1z"/>
</g>
<path class="st0" d="M38.4,103.5C38.4,103.5,80,52,221,58v-4.3H63c0,0-30.8-1.5-30.8,24.9v24.9H38.4z"/>
</svg>
